<?xml version="1.0" encoding="utf-8" standalone="no"?>
<!DOCTYPE svg PUBLIC "-//W3C//DTD SVG 1.1//EN"
  "http://www.w3.org/Graphics/SVG/1.1/DTD/svg11.dtd">
<svg xmlns:xlink="http://www.w3.org/1999/xlink" width="720pt" height="432pt" viewBox="0 0 720 432" xmlns="http://www.w3.org/2000/svg" version="1.1">
 <metadata>
  <rdf:RDF xmlns:dc="http://purl.org/dc/elements/1.1/" xmlns:cc="http://creativecommons.org/ns#" xmlns:rdf="http://www.w3.org/1999/02/22-rdf-syntax-ns#">
   <cc:Work>
    <dc:type rdf:resource="http://purl.org/dc/dcmitype/StillImage"/>
    <dc:date>2025-08-26T02:40:26.097865</dc:date>
    <dc:format>image/svg+xml</dc:format>
    <dc:creator>
     <cc:Agent>
      <dc:title>Matplotlib v3.10.0, https://matplotlib.org/</dc:title>
     </cc:Agent>
    </dc:creator>
   </cc:Work>
  </rdf:RDF>
 </metadata>
 <defs>
  <style type="text/css">*{stroke-linejoin: round; stroke-linecap: butt}</style>
 </defs>
 <g id="figure_1">
  <g id="patch_1">
   <path d="M 0 432 
L 720 432 
L 720 0 
L 0 0 
z
" style="fill: #ffffff"/>
  </g>
  <g id="axes_1">
   <g id="patch_2">
    <path d="M 92.9 379.96 
L 700.92 379.96 
L 700.92 30.48 
L 92.9 30.48 
z
" style="fill: #ffffff"/>
   </g>
   <g id="patch_3">
    <path d="M 92.9 66286.924556 
L 98.9802 66286.924556 
L 98.9802 66286.924556 
L 92.9 66286.924556 
z
" clip-path="url(#p3973be14a7)" style="fill: #808080"/>
   </g>
   <g id="patch_4">
    <path d="M 98.9802 66286.924556 
L 105.0604 66286.924556 
L 105.0604 66286.924556 
L 98.9802 66286.924556 
z
" clip-path="url(#p3973be14a7)" style="fill: #808080"/>
   </g>
   <g id="patch_5">
    <path d="M 105.0604 66286.924556 
L 111.1406 66286.924556 
L 111.1406 66286.924556 
L 105.0604 66286.924556 
z
" clip-path="url(#p3973be14a7)" style="fill: #808080"/>
   </g>
   <g id="patch_6">
    <path d="M 111.1406 66286.924556 
L 117.2208 66286.924556 
L 117.2208 66286.924556 
L 111.1406 66286.924556 
z
" clip-path="url(#p3973be14a7)" style="fill: #808080"/>
   </g>
   <g id="patch_7">
    <path d="M 117.2208 66286.924556 
L 123.301 66286.924556 
L 123.301 66286.924556 
L 117.2208 66286.924556 
z
" clip-path="url(#p3973be14a7)" style="fill: #808080"/>
   </g>
   <g id="patch_8">
    <path d="M 123.301 66286.924556 
L 129.3812 66286.924556 
L 129.3812 66286.924556 
L 123.301 66286.924556 
z
" clip-path="url(#p3973be14a7)" style="fill: #808080"/>
   </g>
   <g id="patch_9">
    <path d="M 129.3812 66286.924556 
L 135.4614 66286.924556 
L 135.4614 66286.924556 
L 129.3812 66286.924556 
z
" clip-path="url(#p3973be14a7)" style="fill: #808080"/>
   </g>
   <g id="patch_10">
    <path d="M 135.4614 66286.924556 
L 141.5416 66286.924556 
L 141.5416 66286.924556 
L 135.4614 66286.924556 
z
" clip-path="url(#p3973be14a7)" style="fill: #808080"/>
   </g>
   <g id="patch_11">
    <path d="M 141.5416 66286.924556 
L 147.6218 66286.924556 
L 147.6218 66286.924556 
L 141.5416 66286.924556 
z
" clip-path="url(#p3973be14a7)" style="fill: #808080"/>
   </g>
   <g id="patch_12">
    <path d="M 147.6218 66286.924556 
L 153.702 66286.924556 
L 153.702 66286.924556 
L 147.6218 66286.924556 
z
" clip-path="url(#p3973be14a7)" style="fill: #808080"/>
   </g>
   <g id="patch_13">
    <path d="M 153.702 66286.924556 
L 159.7822 66286.924556 
L 159.7822 66286.924556 
L 153.702 66286.924556 
z
" clip-path="url(#p3973be14a7)" style="fill: #808080"/>
   </g>
   <g id="patch_14">
    <path d="M 159.7822 66286.924556 
L 165.8624 66286.924556 
L 165.8624 66286.924556 
L 159.7822 66286.924556 
z
" clip-path="url(#p3973be14a7)" style="fill: #808080"/>
   </g>
   <g id="patch_15">
    <path d="M 165.8624 66286.924556 
L 171.9426 66286.924556 
L 171.9426 66286.924556 
L 165.8624 66286.924556 
z
" clip-path="url(#p3973be14a7)" style="fill: #808080"/>
   </g>
   <g id="patch_16">
    <path d="M 171.9426 66286.924556 
L 178.0228 66286.924556 
L 178.0228 66286.924556 
L 171.9426 66286.924556 
z
" clip-path="url(#p3973be14a7)" style="fill: #808080"/>
   </g>
   <g id="patch_17">
    <path d="M 178.0228 66286.924556 
L 184.103 66286.924556 
L 184.103 66286.924556 
L 178.0228 66286.924556 
z
" clip-path="url(#p3973be14a7)" style="fill: #808080"/>
   </g>
   <g id="patch_18">
    <path d="M 184.103 66286.924556 
L 190.1832 66286.924556 
L 190.1832 66286.924556 
L 184.103 66286.924556 
z
" clip-path="url(#p3973be14a7)" style="fill: #808080"/>
   </g>
   <g id="patch_19">
    <path d="M 190.1832 66286.924556 
L 196.2634 66286.924556 
L 196.2634 66286.924556 
L 190.1832 66286.924556 
z
" clip-path="url(#p3973be14a7)" style="fill: #808080"/>
   </g>
   <g id="patch_20">
    <path d="M 196.2634 66286.924556 
L 202.3436 66286.924556 
L 202.3436 66286.924556 
L 196.2634 66286.924556 
z
" clip-path="url(#p3973be14a7)" style="fill: #808080"/>
   </g>
   <g id="patch_21">
    <path d="M 202.3436 66286.924556 
L 208.4238 66286.924556 
L 208.4238 66286.924556 
L 202.3436 66286.924556 
z
" clip-path="url(#p3973be14a7)" style="fill: #808080"/>
   </g>
   <g id="patch_22">
    <path d="M 208.4238 66286.924556 
L 214.504 66286.924556 
L 214.504 66286.924556 
L 208.4238 66286.924556 
z
" clip-path="url(#p3973be14a7)" style="fill: #808080"/>
   </g>
   <g id="patch_23">
    <path d="M 214.504 66286.924556 
L 220.5842 66286.924556 
L 220.5842 66286.924556 
L 214.504 66286.924556 
z
" clip-path="url(#p3973be14a7)" style="fill: #808080"/>
   </g>
   <g id="patch_24">
    <path d="M 220.5842 66286.924556 
L 226.6644 66286.924556 
L 226.6644 66286.924556 
L 220.5842 66286.924556 
z
" clip-path="url(#p3973be14a7)" style="fill: #808080"/>
   </g>
   <g id="patch_25">
    <path d="M 226.6644 66286.924556 
L 232.7446 66286.924556 
L 232.7446 66286.924556 
L 226.6644 66286.924556 
z
" clip-path="url(#p3973be14a7)" style="fill: #808080"/>
   </g>
   <g id="patch_26">
    <path d="M 232.7446 66286.924556 
L 238.8248 66286.924556 
L 238.8248 66286.924556 
L 232.7446 66286.924556 
z
" clip-path="url(#p3973be14a7)" style="fill: #808080"/>
   </g>
   <g id="patch_27">
    <path d="M 238.8248 66286.924556 
L 244.905 66286.924556 
L 244.905 66286.924556 
L 238.8248 66286.924556 
z
" clip-path="url(#p3973be14a7)" style="fill: #808080"/>
   </g>
   <g id="patch_28">
    <path d="M 244.905 66286.924556 
L 250.9852 66286.924556 
L 250.9852 66286.924556 
L 244.905 66286.924556 
z
" clip-path="url(#p3973be14a7)" style="fill: #808080"/>
   </g>
   <g id="patch_29">
    <path d="M 250.9852 66286.924556 
L 257.0654 66286.924556 
L 257.0654 66286.924556 
L 250.9852 66286.924556 
z
" clip-path="url(#p3973be14a7)" style="fill: #808080"/>
   </g>
   <g id="patch_30">
    <path d="M 257.0654 66286.924556 
L 263.1456 66286.924556 
L 263.1456 66286.924556 
L 257.0654 66286.924556 
z
" clip-path="url(#p3973be14a7)" style="fill: #808080"/>
   </g>
   <g id="patch_31">
    <path d="M 263.1456 66286.924556 
L 269.2258 66286.924556 
L 269.2258 66286.924556 
L 263.1456 66286.924556 
z
" clip-path="url(#p3973be14a7)" style="fill: #808080"/>
   </g>
   <g id="patch_32">
    <path d="M 269.2258 66286.924556 
L 275.306 66286.924556 
L 275.306 66286.924556 
L 269.2258 66286.924556 
z
" clip-path="url(#p3973be14a7)" style="fill: #808080"/>
   </g>
   <g id="patch_33">
    <path d="M 275.306 66286.924556 
L 281.3862 66286.924556 
L 281.3862 66286.924556 
L 275.306 66286.924556 
z
" clip-path="url(#p3973be14a7)" style="fill: #808080"/>
   </g>
   <g id="patch_34">
    <path d="M 281.3862 66286.924556 
L 287.4664 66286.924556 
L 287.4664 66286.924556 
L 281.3862 66286.924556 
z
" clip-path="url(#p3973be14a7)" style="fill: #808080"/>
   </g>
   <g id="patch_35">
    <path d="M 287.4664 66286.924556 
L 293.5466 66286.924556 
L 293.5466 66286.924556 
L 287.4664 66286.924556 
z
" clip-path="url(#p3973be14a7)" style="fill: #808080"/>
   </g>
   <g id="patch_36">
    <path d="M 293.5466 66286.924556 
L 299.6268 66286.924556 
L 299.6268 66286.924556 
L 293.5466 66286.924556 
z
" clip-path="url(#p3973be14a7)" style="fill: #808080"/>
   </g>
   <g id="patch_37">
    <path d="M 299.6268 66286.924556 
L 305.707 66286.924556 
L 305.707 66286.924556 
L 299.6268 66286.924556 
z
" clip-path="url(#p3973be14a7)" style="fill: #808080"/>
   </g>
   <g id="patch_38">
    <path d="M 305.707 66286.924556 
L 311.7872 66286.924556 
L 311.7872 66286.924556 
L 305.707 66286.924556 
z
" clip-path="url(#p3973be14a7)" style="fill: #808080"/>
   </g>
   <g id="patch_39">
    <path d="M 311.7872 66286.924556 
L 317.8674 66286.924556 
L 317.8674 66286.924556 
L 311.7872 66286.924556 
z
" clip-path="url(#p3973be14a7)" style="fill: #808080"/>
   </g>
   <g id="patch_40">
    <path d="M 317.8674 66286.924556 
L 323.9476 66286.924556 
L 323.9476 66286.924556 
L 317.8674 66286.924556 
z
" clip-path="url(#p3973be14a7)" style="fill: #808080"/>
   </g>
   <g id="patch_41">
    <path d="M 323.9476 66286.924556 
L 330.0278 66286.924556 
L 330.0278 360.114053 
L 323.9476 360.114053 
z
" clip-path="url(#p3973be14a7)" style="fill: #808080"/>
   </g>
   <g id="patch_42">
    <path d="M 330.0278 66286.924556 
L 336.108 66286.924556 
L 336.108 66286.924556 
L 330.0278 66286.924556 
z
" clip-path="url(#p3973be14a7)" style="fill: #808080"/>
   </g>
   <g id="patch_43">
    <path d="M 336.108 66286.924556 
L 342.1882 66286.924556 
L 342.1882 66286.924556 
L 336.108 66286.924556 
z
" clip-path="url(#p3973be14a7)" style="fill: #808080"/>
   </g>
   <g id="patch_44">
    <path d="M 342.1882 66286.924556 
L 348.2684 66286.924556 
L 348.2684 66286.924556 
L 342.1882 66286.924556 
z
" clip-path="url(#p3973be14a7)" style="fill: #808080"/>
   </g>
   <g id="patch_45">
    <path d="M 348.2684 66286.924556 
L 354.3486 66286.924556 
L 354.3486 66286.924556 
L 348.2684 66286.924556 
z
" clip-path="url(#p3973be14a7)" style="fill: #808080"/>
   </g>
   <g id="patch_46">
    <path d="M 354.3486 66286.924556 
L 360.4288 66286.924556 
L 360.4288 360.114053 
L 354.3486 360.114053 
z
" clip-path="url(#p3973be14a7)" style="fill: #808080"/>
   </g>
   <g id="patch_47">
    <path d="M 360.4288 66286.924556 
L 366.509 66286.924556 
L 366.509 66286.924556 
L 360.4288 66286.924556 
z
" clip-path="url(#p3973be14a7)" style="fill: #808080"/>
   </g>
   <g id="patch_48">
    <path d="M 366.509 66286.924556 
L 372.5892 66286.924556 
L 372.5892 66286.924556 
L 366.509 66286.924556 
z
" clip-path="url(#p3973be14a7)" style="fill: #808080"/>
   </g>
   <g id="patch_49">
    <path d="M 372.5892 66286.924556 
L 378.6694 66286.924556 
L 378.6694 66286.924556 
L 372.5892 66286.924556 
z
" clip-path="url(#p3973be14a7)" style="fill: #808080"/>
   </g>
   <g id="patch_50">
    <path d="M 378.6694 66286.924556 
L 384.7496 66286.924556 
L 384.7496 66286.924556 
L 378.6694 66286.924556 
z
" clip-path="url(#p3973be14a7)" style="fill: #808080"/>
   </g>
   <g id="patch_51">
    <path d="M 384.7496 66286.924556 
L 390.8298 66286.924556 
L 390.8298 360.114053 
L 384.7496 360.114053 
z
" clip-path="url(#p3973be14a7)" style="fill: #808080"/>
   </g>
   <g id="patch_52">
    <path d="M 390.8298 66286.924556 
L 396.91 66286.924556 
L 396.91 328.65897 
L 390.8298 328.65897 
z
" clip-path="url(#p3973be14a7)" style="fill: #808080"/>
   </g>
   <g id="patch_53">
    <path d="M 396.91 66286.924556 
L 402.9902 66286.924556 
L 402.9902 320.422158 
L 396.91 320.422158 
z
" clip-path="url(#p3973be14a7)" style="fill: #808080"/>
   </g>
   <g id="patch_54">
    <path d="M 402.9902 66286.924556 
L 409.0704 66286.924556 
L 409.0704 304.399434 
L 402.9902 304.399434 
z
" clip-path="url(#p3973be14a7)" style="fill: #808080"/>
   </g>
   <g id="patch_55">
    <path d="M 409.0704 66286.924556 
L 415.1506 66286.924556 
L 415.1506 286.67532 
L 409.0704 286.67532 
z
" clip-path="url(#p3973be14a7)" style="fill: #808080"/>
   </g>
   <g id="patch_56">
    <path d="M 415.1506 66286.924556 
L 421.2308 66286.924556 
L 421.2308 253.098404 
L 415.1506 253.098404 
z
" clip-path="url(#p3973be14a7)" style="fill: #808080"/>
   </g>
   <g id="patch_57">
    <path d="M 421.2308 66286.924556 
L 427.311 66286.924556 
L 427.311 207.154208 
L 421.2308 207.154208 
z
" clip-path="url(#p3973be14a7)" style="fill: #808080"/>
   </g>
   <g id="patch_58">
    <path d="M 427.311 66286.924556 
L 433.3912 66286.924556 
L 433.3912 194.163356 
L 427.311 194.163356 
z
" clip-path="url(#p3973be14a7)" style="fill: #808080"/>
   </g>
   <g id="patch_59">
    <path d="M 433.3912 66286.924556 
L 439.4714 66286.924556 
L 439.4714 198.073738 
L 433.3912 198.073738 
z
" clip-path="url(#p3973be14a7)" style="fill: #808080"/>
   </g>
   <g id="patch_60">
    <path d="M 439.4714 66286.924556 
L 445.5516 66286.924556 
L 445.5516 202.956709 
L 439.4714 202.956709 
z
" clip-path="url(#p3973be14a7)" style="fill: #808080"/>
   </g>
   <g id="patch_61">
    <path d="M 445.5516 66286.924556 
L 451.6318 66286.924556 
L 451.6318 206.477305 
L 445.5516 206.477305 
z
" clip-path="url(#p3973be14a7)" style="fill: #808080"/>
   </g>
   <g id="patch_62">
    <path d="M 451.6318 66286.924556 
L 457.712 66286.924556 
L 457.712 215.897788 
L 451.6318 215.897788 
z
" clip-path="url(#p3973be14a7)" style="fill: #808080"/>
   </g>
   <g id="patch_63">
    <path d="M 457.712 66286.924556 
L 463.7922 66286.924556 
L 463.7922 216.084315 
L 457.712 216.084315 
z
" clip-path="url(#p3973be14a7)" style="fill: #808080"/>
   </g>
   <g id="patch_64">
    <path d="M 463.7922 66286.924556 
L 469.8724 66286.924556 
L 469.8724 212.566811 
L 463.7922 212.566811 
z
" clip-path="url(#p3973be14a7)" style="fill: #808080"/>
   </g>
   <g id="patch_65">
    <path d="M 469.8724 66286.924556 
L 475.9526 66286.924556 
L 475.9526 209.732798 
L 469.8724 209.732798 
z
" clip-path="url(#p3973be14a7)" style="fill: #808080"/>
   </g>
   <g id="patch_66">
    <path d="M 475.9526 66286.924556 
L 482.0328 66286.924556 
L 482.0328 207.429514 
L 475.9526 207.429514 
z
" clip-path="url(#p3973be14a7)" style="fill: #808080"/>
   </g>
   <g id="patch_67">
    <path d="M 482.0328 66286.924556 
L 488.113 66286.924556 
L 488.113 223.765155 
L 482.0328 223.765155 
z
" clip-path="url(#p3973be14a7)" style="fill: #808080"/>
   </g>
   <g id="patch_68">
    <path d="M 488.113 66286.924556 
L 494.1932 66286.924556 
L 494.1932 244.354824 
L 488.113 244.354824 
z
" clip-path="url(#p3973be14a7)" style="fill: #808080"/>
   </g>
   <g id="patch_69">
    <path d="M 494.1932 66286.924556 
L 500.2734 66286.924556 
L 500.2734 274.341295 
L 494.1932 274.341295 
z
" clip-path="url(#p3973be14a7)" style="fill: #808080"/>
   </g>
   <g id="patch_70">
    <path d="M 500.2734 66286.924556 
L 506.3536 66286.924556 
L 506.3536 308.813022 
L 500.2734 308.813022 
z
" clip-path="url(#p3973be14a7)" style="fill: #808080"/>
   </g>
   <g id="patch_71">
    <path d="M 506.3536 66286.924556 
L 512.4338 66286.924556 
L 512.4338 340.268105 
L 506.3536 340.268105 
z
" clip-path="url(#p3973be14a7)" style="fill: #808080"/>
   </g>
   <g id="patch_72">
    <path d="M 512.4338 66286.924556 
L 518.514 66286.924556 
L 518.514 360.114053 
L 512.4338 360.114053 
z
" clip-path="url(#p3973be14a7)" style="fill: #808080"/>
   </g>
   <g id="patch_73">
    <path d="M 518.514 66286.924556 
L 524.5942 66286.924556 
L 524.5942 66286.924556 
L 518.514 66286.924556 
z
" clip-path="url(#p3973be14a7)" style="fill: #808080"/>
   </g>
   <g id="patch_74">
    <path d="M 524.5942 66286.924556 
L 530.6744 66286.924556 
L 530.6744 66286.924556 
L 524.5942 66286.924556 
z
" clip-path="url(#p3973be14a7)" style="fill: #808080"/>
   </g>
   <g id="patch_75">
    <path d="M 530.6744 66286.924556 
L 536.7546 66286.924556 
L 536.7546 66286.924556 
L 530.6744 66286.924556 
z
" clip-path="url(#p3973be14a7)" style="fill: #808080"/>
   </g>
   <g id="patch_76">
    <path d="M 536.7546 66286.924556 
L 542.8348 66286.924556 
L 542.8348 66286.924556 
L 536.7546 66286.924556 
z
" clip-path="url(#p3973be14a7)" style="fill: #808080"/>
   </g>
   <g id="patch_77">
    <path d="M 542.8348 66286.924556 
L 548.915 66286.924556 
L 548.915 66286.924556 
L 542.8348 66286.924556 
z
" clip-path="url(#p3973be14a7)" style="fill: #808080"/>
   </g>
   <g id="patch_78">
    <path d="M 548.915 66286.924556 
L 554.9952 66286.924556 
L 554.9952 66286.924556 
L 548.915 66286.924556 
z
" clip-path="url(#p3973be14a7)" style="fill: #808080"/>
   </g>
   <g id="patch_79">
    <path d="M 554.9952 66286.924556 
L 561.0754 66286.924556 
L 561.0754 66286.924556 
L 554.9952 66286.924556 
z
" clip-path="url(#p3973be14a7)" style="fill: #808080"/>
   </g>
   <g id="patch_80">
    <path d="M 561.0754 66286.924556 
L 567.1556 66286.924556 
L 567.1556 66286.924556 
L 561.0754 66286.924556 
z
" clip-path="url(#p3973be14a7)" style="fill: #808080"/>
   </g>
   <g id="patch_81">
    <path d="M 567.1556 66286.924556 
L 573.2358 66286.924556 
L 573.2358 66286.924556 
L 567.1556 66286.924556 
z
" clip-path="url(#p3973be14a7)" style="fill: #808080"/>
   </g>
   <g id="patch_82">
    <path d="M 573.2358 66286.924556 
L 579.316 66286.924556 
L 579.316 66286.924556 
L 573.2358 66286.924556 
z
" clip-path="url(#p3973be14a7)" style="fill: #808080"/>
   </g>
   <g id="patch_83">
    <path d="M 579.316 66286.924556 
L 585.3962 66286.924556 
L 585.3962 66286.924556 
L 579.316 66286.924556 
z
" clip-path="url(#p3973be14a7)" style="fill: #808080"/>
   </g>
   <g id="patch_84">
    <path d="M 585.3962 66286.924556 
L 591.4764 66286.924556 
L 591.4764 66286.924556 
L 585.3962 66286.924556 
z
" clip-path="url(#p3973be14a7)" style="fill: #808080"/>
   </g>
   <g id="patch_85">
    <path d="M 591.4764 66286.924556 
L 597.5566 66286.924556 
L 597.5566 66286.924556 
L 591.4764 66286.924556 
z
" clip-path="url(#p3973be14a7)" style="fill: #808080"/>
   </g>
   <g id="patch_86">
    <path d="M 597.5566 66286.924556 
L 603.6368 66286.924556 
L 603.6368 66286.924556 
L 597.5566 66286.924556 
z
" clip-path="url(#p3973be14a7)" style="fill: #808080"/>
   </g>
   <g id="patch_87">
    <path d="M 603.6368 66286.924556 
L 609.717 66286.924556 
L 609.717 66286.924556 
L 603.6368 66286.924556 
z
" clip-path="url(#p3973be14a7)" style="fill: #808080"/>
   </g>
   <g id="patch_88">
    <path d="M 609.717 66286.924556 
L 615.7972 66286.924556 
L 615.7972 66286.924556 
L 609.717 66286.924556 
z
" clip-path="url(#p3973be14a7)" style="fill: #808080"/>
   </g>
   <g id="patch_89">
    <path d="M 615.7972 66286.924556 
L 621.8774 66286.924556 
L 621.8774 66286.924556 
L 615.7972 66286.924556 
z
" clip-path="url(#p3973be14a7)" style="fill: #808080"/>
   </g>
   <g id="patch_90">
    <path d="M 621.8774 66286.924556 
L 627.9576 66286.924556 
L 627.9576 66286.924556 
L 621.8774 66286.924556 
z
" clip-path="url(#p3973be14a7)" style="fill: #808080"/>
   </g>
   <g id="patch_91">
    <path d="M 627.9576 66286.924556 
L 634.0378 66286.924556 
L 634.0378 66286.924556 
L 627.9576 66286.924556 
z
" clip-path="url(#p3973be14a7)" style="fill: #808080"/>
   </g>
   <g id="patch_92">
    <path d="M 634.0378 66286.924556 
L 640.118 66286.924556 
L 640.118 66286.924556 
L 634.0378 66286.924556 
z
" clip-path="url(#p3973be14a7)" style="fill: #808080"/>
   </g>
   <g id="patch_93">
    <path d="M 640.118 66286.924556 
L 646.1982 66286.924556 
L 646.1982 66286.924556 
L 640.118 66286.924556 
z
" clip-path="url(#p3973be14a7)" style="fill: #808080"/>
   </g>
   <g id="patch_94">
    <path d="M 646.1982 66286.924556 
L 652.2784 66286.924556 
L 652.2784 66286.924556 
L 646.1982 66286.924556 
z
" clip-path="url(#p3973be14a7)" style="fill: #808080"/>
   </g>
   <g id="patch_95">
    <path d="M 652.2784 66286.924556 
L 658.3586 66286.924556 
L 658.3586 66286.924556 
L 652.2784 66286.924556 
z
" clip-path="url(#p3973be14a7)" style="fill: #808080"/>
   </g>
   <g id="patch_96">
    <path d="M 658.3586 66286.924556 
L 664.4388 66286.924556 
L 664.4388 66286.924556 
L 658.3586 66286.924556 
z
" clip-path="url(#p3973be14a7)" style="fill: #808080"/>
   </g>
   <g id="patch_97">
    <path d="M 664.4388 66286.924556 
L 670.519 66286.924556 
L 670.519 66286.924556 
L 664.4388 66286.924556 
z
" clip-path="url(#p3973be14a7)" style="fill: #808080"/>
   </g>
   <g id="patch_98">
    <path d="M 670.519 66286.924556 
L 676.5992 66286.924556 
L 676.5992 66286.924556 
L 670.519 66286.924556 
z
" clip-path="url(#p3973be14a7)" style="fill: #808080"/>
   </g>
   <g id="patch_99">
    <path d="M 676.5992 66286.924556 
L 682.6794 66286.924556 
L 682.6794 66286.924556 
L 676.5992 66286.924556 
z
" clip-path="url(#p3973be14a7)" style="fill: #808080"/>
   </g>
   <g id="patch_100">
    <path d="M 682.6794 66286.924556 
L 688.7596 66286.924556 
L 688.7596 66286.924556 
L 682.6794 66286.924556 
z
" clip-path="url(#p3973be14a7)" style="fill: #808080"/>
   </g>
   <g id="patch_101">
    <path d="M 688.7596 66286.924556 
L 694.8398 66286.924556 
L 694.8398 66286.924556 
L 688.7596 66286.924556 
z
" clip-path="url(#p3973be14a7)" style="fill: #808080"/>
   </g>
   <g id="matplotlib.axis_1">
    <g id="xtick_1">
     <g id="line2d_1">
      <defs>
       <path id="m1b0269f202" d="M 0 0 
L 0 3.5 
" style="stroke: #000000; stroke-width: 0.8"/>
      </defs>
      <g>
       <use xlink:href="#m1b0269f202" x="92.9" y="379.96" style="stroke: #000000; stroke-width: 0.8"/>
      </g>
     </g>
     <g id="text_1">
      <!-- −10 -->
      <g transform="translate(79.181953 396.837969) scale(0.13 -0.13)">
       <defs>
        <path id="DejaVuSans-2212" d="M 678 2272 
L 4684 2272 
L 4684 1741 
L 678 1741 
L 678 2272 
z
" transform="scale(0.015625)"/>
        <path id="DejaVuSans-31" d="M 794 531 
L 1825 531 
L 1825 4091 
L 703 3866 
L 703 4441 
L 1819 4666 
L 2450 4666 
L 2450 531 
L 3481 531 
L 3481 0 
L 794 0 
L 794 531 
z
" transform="scale(0.015625)"/>
        <path id="DejaVuSans-30" d="M 2034 4250 
Q 1547 4250 1301 3770 
Q 1056 3291 1056 2328 
Q 1056 1369 1301 889 
Q 1547 409 2034 409 
Q 2525 409 2770 889 
Q 3016 1369 3016 2328 
Q 3016 3291 2770 3770 
Q 2525 4250 2034 4250 
z
M 2034 4750 
Q 2819 4750 3233 4129 
Q 3647 3509 3647 2328 
Q 3647 1150 3233 529 
Q 2819 -91 2034 -91 
Q 1250 -91 836 529 
Q 422 1150 422 2328 
Q 422 3509 836 4129 
Q 1250 4750 2034 4750 
z
" transform="scale(0.015625)"/>
       </defs>
       <use xlink:href="#DejaVuSans-2212"/>
       <use xlink:href="#DejaVuSans-31" transform="translate(83.789062 0)"/>
       <use xlink:href="#DejaVuSans-30" transform="translate(147.412109 0)"/>
      </g>
     </g>
    </g>
    <g id="xtick_2">
     <g id="line2d_2">
      <g>
       <use xlink:href="#m1b0269f202" x="153.702" y="379.96" style="stroke: #000000; stroke-width: 0.8"/>
      </g>
     </g>
     <g id="text_2">
      <!-- −8 -->
      <g transform="translate(144.119578 396.837969) scale(0.13 -0.13)">
       <defs>
        <path id="DejaVuSans-38" d="M 2034 2216 
Q 1584 2216 1326 1975 
Q 1069 1734 1069 1313 
Q 1069 891 1326 650 
Q 1584 409 2034 409 
Q 2484 409 2743 651 
Q 3003 894 3003 1313 
Q 3003 1734 2745 1975 
Q 2488 2216 2034 2216 
z
M 1403 2484 
Q 997 2584 770 2862 
Q 544 3141 544 3541 
Q 544 4100 942 4425 
Q 1341 4750 2034 4750 
Q 2731 4750 3128 4425 
Q 3525 4100 3525 3541 
Q 3525 3141 3298 2862 
Q 3072 2584 2669 2484 
Q 3125 2378 3379 2068 
Q 3634 1759 3634 1313 
Q 3634 634 3220 271 
Q 2806 -91 2034 -91 
Q 1263 -91 848 271 
Q 434 634 434 1313 
Q 434 1759 690 2068 
Q 947 2378 1403 2484 
z
M 1172 3481 
Q 1172 3119 1398 2916 
Q 1625 2713 2034 2713 
Q 2441 2713 2670 2916 
Q 2900 3119 2900 3481 
Q 2900 3844 2670 4047 
Q 2441 4250 2034 4250 
Q 1625 4250 1398 4047 
Q 1172 3844 1172 3481 
z
" transform="scale(0.015625)"/>
       </defs>
       <use xlink:href="#DejaVuSans-2212"/>
       <use xlink:href="#DejaVuSans-38" transform="translate(83.789062 0)"/>
      </g>
     </g>
    </g>
    <g id="xtick_3">
     <g id="line2d_3">
      <g>
       <use xlink:href="#m1b0269f202" x="214.504" y="379.96" style="stroke: #000000; stroke-width: 0.8"/>
      </g>
     </g>
     <g id="text_3">
      <!-- −6 -->
      <g transform="translate(204.921578 396.837969) scale(0.13 -0.13)">
       <defs>
        <path id="DejaVuSans-36" d="M 2113 2584 
Q 1688 2584 1439 2293 
Q 1191 2003 1191 1497 
Q 1191 994 1439 701 
Q 1688 409 2113 409 
Q 2538 409 2786 701 
Q 3034 994 3034 1497 
Q 3034 2003 2786 2293 
Q 2538 2584 2113 2584 
z
M 3366 4563 
L 3366 3988 
Q 3128 4100 2886 4159 
Q 2644 4219 2406 4219 
Q 1781 4219 1451 3797 
Q 1122 3375 1075 2522 
Q 1259 2794 1537 2939 
Q 1816 3084 2150 3084 
Q 2853 3084 3261 2657 
Q 3669 2231 3669 1497 
Q 3669 778 3244 343 
Q 2819 -91 2113 -91 
Q 1303 -91 875 529 
Q 447 1150 447 2328 
Q 447 3434 972 4092 
Q 1497 4750 2381 4750 
Q 2619 4750 2861 4703 
Q 3103 4656 3366 4563 
z
" transform="scale(0.015625)"/>
       </defs>
       <use xlink:href="#DejaVuSans-2212"/>
       <use xlink:href="#DejaVuSans-36" transform="translate(83.789062 0)"/>
      </g>
     </g>
    </g>
    <g id="xtick_4">
     <g id="line2d_4">
      <g>
       <use xlink:href="#m1b0269f202" x="275.306" y="379.96" style="stroke: #000000; stroke-width: 0.8"/>
      </g>
     </g>
     <g id="text_4">
      <!-- −4 -->
      <g transform="translate(265.723578 396.837969) scale(0.13 -0.13)">
       <defs>
        <path id="DejaVuSans-34" d="M 2419 4116 
L 825 1625 
L 2419 1625 
L 2419 4116 
z
M 2253 4666 
L 3047 4666 
L 3047 1625 
L 3713 1625 
L 3713 1100 
L 3047 1100 
L 3047 0 
L 2419 0 
L 2419 1100 
L 313 1100 
L 313 1709 
L 2253 4666 
z
" transform="scale(0.015625)"/>
       </defs>
       <use xlink:href="#DejaVuSans-2212"/>
       <use xlink:href="#DejaVuSans-34" transform="translate(83.789062 0)"/>
      </g>
     </g>
    </g>
    <g id="xtick_5">
     <g id="line2d_5">
      <g>
       <use xlink:href="#m1b0269f202" x="336.108" y="379.96" style="stroke: #000000; stroke-width: 0.8"/>
      </g>
     </g>
     <g id="text_5">
      <!-- −2 -->
      <g transform="translate(326.525578 396.837969) scale(0.13 -0.13)">
       <defs>
        <path id="DejaVuSans-32" d="M 1228 531 
L 3431 531 
L 3431 0 
L 469 0 
L 469 531 
Q 828 903 1448 1529 
Q 2069 2156 2228 2338 
Q 2531 2678 2651 2914 
Q 2772 3150 2772 3378 
Q 2772 3750 2511 3984 
Q 2250 4219 1831 4219 
Q 1534 4219 1204 4116 
Q 875 4013 500 3803 
L 500 4441 
Q 881 4594 1212 4672 
Q 1544 4750 1819 4750 
Q 2544 4750 2975 4387 
Q 3406 4025 3406 3419 
Q 3406 3131 3298 2873 
Q 3191 2616 2906 2266 
Q 2828 2175 2409 1742 
Q 1991 1309 1228 531 
z
" transform="scale(0.015625)"/>
       </defs>
       <use xlink:href="#DejaVuSans-2212"/>
       <use xlink:href="#DejaVuSans-32" transform="translate(83.789062 0)"/>
      </g>
     </g>
    </g>
    <g id="xtick_6">
     <g id="line2d_6">
      <g>
       <use xlink:href="#m1b0269f202" x="396.91" y="379.96" style="stroke: #000000; stroke-width: 0.8"/>
      </g>
     </g>
     <g id="text_6">
      <!-- 0 -->
      <g transform="translate(392.774375 396.837969) scale(0.13 -0.13)">
       <use xlink:href="#DejaVuSans-30"/>
      </g>
     </g>
    </g>
    <g id="xtick_7">
     <g id="line2d_7">
      <g>
       <use xlink:href="#m1b0269f202" x="457.712" y="379.96" style="stroke: #000000; stroke-width: 0.8"/>
      </g>
     </g>
     <g id="text_7">
      <!-- 2 -->
      <g transform="translate(453.576375 396.837969) scale(0.13 -0.13)">
       <use xlink:href="#DejaVuSans-32"/>
      </g>
     </g>
    </g>
    <g id="xtick_8">
     <g id="line2d_8">
      <g>
       <use xlink:href="#m1b0269f202" x="518.514" y="379.96" style="stroke: #000000; stroke-width: 0.8"/>
      </g>
     </g>
     <g id="text_8">
      <!-- 4 -->
      <g transform="translate(514.378375 396.837969) scale(0.13 -0.13)">
       <use xlink:href="#DejaVuSans-34"/>
      </g>
     </g>
    </g>
    <g id="xtick_9">
     <g id="line2d_9">
      <g>
       <use xlink:href="#m1b0269f202" x="579.316" y="379.96" style="stroke: #000000; stroke-width: 0.8"/>
      </g>
     </g>
     <g id="text_9">
      <!-- 6 -->
      <g transform="translate(575.180375 396.837969) scale(0.13 -0.13)">
       <use xlink:href="#DejaVuSans-36"/>
      </g>
     </g>
    </g>
    <g id="xtick_10">
     <g id="line2d_10">
      <g>
       <use xlink:href="#m1b0269f202" x="640.118" y="379.96" style="stroke: #000000; stroke-width: 0.8"/>
      </g>
     </g>
     <g id="text_10">
      <!-- 8 -->
      <g transform="translate(635.982375 396.837969) scale(0.13 -0.13)">
       <use xlink:href="#DejaVuSans-38"/>
      </g>
     </g>
    </g>
    <g id="xtick_11">
     <g id="line2d_11">
      <g>
       <use xlink:href="#m1b0269f202" x="700.92" y="379.96" style="stroke: #000000; stroke-width: 0.8"/>
      </g>
     </g>
     <g id="text_11">
      <!-- 10 -->
      <g transform="translate(692.64875 396.837969) scale(0.13 -0.13)">
       <use xlink:href="#DejaVuSans-31"/>
       <use xlink:href="#DejaVuSans-30" transform="translate(63.623047 0)"/>
      </g>
     </g>
    </g>
    <g id="text_12">
     <!-- B-R -->
     <g transform="translate(381.234531 417.21875) scale(0.18 -0.18)">
      <defs>
       <path id="DejaVuSans-42" d="M 1259 2228 
L 1259 519 
L 2272 519 
Q 2781 519 3026 730 
Q 3272 941 3272 1375 
Q 3272 1813 3026 2020 
Q 2781 2228 2272 2228 
L 1259 2228 
z
M 1259 4147 
L 1259 2741 
L 2194 2741 
Q 2656 2741 2882 2914 
Q 3109 3088 3109 3444 
Q 3109 3797 2882 3972 
Q 2656 4147 2194 4147 
L 1259 4147 
z
M 628 4666 
L 2241 4666 
Q 2963 4666 3353 4366 
Q 3744 4066 3744 3513 
Q 3744 3084 3544 2831 
Q 3344 2578 2956 2516 
Q 3422 2416 3680 2098 
Q 3938 1781 3938 1306 
Q 3938 681 3513 340 
Q 3088 0 2303 0 
L 628 0 
L 628 4666 
z
" transform="scale(0.015625)"/>
       <path id="DejaVuSans-2d" d="M 313 2009 
L 1997 2009 
L 1997 1497 
L 313 1497 
L 313 2009 
z
" transform="scale(0.015625)"/>
       <path id="DejaVuSans-52" d="M 2841 2188 
Q 3044 2119 3236 1894 
Q 3428 1669 3622 1275 
L 4263 0 
L 3584 0 
L 2988 1197 
Q 2756 1666 2539 1819 
Q 2322 1972 1947 1972 
L 1259 1972 
L 1259 0 
L 628 0 
L 628 4666 
L 2053 4666 
Q 2853 4666 3247 4331 
Q 3641 3997 3641 3322 
Q 3641 2881 3436 2590 
Q 3231 2300 2841 2188 
z
M 1259 4147 
L 1259 2491 
L 2053 2491 
Q 2509 2491 2742 2702 
Q 2975 2913 2975 3322 
Q 2975 3731 2742 3939 
Q 2509 4147 2053 4147 
L 1259 4147 
z
" transform="scale(0.015625)"/>
      </defs>
      <use xlink:href="#DejaVuSans-42"/>
      <use xlink:href="#DejaVuSans-2d" transform="translate(68.603516 0)"/>
      <use xlink:href="#DejaVuSans-52" transform="translate(104.6875 0)"/>
     </g>
    </g>
   </g>
   <g id="matplotlib.axis_2">
    <g id="ytick_1">
     <g id="line2d_12">
      <path d="M 92.9 360.114053 
L 700.92 360.114053 
" clip-path="url(#p3973be14a7)" style="fill: none; stroke: #808080; stroke-opacity: 0.3; stroke-width: 0.8; stroke-linecap: square"/>
     </g>
     <g id="line2d_13">
      <defs>
       <path id="mdc9807c0f6" d="M 0 0 
L -3.5 0 
" style="stroke: #000000; stroke-width: 0.8"/>
      </defs>
      <g>
       <use xlink:href="#mdc9807c0f6" x="92.9" y="360.114053" style="stroke: #000000; stroke-width: 0.8"/>
      </g>
     </g>
     <g id="text_13">
      <!-- 1 -->
      <g transform="translate(77.62875 365.053037) scale(0.13 -0.13)">
       <use xlink:href="#DejaVuSans-31"/>
      </g>
     </g>
    </g>
    <g id="ytick_2">
     <g id="line2d_14">
      <path d="M 92.9 294.187242 
L 700.92 294.187242 
" clip-path="url(#p3973be14a7)" style="fill: none; stroke: #808080; stroke-opacity: 0.3; stroke-width: 0.8; stroke-linecap: square"/>
     </g>
     <g id="line2d_15">
      <g>
       <use xlink:href="#mdc9807c0f6" x="92.9" y="294.187242" style="stroke: #000000; stroke-width: 0.8"/>
      </g>
     </g>
     <g id="text_14">
      <!-- 10 -->
      <g transform="translate(69.3575 299.126226) scale(0.13 -0.13)">
       <use xlink:href="#DejaVuSans-31"/>
       <use xlink:href="#DejaVuSans-30" transform="translate(63.623047 0)"/>
      </g>
     </g>
    </g>
    <g id="ytick_3">
     <g id="line2d_16">
      <path d="M 92.9 228.260432 
L 700.92 228.260432 
" clip-path="url(#p3973be14a7)" style="fill: none; stroke: #808080; stroke-opacity: 0.3; stroke-width: 0.8; stroke-linecap: square"/>
     </g>
     <g id="line2d_17">
      <g>
       <use xlink:href="#mdc9807c0f6" x="92.9" y="228.260432" style="stroke: #000000; stroke-width: 0.8"/>
      </g>
     </g>
     <g id="text_15">
      <!-- 100 -->
      <g transform="translate(61.08625 233.199416) scale(0.13 -0.13)">
       <use xlink:href="#DejaVuSans-31"/>
       <use xlink:href="#DejaVuSans-30" transform="translate(63.623047 0)"/>
       <use xlink:href="#DejaVuSans-30" transform="translate(127.246094 0)"/>
      </g>
     </g>
    </g>
    <g id="ytick_4">
     <g id="line2d_18">
      <path d="M 92.9 162.333621 
L 700.92 162.333621 
" clip-path="url(#p3973be14a7)" style="fill: none; stroke: #808080; stroke-opacity: 0.3; stroke-width: 0.8; stroke-linecap: square"/>
     </g>
     <g id="line2d_19">
      <g>
       <use xlink:href="#mdc9807c0f6" x="92.9" y="162.333621" style="stroke: #000000; stroke-width: 0.8"/>
      </g>
     </g>
     <g id="text_16">
      <!-- 1,000 -->
      <g transform="translate(48.683438 167.272605) scale(0.13 -0.13)">
       <defs>
        <path id="DejaVuSans-2c" d="M 750 794 
L 1409 794 
L 1409 256 
L 897 -744 
L 494 -744 
L 750 256 
L 750 794 
z
" transform="scale(0.015625)"/>
       </defs>
       <use xlink:href="#DejaVuSans-31"/>
       <use xlink:href="#DejaVuSans-2c" transform="translate(63.623047 0)"/>
       <use xlink:href="#DejaVuSans-30" transform="translate(95.410156 0)"/>
       <use xlink:href="#DejaVuSans-30" transform="translate(159.033203 0)"/>
       <use xlink:href="#DejaVuSans-30" transform="translate(222.65625 0)"/>
      </g>
     </g>
    </g>
    <g id="ytick_5">
     <g id="line2d_20">
      <path d="M 92.9 96.406811 
L 700.92 96.406811 
" clip-path="url(#p3973be14a7)" style="fill: none; stroke: #808080; stroke-opacity: 0.3; stroke-width: 0.8; stroke-linecap: square"/>
     </g>
     <g id="line2d_21">
      <g>
       <use xlink:href="#mdc9807c0f6" x="92.9" y="96.406811" style="stroke: #000000; stroke-width: 0.8"/>
      </g>
     </g>
     <g id="text_17">
      <!-- 10,000 -->
      <g transform="translate(40.412188 101.345795) scale(0.13 -0.13)">
       <use xlink:href="#DejaVuSans-31"/>
       <use xlink:href="#DejaVuSans-30" transform="translate(63.623047 0)"/>
       <use xlink:href="#DejaVuSans-2c" transform="translate(127.246094 0)"/>
       <use xlink:href="#DejaVuSans-30" transform="translate(159.033203 0)"/>
       <use xlink:href="#DejaVuSans-30" transform="translate(222.65625 0)"/>
       <use xlink:href="#DejaVuSans-30" transform="translate(286.279297 0)"/>
      </g>
     </g>
    </g>
    <g id="ytick_6">
     <g id="line2d_22">
      <path d="M 92.9 30.48 
L 700.92 30.48 
" clip-path="url(#p3973be14a7)" style="fill: none; stroke: #808080; stroke-opacity: 0.3; stroke-width: 0.8; stroke-linecap: square"/>
     </g>
     <g id="line2d_23">
      <g>
       <use xlink:href="#mdc9807c0f6" x="92.9" y="30.48" style="stroke: #000000; stroke-width: 0.8"/>
      </g>
     </g>
     <g id="text_18">
      <!-- 100,000 -->
      <g transform="translate(32.140938 35.418984) scale(0.13 -0.13)">
       <use xlink:href="#DejaVuSans-31"/>
       <use xlink:href="#DejaVuSans-30" transform="translate(63.623047 0)"/>
       <use xlink:href="#DejaVuSans-30" transform="translate(127.246094 0)"/>
       <use xlink:href="#DejaVuSans-2c" transform="translate(190.869141 0)"/>
       <use xlink:href="#DejaVuSans-30" transform="translate(222.65625 0)"/>
       <use xlink:href="#DejaVuSans-30" transform="translate(286.279297 0)"/>
       <use xlink:href="#DejaVuSans-30" transform="translate(349.902344 0)"/>
      </g>
     </g>
    </g>
    <g id="ytick_7">
     <g id="line2d_24">
      <defs>
       <path id="m695066772c" d="M 0 0 
L -2 0 
" style="stroke: #000000; stroke-width: 0.6"/>
      </defs>
      <g>
       <use xlink:href="#m695066772c" x="92.9" y="379.96" style="stroke: #000000; stroke-width: 0.6"/>
      </g>
     </g>
    </g>
    <g id="ytick_8">
     <g id="line2d_25">
      <g>
       <use xlink:href="#m695066772c" x="92.9" y="374.739833" style="stroke: #000000; stroke-width: 0.6"/>
      </g>
     </g>
    </g>
    <g id="ytick_9">
     <g id="line2d_26">
      <g>
       <use xlink:href="#m695066772c" x="92.9" y="370.326245" style="stroke: #000000; stroke-width: 0.6"/>
      </g>
     </g>
    </g>
    <g id="ytick_10">
     <g id="line2d_27">
      <g>
       <use xlink:href="#m695066772c" x="92.9" y="366.503021" style="stroke: #000000; stroke-width: 0.6"/>
      </g>
     </g>
    </g>
    <g id="ytick_11">
     <g id="line2d_28">
      <g>
       <use xlink:href="#m695066772c" x="92.9" y="363.130698" style="stroke: #000000; stroke-width: 0.6"/>
      </g>
     </g>
    </g>
    <g id="ytick_12">
     <g id="line2d_29">
      <g>
       <use xlink:href="#m695066772c" x="92.9" y="340.268105" style="stroke: #000000; stroke-width: 0.6"/>
      </g>
     </g>
    </g>
    <g id="ytick_13">
     <g id="line2d_30">
      <g>
       <use xlink:href="#m695066772c" x="92.9" y="328.65897" style="stroke: #000000; stroke-width: 0.6"/>
      </g>
     </g>
    </g>
    <g id="ytick_14">
     <g id="line2d_31">
      <g>
       <use xlink:href="#m695066772c" x="92.9" y="320.422158" style="stroke: #000000; stroke-width: 0.6"/>
      </g>
     </g>
    </g>
    <g id="ytick_15">
     <g id="line2d_32">
      <g>
       <use xlink:href="#m695066772c" x="92.9" y="314.033189" style="stroke: #000000; stroke-width: 0.6"/>
      </g>
     </g>
    </g>
    <g id="ytick_16">
     <g id="line2d_33">
      <g>
       <use xlink:href="#m695066772c" x="92.9" y="308.813022" style="stroke: #000000; stroke-width: 0.6"/>
      </g>
     </g>
    </g>
    <g id="ytick_17">
     <g id="line2d_34">
      <g>
       <use xlink:href="#m695066772c" x="92.9" y="304.399434" style="stroke: #000000; stroke-width: 0.6"/>
      </g>
     </g>
    </g>
    <g id="ytick_18">
     <g id="line2d_35">
      <g>
       <use xlink:href="#m695066772c" x="92.9" y="300.57621" style="stroke: #000000; stroke-width: 0.6"/>
      </g>
     </g>
    </g>
    <g id="ytick_19">
     <g id="line2d_36">
      <g>
       <use xlink:href="#m695066772c" x="92.9" y="297.203887" style="stroke: #000000; stroke-width: 0.6"/>
      </g>
     </g>
    </g>
    <g id="ytick_20">
     <g id="line2d_37">
      <g>
       <use xlink:href="#m695066772c" x="92.9" y="274.341295" style="stroke: #000000; stroke-width: 0.6"/>
      </g>
     </g>
    </g>
    <g id="ytick_21">
     <g id="line2d_38">
      <g>
       <use xlink:href="#m695066772c" x="92.9" y="262.732159" style="stroke: #000000; stroke-width: 0.6"/>
      </g>
     </g>
    </g>
    <g id="ytick_22">
     <g id="line2d_39">
      <g>
       <use xlink:href="#m695066772c" x="92.9" y="254.495347" style="stroke: #000000; stroke-width: 0.6"/>
      </g>
     </g>
    </g>
    <g id="ytick_23">
     <g id="line2d_40">
      <g>
       <use xlink:href="#m695066772c" x="92.9" y="248.106379" style="stroke: #000000; stroke-width: 0.6"/>
      </g>
     </g>
    </g>
    <g id="ytick_24">
     <g id="line2d_41">
      <g>
       <use xlink:href="#m695066772c" x="92.9" y="242.886212" style="stroke: #000000; stroke-width: 0.6"/>
      </g>
     </g>
    </g>
    <g id="ytick_25">
     <g id="line2d_42">
      <g>
       <use xlink:href="#m695066772c" x="92.9" y="238.472624" style="stroke: #000000; stroke-width: 0.6"/>
      </g>
     </g>
    </g>
    <g id="ytick_26">
     <g id="line2d_43">
      <g>
       <use xlink:href="#m695066772c" x="92.9" y="234.6494" style="stroke: #000000; stroke-width: 0.6"/>
      </g>
     </g>
    </g>
    <g id="ytick_27">
     <g id="line2d_44">
      <g>
       <use xlink:href="#m695066772c" x="92.9" y="231.277077" style="stroke: #000000; stroke-width: 0.6"/>
      </g>
     </g>
    </g>
    <g id="ytick_28">
     <g id="line2d_45">
      <g>
       <use xlink:href="#m695066772c" x="92.9" y="208.414484" style="stroke: #000000; stroke-width: 0.6"/>
      </g>
     </g>
    </g>
    <g id="ytick_29">
     <g id="line2d_46">
      <g>
       <use xlink:href="#m695066772c" x="92.9" y="196.805349" style="stroke: #000000; stroke-width: 0.6"/>
      </g>
     </g>
    </g>
    <g id="ytick_30">
     <g id="line2d_47">
      <g>
       <use xlink:href="#m695066772c" x="92.9" y="188.568537" style="stroke: #000000; stroke-width: 0.6"/>
      </g>
     </g>
    </g>
    <g id="ytick_31">
     <g id="line2d_48">
      <g>
       <use xlink:href="#m695066772c" x="92.9" y="182.179568" style="stroke: #000000; stroke-width: 0.6"/>
      </g>
     </g>
    </g>
    <g id="ytick_32">
     <g id="line2d_49">
      <g>
       <use xlink:href="#m695066772c" x="92.9" y="176.959401" style="stroke: #000000; stroke-width: 0.6"/>
      </g>
     </g>
    </g>
    <g id="ytick_33">
     <g id="line2d_50">
      <g>
       <use xlink:href="#m695066772c" x="92.9" y="172.545813" style="stroke: #000000; stroke-width: 0.6"/>
      </g>
     </g>
    </g>
    <g id="ytick_34">
     <g id="line2d_51">
      <g>
       <use xlink:href="#m695066772c" x="92.9" y="168.722589" style="stroke: #000000; stroke-width: 0.6"/>
      </g>
     </g>
    </g>
    <g id="ytick_35">
     <g id="line2d_52">
      <g>
       <use xlink:href="#m695066772c" x="92.9" y="165.350266" style="stroke: #000000; stroke-width: 0.6"/>
      </g>
     </g>
    </g>
    <g id="ytick_36">
     <g id="line2d_53">
      <g>
       <use xlink:href="#m695066772c" x="92.9" y="142.487674" style="stroke: #000000; stroke-width: 0.6"/>
      </g>
     </g>
    </g>
    <g id="ytick_37">
     <g id="line2d_54">
      <g>
       <use xlink:href="#m695066772c" x="92.9" y="130.878538" style="stroke: #000000; stroke-width: 0.6"/>
      </g>
     </g>
    </g>
    <g id="ytick_38">
     <g id="line2d_55">
      <g>
       <use xlink:href="#m695066772c" x="92.9" y="122.641726" style="stroke: #000000; stroke-width: 0.6"/>
      </g>
     </g>
    </g>
    <g id="ytick_39">
     <g id="line2d_56">
      <g>
       <use xlink:href="#m695066772c" x="92.9" y="116.252758" style="stroke: #000000; stroke-width: 0.6"/>
      </g>
     </g>
    </g>
    <g id="ytick_40">
     <g id="line2d_57">
      <g>
       <use xlink:href="#m695066772c" x="92.9" y="111.032591" style="stroke: #000000; stroke-width: 0.6"/>
      </g>
     </g>
    </g>
    <g id="ytick_41">
     <g id="line2d_58">
      <g>
       <use xlink:href="#m695066772c" x="92.9" y="106.619003" style="stroke: #000000; stroke-width: 0.6"/>
      </g>
     </g>
    </g>
    <g id="ytick_42">
     <g id="line2d_59">
      <g>
       <use xlink:href="#m695066772c" x="92.9" y="102.795779" style="stroke: #000000; stroke-width: 0.6"/>
      </g>
     </g>
    </g>
    <g id="ytick_43">
     <g id="line2d_60">
      <g>
       <use xlink:href="#m695066772c" x="92.9" y="99.423456" style="stroke: #000000; stroke-width: 0.6"/>
      </g>
     </g>
    </g>
    <g id="ytick_44">
     <g id="line2d_61">
      <g>
       <use xlink:href="#m695066772c" x="92.9" y="76.560863" style="stroke: #000000; stroke-width: 0.6"/>
      </g>
     </g>
    </g>
    <g id="ytick_45">
     <g id="line2d_62">
      <g>
       <use xlink:href="#m695066772c" x="92.9" y="64.951728" style="stroke: #000000; stroke-width: 0.6"/>
      </g>
     </g>
    </g>
    <g id="ytick_46">
     <g id="line2d_63">
      <g>
       <use xlink:href="#m695066772c" x="92.9" y="56.714916" style="stroke: #000000; stroke-width: 0.6"/>
      </g>
     </g>
    </g>
    <g id="ytick_47">
     <g id="line2d_64">
      <g>
       <use xlink:href="#m695066772c" x="92.9" y="50.325947" style="stroke: #000000; stroke-width: 0.6"/>
      </g>
     </g>
    </g>
    <g id="ytick_48">
     <g id="line2d_65">
      <g>
       <use xlink:href="#m695066772c" x="92.9" y="45.10578" style="stroke: #000000; stroke-width: 0.6"/>
      </g>
     </g>
    </g>
    <g id="ytick_49">
     <g id="line2d_66">
      <g>
       <use xlink:href="#m695066772c" x="92.9" y="40.692192" style="stroke: #000000; stroke-width: 0.6"/>
      </g>
     </g>
    </g>
    <g id="ytick_50">
     <g id="line2d_67">
      <g>
       <use xlink:href="#m695066772c" x="92.9" y="36.868968" style="stroke: #000000; stroke-width: 0.6"/>
      </g>
     </g>
    </g>
    <g id="ytick_51">
     <g id="line2d_68">
      <g>
       <use xlink:href="#m695066772c" x="92.9" y="33.496645" style="stroke: #000000; stroke-width: 0.6"/>
      </g>
     </g>
    </g>
    <g id="text_19">
     <!-- Cuentas por bin de 0.2 de color -->
     <g transform="translate(24.3975 347.159844) rotate(-90) scale(0.18 -0.18)">
      <defs>
       <path id="DejaVuSans-43" d="M 4122 4306 
L 4122 3641 
Q 3803 3938 3442 4084 
Q 3081 4231 2675 4231 
Q 1875 4231 1450 3742 
Q 1025 3253 1025 2328 
Q 1025 1406 1450 917 
Q 1875 428 2675 428 
Q 3081 428 3442 575 
Q 3803 722 4122 1019 
L 4122 359 
Q 3791 134 3420 21 
Q 3050 -91 2638 -91 
Q 1578 -91 968 557 
Q 359 1206 359 2328 
Q 359 3453 968 4101 
Q 1578 4750 2638 4750 
Q 3056 4750 3426 4639 
Q 3797 4528 4122 4306 
z
" transform="scale(0.015625)"/>
       <path id="DejaVuSans-75" d="M 544 1381 
L 544 3500 
L 1119 3500 
L 1119 1403 
Q 1119 906 1312 657 
Q 1506 409 1894 409 
Q 2359 409 2629 706 
Q 2900 1003 2900 1516 
L 2900 3500 
L 3475 3500 
L 3475 0 
L 2900 0 
L 2900 538 
Q 2691 219 2414 64 
Q 2138 -91 1772 -91 
Q 1169 -91 856 284 
Q 544 659 544 1381 
z
M 1991 3584 
L 1991 3584 
z
" transform="scale(0.015625)"/>
       <path id="DejaVuSans-65" d="M 3597 1894 
L 3597 1613 
L 953 1613 
Q 991 1019 1311 708 
Q 1631 397 2203 397 
Q 2534 397 2845 478 
Q 3156 559 3463 722 
L 3463 178 
Q 3153 47 2828 -22 
Q 2503 -91 2169 -91 
Q 1331 -91 842 396 
Q 353 884 353 1716 
Q 353 2575 817 3079 
Q 1281 3584 2069 3584 
Q 2775 3584 3186 3129 
Q 3597 2675 3597 1894 
z
M 3022 2063 
Q 3016 2534 2758 2815 
Q 2500 3097 2075 3097 
Q 1594 3097 1305 2825 
Q 1016 2553 972 2059 
L 3022 2063 
z
" transform="scale(0.015625)"/>
       <path id="DejaVuSans-6e" d="M 3513 2113 
L 3513 0 
L 2938 0 
L 2938 2094 
Q 2938 2591 2744 2837 
Q 2550 3084 2163 3084 
Q 1697 3084 1428 2787 
Q 1159 2491 1159 1978 
L 1159 0 
L 581 0 
L 581 3500 
L 1159 3500 
L 1159 2956 
Q 1366 3272 1645 3428 
Q 1925 3584 2291 3584 
Q 2894 3584 3203 3211 
Q 3513 2838 3513 2113 
z
" transform="scale(0.015625)"/>
       <path id="DejaVuSans-74" d="M 1172 4494 
L 1172 3500 
L 2356 3500 
L 2356 3053 
L 1172 3053 
L 1172 1153 
Q 1172 725 1289 603 
Q 1406 481 1766 481 
L 2356 481 
L 2356 0 
L 1766 0 
Q 1100 0 847 248 
Q 594 497 594 1153 
L 594 3053 
L 172 3053 
L 172 3500 
L 594 3500 
L 594 4494 
L 1172 4494 
z
" transform="scale(0.015625)"/>
       <path id="DejaVuSans-61" d="M 2194 1759 
Q 1497 1759 1228 1600 
Q 959 1441 959 1056 
Q 959 750 1161 570 
Q 1363 391 1709 391 
Q 2188 391 2477 730 
Q 2766 1069 2766 1631 
L 2766 1759 
L 2194 1759 
z
M 3341 1997 
L 3341 0 
L 2766 0 
L 2766 531 
Q 2569 213 2275 61 
Q 1981 -91 1556 -91 
Q 1019 -91 701 211 
Q 384 513 384 1019 
Q 384 1609 779 1909 
Q 1175 2209 1959 2209 
L 2766 2209 
L 2766 2266 
Q 2766 2663 2505 2880 
Q 2244 3097 1772 3097 
Q 1472 3097 1187 3025 
Q 903 2953 641 2809 
L 641 3341 
Q 956 3463 1253 3523 
Q 1550 3584 1831 3584 
Q 2591 3584 2966 3190 
Q 3341 2797 3341 1997 
z
" transform="scale(0.015625)"/>
       <path id="DejaVuSans-73" d="M 2834 3397 
L 2834 2853 
Q 2591 2978 2328 3040 
Q 2066 3103 1784 3103 
Q 1356 3103 1142 2972 
Q 928 2841 928 2578 
Q 928 2378 1081 2264 
Q 1234 2150 1697 2047 
L 1894 2003 
Q 2506 1872 2764 1633 
Q 3022 1394 3022 966 
Q 3022 478 2636 193 
Q 2250 -91 1575 -91 
Q 1294 -91 989 -36 
Q 684 19 347 128 
L 347 722 
Q 666 556 975 473 
Q 1284 391 1588 391 
Q 1994 391 2212 530 
Q 2431 669 2431 922 
Q 2431 1156 2273 1281 
Q 2116 1406 1581 1522 
L 1381 1569 
Q 847 1681 609 1914 
Q 372 2147 372 2553 
Q 372 3047 722 3315 
Q 1072 3584 1716 3584 
Q 2034 3584 2315 3537 
Q 2597 3491 2834 3397 
z
" transform="scale(0.015625)"/>
       <path id="DejaVuSans-20" transform="scale(0.015625)"/>
       <path id="DejaVuSans-70" d="M 1159 525 
L 1159 -1331 
L 581 -1331 
L 581 3500 
L 1159 3500 
L 1159 2969 
Q 1341 3281 1617 3432 
Q 1894 3584 2278 3584 
Q 2916 3584 3314 3078 
Q 3713 2572 3713 1747 
Q 3713 922 3314 415 
Q 2916 -91 2278 -91 
Q 1894 -91 1617 61 
Q 1341 213 1159 525 
z
M 3116 1747 
Q 3116 2381 2855 2742 
Q 2594 3103 2138 3103 
Q 1681 3103 1420 2742 
Q 1159 2381 1159 1747 
Q 1159 1113 1420 752 
Q 1681 391 2138 391 
Q 2594 391 2855 752 
Q 3116 1113 3116 1747 
z
" transform="scale(0.015625)"/>
       <path id="DejaVuSans-6f" d="M 1959 3097 
Q 1497 3097 1228 2736 
Q 959 2375 959 1747 
Q 959 1119 1226 758 
Q 1494 397 1959 397 
Q 2419 397 2687 759 
Q 2956 1122 2956 1747 
Q 2956 2369 2687 2733 
Q 2419 3097 1959 3097 
z
M 1959 3584 
Q 2709 3584 3137 3096 
Q 3566 2609 3566 1747 
Q 3566 888 3137 398 
Q 2709 -91 1959 -91 
Q 1206 -91 779 398 
Q 353 888 353 1747 
Q 353 2609 779 3096 
Q 1206 3584 1959 3584 
z
" transform="scale(0.015625)"/>
       <path id="DejaVuSans-72" d="M 2631 2963 
Q 2534 3019 2420 3045 
Q 2306 3072 2169 3072 
Q 1681 3072 1420 2755 
Q 1159 2438 1159 1844 
L 1159 0 
L 581 0 
L 581 3500 
L 1159 3500 
L 1159 2956 
Q 1341 3275 1631 3429 
Q 1922 3584 2338 3584 
Q 2397 3584 2469 3576 
Q 2541 3569 2628 3553 
L 2631 2963 
z
" transform="scale(0.015625)"/>
       <path id="DejaVuSans-62" d="M 3116 1747 
Q 3116 2381 2855 2742 
Q 2594 3103 2138 3103 
Q 1681 3103 1420 2742 
Q 1159 2381 1159 1747 
Q 1159 1113 1420 752 
Q 1681 391 2138 391 
Q 2594 391 2855 752 
Q 3116 1113 3116 1747 
z
M 1159 2969 
Q 1341 3281 1617 3432 
Q 1894 3584 2278 3584 
Q 2916 3584 3314 3078 
Q 3713 2572 3713 1747 
Q 3713 922 3314 415 
Q 2916 -91 2278 -91 
Q 1894 -91 1617 61 
Q 1341 213 1159 525 
L 1159 0 
L 581 0 
L 581 4863 
L 1159 4863 
L 1159 2969 
z
" transform="scale(0.015625)"/>
       <path id="DejaVuSans-69" d="M 603 3500 
L 1178 3500 
L 1178 0 
L 603 0 
L 603 3500 
z
M 603 4863 
L 1178 4863 
L 1178 4134 
L 603 4134 
L 603 4863 
z
" transform="scale(0.015625)"/>
       <path id="DejaVuSans-64" d="M 2906 2969 
L 2906 4863 
L 3481 4863 
L 3481 0 
L 2906 0 
L 2906 525 
Q 2725 213 2448 61 
Q 2172 -91 1784 -91 
Q 1150 -91 751 415 
Q 353 922 353 1747 
Q 353 2572 751 3078 
Q 1150 3584 1784 3584 
Q 2172 3584 2448 3432 
Q 2725 3281 2906 2969 
z
M 947 1747 
Q 947 1113 1208 752 
Q 1469 391 1925 391 
Q 2381 391 2643 752 
Q 2906 1113 2906 1747 
Q 2906 2381 2643 2742 
Q 2381 3103 1925 3103 
Q 1469 3103 1208 2742 
Q 947 2381 947 1747 
z
" transform="scale(0.015625)"/>
       <path id="DejaVuSans-2e" d="M 684 794 
L 1344 794 
L 1344 0 
L 684 0 
L 684 794 
z
" transform="scale(0.015625)"/>
       <path id="DejaVuSans-63" d="M 3122 3366 
L 3122 2828 
Q 2878 2963 2633 3030 
Q 2388 3097 2138 3097 
Q 1578 3097 1268 2742 
Q 959 2388 959 1747 
Q 959 1106 1268 751 
Q 1578 397 2138 397 
Q 2388 397 2633 464 
Q 2878 531 3122 666 
L 3122 134 
Q 2881 22 2623 -34 
Q 2366 -91 2075 -91 
Q 1284 -91 818 406 
Q 353 903 353 1747 
Q 353 2603 823 3093 
Q 1294 3584 2113 3584 
Q 2378 3584 2631 3529 
Q 2884 3475 3122 3366 
z
" transform="scale(0.015625)"/>
       <path id="DejaVuSans-6c" d="M 603 4863 
L 1178 4863 
L 1178 0 
L 603 0 
L 603 4863 
z
" transform="scale(0.015625)"/>
      </defs>
      <use xlink:href="#DejaVuSans-43"/>
      <use xlink:href="#DejaVuSans-75" transform="translate(69.824219 0)"/>
      <use xlink:href="#DejaVuSans-65" transform="translate(133.203125 0)"/>
      <use xlink:href="#DejaVuSans-6e" transform="translate(194.726562 0)"/>
      <use xlink:href="#DejaVuSans-74" transform="translate(258.105469 0)"/>
      <use xlink:href="#DejaVuSans-61" transform="translate(297.314453 0)"/>
      <use xlink:href="#DejaVuSans-73" transform="translate(358.59375 0)"/>
      <use xlink:href="#DejaVuSans-20" transform="translate(410.693359 0)"/>
      <use xlink:href="#DejaVuSans-70" transform="translate(442.480469 0)"/>
      <use xlink:href="#DejaVuSans-6f" transform="translate(505.957031 0)"/>
      <use xlink:href="#DejaVuSans-72" transform="translate(567.138672 0)"/>
      <use xlink:href="#DejaVuSans-20" transform="translate(608.251953 0)"/>
      <use xlink:href="#DejaVuSans-62" transform="translate(640.039062 0)"/>
      <use xlink:href="#DejaVuSans-69" transform="translate(703.515625 0)"/>
      <use xlink:href="#DejaVuSans-6e" transform="translate(731.298828 0)"/>
      <use xlink:href="#DejaVuSans-20" transform="translate(794.677734 0)"/>
      <use xlink:href="#DejaVuSans-64" transform="translate(826.464844 0)"/>
      <use xlink:href="#DejaVuSans-65" transform="translate(889.941406 0)"/>
      <use xlink:href="#DejaVuSans-20" transform="translate(951.464844 0)"/>
      <use xlink:href="#DejaVuSans-30" transform="translate(983.251953 0)"/>
      <use xlink:href="#DejaVuSans-2e" transform="translate(1046.875 0)"/>
      <use xlink:href="#DejaVuSans-32" transform="translate(1078.662109 0)"/>
      <use xlink:href="#DejaVuSans-20" transform="translate(1142.285156 0)"/>
      <use xlink:href="#DejaVuSans-64" transform="translate(1174.072266 0)"/>
      <use xlink:href="#DejaVuSans-65" transform="translate(1237.548828 0)"/>
      <use xlink:href="#DejaVuSans-20" transform="translate(1299.072266 0)"/>
      <use xlink:href="#DejaVuSans-63" transform="translate(1330.859375 0)"/>
      <use xlink:href="#DejaVuSans-6f" transform="translate(1385.839844 0)"/>
      <use xlink:href="#DejaVuSans-6c" transform="translate(1447.021484 0)"/>
      <use xlink:href="#DejaVuSans-6f" transform="translate(1474.804688 0)"/>
      <use xlink:href="#DejaVuSans-72" transform="translate(1535.986328 0)"/>
     </g>
    </g>
   </g>
   <g id="LineCollection_1">
    <path clip-path="url(#p3973be14a7)" style="fill: none; stroke: #000000; stroke-width: 1.5"/>
    <path clip-path="url(#p3973be14a7)" style="fill: none; stroke: #000000; stroke-width: 1.5"/>
    <path clip-path="url(#p3973be14a7)" style="fill: none; stroke: #000000; stroke-width: 1.5"/>
    <path clip-path="url(#p3973be14a7)" style="fill: none; stroke: #000000; stroke-width: 1.5"/>
    <path clip-path="url(#p3973be14a7)" style="fill: none; stroke: #000000; stroke-width: 1.5"/>
    <path clip-path="url(#p3973be14a7)" style="fill: none; stroke: #000000; stroke-width: 1.5"/>
    <path clip-path="url(#p3973be14a7)" style="fill: none; stroke: #000000; stroke-width: 1.5"/>
    <path clip-path="url(#p3973be14a7)" style="fill: none; stroke: #000000; stroke-width: 1.5"/>
    <path clip-path="url(#p3973be14a7)" style="fill: none; stroke: #000000; stroke-width: 1.5"/>
    <path clip-path="url(#p3973be14a7)" style="fill: none; stroke: #000000; stroke-width: 1.5"/>
    <path clip-path="url(#p3973be14a7)" style="fill: none; stroke: #000000; stroke-width: 1.5"/>
    <path clip-path="url(#p3973be14a7)" style="fill: none; stroke: #000000; stroke-width: 1.5"/>
    <path clip-path="url(#p3973be14a7)" style="fill: none; stroke: #000000; stroke-width: 1.5"/>
    <path clip-path="url(#p3973be14a7)" style="fill: none; stroke: #000000; stroke-width: 1.5"/>
    <path clip-path="url(#p3973be14a7)" style="fill: none; stroke: #000000; stroke-width: 1.5"/>
    <path clip-path="url(#p3973be14a7)" style="fill: none; stroke: #000000; stroke-width: 1.5"/>
    <path clip-path="url(#p3973be14a7)" style="fill: none; stroke: #000000; stroke-width: 1.5"/>
    <path clip-path="url(#p3973be14a7)" style="fill: none; stroke: #000000; stroke-width: 1.5"/>
    <path clip-path="url(#p3973be14a7)" style="fill: none; stroke: #000000; stroke-width: 1.5"/>
    <path clip-path="url(#p3973be14a7)" style="fill: none; stroke: #000000; stroke-width: 1.5"/>
    <path clip-path="url(#p3973be14a7)" style="fill: none; stroke: #000000; stroke-width: 1.5"/>
    <path clip-path="url(#p3973be14a7)" style="fill: none; stroke: #000000; stroke-width: 1.5"/>
    <path clip-path="url(#p3973be14a7)" style="fill: none; stroke: #000000; stroke-width: 1.5"/>
    <path clip-path="url(#p3973be14a7)" style="fill: none; stroke: #000000; stroke-width: 1.5"/>
    <path clip-path="url(#p3973be14a7)" style="fill: none; stroke: #000000; stroke-width: 1.5"/>
    <path clip-path="url(#p3973be14a7)" style="fill: none; stroke: #000000; stroke-width: 1.5"/>
    <path clip-path="url(#p3973be14a7)" style="fill: none; stroke: #000000; stroke-width: 1.5"/>
    <path clip-path="url(#p3973be14a7)" style="fill: none; stroke: #000000; stroke-width: 1.5"/>
    <path clip-path="url(#p3973be14a7)" style="fill: none; stroke: #000000; stroke-width: 1.5"/>
    <path clip-path="url(#p3973be14a7)" style="fill: none; stroke: #000000; stroke-width: 1.5"/>
    <path clip-path="url(#p3973be14a7)" style="fill: none; stroke: #000000; stroke-width: 1.5"/>
    <path clip-path="url(#p3973be14a7)" style="fill: none; stroke: #000000; stroke-width: 1.5"/>
    <path clip-path="url(#p3973be14a7)" style="fill: none; stroke: #000000; stroke-width: 1.5"/>
    <path clip-path="url(#p3973be14a7)" style="fill: none; stroke: #000000; stroke-width: 1.5"/>
    <path clip-path="url(#p3973be14a7)" style="fill: none; stroke: #000000; stroke-width: 1.5"/>
    <path clip-path="url(#p3973be14a7)" style="fill: none; stroke: #000000; stroke-width: 1.5"/>
    <path clip-path="url(#p3973be14a7)" style="fill: none; stroke: #000000; stroke-width: 1.5"/>
    <path clip-path="url(#p3973be14a7)" style="fill: none; stroke: #000000; stroke-width: 1.5"/>
    <path d="M 326.9877 433 
L 326.9877 340.268105 
" clip-path="url(#p3973be14a7)" style="fill: none; stroke: #000000; stroke-width: 1.5"/>
    <path clip-path="url(#p3973be14a7)" style="fill: none; stroke: #000000; stroke-width: 1.5"/>
    <path clip-path="url(#p3973be14a7)" style="fill: none; stroke: #000000; stroke-width: 1.5"/>
    <path clip-path="url(#p3973be14a7)" style="fill: none; stroke: #000000; stroke-width: 1.5"/>
    <path clip-path="url(#p3973be14a7)" style="fill: none; stroke: #000000; stroke-width: 1.5"/>
    <path d="M 357.3887 433 
L 357.3887 340.268105 
" clip-path="url(#p3973be14a7)" style="fill: none; stroke: #000000; stroke-width: 1.5"/>
    <path clip-path="url(#p3973be14a7)" style="fill: none; stroke: #000000; stroke-width: 1.5"/>
    <path clip-path="url(#p3973be14a7)" style="fill: none; stroke: #000000; stroke-width: 1.5"/>
    <path clip-path="url(#p3973be14a7)" style="fill: none; stroke: #000000; stroke-width: 1.5"/>
    <path clip-path="url(#p3973be14a7)" style="fill: none; stroke: #000000; stroke-width: 1.5"/>
    <path d="M 387.7897 433 
L 387.7897 340.268105 
" clip-path="url(#p3973be14a7)" style="fill: none; stroke: #000000; stroke-width: 1.5"/>
    <path d="M 393.8699 353.316876 
L 393.8699 315.610199 
" clip-path="url(#p3973be14a7)" style="fill: none; stroke: #000000; stroke-width: 1.5"/>
    <path d="M 399.9501 340.268105 
L 399.9501 308.813022 
" clip-path="url(#p3973be14a7)" style="fill: none; stroke: #000000; stroke-width: 1.5"/>
    <path d="M 406.0303 317.992541 
L 406.0303 295.219916 
" clip-path="url(#p3973be14a7)" style="fill: none; stroke: #000000; stroke-width: 1.5"/>
    <path d="M 412.1105 295.975751 
L 412.1105 279.666645 
" clip-path="url(#p3973be14a7)" style="fill: none; stroke: #000000; stroke-width: 1.5"/>
    <path d="M 418.1907 257.896913 
L 418.1907 248.989848 
" clip-path="url(#p3973be14a7)" style="fill: none; stroke: #000000; stroke-width: 1.5"/>
    <path d="M 424.2709 209.20653 
L 424.2709 205.239209 
" clip-path="url(#p3973be14a7)" style="fill: none; stroke: #000000; stroke-width: 1.5"/>
    <path d="M 430.3511 195.787051 
L 430.3511 192.626819 
" clip-path="url(#p3973be14a7)" style="fill: none; stroke: #000000; stroke-width: 1.5"/>
    <path d="M 436.4313 199.815746 
L 436.4313 196.431667 
" clip-path="url(#p3973be14a7)" style="fill: none; stroke: #000000; stroke-width: 1.5"/>
    <path d="M 442.5115 204.859041 
L 442.5115 201.172934 
" clip-path="url(#p3973be14a7)" style="fill: none; stroke: #000000; stroke-width: 1.5"/>
    <path d="M 448.5917 208.504635 
L 448.5917 204.584082 
" clip-path="url(#p3973be14a7)" style="fill: none; stroke: #000000; stroke-width: 1.5"/>
    <path d="M 454.6719 218.303269 
L 454.6719 213.678834 
" clip-path="url(#p3973be14a7)" style="fill: none; stroke: #000000; stroke-width: 1.5"/>
    <path d="M 460.7521 218.497984 
L 460.7521 213.858395 
" clip-path="url(#p3973be14a7)" style="fill: none; stroke: #000000; stroke-width: 1.5"/>
    <path d="M 466.8323 214.830835 
L 466.8323 210.468769 
" clip-path="url(#p3973be14a7)" style="fill: none; stroke: #000000; stroke-width: 1.5"/>
    <path d="M 472.9125 211.883287 
L 472.9125 207.732606 
" clip-path="url(#p3973be14a7)" style="fill: none; stroke: #000000; stroke-width: 1.5"/>
    <path d="M 478.9927 209.492092 
L 478.9927 205.505589 
" clip-path="url(#p3973be14a7)" style="fill: none; stroke: #000000; stroke-width: 1.5"/>
    <path d="M 485.0729 226.542616 
L 485.0729 221.233461 
" clip-path="url(#p3973be14a7)" style="fill: none; stroke: #000000; stroke-width: 1.5"/>
    <path d="M 491.1531 248.422976 
L 491.1531 240.793439 
" clip-path="url(#p3973be14a7)" style="fill: none; stroke: #000000; stroke-width: 1.5"/>
    <path d="M 497.2333 281.587856 
L 497.2333 268.563345 
" clip-path="url(#p3973be14a7)" style="fill: none; stroke: #000000; stroke-width: 1.5"/>
    <path d="M 503.3135 323.835137 
L 503.3135 299.011075 
" clip-path="url(#p3973be14a7)" style="fill: none; stroke: #000000; stroke-width: 1.5"/>
    <path d="M 509.3937 375.426259 
L 509.3937 324.955899 
" clip-path="url(#p3973be14a7)" style="fill: none; stroke: #000000; stroke-width: 1.5"/>
    <path d="M 515.4739 433 
L 515.4739 340.268105 
" clip-path="url(#p3973be14a7)" style="fill: none; stroke: #000000; stroke-width: 1.5"/>
    <path clip-path="url(#p3973be14a7)" style="fill: none; stroke: #000000; stroke-width: 1.5"/>
    <path clip-path="url(#p3973be14a7)" style="fill: none; stroke: #000000; stroke-width: 1.5"/>
    <path clip-path="url(#p3973be14a7)" style="fill: none; stroke: #000000; stroke-width: 1.5"/>
    <path clip-path="url(#p3973be14a7)" style="fill: none; stroke: #000000; stroke-width: 1.5"/>
    <path clip-path="url(#p3973be14a7)" style="fill: none; stroke: #000000; stroke-width: 1.5"/>
    <path clip-path="url(#p3973be14a7)" style="fill: none; stroke: #000000; stroke-width: 1.5"/>
    <path clip-path="url(#p3973be14a7)" style="fill: none; stroke: #000000; stroke-width: 1.5"/>
    <path clip-path="url(#p3973be14a7)" style="fill: none; stroke: #000000; stroke-width: 1.5"/>
    <path clip-path="url(#p3973be14a7)" style="fill: none; stroke: #000000; stroke-width: 1.5"/>
    <path clip-path="url(#p3973be14a7)" style="fill: none; stroke: #000000; stroke-width: 1.5"/>
    <path clip-path="url(#p3973be14a7)" style="fill: none; stroke: #000000; stroke-width: 1.5"/>
    <path clip-path="url(#p3973be14a7)" style="fill: none; stroke: #000000; stroke-width: 1.5"/>
    <path clip-path="url(#p3973be14a7)" style="fill: none; stroke: #000000; stroke-width: 1.5"/>
    <path clip-path="url(#p3973be14a7)" style="fill: none; stroke: #000000; stroke-width: 1.5"/>
    <path clip-path="url(#p3973be14a7)" style="fill: none; stroke: #000000; stroke-width: 1.5"/>
    <path clip-path="url(#p3973be14a7)" style="fill: none; stroke: #000000; stroke-width: 1.5"/>
    <path clip-path="url(#p3973be14a7)" style="fill: none; stroke: #000000; stroke-width: 1.5"/>
    <path clip-path="url(#p3973be14a7)" style="fill: none; stroke: #000000; stroke-width: 1.5"/>
    <path clip-path="url(#p3973be14a7)" style="fill: none; stroke: #000000; stroke-width: 1.5"/>
    <path clip-path="url(#p3973be14a7)" style="fill: none; stroke: #000000; stroke-width: 1.5"/>
    <path clip-path="url(#p3973be14a7)" style="fill: none; stroke: #000000; stroke-width: 1.5"/>
    <path clip-path="url(#p3973be14a7)" style="fill: none; stroke: #000000; stroke-width: 1.5"/>
    <path clip-path="url(#p3973be14a7)" style="fill: none; stroke: #000000; stroke-width: 1.5"/>
    <path clip-path="url(#p3973be14a7)" style="fill: none; stroke: #000000; stroke-width: 1.5"/>
    <path clip-path="url(#p3973be14a7)" style="fill: none; stroke: #000000; stroke-width: 1.5"/>
    <path clip-path="url(#p3973be14a7)" style="fill: none; stroke: #000000; stroke-width: 1.5"/>
    <path clip-path="url(#p3973be14a7)" style="fill: none; stroke: #000000; stroke-width: 1.5"/>
    <path clip-path="url(#p3973be14a7)" style="fill: none; stroke: #000000; stroke-width: 1.5"/>
    <path clip-path="url(#p3973be14a7)" style="fill: none; stroke: #000000; stroke-width: 1.5"/>
   </g>
   <g id="line2d_69">
    <defs>
     <path id="mda43b067ac" d="M 2 0 
L -2 -0 
" style="stroke: #000000"/>
    </defs>
    <g clip-path="url(#p3973be14a7)">
     <use xlink:href="#mda43b067ac" x="391.034072" y="31105" style="stroke: #000000"/>
     <use xlink:href="#mda43b067ac" x="393.8699" y="353.316876" style="stroke: #000000"/>
     <use xlink:href="#mda43b067ac" x="399.9501" y="340.268105" style="stroke: #000000"/>
     <use xlink:href="#mda43b067ac" x="406.0303" y="317.992541" style="stroke: #000000"/>
     <use xlink:href="#mda43b067ac" x="412.1105" y="295.975751" style="stroke: #000000"/>
     <use xlink:href="#mda43b067ac" x="418.1907" y="257.896913" style="stroke: #000000"/>
     <use xlink:href="#mda43b067ac" x="424.2709" y="209.20653" style="stroke: #000000"/>
     <use xlink:href="#mda43b067ac" x="430.3511" y="195.787051" style="stroke: #000000"/>
     <use xlink:href="#mda43b067ac" x="436.4313" y="199.815746" style="stroke: #000000"/>
     <use xlink:href="#mda43b067ac" x="442.5115" y="204.859041" style="stroke: #000000"/>
     <use xlink:href="#mda43b067ac" x="448.5917" y="208.504635" style="stroke: #000000"/>
     <use xlink:href="#mda43b067ac" x="454.6719" y="218.303269" style="stroke: #000000"/>
     <use xlink:href="#mda43b067ac" x="460.7521" y="218.497984" style="stroke: #000000"/>
     <use xlink:href="#mda43b067ac" x="466.8323" y="214.830835" style="stroke: #000000"/>
     <use xlink:href="#mda43b067ac" x="472.9125" y="211.883287" style="stroke: #000000"/>
     <use xlink:href="#mda43b067ac" x="478.9927" y="209.492092" style="stroke: #000000"/>
     <use xlink:href="#mda43b067ac" x="485.0729" y="226.542616" style="stroke: #000000"/>
     <use xlink:href="#mda43b067ac" x="491.1531" y="248.422976" style="stroke: #000000"/>
     <use xlink:href="#mda43b067ac" x="497.2333" y="281.587856" style="stroke: #000000"/>
     <use xlink:href="#mda43b067ac" x="503.3135" y="323.835137" style="stroke: #000000"/>
     <use xlink:href="#mda43b067ac" x="509.3937" y="375.426259" style="stroke: #000000"/>
     <use xlink:href="#mda43b067ac" x="512.22844" y="31105" style="stroke: #000000"/>
    </g>
   </g>
   <g id="line2d_70">
    <g clip-path="url(#p3973be14a7)">
     <use xlink:href="#mda43b067ac" x="324.15123" y="31105" style="stroke: #000000"/>
     <use xlink:href="#mda43b067ac" x="326.9877" y="340.268105" style="stroke: #000000"/>
     <use xlink:href="#mda43b067ac" x="329.82417" y="31105" style="stroke: #000000"/>
     <use xlink:href="#mda43b067ac" x="354.55223" y="31105" style="stroke: #000000"/>
     <use xlink:href="#mda43b067ac" x="357.3887" y="340.268105" style="stroke: #000000"/>
     <use xlink:href="#mda43b067ac" x="360.22517" y="31105" style="stroke: #000000"/>
     <use xlink:href="#mda43b067ac" x="384.95323" y="31105" style="stroke: #000000"/>
     <use xlink:href="#mda43b067ac" x="387.7897" y="340.268105" style="stroke: #000000"/>
     <use xlink:href="#mda43b067ac" x="393.8699" y="315.610199" style="stroke: #000000"/>
     <use xlink:href="#mda43b067ac" x="399.9501" y="308.813022" style="stroke: #000000"/>
     <use xlink:href="#mda43b067ac" x="406.0303" y="295.219916" style="stroke: #000000"/>
     <use xlink:href="#mda43b067ac" x="412.1105" y="279.666645" style="stroke: #000000"/>
     <use xlink:href="#mda43b067ac" x="418.1907" y="248.989848" style="stroke: #000000"/>
     <use xlink:href="#mda43b067ac" x="424.2709" y="205.239209" style="stroke: #000000"/>
     <use xlink:href="#mda43b067ac" x="430.3511" y="192.626819" style="stroke: #000000"/>
     <use xlink:href="#mda43b067ac" x="436.4313" y="196.431667" style="stroke: #000000"/>
     <use xlink:href="#mda43b067ac" x="442.5115" y="201.172934" style="stroke: #000000"/>
     <use xlink:href="#mda43b067ac" x="448.5917" y="204.584082" style="stroke: #000000"/>
     <use xlink:href="#mda43b067ac" x="454.6719" y="213.678834" style="stroke: #000000"/>
     <use xlink:href="#mda43b067ac" x="460.7521" y="213.858395" style="stroke: #000000"/>
     <use xlink:href="#mda43b067ac" x="466.8323" y="210.468769" style="stroke: #000000"/>
     <use xlink:href="#mda43b067ac" x="472.9125" y="207.732606" style="stroke: #000000"/>
     <use xlink:href="#mda43b067ac" x="478.9927" y="205.505589" style="stroke: #000000"/>
     <use xlink:href="#mda43b067ac" x="485.0729" y="221.233461" style="stroke: #000000"/>
     <use xlink:href="#mda43b067ac" x="491.1531" y="240.793439" style="stroke: #000000"/>
     <use xlink:href="#mda43b067ac" x="497.2333" y="268.563345" style="stroke: #000000"/>
     <use xlink:href="#mda43b067ac" x="503.3135" y="299.011075" style="stroke: #000000"/>
     <use xlink:href="#mda43b067ac" x="509.3937" y="324.955899" style="stroke: #000000"/>
     <use xlink:href="#mda43b067ac" x="515.4739" y="340.268105" style="stroke: #000000"/>
     <use xlink:href="#mda43b067ac" x="518.31037" y="31105" style="stroke: #000000"/>
    </g>
   </g>
   <g id="line2d_71">
    <defs>
     <path id="mcf4d99c28c" d="M 0 2 
C 0.530406 2 1.03916 1.789267 1.414214 1.414214 
C 1.789267 1.03916 2 0.530406 2 0 
C 2 -0.530406 1.789267 -1.03916 1.414214 -1.414214 
C 1.03916 -1.789267 0.530406 -2 0 -2 
C -0.530406 -2 -1.03916 -1.789267 -1.414214 -1.414214 
C -1.789267 -1.03916 -2 -0.530406 -2 0 
C -2 0.530406 -1.789267 1.03916 -1.414214 1.414214 
C -1.03916 1.789267 -0.530406 2 0 2 
z
" style="stroke: #000000"/>
    </defs>
    <g clip-path="url(#p3973be14a7)">
     <use xlink:href="#mcf4d99c28c" x="324.152206" y="31105" style="stroke: #000000"/>
     <use xlink:href="#mcf4d99c28c" x="326.9877" y="360.114053" style="stroke: #000000"/>
     <use xlink:href="#mcf4d99c28c" x="329.823194" y="31105" style="stroke: #000000"/>
     <use xlink:href="#mcf4d99c28c" x="354.553206" y="31105" style="stroke: #000000"/>
     <use xlink:href="#mcf4d99c28c" x="357.3887" y="360.114053" style="stroke: #000000"/>
     <use xlink:href="#mcf4d99c28c" x="360.224194" y="31105" style="stroke: #000000"/>
     <use xlink:href="#mcf4d99c28c" x="384.954206" y="31105" style="stroke: #000000"/>
     <use xlink:href="#mcf4d99c28c" x="387.7897" y="360.114053" style="stroke: #000000"/>
     <use xlink:href="#mcf4d99c28c" x="393.8699" y="328.65897" style="stroke: #000000"/>
     <use xlink:href="#mcf4d99c28c" x="399.9501" y="320.422158" style="stroke: #000000"/>
     <use xlink:href="#mcf4d99c28c" x="406.0303" y="304.399434" style="stroke: #000000"/>
     <use xlink:href="#mcf4d99c28c" x="412.1105" y="286.67532" style="stroke: #000000"/>
     <use xlink:href="#mcf4d99c28c" x="418.1907" y="253.098404" style="stroke: #000000"/>
     <use xlink:href="#mcf4d99c28c" x="424.2709" y="207.154208" style="stroke: #000000"/>
     <use xlink:href="#mcf4d99c28c" x="430.3511" y="194.163356" style="stroke: #000000"/>
     <use xlink:href="#mcf4d99c28c" x="436.4313" y="198.073738" style="stroke: #000000"/>
     <use xlink:href="#mcf4d99c28c" x="442.5115" y="202.956709" style="stroke: #000000"/>
     <use xlink:href="#mcf4d99c28c" x="448.5917" y="206.477305" style="stroke: #000000"/>
     <use xlink:href="#mcf4d99c28c" x="454.6719" y="215.897788" style="stroke: #000000"/>
     <use xlink:href="#mcf4d99c28c" x="460.7521" y="216.084315" style="stroke: #000000"/>
     <use xlink:href="#mcf4d99c28c" x="466.8323" y="212.566811" style="stroke: #000000"/>
     <use xlink:href="#mcf4d99c28c" x="472.9125" y="209.732798" style="stroke: #000000"/>
     <use xlink:href="#mcf4d99c28c" x="478.9927" y="207.429514" style="stroke: #000000"/>
     <use xlink:href="#mcf4d99c28c" x="485.0729" y="223.765155" style="stroke: #000000"/>
     <use xlink:href="#mcf4d99c28c" x="491.1531" y="244.354824" style="stroke: #000000"/>
     <use xlink:href="#mcf4d99c28c" x="497.2333" y="274.341295" style="stroke: #000000"/>
     <use xlink:href="#mcf4d99c28c" x="503.3135" y="308.813022" style="stroke: #000000"/>
     <use xlink:href="#mcf4d99c28c" x="509.3937" y="340.268105" style="stroke: #000000"/>
     <use xlink:href="#mcf4d99c28c" x="515.4739" y="360.114053" style="stroke: #000000"/>
     <use xlink:href="#mcf4d99c28c" x="518.309394" y="31105" style="stroke: #000000"/>
    </g>
   </g>
   <g id="patch_102">
    <path d="M 92.9 379.96 
L 92.9 30.48 
" style="fill: none; stroke: #000000; stroke-width: 0.8; stroke-linejoin: miter; stroke-linecap: square"/>
   </g>
   <g id="patch_103">
    <path d="M 700.92 379.96 
L 700.92 30.48 
" style="fill: none; stroke: #000000; stroke-width: 0.8; stroke-linejoin: miter; stroke-linecap: square"/>
   </g>
   <g id="patch_104">
    <path d="M 92.9 379.96 
L 700.92 379.96 
" style="fill: none; stroke: #000000; stroke-width: 0.8; stroke-linejoin: miter; stroke-linecap: square"/>
   </g>
   <g id="patch_105">
    <path d="M 92.9 30.48 
L 700.92 30.48 
" style="fill: none; stroke: #000000; stroke-width: 0.8; stroke-linejoin: miter; stroke-linecap: square"/>
   </g>
   <g id="patch_106">
    <path d="M 378.6694 433 
L 378.6694 277.35794 
L 384.7496 277.35794 
L 384.7496 275.809906 
L 390.8298 275.809906 
L 390.8298 267.952326 
L 396.91 267.952326 
L 396.91 291.458354 
L 402.9902 291.458354 
L 402.9902 320.422158 
L 409.0704 320.422158 
L 409.0704 294.187242 
L 415.1506 294.187242 
L 415.1506 219.246881 
L 421.2308 219.246881 
L 421.2308 201.797374 
L 427.311 201.797374 
L 427.311 204.412869 
L 433.3912 204.412869 
L 433.3912 201.123657 
L 439.4714 201.123657 
L 439.4714 196.051841 
L 445.5516 196.051841 
L 445.5516 193.90346 
L 451.6318 193.90346 
L 451.6318 185.196214 
L 457.712 185.196214 
L 457.712 174.711729 
L 463.7922 174.711729 
L 463.7922 185.580537 
L 469.8724 185.580537 
L 469.8724 219.667942 
L 475.9526 219.667942 
L 475.9526 275.809906 
L 482.0328 275.809906 
L 482.0328 297.203887 
L 488.113 297.203887 
L 488.113 433 
M 494.1932 433 
L 494.1932 360.114053 
L 500.2734 360.114053 
L 500.2734 433 
L 500.2734 433 
" clip-path="url(#p3973be14a7)" style="fill: none; stroke: #ff7f0e; stroke-linejoin: miter"/>
   </g>
   <g id="text_20">
    <g id="patch_107">
     <path d="M 104.0405 60.423401 
L 292.0605 60.423401 
L 292.0605 38.754026 
L 104.0405 38.754026 
z
" style="fill: #ffffff; stroke: #ffffff; stroke-linejoin: miter"/>
    </g>
    <!-- $\it{l:}$ 137.2482, $\it{b:}$ -28.0221 -->
    <g transform="translate(108.1005 53.451838) scale(0.14 -0.14)">
     <defs>
      <path id="DejaVuSans-Oblique-6c" d="M 1172 4863 
L 1747 4863 
L 800 0 
L 225 0 
L 1172 4863 
z
" transform="scale(0.015625)"/>
      <path id="DejaVuSans-3a" d="M 750 794 
L 1409 794 
L 1409 0 
L 750 0 
L 750 794 
z
M 750 3309 
L 1409 3309 
L 1409 2516 
L 750 2516 
L 750 3309 
z
" transform="scale(0.015625)"/>
      <path id="DejaVuSans-33" d="M 2597 2516 
Q 3050 2419 3304 2112 
Q 3559 1806 3559 1356 
Q 3559 666 3084 287 
Q 2609 -91 1734 -91 
Q 1441 -91 1130 -33 
Q 819 25 488 141 
L 488 750 
Q 750 597 1062 519 
Q 1375 441 1716 441 
Q 2309 441 2620 675 
Q 2931 909 2931 1356 
Q 2931 1769 2642 2001 
Q 2353 2234 1838 2234 
L 1294 2234 
L 1294 2753 
L 1863 2753 
Q 2328 2753 2575 2939 
Q 2822 3125 2822 3475 
Q 2822 3834 2567 4026 
Q 2313 4219 1838 4219 
Q 1578 4219 1281 4162 
Q 984 4106 628 3988 
L 628 4550 
Q 988 4650 1302 4700 
Q 1616 4750 1894 4750 
Q 2613 4750 3031 4423 
Q 3450 4097 3450 3541 
Q 3450 3153 3228 2886 
Q 3006 2619 2597 2516 
z
" transform="scale(0.015625)"/>
      <path id="DejaVuSans-37" d="M 525 4666 
L 3525 4666 
L 3525 4397 
L 1831 0 
L 1172 0 
L 2766 4134 
L 525 4134 
L 525 4666 
z
" transform="scale(0.015625)"/>
      <path id="DejaVuSans-Oblique-62" d="M 3169 2138 
Q 3169 2591 2961 2847 
Q 2753 3103 2388 3103 
Q 2122 3103 1889 2973 
Q 1656 2844 1484 2597 
Q 1303 2338 1198 1995 
Q 1094 1653 1094 1313 
Q 1094 881 1298 636 
Q 1503 391 1863 391 
Q 2134 391 2365 517 
Q 2597 644 2772 891 
Q 2950 1147 3059 1487 
Q 3169 1828 3169 2138 
z
M 1381 2969 
Q 1594 3256 1914 3420 
Q 2234 3584 2584 3584 
Q 3122 3584 3439 3221 
Q 3756 2859 3756 2241 
Q 3756 1734 3570 1259 
Q 3384 784 3041 416 
Q 2816 172 2522 40 
Q 2228 -91 1906 -91 
Q 1566 -91 1316 65 
Q 1066 222 909 531 
L 806 0 
L 231 0 
L 1178 4863 
L 1753 4863 
L 1381 2969 
z
" transform="scale(0.015625)"/>
     </defs>
     <use xlink:href="#DejaVuSans-Oblique-6c" transform="translate(0 0.015625)"/>
     <use xlink:href="#DejaVuSans-3a" transform="translate(47.265625 0.015625)"/>
     <use xlink:href="#DejaVuSans-20" transform="translate(100.439453 0.015625)"/>
     <use xlink:href="#DejaVuSans-31" transform="translate(132.226562 0.015625)"/>
     <use xlink:href="#DejaVuSans-33" transform="translate(195.849609 0.015625)"/>
     <use xlink:href="#DejaVuSans-37" transform="translate(259.472656 0.015625)"/>
     <use xlink:href="#DejaVuSans-2e" transform="translate(323.095703 0.015625)"/>
     <use xlink:href="#DejaVuSans-32" transform="translate(349.382812 0.015625)"/>
     <use xlink:href="#DejaVuSans-34" transform="translate(413.005859 0.015625)"/>
     <use xlink:href="#DejaVuSans-38" transform="translate(476.628906 0.015625)"/>
     <use xlink:href="#DejaVuSans-32" transform="translate(540.251953 0.015625)"/>
     <use xlink:href="#DejaVuSans-2c" transform="translate(603.875 0.015625)"/>
     <use xlink:href="#DejaVuSans-20" transform="translate(635.662109 0.015625)"/>
     <use xlink:href="#DejaVuSans-Oblique-62" transform="translate(667.449219 0.015625)"/>
     <use xlink:href="#DejaVuSans-3a" transform="translate(750.408203 0.015625)"/>
     <use xlink:href="#DejaVuSans-20" transform="translate(803.582031 0.015625)"/>
     <use xlink:href="#DejaVuSans-2d" transform="translate(835.369141 0.015625)"/>
     <use xlink:href="#DejaVuSans-32" transform="translate(871.453125 0.015625)"/>
     <use xlink:href="#DejaVuSans-38" transform="translate(935.076172 0.015625)"/>
     <use xlink:href="#DejaVuSans-2e" transform="translate(998.699219 0.015625)"/>
     <use xlink:href="#DejaVuSans-30" transform="translate(1030.486328 0.015625)"/>
     <use xlink:href="#DejaVuSans-32" transform="translate(1094.109375 0.015625)"/>
     <use xlink:href="#DejaVuSans-32" transform="translate(1157.732422 0.015625)"/>
     <use xlink:href="#DejaVuSans-31" transform="translate(1221.355469 0.015625)"/>
    </g>
   </g>
   <g id="text_21">
    <!-- Histograma de B-R de A0260 -->
    <g transform="translate(266.026094 24.48) scale(0.18 -0.18)">
     <defs>
      <path id="DejaVuSans-48" d="M 628 4666 
L 1259 4666 
L 1259 2753 
L 3553 2753 
L 3553 4666 
L 4184 4666 
L 4184 0 
L 3553 0 
L 3553 2222 
L 1259 2222 
L 1259 0 
L 628 0 
L 628 4666 
z
" transform="scale(0.015625)"/>
      <path id="DejaVuSans-67" d="M 2906 1791 
Q 2906 2416 2648 2759 
Q 2391 3103 1925 3103 
Q 1463 3103 1205 2759 
Q 947 2416 947 1791 
Q 947 1169 1205 825 
Q 1463 481 1925 481 
Q 2391 481 2648 825 
Q 2906 1169 2906 1791 
z
M 3481 434 
Q 3481 -459 3084 -895 
Q 2688 -1331 1869 -1331 
Q 1566 -1331 1297 -1286 
Q 1028 -1241 775 -1147 
L 775 -588 
Q 1028 -725 1275 -790 
Q 1522 -856 1778 -856 
Q 2344 -856 2625 -561 
Q 2906 -266 2906 331 
L 2906 616 
Q 2728 306 2450 153 
Q 2172 0 1784 0 
Q 1141 0 747 490 
Q 353 981 353 1791 
Q 353 2603 747 3093 
Q 1141 3584 1784 3584 
Q 2172 3584 2450 3431 
Q 2728 3278 2906 2969 
L 2906 3500 
L 3481 3500 
L 3481 434 
z
" transform="scale(0.015625)"/>
      <path id="DejaVuSans-6d" d="M 3328 2828 
Q 3544 3216 3844 3400 
Q 4144 3584 4550 3584 
Q 5097 3584 5394 3201 
Q 5691 2819 5691 2113 
L 5691 0 
L 5113 0 
L 5113 2094 
Q 5113 2597 4934 2840 
Q 4756 3084 4391 3084 
Q 3944 3084 3684 2787 
Q 3425 2491 3425 1978 
L 3425 0 
L 2847 0 
L 2847 2094 
Q 2847 2600 2669 2842 
Q 2491 3084 2119 3084 
Q 1678 3084 1418 2786 
Q 1159 2488 1159 1978 
L 1159 0 
L 581 0 
L 581 3500 
L 1159 3500 
L 1159 2956 
Q 1356 3278 1631 3431 
Q 1906 3584 2284 3584 
Q 2666 3584 2933 3390 
Q 3200 3197 3328 2828 
z
" transform="scale(0.015625)"/>
      <path id="DejaVuSans-41" d="M 2188 4044 
L 1331 1722 
L 3047 1722 
L 2188 4044 
z
M 1831 4666 
L 2547 4666 
L 4325 0 
L 3669 0 
L 3244 1197 
L 1141 1197 
L 716 0 
L 50 0 
L 1831 4666 
z
" transform="scale(0.015625)"/>
     </defs>
     <use xlink:href="#DejaVuSans-48"/>
     <use xlink:href="#DejaVuSans-69" transform="translate(75.195312 0)"/>
     <use xlink:href="#DejaVuSans-73" transform="translate(102.978516 0)"/>
     <use xlink:href="#DejaVuSans-74" transform="translate(155.078125 0)"/>
     <use xlink:href="#DejaVuSans-6f" transform="translate(194.287109 0)"/>
     <use xlink:href="#DejaVuSans-67" transform="translate(255.46875 0)"/>
     <use xlink:href="#DejaVuSans-72" transform="translate(318.945312 0)"/>
     <use xlink:href="#DejaVuSans-61" transform="translate(360.058594 0)"/>
     <use xlink:href="#DejaVuSans-6d" transform="translate(421.337891 0)"/>
     <use xlink:href="#DejaVuSans-61" transform="translate(518.75 0)"/>
     <use xlink:href="#DejaVuSans-20" transform="translate(580.029297 0)"/>
     <use xlink:href="#DejaVuSans-64" transform="translate(611.816406 0)"/>
     <use xlink:href="#DejaVuSans-65" transform="translate(675.292969 0)"/>
     <use xlink:href="#DejaVuSans-20" transform="translate(736.816406 0)"/>
     <use xlink:href="#DejaVuSans-42" transform="translate(768.603516 0)"/>
     <use xlink:href="#DejaVuSans-2d" transform="translate(837.207031 0)"/>
     <use xlink:href="#DejaVuSans-52" transform="translate(873.291016 0)"/>
     <use xlink:href="#DejaVuSans-20" transform="translate(942.773438 0)"/>
     <use xlink:href="#DejaVuSans-64" transform="translate(974.560547 0)"/>
     <use xlink:href="#DejaVuSans-65" transform="translate(1038.037109 0)"/>
     <use xlink:href="#DejaVuSans-20" transform="translate(1099.560547 0)"/>
     <use xlink:href="#DejaVuSans-41" transform="translate(1131.347656 0)"/>
     <use xlink:href="#DejaVuSans-30" transform="translate(1199.755859 0)"/>
     <use xlink:href="#DejaVuSans-32" transform="translate(1263.378906 0)"/>
     <use xlink:href="#DejaVuSans-36" transform="translate(1327.001953 0)"/>
     <use xlink:href="#DejaVuSans-30" transform="translate(1390.625 0)"/>
    </g>
   </g>
   <g id="patch_108">
    <path d="M 378.6694 433 
L 378.6694 274.341295 
L 384.7496 274.341295 
L 384.7496 284.553487 
L 390.8298 284.553487 
L 390.8298 278.99448 
L 396.91 278.99448 
L 396.91 300.57621 
L 402.9902 300.57621 
L 402.9902 304.399434 
L 409.0704 304.399434 
L 409.0704 314.033189 
L 415.1506 314.033189 
L 415.1506 219.038649 
L 421.2308 219.038649 
L 421.2308 201.683981 
L 427.311 201.683981 
L 427.311 199.928234 
L 433.3912 199.928234 
L 433.3912 201.458534 
L 439.4714 201.458534 
L 439.4714 197.874907 
L 445.5516 197.874907 
L 445.5516 192.970197 
L 451.6318 192.970197 
L 451.6318 185.323749 
L 457.712 185.323749 
L 457.712 173.84272 
L 463.7922 173.84272 
L 463.7922 182.816497 
L 469.8724 182.816497 
L 469.8724 210.957868 
L 475.9526 210.957868 
L 475.9526 274.341295 
L 482.0328 274.341295 
L 482.0328 314.033189 
L 488.113 314.033189 
L 488.113 320.422158 
L 494.1932 320.422158 
L 494.1932 433 
M 506.3536 433 
L 506.3536 360.114053 
L 512.4338 360.114053 
L 512.4338 433 
L 512.4338 433 
" clip-path="url(#p3973be14a7)" style="fill: none; stroke: #1f77b4; stroke-linejoin: miter"/>
   </g>
   <g id="patch_109">
    <path d="M 384.7496 433 
L 384.7496 360.114053 
L 396.91 360.114053 
L 396.91 320.422158 
L 402.9902 320.422158 
L 402.9902 433 
M 409.0704 433 
L 409.0704 340.268105 
L 415.1506 340.268105 
L 415.1506 253.098404 
L 421.2308 253.098404 
L 421.2308 190.95589 
L 427.311 190.95589 
L 427.311 200.24934 
L 433.3912 200.24934 
L 433.3912 205.169697 
L 445.5516 205.169697 
L 445.5516 208.558001 
L 451.6318 208.558001 
L 451.6318 204.288653 
L 463.7922 204.288653 
L 463.7922 202.140272 
L 469.8724 202.140272 
L 469.8724 197.677446 
L 475.9526 197.677446 
L 475.9526 221.19242 
L 482.0328 221.19242 
L 482.0328 267.952326 
L 488.113 267.952326 
L 488.113 360.114053 
L 494.1932 360.114053 
L 494.1932 433 
L 494.1932 433 
" clip-path="url(#p3973be14a7)" style="fill: none; stroke: #2ca02c; stroke-linejoin: miter"/>
   </g>
   <g id="legend_1">
    <g id="patch_110">
     <path d="M 570.639688 136.287812 
L 691.82 136.287812 
Q 694.42 136.287812 694.42 133.687812 
L 694.42 39.58 
Q 694.42 36.98 691.82 36.98 
L 570.639688 36.98 
Q 568.039688 36.98 568.039688 39.58 
L 568.039688 133.687812 
Q 568.039688 136.287812 570.639688 136.287812 
z
" style="fill: #ffffff; opacity: 0.8; stroke: #cccccc; stroke-linejoin: miter"/>
    </g>
    <g id="patch_111">
     <path d="M 573.239688 52.057969 
L 599.239688 52.057969 
L 599.239688 42.957969 
L 573.239688 42.957969 
z
" style="fill: #808080"/>
    </g>
    <g id="text_22">
     <!-- LOCOS -->
     <g transform="translate(609.639688 52.057969) scale(0.13 -0.13)">
      <defs>
       <path id="DejaVuSans-4c" d="M 628 4666 
L 1259 4666 
L 1259 531 
L 3531 531 
L 3531 0 
L 628 0 
L 628 4666 
z
" transform="scale(0.015625)"/>
       <path id="DejaVuSans-4f" d="M 2522 4238 
Q 1834 4238 1429 3725 
Q 1025 3213 1025 2328 
Q 1025 1447 1429 934 
Q 1834 422 2522 422 
Q 3209 422 3611 934 
Q 4013 1447 4013 2328 
Q 4013 3213 3611 3725 
Q 3209 4238 2522 4238 
z
M 2522 4750 
Q 3503 4750 4090 4092 
Q 4678 3434 4678 2328 
Q 4678 1225 4090 567 
Q 3503 -91 2522 -91 
Q 1538 -91 948 565 
Q 359 1222 359 2328 
Q 359 3434 948 4092 
Q 1538 4750 2522 4750 
z
" transform="scale(0.015625)"/>
       <path id="DejaVuSans-53" d="M 3425 4513 
L 3425 3897 
Q 3066 4069 2747 4153 
Q 2428 4238 2131 4238 
Q 1616 4238 1336 4038 
Q 1056 3838 1056 3469 
Q 1056 3159 1242 3001 
Q 1428 2844 1947 2747 
L 2328 2669 
Q 3034 2534 3370 2195 
Q 3706 1856 3706 1288 
Q 3706 609 3251 259 
Q 2797 -91 1919 -91 
Q 1588 -91 1214 -16 
Q 841 59 441 206 
L 441 856 
Q 825 641 1194 531 
Q 1563 422 1919 422 
Q 2459 422 2753 634 
Q 3047 847 3047 1241 
Q 3047 1584 2836 1778 
Q 2625 1972 2144 2069 
L 1759 2144 
Q 1053 2284 737 2584 
Q 422 2884 422 3419 
Q 422 4038 858 4394 
Q 1294 4750 2059 4750 
Q 2388 4750 2728 4690 
Q 3069 4631 3425 4513 
z
" transform="scale(0.015625)"/>
      </defs>
      <use xlink:href="#DejaVuSans-4c"/>
      <use xlink:href="#DejaVuSans-4f" transform="translate(52.087891 0)"/>
      <use xlink:href="#DejaVuSans-43" transform="translate(130.798828 0)"/>
      <use xlink:href="#DejaVuSans-4f" transform="translate(200.623047 0)"/>
      <use xlink:href="#DejaVuSans-53" transform="translate(279.333984 0)"/>
     </g>
    </g>
    <g id="patch_112">
     <path d="M 573.239688 71.139531 
L 599.239688 71.139531 
L 599.239688 62.039531 
L 573.239688 62.039531 
L 573.239688 71.139531 
z
" style="fill: none; stroke: #1f77b4; stroke-linejoin: miter"/>
    </g>
    <g id="text_23">
     <!-- Trilegal MAB -->
     <g transform="translate(609.639688 71.139531) scale(0.13 -0.13)">
      <defs>
       <path id="DejaVuSans-54" d="M -19 4666 
L 3928 4666 
L 3928 4134 
L 2272 4134 
L 2272 0 
L 1638 0 
L 1638 4134 
L -19 4134 
L -19 4666 
z
" transform="scale(0.015625)"/>
       <path id="DejaVuSans-4d" d="M 628 4666 
L 1569 4666 
L 2759 1491 
L 3956 4666 
L 4897 4666 
L 4897 0 
L 4281 0 
L 4281 4097 
L 3078 897 
L 2444 897 
L 1241 4097 
L 1241 0 
L 628 0 
L 628 4666 
z
" transform="scale(0.015625)"/>
      </defs>
      <use xlink:href="#DejaVuSans-54"/>
      <use xlink:href="#DejaVuSans-72" transform="translate(46.333984 0)"/>
      <use xlink:href="#DejaVuSans-69" transform="translate(87.447266 0)"/>
      <use xlink:href="#DejaVuSans-6c" transform="translate(115.230469 0)"/>
      <use xlink:href="#DejaVuSans-65" transform="translate(143.013672 0)"/>
      <use xlink:href="#DejaVuSans-67" transform="translate(204.537109 0)"/>
      <use xlink:href="#DejaVuSans-61" transform="translate(268.013672 0)"/>
      <use xlink:href="#DejaVuSans-6c" transform="translate(329.292969 0)"/>
      <use xlink:href="#DejaVuSans-20" transform="translate(357.076172 0)"/>
      <use xlink:href="#DejaVuSans-4d" transform="translate(388.863281 0)"/>
      <use xlink:href="#DejaVuSans-41" transform="translate(475.142578 0)"/>
      <use xlink:href="#DejaVuSans-42" transform="translate(543.550781 0)"/>
     </g>
    </g>
    <g id="patch_113">
     <path d="M 573.239688 90.221094 
L 599.239688 90.221094 
L 599.239688 81.121094 
L 573.239688 81.121094 
L 573.239688 90.221094 
z
" style="fill: none; stroke: #ff7f0e; stroke-linejoin: miter"/>
    </g>
    <g id="text_24">
     <!-- Trilegal B&amp;B -->
     <g transform="translate(609.639688 90.221094) scale(0.13 -0.13)">
      <defs>
       <path id="DejaVuSans-26" d="M 1556 2509 
Q 1272 2256 1139 2004 
Q 1006 1753 1006 1478 
Q 1006 1022 1337 719 
Q 1669 416 2169 416 
Q 2466 416 2725 514 
Q 2984 613 3213 813 
L 1556 2509 
z
M 1997 2859 
L 3584 1234 
Q 3769 1513 3872 1830 
Q 3975 2147 3994 2503 
L 4575 2503 
Q 4538 2091 4375 1687 
Q 4213 1284 3922 891 
L 4794 0 
L 4006 0 
L 3559 459 
Q 3234 181 2878 45 
Q 2522 -91 2113 -91 
Q 1359 -91 881 339 
Q 403 769 403 1441 
Q 403 1841 612 2192 
Q 822 2544 1241 2853 
Q 1091 3050 1012 3245 
Q 934 3441 934 3628 
Q 934 4134 1281 4442 
Q 1628 4750 2203 4750 
Q 2463 4750 2720 4694 
Q 2978 4638 3244 4525 
L 3244 3956 
Q 2972 4103 2725 4179 
Q 2478 4256 2266 4256 
Q 1938 4256 1733 4082 
Q 1528 3909 1528 3634 
Q 1528 3475 1620 3314 
Q 1713 3153 1997 2859 
z
" transform="scale(0.015625)"/>
      </defs>
      <use xlink:href="#DejaVuSans-54"/>
      <use xlink:href="#DejaVuSans-72" transform="translate(46.333984 0)"/>
      <use xlink:href="#DejaVuSans-69" transform="translate(87.447266 0)"/>
      <use xlink:href="#DejaVuSans-6c" transform="translate(115.230469 0)"/>
      <use xlink:href="#DejaVuSans-65" transform="translate(143.013672 0)"/>
      <use xlink:href="#DejaVuSans-67" transform="translate(204.537109 0)"/>
      <use xlink:href="#DejaVuSans-61" transform="translate(268.013672 0)"/>
      <use xlink:href="#DejaVuSans-6c" transform="translate(329.292969 0)"/>
      <use xlink:href="#DejaVuSans-20" transform="translate(357.076172 0)"/>
      <use xlink:href="#DejaVuSans-42" transform="translate(388.863281 0)"/>
      <use xlink:href="#DejaVuSans-26" transform="translate(457.466797 0)"/>
      <use xlink:href="#DejaVuSans-42" transform="translate(535.445312 0)"/>
     </g>
    </g>
    <g id="patch_114">
     <path d="M 573.239688 109.302656 
L 599.239688 109.302656 
L 599.239688 100.202656 
L 573.239688 100.202656 
L 573.239688 109.302656 
z
" style="fill: none; stroke: #2ca02c; stroke-linejoin: miter"/>
    </g>
    <g id="text_25">
     <!-- Besancon -->
     <g transform="translate(609.639688 109.302656) scale(0.13 -0.13)">
      <use xlink:href="#DejaVuSans-42"/>
      <use xlink:href="#DejaVuSans-65" transform="translate(68.603516 0)"/>
      <use xlink:href="#DejaVuSans-73" transform="translate(130.126953 0)"/>
      <use xlink:href="#DejaVuSans-61" transform="translate(182.226562 0)"/>
      <use xlink:href="#DejaVuSans-6e" transform="translate(243.505859 0)"/>
      <use xlink:href="#DejaVuSans-63" transform="translate(306.884766 0)"/>
      <use xlink:href="#DejaVuSans-6f" transform="translate(361.865234 0)"/>
      <use xlink:href="#DejaVuSans-6e" transform="translate(423.046875 0)"/>
     </g>
    </g>
    <g id="patch_115">
     <path d="M 573.239688 128.384219 
L 599.239688 128.384219 
L 599.239688 119.284219 
L 573.239688 119.284219 
L 573.239688 128.384219 
z
" style="fill: none; stroke: #d62728; stroke-linejoin: miter"/>
    </g>
    <g id="text_26">
     <!-- GalMod -->
     <g transform="translate(609.639688 128.384219) scale(0.13 -0.13)">
      <defs>
       <path id="DejaVuSans-47" d="M 3809 666 
L 3809 1919 
L 2778 1919 
L 2778 2438 
L 4434 2438 
L 4434 434 
Q 4069 175 3628 42 
Q 3188 -91 2688 -91 
Q 1594 -91 976 548 
Q 359 1188 359 2328 
Q 359 3472 976 4111 
Q 1594 4750 2688 4750 
Q 3144 4750 3555 4637 
Q 3966 4525 4313 4306 
L 4313 3634 
Q 3963 3931 3569 4081 
Q 3175 4231 2741 4231 
Q 1884 4231 1454 3753 
Q 1025 3275 1025 2328 
Q 1025 1384 1454 906 
Q 1884 428 2741 428 
Q 3075 428 3337 486 
Q 3600 544 3809 666 
z
" transform="scale(0.015625)"/>
      </defs>
      <use xlink:href="#DejaVuSans-47"/>
      <use xlink:href="#DejaVuSans-61" transform="translate(77.490234 0)"/>
      <use xlink:href="#DejaVuSans-6c" transform="translate(138.769531 0)"/>
      <use xlink:href="#DejaVuSans-4d" transform="translate(166.552734 0)"/>
      <use xlink:href="#DejaVuSans-6f" transform="translate(252.832031 0)"/>
      <use xlink:href="#DejaVuSans-64" transform="translate(314.013672 0)"/>
     </g>
    </g>
   </g>
   <g id="patch_116">
    <path d="M 390.8298 433 
L 390.8298 297.203887 
L 402.9902 297.203887 
L 402.9902 433 
M 409.0704 433 
L 409.0704 360.114053 
L 415.1506 360.114053 
L 415.1506 140.79234 
L 421.2308 140.79234 
L 421.2308 121.913793 
L 427.311 121.913793 
L 427.311 146.310898 
L 433.3912 146.310898 
L 433.3912 195.774311 
L 439.4714 195.774311 
L 439.4714 209.883096 
L 445.5516 209.883096 
L 445.5516 209.286581 
L 451.6318 209.286581 
L 451.6318 224.258816 
L 457.712 224.258816 
L 457.712 360.114053 
L 463.7922 360.114053 
L 463.7922 433 
L 463.7922 433 
" clip-path="url(#p3973be14a7)" style="fill: none; stroke: #d62728; stroke-linejoin: miter"/>
   </g>
  </g>
 </g>
 <defs>
  <clipPath id="p3973be14a7">
   <rect x="92.9" y="30.48" width="608.02" height="349.48"/>
  </clipPath>
 </defs>
</svg>
