<?xml version="1.0" encoding="utf-8" standalone="no"?>
<!DOCTYPE svg PUBLIC "-//W3C//DTD SVG 1.1//EN"
  "http://www.w3.org/Graphics/SVG/1.1/DTD/svg11.dtd">
<svg xmlns:xlink="http://www.w3.org/1999/xlink" width="432pt" height="432pt" viewBox="0 0 432 432" xmlns="http://www.w3.org/2000/svg" version="1.1">
 <metadata>
  <rdf:RDF xmlns:dc="http://purl.org/dc/elements/1.1/" xmlns:cc="http://creativecommons.org/ns#" xmlns:rdf="http://www.w3.org/1999/02/22-rdf-syntax-ns#">
   <cc:Work>
    <dc:type rdf:resource="http://purl.org/dc/dcmitype/StillImage"/>
    <dc:date>2025-08-12T16:10:28.175638</dc:date>
    <dc:format>image/svg+xml</dc:format>
    <dc:creator>
     <cc:Agent>
      <dc:title>Matplotlib v3.7.1, https://matplotlib.org/</dc:title>
     </cc:Agent>
    </dc:creator>
   </cc:Work>
  </rdf:RDF>
 </metadata>
 <defs>
  <style type="text/css">*{stroke-linejoin: round; stroke-linecap: butt}</style>
 </defs>
 <g id="figure_1">
  <g id="patch_1">
   <path d="M 0 432 
L 432 432 
L 432 0 
L 0 0 
z
" style="fill: #ffffff"/>
  </g>
  <g id="axes_1">
   <g id="patch_2">
    <path d="M 63.398 385.72 
L 417.375 385.72 
L 417.375 27.6 
L 63.398 27.6 
z
" style="fill: #ffffff"/>
   </g>
   <g id="patch_3">
    <path d="M -219.7836 78179.620082 
L -219.7836 78179.620082 
L -212.70406 78179.620082 
L -212.70406 78179.620082 
L -205.62452 78179.620082 
L -205.62452 78179.620082 
L -198.54498 78179.620082 
L -198.54498 78179.620082 
L -191.46544 78179.620082 
L -191.46544 78179.620082 
L -184.3859 78179.620082 
L -184.3859 78179.620082 
L -177.30636 78179.620082 
L -177.30636 78179.620082 
L -170.22682 78179.620082 
L -170.22682 78179.620082 
L -163.14728 78179.620082 
L -163.14728 362.294651 
L -156.06774 362.294651 
L -156.06774 78179.620082 
L -148.9882 78179.620082 
L -148.9882 78179.620082 
L -141.90866 78179.620082 
L -141.90866 78179.620082 
L -134.82912 78179.620082 
L -134.82912 338.869302 
L -127.74958 338.869302 
L -127.74958 78179.620082 
L -120.67004 78179.620082 
L -120.67004 78179.620082 
L -113.5905 78179.620082 
L -113.5905 78179.620082 
L -106.51096 78179.620082 
L -106.51096 78179.620082 
L -99.43142 78179.620082 
L -99.43142 78179.620082 
L -92.35188 78179.620082 
L -92.35188 78179.620082 
L -85.27234 78179.620082 
L -85.27234 362.294651 
L -78.1928 362.294651 
L -78.1928 78179.620082 
L -71.11326 78179.620082 
L -71.11326 78179.620082 
L -64.03372 78179.620082 
L -64.03372 78179.620082 
L -56.95418 78179.620082 
L -56.95418 78179.620082 
L -49.87464 78179.620082 
L -49.87464 78179.620082 
L -42.7951 78179.620082 
L -42.7951 362.294651 
L -35.71556 362.294651 
L -35.71556 78179.620082 
L -28.63602 78179.620082 
L -28.63602 78179.620082 
L -21.55648 78179.620082 
L -21.55648 78179.620082 
L -14.47694 78179.620082 
L -14.47694 78179.620082 
L -7.3974 78179.620082 
L -7.3974 362.294651 
L -0.31786 362.294651 
L -0.31786 338.869302 
L 6.76168 338.869302 
L 6.76168 78179.620082 
L 13.84122 78179.620082 
L 13.84122 78179.620082 
L 20.92076 78179.620082 
L 20.92076 78179.620082 
L 28.0003 78179.620082 
L 28.0003 362.294651 
L 35.07984 362.294651 
L 35.07984 362.294651 
L 42.15938 362.294651 
L 42.15938 78179.620082 
L 49.23892 78179.620082 
L 49.23892 78179.620082 
L 56.31846 78179.620082 
L 56.31846 362.294651 
L 63.398 362.294651 
L 63.398 78179.620082 
L 70.47754 78179.620082 
L 70.47754 78179.620082 
L 77.55708 78179.620082 
L 77.55708 362.294651 
L 84.63662 362.294651 
L 84.63662 362.294651 
L 91.71616 362.294651 
L 91.71616 78179.620082 
L 98.7957 78179.620082 
L 98.7957 338.869302 
L 105.87524 338.869302 
L 105.87524 315.443953 
L 112.95478 315.443953 
L 112.95478 278.315653 
L 120.03432 278.315653 
L 120.03432 278.315653 
L 127.11386 278.315653 
L 127.11386 259.403082 
L 134.1934 259.403082 
L 134.1934 244.127957 
L 141.27294 244.127957 
L 141.27294 223.365058 
L 148.35248 223.365058 
L 148.35248 197.534261 
L 155.43202 197.534261 
L 155.43202 168.314704 
L 162.51156 168.314704 
L 162.51156 128.741439 
L 169.5911 128.741439 
L 169.5911 105.739919 
L 176.67064 105.739919 
L 176.67064 99.895337 
L 183.75018 99.895337 
L 183.75018 102.69144 
L 190.82972 102.69144 
L 190.82972 106.726596 
L 197.90926 106.726596 
L 197.90926 112.082912 
L 204.9888 112.082912 
L 204.9888 117.640784 
L 212.06834 117.640784 
L 212.06834 116.944437 
L 219.14788 116.944437 
L 219.14788 122.935424 
L 226.22742 122.935424 
L 226.22742 123.10611 
L 233.30696 123.10611 
L 233.30696 121.518384 
L 240.3865 121.518384 
L 240.3865 118.031207 
L 247.46604 118.031207 
L 247.46604 117.039636 
L 254.54558 117.039636 
L 254.54558 115.570536 
L 261.62512 115.570536 
L 261.62512 116.58981 
L 268.70466 116.58981 
L 268.70466 116.238866 
L 275.7842 116.238866 
L 275.7842 123.565531 
L 282.86374 123.565531 
L 282.86374 137.196284 
L 289.94328 137.196284 
L 289.94328 155.381118 
L 297.02282 155.381118 
L 297.02282 175.964825 
L 304.10236 175.964825 
L 304.10236 199.390174 
L 311.1819 199.390174 
L 311.1819 240.261387 
L 318.26144 240.261387 
L 318.26144 257.830908 
L 325.34098 257.830908 
L 325.34098 301.741002 
L 332.42052 301.741002 
L 332.42052 315.443953 
L 339.50006 315.443953 
L 339.50006 338.869302 
L 346.5796 338.869302 
L 346.5796 78179.620082 
L 353.65914 78179.620082 
L 353.65914 362.294651 
L 360.73868 362.294651 
L 360.73868 78179.620082 
L 367.81822 78179.620082 
L 367.81822 78179.620082 
L 374.89776 78179.620082 
L 374.89776 338.869302 
L 381.9773 338.869302 
L 381.9773 78179.620082 
L 389.05684 78179.620082 
L 389.05684 78179.620082 
L 396.13638 78179.620082 
L 396.13638 78179.620082 
L 403.21592 78179.620082 
L 403.21592 78179.620082 
L 410.29546 78179.620082 
L 410.29546 78179.620082 
L 417.375 78179.620082 
L 417.375 362.294651 
L 424.45454 362.294651 
L 424.45454 78179.620082 
L 431.53408 78179.620082 
L 431.53408 78179.620082 
L 438.61362 78179.620082 
L 438.61362 78179.620082 
L 445.69316 78179.620082 
L 445.69316 78179.620082 
L 452.7727 78179.620082 
L 452.7727 78179.620082 
L 459.85224 78179.620082 
L 459.85224 78179.620082 
L 466.93178 78179.620082 
L 466.93178 78179.620082 
L 474.01132 78179.620082 
L 474.01132 78179.620082 
L 481.09086 78179.620082 
L 481.09086 78179.620082 
" clip-path="url(#p41c07e4621)" style="fill: #808080; stroke: #808080; stroke-linejoin: miter"/>
   </g>
   <g id="matplotlib.axis_1">
    <g id="xtick_1">
     <g id="line2d_1">
      <defs>
       <path id="m879ab62b65" d="M 0 0 
L 0 3.5 
" style="stroke: #000000; stroke-width: 0.8"/>
      </defs>
      <g>
       <use xlink:href="#m879ab62b65" x="63.398" y="385.72" style="stroke: #000000; stroke-width: 0.8"/>
      </g>
     </g>
     <g id="text_1">
      <!-- −2 -->
      <g transform="translate(54.552688 401.838125) scale(0.12 -0.12)">
       <defs>
        <path id="DejaVuSans-2212" d="M 678 2272 
L 4684 2272 
L 4684 1741 
L 678 1741 
L 678 2272 
z
" transform="scale(0.015625)"/>
        <path id="DejaVuSans-32" d="M 1228 531 
L 3431 531 
L 3431 0 
L 469 0 
L 469 531 
Q 828 903 1448 1529 
Q 2069 2156 2228 2338 
Q 2531 2678 2651 2914 
Q 2772 3150 2772 3378 
Q 2772 3750 2511 3984 
Q 2250 4219 1831 4219 
Q 1534 4219 1204 4116 
Q 875 4013 500 3803 
L 500 4441 
Q 881 4594 1212 4672 
Q 1544 4750 1819 4750 
Q 2544 4750 2975 4387 
Q 3406 4025 3406 3419 
Q 3406 3131 3298 2873 
Q 3191 2616 2906 2266 
Q 2828 2175 2409 1742 
Q 1991 1309 1228 531 
z
" transform="scale(0.015625)"/>
       </defs>
       <use xlink:href="#DejaVuSans-2212"/>
       <use xlink:href="#DejaVuSans-32" x="83.789062"/>
      </g>
     </g>
    </g>
    <g id="xtick_2">
     <g id="line2d_2">
      <g>
       <use xlink:href="#m879ab62b65" x="98.7957" y="385.72" style="stroke: #000000; stroke-width: 0.8"/>
      </g>
     </g>
     <g id="text_2">
      <!-- −1 -->
      <g transform="translate(89.950388 401.838125) scale(0.12 -0.12)">
       <defs>
        <path id="DejaVuSans-31" d="M 794 531 
L 1825 531 
L 1825 4091 
L 703 3866 
L 703 4441 
L 1819 4666 
L 2450 4666 
L 2450 531 
L 3481 531 
L 3481 0 
L 794 0 
L 794 531 
z
" transform="scale(0.015625)"/>
       </defs>
       <use xlink:href="#DejaVuSans-2212"/>
       <use xlink:href="#DejaVuSans-31" x="83.789062"/>
      </g>
     </g>
    </g>
    <g id="xtick_3">
     <g id="line2d_3">
      <g>
       <use xlink:href="#m879ab62b65" x="134.1934" y="385.72" style="stroke: #000000; stroke-width: 0.8"/>
      </g>
     </g>
     <g id="text_3">
      <!-- 0 -->
      <g transform="translate(130.3759 401.838125) scale(0.12 -0.12)">
       <defs>
        <path id="DejaVuSans-30" d="M 2034 4250 
Q 1547 4250 1301 3770 
Q 1056 3291 1056 2328 
Q 1056 1369 1301 889 
Q 1547 409 2034 409 
Q 2525 409 2770 889 
Q 3016 1369 3016 2328 
Q 3016 3291 2770 3770 
Q 2525 4250 2034 4250 
z
M 2034 4750 
Q 2819 4750 3233 4129 
Q 3647 3509 3647 2328 
Q 3647 1150 3233 529 
Q 2819 -91 2034 -91 
Q 1250 -91 836 529 
Q 422 1150 422 2328 
Q 422 3509 836 4129 
Q 1250 4750 2034 4750 
z
" transform="scale(0.015625)"/>
       </defs>
       <use xlink:href="#DejaVuSans-30"/>
      </g>
     </g>
    </g>
    <g id="xtick_4">
     <g id="line2d_4">
      <g>
       <use xlink:href="#m879ab62b65" x="169.5911" y="385.72" style="stroke: #000000; stroke-width: 0.8"/>
      </g>
     </g>
     <g id="text_4">
      <!-- 1 -->
      <g transform="translate(165.7736 401.838125) scale(0.12 -0.12)">
       <use xlink:href="#DejaVuSans-31"/>
      </g>
     </g>
    </g>
    <g id="xtick_5">
     <g id="line2d_5">
      <g>
       <use xlink:href="#m879ab62b65" x="204.9888" y="385.72" style="stroke: #000000; stroke-width: 0.8"/>
      </g>
     </g>
     <g id="text_5">
      <!-- 2 -->
      <g transform="translate(201.1713 401.838125) scale(0.12 -0.12)">
       <use xlink:href="#DejaVuSans-32"/>
      </g>
     </g>
    </g>
    <g id="xtick_6">
     <g id="line2d_6">
      <g>
       <use xlink:href="#m879ab62b65" x="240.3865" y="385.72" style="stroke: #000000; stroke-width: 0.8"/>
      </g>
     </g>
     <g id="text_6">
      <!-- 3 -->
      <g transform="translate(236.569 401.838125) scale(0.12 -0.12)">
       <defs>
        <path id="DejaVuSans-33" d="M 2597 2516 
Q 3050 2419 3304 2112 
Q 3559 1806 3559 1356 
Q 3559 666 3084 287 
Q 2609 -91 1734 -91 
Q 1441 -91 1130 -33 
Q 819 25 488 141 
L 488 750 
Q 750 597 1062 519 
Q 1375 441 1716 441 
Q 2309 441 2620 675 
Q 2931 909 2931 1356 
Q 2931 1769 2642 2001 
Q 2353 2234 1838 2234 
L 1294 2234 
L 1294 2753 
L 1863 2753 
Q 2328 2753 2575 2939 
Q 2822 3125 2822 3475 
Q 2822 3834 2567 4026 
Q 2313 4219 1838 4219 
Q 1578 4219 1281 4162 
Q 984 4106 628 3988 
L 628 4550 
Q 988 4650 1302 4700 
Q 1616 4750 1894 4750 
Q 2613 4750 3031 4423 
Q 3450 4097 3450 3541 
Q 3450 3153 3228 2886 
Q 3006 2619 2597 2516 
z
" transform="scale(0.015625)"/>
       </defs>
       <use xlink:href="#DejaVuSans-33"/>
      </g>
     </g>
    </g>
    <g id="xtick_7">
     <g id="line2d_7">
      <g>
       <use xlink:href="#m879ab62b65" x="275.7842" y="385.72" style="stroke: #000000; stroke-width: 0.8"/>
      </g>
     </g>
     <g id="text_7">
      <!-- 4 -->
      <g transform="translate(271.9667 401.838125) scale(0.12 -0.12)">
       <defs>
        <path id="DejaVuSans-34" d="M 2419 4116 
L 825 1625 
L 2419 1625 
L 2419 4116 
z
M 2253 4666 
L 3047 4666 
L 3047 1625 
L 3713 1625 
L 3713 1100 
L 3047 1100 
L 3047 0 
L 2419 0 
L 2419 1100 
L 313 1100 
L 313 1709 
L 2253 4666 
z
" transform="scale(0.015625)"/>
       </defs>
       <use xlink:href="#DejaVuSans-34"/>
      </g>
     </g>
    </g>
    <g id="xtick_8">
     <g id="line2d_8">
      <g>
       <use xlink:href="#m879ab62b65" x="311.1819" y="385.72" style="stroke: #000000; stroke-width: 0.8"/>
      </g>
     </g>
     <g id="text_8">
      <!-- 5 -->
      <g transform="translate(307.3644 401.838125) scale(0.12 -0.12)">
       <defs>
        <path id="DejaVuSans-35" d="M 691 4666 
L 3169 4666 
L 3169 4134 
L 1269 4134 
L 1269 2991 
Q 1406 3038 1543 3061 
Q 1681 3084 1819 3084 
Q 2600 3084 3056 2656 
Q 3513 2228 3513 1497 
Q 3513 744 3044 326 
Q 2575 -91 1722 -91 
Q 1428 -91 1123 -41 
Q 819 9 494 109 
L 494 744 
Q 775 591 1075 516 
Q 1375 441 1709 441 
Q 2250 441 2565 725 
Q 2881 1009 2881 1497 
Q 2881 1984 2565 2268 
Q 2250 2553 1709 2553 
Q 1456 2553 1204 2497 
Q 953 2441 691 2322 
L 691 4666 
z
" transform="scale(0.015625)"/>
       </defs>
       <use xlink:href="#DejaVuSans-35"/>
      </g>
     </g>
    </g>
    <g id="xtick_9">
     <g id="line2d_9">
      <g>
       <use xlink:href="#m879ab62b65" x="346.5796" y="385.72" style="stroke: #000000; stroke-width: 0.8"/>
      </g>
     </g>
     <g id="text_9">
      <!-- 6 -->
      <g transform="translate(342.7621 401.838125) scale(0.12 -0.12)">
       <defs>
        <path id="DejaVuSans-36" d="M 2113 2584 
Q 1688 2584 1439 2293 
Q 1191 2003 1191 1497 
Q 1191 994 1439 701 
Q 1688 409 2113 409 
Q 2538 409 2786 701 
Q 3034 994 3034 1497 
Q 3034 2003 2786 2293 
Q 2538 2584 2113 2584 
z
M 3366 4563 
L 3366 3988 
Q 3128 4100 2886 4159 
Q 2644 4219 2406 4219 
Q 1781 4219 1451 3797 
Q 1122 3375 1075 2522 
Q 1259 2794 1537 2939 
Q 1816 3084 2150 3084 
Q 2853 3084 3261 2657 
Q 3669 2231 3669 1497 
Q 3669 778 3244 343 
Q 2819 -91 2113 -91 
Q 1303 -91 875 529 
Q 447 1150 447 2328 
Q 447 3434 972 4092 
Q 1497 4750 2381 4750 
Q 2619 4750 2861 4703 
Q 3103 4656 3366 4563 
z
" transform="scale(0.015625)"/>
       </defs>
       <use xlink:href="#DejaVuSans-36"/>
      </g>
     </g>
    </g>
    <g id="xtick_10">
     <g id="line2d_10">
      <g>
       <use xlink:href="#m879ab62b65" x="381.9773" y="385.72" style="stroke: #000000; stroke-width: 0.8"/>
      </g>
     </g>
     <g id="text_10">
      <!-- 7 -->
      <g transform="translate(378.1598 401.838125) scale(0.12 -0.12)">
       <defs>
        <path id="DejaVuSans-37" d="M 525 4666 
L 3525 4666 
L 3525 4397 
L 1831 0 
L 1172 0 
L 2766 4134 
L 525 4134 
L 525 4666 
z
" transform="scale(0.015625)"/>
       </defs>
       <use xlink:href="#DejaVuSans-37"/>
      </g>
     </g>
    </g>
    <g id="xtick_11">
     <g id="line2d_11">
      <g>
       <use xlink:href="#m879ab62b65" x="417.375" y="385.72" style="stroke: #000000; stroke-width: 0.8"/>
      </g>
     </g>
     <g id="text_11">
      <!-- 8 -->
      <g transform="translate(413.5575 401.838125) scale(0.12 -0.12)">
       <defs>
        <path id="DejaVuSans-38" d="M 2034 2216 
Q 1584 2216 1326 1975 
Q 1069 1734 1069 1313 
Q 1069 891 1326 650 
Q 1584 409 2034 409 
Q 2484 409 2743 651 
Q 3003 894 3003 1313 
Q 3003 1734 2745 1975 
Q 2488 2216 2034 2216 
z
M 1403 2484 
Q 997 2584 770 2862 
Q 544 3141 544 3541 
Q 544 4100 942 4425 
Q 1341 4750 2034 4750 
Q 2731 4750 3128 4425 
Q 3525 4100 3525 3541 
Q 3525 3141 3298 2862 
Q 3072 2584 2669 2484 
Q 3125 2378 3379 2068 
Q 3634 1759 3634 1313 
Q 3634 634 3220 271 
Q 2806 -91 2034 -91 
Q 1263 -91 848 271 
Q 434 634 434 1313 
Q 434 1759 690 2068 
Q 947 2378 1403 2484 
z
M 1172 3481 
Q 1172 3119 1398 2916 
Q 1625 2713 2034 2713 
Q 2441 2713 2670 2916 
Q 2900 3119 2900 3481 
Q 2900 3844 2670 4047 
Q 2441 4250 2034 4250 
Q 1625 4250 1398 4047 
Q 1172 3844 1172 3481 
z
" transform="scale(0.015625)"/>
       </defs>
       <use xlink:href="#DejaVuSans-38"/>
      </g>
     </g>
    </g>
    <g id="text_12">
     <!-- $B-I$ -->
     <g transform="translate(224.9165 418.971563) scale(0.14 -0.14)">
      <defs>
       <path id="DejaVuSans-Oblique-42" d="M 1081 4666 
L 2694 4666 
Q 3350 4666 3675 4422 
Q 4000 4178 4000 3688 
Q 4000 3238 3720 2911 
Q 3441 2584 2988 2516 
Q 3375 2428 3569 2181 
Q 3763 1934 3763 1522 
Q 3763 819 3242 409 
Q 2722 0 1819 0 
L 172 0 
L 1081 4666 
z
M 1234 2228 
L 903 519 
L 1919 519 
Q 2491 519 2800 781 
Q 3109 1044 3109 1522 
Q 3109 1891 2904 2059 
Q 2700 2228 2247 2228 
L 1234 2228 
z
M 1606 4147 
L 1331 2741 
L 2272 2741 
Q 2775 2741 3058 2959 
Q 3341 3178 3341 3566 
Q 3341 3869 3150 4008 
Q 2959 4147 2541 4147 
L 1606 4147 
z
" transform="scale(0.015625)"/>
       <path id="DejaVuSans-Oblique-49" d="M 1081 4666 
L 1716 4666 
L 806 0 
L 172 0 
L 1081 4666 
z
" transform="scale(0.015625)"/>
      </defs>
      <use xlink:href="#DejaVuSans-Oblique-42" transform="translate(0 0.09375)"/>
      <use xlink:href="#DejaVuSans-2212" transform="translate(88.085938 0.09375)"/>
      <use xlink:href="#DejaVuSans-Oblique-49" transform="translate(191.357422 0.09375)"/>
     </g>
    </g>
   </g>
   <g id="matplotlib.axis_2">
    <g id="ytick_1">
     <g id="line2d_12">
      <path d="M 63.398 362.294651 
L 417.375 362.294651 
" clip-path="url(#p41c07e4621)" style="fill: none; stroke: #808080; stroke-opacity: 0.3; stroke-width: 0.8; stroke-linecap: square"/>
     </g>
     <g id="line2d_13">
      <defs>
       <path id="m79407fe6ee" d="M 0 0 
L -3.5 0 
" style="stroke: #000000; stroke-width: 0.8"/>
      </defs>
      <g>
       <use xlink:href="#m79407fe6ee" x="63.398" y="362.294651" style="stroke: #000000; stroke-width: 0.8"/>
      </g>
     </g>
     <g id="text_13">
      <!-- 1 -->
      <g transform="translate(48.763 366.853713) scale(0.12 -0.12)">
       <use xlink:href="#DejaVuSans-31"/>
      </g>
     </g>
    </g>
    <g id="ytick_2">
     <g id="line2d_14">
      <path d="M 63.398 284.477325 
L 417.375 284.477325 
" clip-path="url(#p41c07e4621)" style="fill: none; stroke: #808080; stroke-opacity: 0.3; stroke-width: 0.8; stroke-linecap: square"/>
     </g>
     <g id="line2d_15">
      <g>
       <use xlink:href="#m79407fe6ee" x="63.398" y="284.477325" style="stroke: #000000; stroke-width: 0.8"/>
      </g>
     </g>
     <g id="text_14">
      <!-- 10 -->
      <g transform="translate(41.128 289.036388) scale(0.12 -0.12)">
       <use xlink:href="#DejaVuSans-31"/>
       <use xlink:href="#DejaVuSans-30" x="63.623047"/>
      </g>
     </g>
    </g>
    <g id="ytick_3">
     <g id="line2d_16">
      <path d="M 63.398 206.66 
L 417.375 206.66 
" clip-path="url(#p41c07e4621)" style="fill: none; stroke: #808080; stroke-opacity: 0.3; stroke-width: 0.8; stroke-linecap: square"/>
     </g>
     <g id="line2d_17">
      <g>
       <use xlink:href="#m79407fe6ee" x="63.398" y="206.66" style="stroke: #000000; stroke-width: 0.8"/>
      </g>
     </g>
     <g id="text_15">
      <!-- 100 -->
      <g transform="translate(33.493 211.219063) scale(0.12 -0.12)">
       <use xlink:href="#DejaVuSans-31"/>
       <use xlink:href="#DejaVuSans-30" x="63.623047"/>
       <use xlink:href="#DejaVuSans-30" x="127.246094"/>
      </g>
     </g>
    </g>
    <g id="ytick_4">
     <g id="line2d_18">
      <path d="M 63.398 128.842675 
L 417.375 128.842675 
" clip-path="url(#p41c07e4621)" style="fill: none; stroke: #808080; stroke-opacity: 0.3; stroke-width: 0.8; stroke-linecap: square"/>
     </g>
     <g id="line2d_19">
      <g>
       <use xlink:href="#m79407fe6ee" x="63.398" y="128.842675" style="stroke: #000000; stroke-width: 0.8"/>
      </g>
     </g>
     <g id="text_16">
      <!-- 1e3 -->
      <g transform="translate(33.74425 133.401737) scale(0.12 -0.12)">
       <defs>
        <path id="DejaVuSans-65" d="M 3597 1894 
L 3597 1613 
L 953 1613 
Q 991 1019 1311 708 
Q 1631 397 2203 397 
Q 2534 397 2845 478 
Q 3156 559 3463 722 
L 3463 178 
Q 3153 47 2828 -22 
Q 2503 -91 2169 -91 
Q 1331 -91 842 396 
Q 353 884 353 1716 
Q 353 2575 817 3079 
Q 1281 3584 2069 3584 
Q 2775 3584 3186 3129 
Q 3597 2675 3597 1894 
z
M 3022 2063 
Q 3016 2534 2758 2815 
Q 2500 3097 2075 3097 
Q 1594 3097 1305 2825 
Q 1016 2553 972 2059 
L 3022 2063 
z
" transform="scale(0.015625)"/>
       </defs>
       <use xlink:href="#DejaVuSans-31"/>
       <use xlink:href="#DejaVuSans-65" x="63.623047"/>
       <use xlink:href="#DejaVuSans-33" x="125.146484"/>
      </g>
     </g>
    </g>
    <g id="ytick_5">
     <g id="line2d_20">
      <path d="M 63.398 51.025349 
L 417.375 51.025349 
" clip-path="url(#p41c07e4621)" style="fill: none; stroke: #808080; stroke-opacity: 0.3; stroke-width: 0.8; stroke-linecap: square"/>
     </g>
     <g id="line2d_21">
      <g>
       <use xlink:href="#m79407fe6ee" x="63.398" y="51.025349" style="stroke: #000000; stroke-width: 0.8"/>
      </g>
     </g>
     <g id="text_17">
      <!-- 1e4 -->
      <g transform="translate(33.74425 55.584412) scale(0.12 -0.12)">
       <use xlink:href="#DejaVuSans-31"/>
       <use xlink:href="#DejaVuSans-65" x="63.623047"/>
       <use xlink:href="#DejaVuSans-34" x="125.146484"/>
      </g>
     </g>
    </g>
    <g id="ytick_6">
     <g id="line2d_22">
      <defs>
       <path id="m3415a76cca" d="M 0 0 
L -2 0 
" style="stroke: #000000; stroke-width: 0.6"/>
      </defs>
      <g>
       <use xlink:href="#m3415a76cca" x="63.398" y="385.72" style="stroke: #000000; stroke-width: 0.6"/>
      </g>
     </g>
    </g>
    <g id="ytick_7">
     <g id="line2d_23">
      <g>
       <use xlink:href="#m3415a76cca" x="63.398" y="379.558327" style="stroke: #000000; stroke-width: 0.6"/>
      </g>
     </g>
    </g>
    <g id="ytick_8">
     <g id="line2d_24">
      <g>
       <use xlink:href="#m3415a76cca" x="63.398" y="374.348707" style="stroke: #000000; stroke-width: 0.6"/>
      </g>
     </g>
    </g>
    <g id="ytick_9">
     <g id="line2d_25">
      <g>
       <use xlink:href="#m3415a76cca" x="63.398" y="369.835929" style="stroke: #000000; stroke-width: 0.6"/>
      </g>
     </g>
    </g>
    <g id="ytick_10">
     <g id="line2d_26">
      <g>
       <use xlink:href="#m3415a76cca" x="63.398" y="365.855376" style="stroke: #000000; stroke-width: 0.6"/>
      </g>
     </g>
    </g>
    <g id="ytick_11">
     <g id="line2d_27">
      <g>
       <use xlink:href="#m3415a76cca" x="63.398" y="338.869302" style="stroke: #000000; stroke-width: 0.6"/>
      </g>
     </g>
    </g>
    <g id="ytick_12">
     <g id="line2d_28">
      <g>
       <use xlink:href="#m3415a76cca" x="63.398" y="325.166351" style="stroke: #000000; stroke-width: 0.6"/>
      </g>
     </g>
    </g>
    <g id="ytick_13">
     <g id="line2d_29">
      <g>
       <use xlink:href="#m3415a76cca" x="63.398" y="315.443953" style="stroke: #000000; stroke-width: 0.6"/>
      </g>
     </g>
    </g>
    <g id="ytick_14">
     <g id="line2d_30">
      <g>
       <use xlink:href="#m3415a76cca" x="63.398" y="307.902675" style="stroke: #000000; stroke-width: 0.6"/>
      </g>
     </g>
    </g>
    <g id="ytick_15">
     <g id="line2d_31">
      <g>
       <use xlink:href="#m3415a76cca" x="63.398" y="301.741002" style="stroke: #000000; stroke-width: 0.6"/>
      </g>
     </g>
    </g>
    <g id="ytick_16">
     <g id="line2d_32">
      <g>
       <use xlink:href="#m3415a76cca" x="63.398" y="296.531382" style="stroke: #000000; stroke-width: 0.6"/>
      </g>
     </g>
    </g>
    <g id="ytick_17">
     <g id="line2d_33">
      <g>
       <use xlink:href="#m3415a76cca" x="63.398" y="292.018603" style="stroke: #000000; stroke-width: 0.6"/>
      </g>
     </g>
    </g>
    <g id="ytick_18">
     <g id="line2d_34">
      <g>
       <use xlink:href="#m3415a76cca" x="63.398" y="288.038051" style="stroke: #000000; stroke-width: 0.6"/>
      </g>
     </g>
    </g>
    <g id="ytick_19">
     <g id="line2d_35">
      <g>
       <use xlink:href="#m3415a76cca" x="63.398" y="261.051976" style="stroke: #000000; stroke-width: 0.6"/>
      </g>
     </g>
    </g>
    <g id="ytick_20">
     <g id="line2d_36">
      <g>
       <use xlink:href="#m3415a76cca" x="63.398" y="247.349025" style="stroke: #000000; stroke-width: 0.6"/>
      </g>
     </g>
    </g>
    <g id="ytick_21">
     <g id="line2d_37">
      <g>
       <use xlink:href="#m3415a76cca" x="63.398" y="237.626627" style="stroke: #000000; stroke-width: 0.6"/>
      </g>
     </g>
    </g>
    <g id="ytick_22">
     <g id="line2d_38">
      <g>
       <use xlink:href="#m3415a76cca" x="63.398" y="230.085349" style="stroke: #000000; stroke-width: 0.6"/>
      </g>
     </g>
    </g>
    <g id="ytick_23">
     <g id="line2d_39">
      <g>
       <use xlink:href="#m3415a76cca" x="63.398" y="223.923676" style="stroke: #000000; stroke-width: 0.6"/>
      </g>
     </g>
    </g>
    <g id="ytick_24">
     <g id="line2d_40">
      <g>
       <use xlink:href="#m3415a76cca" x="63.398" y="218.714056" style="stroke: #000000; stroke-width: 0.6"/>
      </g>
     </g>
    </g>
    <g id="ytick_25">
     <g id="line2d_41">
      <g>
       <use xlink:href="#m3415a76cca" x="63.398" y="214.201278" style="stroke: #000000; stroke-width: 0.6"/>
      </g>
     </g>
    </g>
    <g id="ytick_26">
     <g id="line2d_42">
      <g>
       <use xlink:href="#m3415a76cca" x="63.398" y="210.220726" style="stroke: #000000; stroke-width: 0.6"/>
      </g>
     </g>
    </g>
    <g id="ytick_27">
     <g id="line2d_43">
      <g>
       <use xlink:href="#m3415a76cca" x="63.398" y="183.234651" style="stroke: #000000; stroke-width: 0.6"/>
      </g>
     </g>
    </g>
    <g id="ytick_28">
     <g id="line2d_44">
      <g>
       <use xlink:href="#m3415a76cca" x="63.398" y="169.5317" style="stroke: #000000; stroke-width: 0.6"/>
      </g>
     </g>
    </g>
    <g id="ytick_29">
     <g id="line2d_45">
      <g>
       <use xlink:href="#m3415a76cca" x="63.398" y="159.809302" style="stroke: #000000; stroke-width: 0.6"/>
      </g>
     </g>
    </g>
    <g id="ytick_30">
     <g id="line2d_46">
      <g>
       <use xlink:href="#m3415a76cca" x="63.398" y="152.268024" style="stroke: #000000; stroke-width: 0.6"/>
      </g>
     </g>
    </g>
    <g id="ytick_31">
     <g id="line2d_47">
      <g>
       <use xlink:href="#m3415a76cca" x="63.398" y="146.106351" style="stroke: #000000; stroke-width: 0.6"/>
      </g>
     </g>
    </g>
    <g id="ytick_32">
     <g id="line2d_48">
      <g>
       <use xlink:href="#m3415a76cca" x="63.398" y="140.896731" style="stroke: #000000; stroke-width: 0.6"/>
      </g>
     </g>
    </g>
    <g id="ytick_33">
     <g id="line2d_49">
      <g>
       <use xlink:href="#m3415a76cca" x="63.398" y="136.383953" style="stroke: #000000; stroke-width: 0.6"/>
      </g>
     </g>
    </g>
    <g id="ytick_34">
     <g id="line2d_50">
      <g>
       <use xlink:href="#m3415a76cca" x="63.398" y="132.4034" style="stroke: #000000; stroke-width: 0.6"/>
      </g>
     </g>
    </g>
    <g id="ytick_35">
     <g id="line2d_51">
      <g>
       <use xlink:href="#m3415a76cca" x="63.398" y="105.417325" style="stroke: #000000; stroke-width: 0.6"/>
      </g>
     </g>
    </g>
    <g id="ytick_36">
     <g id="line2d_52">
      <g>
       <use xlink:href="#m3415a76cca" x="63.398" y="91.714375" style="stroke: #000000; stroke-width: 0.6"/>
      </g>
     </g>
    </g>
    <g id="ytick_37">
     <g id="line2d_53">
      <g>
       <use xlink:href="#m3415a76cca" x="63.398" y="81.991976" style="stroke: #000000; stroke-width: 0.6"/>
      </g>
     </g>
    </g>
    <g id="ytick_38">
     <g id="line2d_54">
      <g>
       <use xlink:href="#m3415a76cca" x="63.398" y="74.450698" style="stroke: #000000; stroke-width: 0.6"/>
      </g>
     </g>
    </g>
    <g id="ytick_39">
     <g id="line2d_55">
      <g>
       <use xlink:href="#m3415a76cca" x="63.398" y="68.289025" style="stroke: #000000; stroke-width: 0.6"/>
      </g>
     </g>
    </g>
    <g id="ytick_40">
     <g id="line2d_56">
      <g>
       <use xlink:href="#m3415a76cca" x="63.398" y="63.079405" style="stroke: #000000; stroke-width: 0.6"/>
      </g>
     </g>
    </g>
    <g id="ytick_41">
     <g id="line2d_57">
      <g>
       <use xlink:href="#m3415a76cca" x="63.398" y="58.566627" style="stroke: #000000; stroke-width: 0.6"/>
      </g>
     </g>
    </g>
    <g id="ytick_42">
     <g id="line2d_58">
      <g>
       <use xlink:href="#m3415a76cca" x="63.398" y="54.586075" style="stroke: #000000; stroke-width: 0.6"/>
      </g>
     </g>
    </g>
    <g id="ytick_43">
     <g id="line2d_59">
      <g>
       <use xlink:href="#m3415a76cca" x="63.398" y="27.6" style="stroke: #000000; stroke-width: 0.6"/>
      </g>
     </g>
    </g>
    <g id="text_18">
     <!-- $N\ (estrellas/0.2\ color/0.15\ deg^{2}$) -->
     <g transform="translate(26.553 319.01) rotate(-90) scale(0.14 -0.14)">
      <defs>
       <path id="DejaVuSans-Oblique-4e" d="M 1081 4666 
L 1931 4666 
L 3219 666 
L 4000 4666 
L 4616 4666 
L 3706 0 
L 2853 0 
L 1569 4025 
L 788 0 
L 172 0 
L 1081 4666 
z
" transform="scale(0.015625)"/>
       <path id="DejaVuSans-28" d="M 1984 4856 
Q 1566 4138 1362 3434 
Q 1159 2731 1159 2009 
Q 1159 1288 1364 580 
Q 1569 -128 1984 -844 
L 1484 -844 
Q 1016 -109 783 600 
Q 550 1309 550 2009 
Q 550 2706 781 3412 
Q 1013 4119 1484 4856 
L 1984 4856 
z
" transform="scale(0.015625)"/>
       <path id="DejaVuSans-Oblique-65" d="M 3078 2063 
Q 3088 2113 3092 2166 
Q 3097 2219 3097 2272 
Q 3097 2653 2873 2875 
Q 2650 3097 2266 3097 
Q 1838 3097 1509 2826 
Q 1181 2556 1013 2059 
L 3078 2063 
z
M 3578 1613 
L 903 1613 
Q 884 1494 878 1425 
Q 872 1356 872 1306 
Q 872 872 1139 634 
Q 1406 397 1894 397 
Q 2269 397 2603 481 
Q 2938 566 3225 728 
L 3116 159 
Q 2806 34 2476 -28 
Q 2147 -91 1806 -91 
Q 1078 -91 686 257 
Q 294 606 294 1247 
Q 294 1794 489 2264 
Q 684 2734 1063 3103 
Q 1306 3334 1642 3459 
Q 1978 3584 2356 3584 
Q 2950 3584 3301 3228 
Q 3653 2872 3653 2272 
Q 3653 2128 3634 1964 
Q 3616 1800 3578 1613 
z
" transform="scale(0.015625)"/>
       <path id="DejaVuSans-Oblique-73" d="M 3200 3397 
L 3091 2853 
Q 2863 2978 2609 3040 
Q 2356 3103 2088 3103 
Q 1634 3103 1373 2948 
Q 1113 2794 1113 2528 
Q 1113 2219 1719 2053 
Q 1766 2041 1788 2034 
L 1972 1978 
Q 2547 1819 2739 1644 
Q 2931 1469 2931 1166 
Q 2931 609 2489 259 
Q 2047 -91 1331 -91 
Q 1053 -91 747 -37 
Q 441 16 72 128 
L 184 722 
Q 500 559 806 475 
Q 1113 391 1394 391 
Q 1816 391 2080 572 
Q 2344 753 2344 1031 
Q 2344 1331 1650 1516 
L 1591 1531 
L 1394 1581 
Q 956 1697 753 1886 
Q 550 2075 550 2369 
Q 550 2928 970 3256 
Q 1391 3584 2113 3584 
Q 2397 3584 2667 3537 
Q 2938 3491 3200 3397 
z
" transform="scale(0.015625)"/>
       <path id="DejaVuSans-Oblique-74" d="M 2706 3500 
L 2619 3053 
L 1472 3053 
L 1100 1153 
Q 1081 1047 1072 975 
Q 1063 903 1063 863 
Q 1063 663 1183 572 
Q 1303 481 1569 481 
L 2150 481 
L 2053 0 
L 1503 0 
Q 991 0 739 200 
Q 488 400 488 806 
Q 488 878 497 964 
Q 506 1050 525 1153 
L 897 3053 
L 409 3053 
L 500 3500 
L 978 3500 
L 1172 4494 
L 1747 4494 
L 1556 3500 
L 2706 3500 
z
" transform="scale(0.015625)"/>
       <path id="DejaVuSans-Oblique-72" d="M 2853 2969 
Q 2766 3016 2653 3041 
Q 2541 3066 2413 3066 
Q 1953 3066 1609 2717 
Q 1266 2369 1153 1784 
L 800 0 
L 225 0 
L 909 3500 
L 1484 3500 
L 1375 2956 
Q 1603 3259 1920 3421 
Q 2238 3584 2597 3584 
Q 2691 3584 2781 3573 
Q 2872 3563 2963 3538 
L 2853 2969 
z
" transform="scale(0.015625)"/>
       <path id="DejaVuSans-Oblique-6c" d="M 1172 4863 
L 1747 4863 
L 800 0 
L 225 0 
L 1172 4863 
z
" transform="scale(0.015625)"/>
       <path id="DejaVuSans-Oblique-61" d="M 3438 1997 
L 3047 0 
L 2472 0 
L 2578 531 
Q 2325 219 2001 64 
Q 1678 -91 1281 -91 
Q 834 -91 548 182 
Q 263 456 263 884 
Q 263 1497 752 1853 
Q 1241 2209 2100 2209 
L 2900 2209 
L 2931 2363 
Q 2938 2388 2941 2417 
Q 2944 2447 2944 2509 
Q 2944 2788 2717 2942 
Q 2491 3097 2081 3097 
Q 1800 3097 1504 3025 
Q 1209 2953 897 2809 
L 997 3341 
Q 1322 3463 1633 3523 
Q 1944 3584 2234 3584 
Q 2853 3584 3176 3315 
Q 3500 3047 3500 2534 
Q 3500 2431 3484 2292 
Q 3469 2153 3438 1997 
z
M 2816 1759 
L 2241 1759 
Q 1534 1759 1195 1570 
Q 856 1381 856 984 
Q 856 709 1029 553 
Q 1203 397 1509 397 
Q 1978 397 2328 733 
Q 2678 1069 2791 1631 
L 2816 1759 
z
" transform="scale(0.015625)"/>
       <path id="DejaVuSans-2f" d="M 1625 4666 
L 2156 4666 
L 531 -594 
L 0 -594 
L 1625 4666 
z
" transform="scale(0.015625)"/>
       <path id="DejaVuSans-2e" d="M 684 794 
L 1344 794 
L 1344 0 
L 684 0 
L 684 794 
z
" transform="scale(0.015625)"/>
       <path id="DejaVuSans-Oblique-63" d="M 3431 3366 
L 3316 2797 
Q 3109 2947 2876 3022 
Q 2644 3097 2394 3097 
Q 2119 3097 1870 3000 
Q 1622 2903 1453 2725 
Q 1184 2453 1037 2087 
Q 891 1722 891 1331 
Q 891 859 1127 628 
Q 1363 397 1844 397 
Q 2081 397 2348 469 
Q 2616 541 2906 684 
L 2797 116 
Q 2547 13 2283 -39 
Q 2019 -91 1741 -91 
Q 1044 -91 669 257 
Q 294 606 294 1253 
Q 294 1797 489 2255 
Q 684 2713 1069 3078 
Q 1331 3328 1684 3456 
Q 2038 3584 2456 3584 
Q 2700 3584 2940 3529 
Q 3181 3475 3431 3366 
z
" transform="scale(0.015625)"/>
       <path id="DejaVuSans-Oblique-6f" d="M 1625 -91 
Q 1009 -91 651 289 
Q 294 669 294 1325 
Q 294 1706 417 2101 
Q 541 2497 738 2766 
Q 1047 3184 1428 3384 
Q 1809 3584 2291 3584 
Q 2888 3584 3255 3212 
Q 3622 2841 3622 2241 
Q 3622 1825 3500 1412 
Q 3378 1000 3181 728 
Q 2875 309 2494 109 
Q 2113 -91 1625 -91 
z
M 891 1344 
Q 891 869 1089 633 
Q 1288 397 1691 397 
Q 2269 397 2648 901 
Q 3028 1406 3028 2181 
Q 3028 2634 2825 2865 
Q 2622 3097 2228 3097 
Q 1903 3097 1650 2945 
Q 1397 2794 1197 2484 
Q 1050 2253 970 1956 
Q 891 1659 891 1344 
z
" transform="scale(0.015625)"/>
       <path id="DejaVuSans-Oblique-64" d="M 2675 525 
Q 2444 222 2128 65 
Q 1813 -91 1428 -91 
Q 903 -91 598 267 
Q 294 625 294 1247 
Q 294 1766 478 2236 
Q 663 2706 1013 3078 
Q 1244 3325 1534 3454 
Q 1825 3584 2144 3584 
Q 2481 3584 2739 3421 
Q 2997 3259 3138 2956 
L 3513 4863 
L 4091 4863 
L 3144 0 
L 2566 0 
L 2675 525 
z
M 891 1350 
Q 891 897 1095 644 
Q 1300 391 1663 391 
Q 1931 391 2161 520 
Q 2391 650 2566 903 
Q 2750 1166 2856 1509 
Q 2963 1853 2963 2188 
Q 2963 2622 2758 2865 
Q 2553 3109 2194 3109 
Q 1922 3109 1687 2981 
Q 1453 2853 1288 2613 
Q 1106 2353 998 2009 
Q 891 1666 891 1350 
z
" transform="scale(0.015625)"/>
       <path id="DejaVuSans-Oblique-67" d="M 3816 3500 
L 3219 434 
Q 3047 -456 2561 -893 
Q 2075 -1331 1253 -1331 
Q 950 -1331 690 -1286 
Q 431 -1241 206 -1147 
L 313 -588 
Q 525 -725 762 -790 
Q 1000 -856 1269 -856 
Q 1816 -856 2167 -557 
Q 2519 -259 2631 300 
L 2681 563 
Q 2441 288 2122 144 
Q 1803 0 1434 0 
Q 903 0 598 351 
Q 294 703 294 1319 
Q 294 1803 478 2267 
Q 663 2731 997 3091 
Q 1219 3328 1514 3456 
Q 1809 3584 2131 3584 
Q 2484 3584 2746 3420 
Q 3009 3256 3138 2956 
L 3238 3500 
L 3816 3500 
z
M 2950 2216 
Q 2950 2641 2750 2872 
Q 2550 3103 2181 3103 
Q 1953 3103 1747 3012 
Q 1541 2922 1394 2759 
Q 1156 2491 1023 2127 
Q 891 1763 891 1375 
Q 891 944 1092 712 
Q 1294 481 1672 481 
Q 2219 481 2584 976 
Q 2950 1472 2950 2216 
z
" transform="scale(0.015625)"/>
       <path id="DejaVuSans-29" d="M 513 4856 
L 1013 4856 
Q 1481 4119 1714 3412 
Q 1947 2706 1947 2009 
Q 1947 1309 1714 600 
Q 1481 -109 1013 -844 
L 513 -844 
Q 928 -128 1133 580 
Q 1338 1288 1338 2009 
Q 1338 2731 1133 3434 
Q 928 4138 513 4856 
z
" transform="scale(0.015625)"/>
      </defs>
      <use xlink:href="#DejaVuSans-Oblique-4e" transform="translate(0 0.765625)"/>
      <use xlink:href="#DejaVuSans-28" transform="translate(107.275066 0.765625)"/>
      <use xlink:href="#DejaVuSans-Oblique-65" transform="translate(146.288738 0.765625)"/>
      <use xlink:href="#DejaVuSans-Oblique-73" transform="translate(207.812175 0.765625)"/>
      <use xlink:href="#DejaVuSans-Oblique-74" transform="translate(259.911785 0.765625)"/>
      <use xlink:href="#DejaVuSans-Oblique-72" transform="translate(299.120769 0.765625)"/>
      <use xlink:href="#DejaVuSans-Oblique-65" transform="translate(340.23405 0.765625)"/>
      <use xlink:href="#DejaVuSans-Oblique-6c" transform="translate(401.757488 0.765625)"/>
      <use xlink:href="#DejaVuSans-Oblique-6c" transform="translate(429.540691 0.765625)"/>
      <use xlink:href="#DejaVuSans-Oblique-61" transform="translate(457.323894 0.765625)"/>
      <use xlink:href="#DejaVuSans-Oblique-73" transform="translate(518.603191 0.765625)"/>
      <use xlink:href="#DejaVuSans-2f" transform="translate(570.7028 0.765625)"/>
      <use xlink:href="#DejaVuSans-30" transform="translate(604.394207 0.765625)"/>
      <use xlink:href="#DejaVuSans-2e" transform="translate(668.017253 0.765625)"/>
      <use xlink:href="#DejaVuSans-32" transform="translate(694.304363 0.765625)"/>
      <use xlink:href="#DejaVuSans-Oblique-63" transform="translate(790.397788 0.765625)"/>
      <use xlink:href="#DejaVuSans-Oblique-6f" transform="translate(845.378257 0.765625)"/>
      <use xlink:href="#DejaVuSans-Oblique-6c" transform="translate(906.559897 0.765625)"/>
      <use xlink:href="#DejaVuSans-Oblique-6f" transform="translate(934.343101 0.765625)"/>
      <use xlink:href="#DejaVuSans-Oblique-72" transform="translate(995.524741 0.765625)"/>
      <use xlink:href="#DejaVuSans-2f" transform="translate(1036.638022 0.765625)"/>
      <use xlink:href="#DejaVuSans-30" transform="translate(1070.329429 0.765625)"/>
      <use xlink:href="#DejaVuSans-2e" transform="translate(1133.952476 0.765625)"/>
      <use xlink:href="#DejaVuSans-31" transform="translate(1165.739585 0.765625)"/>
      <use xlink:href="#DejaVuSans-35" transform="translate(1229.362632 0.765625)"/>
      <use xlink:href="#DejaVuSans-Oblique-64" transform="translate(1325.456057 0.765625)"/>
      <use xlink:href="#DejaVuSans-Oblique-65" transform="translate(1388.93262 0.765625)"/>
      <use xlink:href="#DejaVuSans-Oblique-67" transform="translate(1450.456057 0.765625)"/>
      <use xlink:href="#DejaVuSans-32" transform="translate(1518.582515 39.046875) scale(0.7)"/>
      <use xlink:href="#DejaVuSans-29" transform="translate(1565.853023 0.765625)"/>
     </g>
    </g>
   </g>
   <g id="LineCollection_1">
    <path clip-path="url(#p41c07e4621)" style="fill: none; stroke: #000000; stroke-width: 1.5"/>
    <path clip-path="url(#p41c07e4621)" style="fill: none; stroke: #000000; stroke-width: 1.5"/>
    <path clip-path="url(#p41c07e4621)" style="fill: none; stroke: #000000; stroke-width: 1.5"/>
    <path clip-path="url(#p41c07e4621)" style="fill: none; stroke: #000000; stroke-width: 1.5"/>
    <path clip-path="url(#p41c07e4621)" style="fill: none; stroke: #000000; stroke-width: 1.5"/>
    <path clip-path="url(#p41c07e4621)" style="fill: none; stroke: #000000; stroke-width: 1.5"/>
    <path clip-path="url(#p41c07e4621)" style="fill: none; stroke: #000000; stroke-width: 1.5"/>
    <path clip-path="url(#p41c07e4621)" style="fill: none; stroke: #000000; stroke-width: 1.5"/>
    <path clip-path="url(#p41c07e4621)" style="fill: none; stroke: #000000; stroke-width: 1.5"/>
    <path clip-path="url(#p41c07e4621)" style="fill: none; stroke: #000000; stroke-width: 1.5"/>
    <path clip-path="url(#p41c07e4621)" style="fill: none; stroke: #000000; stroke-width: 1.5"/>
    <path clip-path="url(#p41c07e4621)" style="fill: none; stroke: #000000; stroke-width: 1.5"/>
    <path clip-path="url(#p41c07e4621)" style="fill: none; stroke: #000000; stroke-width: 1.5"/>
    <path clip-path="url(#p41c07e4621)" style="fill: none; stroke: #000000; stroke-width: 1.5"/>
    <path clip-path="url(#p41c07e4621)" style="fill: none; stroke: #000000; stroke-width: 1.5"/>
    <path clip-path="url(#p41c07e4621)" style="fill: none; stroke: #000000; stroke-width: 1.5"/>
    <path clip-path="url(#p41c07e4621)" style="fill: none; stroke: #000000; stroke-width: 1.5"/>
    <path clip-path="url(#p41c07e4621)" style="fill: none; stroke: #000000; stroke-width: 1.5"/>
    <path clip-path="url(#p41c07e4621)" style="fill: none; stroke: #000000; stroke-width: 1.5"/>
    <path clip-path="url(#p41c07e4621)" style="fill: none; stroke: #000000; stroke-width: 1.5"/>
    <path clip-path="url(#p41c07e4621)" style="fill: none; stroke: #000000; stroke-width: 1.5"/>
    <path clip-path="url(#p41c07e4621)" style="fill: none; stroke: #000000; stroke-width: 1.5"/>
    <path clip-path="url(#p41c07e4621)" style="fill: none; stroke: #000000; stroke-width: 1.5"/>
    <path clip-path="url(#p41c07e4621)" style="fill: none; stroke: #000000; stroke-width: 1.5"/>
    <path clip-path="url(#p41c07e4621)" style="fill: none; stroke: #000000; stroke-width: 1.5"/>
    <path clip-path="url(#p41c07e4621)" style="fill: none; stroke: #000000; stroke-width: 1.5"/>
    <path clip-path="url(#p41c07e4621)" style="fill: none; stroke: #000000; stroke-width: 1.5"/>
    <path clip-path="url(#p41c07e4621)" style="fill: none; stroke: #000000; stroke-width: 1.5"/>
    <path clip-path="url(#p41c07e4621)" style="fill: none; stroke: #000000; stroke-width: 1.5"/>
    <path clip-path="url(#p41c07e4621)" style="fill: none; stroke: #000000; stroke-width: 1.5"/>
    <path clip-path="url(#p41c07e4621)" style="fill: none; stroke: #000000; stroke-width: 1.5"/>
    <path d="M 3.22191 380.368556 
L 3.22191 320.795396 
" clip-path="url(#p41c07e4621)" style="fill: none; stroke: #000000; stroke-width: 1.5"/>
    <path clip-path="url(#p41c07e4621)" style="fill: none; stroke: #000000; stroke-width: 1.5"/>
    <path clip-path="url(#p41c07e4621)" style="fill: none; stroke: #000000; stroke-width: 1.5"/>
    <path clip-path="url(#p41c07e4621)" style="fill: none; stroke: #000000; stroke-width: 1.5"/>
    <path d="M 31.54007 433 
L 31.54007 338.869302 
" clip-path="url(#p41c07e4621)" style="fill: none; stroke: #000000; stroke-width: 1.5"/>
    <path d="M 38.61961 433 
L 38.61961 338.869302 
" clip-path="url(#p41c07e4621)" style="fill: none; stroke: #000000; stroke-width: 1.5"/>
    <path clip-path="url(#p41c07e4621)" style="fill: none; stroke: #000000; stroke-width: 1.5"/>
    <path clip-path="url(#p41c07e4621)" style="fill: none; stroke: #000000; stroke-width: 1.5"/>
    <path d="M 59.85823 433 
L 59.85823 338.869302 
" clip-path="url(#p41c07e4621)" style="fill: none; stroke: #000000; stroke-width: 1.5"/>
    <path clip-path="url(#p41c07e4621)" style="fill: none; stroke: #000000; stroke-width: 1.5"/>
    <path clip-path="url(#p41c07e4621)" style="fill: none; stroke: #000000; stroke-width: 1.5"/>
    <path d="M 81.09685 433 
L 81.09685 338.869302 
" clip-path="url(#p41c07e4621)" style="fill: none; stroke: #000000; stroke-width: 1.5"/>
    <path d="M 88.17639 433 
L 88.17639 338.869302 
" clip-path="url(#p41c07e4621)" style="fill: none; stroke: #000000; stroke-width: 1.5"/>
    <path clip-path="url(#p41c07e4621)" style="fill: none; stroke: #000000; stroke-width: 1.5"/>
    <path d="M 102.33547 380.368556 
L 102.33547 320.795396 
" clip-path="url(#p41c07e4621)" style="fill: none; stroke: #000000; stroke-width: 1.5"/>
    <path d="M 109.41501 338.869302 
L 109.41501 301.741002 
" clip-path="url(#p41c07e4621)" style="fill: none; stroke: #000000; stroke-width: 1.5"/>
    <path d="M 116.49455 289.827326 
L 116.49455 269.744584 
" clip-path="url(#p41c07e4621)" style="fill: none; stroke: #000000; stroke-width: 1.5"/>
    <path d="M 123.57409 289.827326 
L 123.57409 269.744584 
" clip-path="url(#p41c07e4621)" style="fill: none; stroke: #000000; stroke-width: 1.5"/>
    <path d="M 130.65363 267.722864 
L 130.65363 252.732194 
" clip-path="url(#p41c07e4621)" style="fill: none; stroke: #000000; stroke-width: 1.5"/>
    <path d="M 137.73317 250.591526 
L 137.73317 238.704337 
" clip-path="url(#p41c07e4621)" style="fill: none; stroke: #000000; stroke-width: 1.5"/>
    <path d="M 144.81271 227.995336 
L 144.81271 219.293399 
" clip-path="url(#p41c07e4621)" style="fill: none; stroke: #000000; stroke-width: 1.5"/>
    <path d="M 151.89225 200.624034 
L 151.89225 194.703461 
" clip-path="url(#p41c07e4621)" style="fill: none; stroke: #000000; stroke-width: 1.5"/>
    <path d="M 158.97179 170.287558 
L 158.97179 166.450693 
" clip-path="url(#p41c07e4621)" style="fill: none; stroke: #000000; stroke-width: 1.5"/>
    <path d="M 166.05133 129.825762 
L 166.05133 127.690828 
" clip-path="url(#p41c07e4621)" style="fill: none; stroke: #000000; stroke-width: 1.5"/>
    <path d="M 173.13087 106.507887 
L 173.13087 104.989014 
" clip-path="url(#p41c07e4621)" style="fill: none; stroke: #000000; stroke-width: 1.5"/>
    <path d="M 180.21041 100.599022 
L 180.21041 99.206005 
" clip-path="url(#p41c07e4621)" style="fill: none; stroke: #000000; stroke-width: 1.5"/>
    <path d="M 187.28995 103.425171 
L 187.28995 101.973301 
" clip-path="url(#p41c07e4621)" style="fill: none; stroke: #000000; stroke-width: 1.5"/>
    <path d="M 194.36949 107.505989 
L 194.36949 105.964774 
" clip-path="url(#p41c07e4621)" style="fill: none; stroke: #000000; stroke-width: 1.5"/>
    <path d="M 201.44903 112.927391 
L 201.44903 111.259021 
" clip-path="url(#p41c07e4621)" style="fill: none; stroke: #000000; stroke-width: 1.5"/>
    <path d="M 208.52857 118.558628 
L 208.52857 116.747209 
" clip-path="url(#p41c07e4621)" style="fill: none; stroke: #000000; stroke-width: 1.5"/>
    <path d="M 215.60811 117.852747 
L 215.60811 116.059902 
" clip-path="url(#p41c07e4621)" style="fill: none; stroke: #000000; stroke-width: 1.5"/>
    <path d="M 222.68765 123.929168 
L 222.68765 121.970069 
" clip-path="url(#p41c07e4621)" style="fill: none; stroke: #000000; stroke-width: 1.5"/>
    <path d="M 229.76719 124.102403 
L 229.76719 122.138348 
" clip-path="url(#p41c07e4621)" style="fill: none; stroke: #000000; stroke-width: 1.5"/>
    <path d="M 236.84673 122.491211 
L 236.84673 120.572779 
" clip-path="url(#p41c07e4621)" style="fill: none; stroke: #000000; stroke-width: 1.5"/>
    <path d="M 243.92627 118.954442 
L 243.92627 117.132524 
" clip-path="url(#p41c07e4621)" style="fill: none; stroke: #000000; stroke-width: 1.5"/>
    <path d="M 251.00581 117.949243 
L 251.00581 116.15387 
" clip-path="url(#p41c07e4621)" style="fill: none; stroke: #000000; stroke-width: 1.5"/>
    <path d="M 258.08535 116.460326 
L 258.08535 114.703573 
" clip-path="url(#p41c07e4621)" style="fill: none; stroke: #000000; stroke-width: 1.5"/>
    <path d="M 265.16489 117.493302 
L 265.16489 115.709844 
" clip-path="url(#p41c07e4621)" style="fill: none; stroke: #000000; stroke-width: 1.5"/>
    <path d="M 272.24443 117.137616 
L 272.24443 115.363398 
" clip-path="url(#p41c07e4621)" style="fill: none; stroke: #000000; stroke-width: 1.5"/>
    <path d="M 279.32397 124.568721 
L 279.32397 122.591263 
" clip-path="url(#p41c07e4621)" style="fill: none; stroke: #000000; stroke-width: 1.5"/>
    <path d="M 286.40351 138.427753 
L 286.40351 136.008115 
" clip-path="url(#p41c07e4621)" style="fill: none; stroke: #000000; stroke-width: 1.5"/>
    <path d="M 293.48305 157.002 
L 293.48305 153.834432 
" clip-path="url(#p41c07e4621)" style="fill: none; stroke: #000000; stroke-width: 1.5"/>
    <path d="M 300.56259 178.182016 
L 300.56259 173.884183 
" clip-path="url(#p41c07e4621)" style="fill: none; stroke: #000000; stroke-width: 1.5"/>
    <path d="M 307.64213 202.570135 
L 307.64213 196.483864 
" clip-path="url(#p41c07e4621)" style="fill: none; stroke: #000000; stroke-width: 1.5"/>
    <path d="M 314.72167 246.331219 
L 314.72167 235.11752 
" clip-path="url(#p41c07e4621)" style="fill: none; stroke: #000000; stroke-width: 1.5"/>
    <path d="M 321.80121 265.934497 
L 321.80121 251.299493 
" clip-path="url(#p41c07e4621)" style="fill: none; stroke: #000000; stroke-width: 1.5"/>
    <path d="M 328.88075 319.472495 
L 328.88075 290.171182 
" clip-path="url(#p41c07e4621)" style="fill: none; stroke: #000000; stroke-width: 1.5"/>
    <path d="M 335.96029 338.869302 
L 335.96029 301.741002 
" clip-path="url(#p41c07e4621)" style="fill: none; stroke: #000000; stroke-width: 1.5"/>
    <path d="M 343.03983 380.368556 
L 343.03983 320.795396 
" clip-path="url(#p41c07e4621)" style="fill: none; stroke: #000000; stroke-width: 1.5"/>
    <path clip-path="url(#p41c07e4621)" style="fill: none; stroke: #000000; stroke-width: 1.5"/>
    <path d="M 357.19891 433 
L 357.19891 338.869302 
" clip-path="url(#p41c07e4621)" style="fill: none; stroke: #000000; stroke-width: 1.5"/>
    <path clip-path="url(#p41c07e4621)" style="fill: none; stroke: #000000; stroke-width: 1.5"/>
    <path clip-path="url(#p41c07e4621)" style="fill: none; stroke: #000000; stroke-width: 1.5"/>
    <path d="M 378.43753 380.368556 
L 378.43753 320.795396 
" clip-path="url(#p41c07e4621)" style="fill: none; stroke: #000000; stroke-width: 1.5"/>
    <path clip-path="url(#p41c07e4621)" style="fill: none; stroke: #000000; stroke-width: 1.5"/>
    <path clip-path="url(#p41c07e4621)" style="fill: none; stroke: #000000; stroke-width: 1.5"/>
    <path clip-path="url(#p41c07e4621)" style="fill: none; stroke: #000000; stroke-width: 1.5"/>
    <path clip-path="url(#p41c07e4621)" style="fill: none; stroke: #000000; stroke-width: 1.5"/>
    <path clip-path="url(#p41c07e4621)" style="fill: none; stroke: #000000; stroke-width: 1.5"/>
    <path d="M 420.91477 433 
L 420.91477 338.869302 
" clip-path="url(#p41c07e4621)" style="fill: none; stroke: #000000; stroke-width: 1.5"/>
    <path clip-path="url(#p41c07e4621)" style="fill: none; stroke: #000000; stroke-width: 1.5"/>
    <path clip-path="url(#p41c07e4621)" style="fill: none; stroke: #000000; stroke-width: 1.5"/>
    <path clip-path="url(#p41c07e4621)" style="fill: none; stroke: #000000; stroke-width: 1.5"/>
    <path clip-path="url(#p41c07e4621)" style="fill: none; stroke: #000000; stroke-width: 1.5"/>
    <path clip-path="url(#p41c07e4621)" style="fill: none; stroke: #000000; stroke-width: 1.5"/>
    <path clip-path="url(#p41c07e4621)" style="fill: none; stroke: #000000; stroke-width: 1.5"/>
    <path clip-path="url(#p41c07e4621)" style="fill: none; stroke: #000000; stroke-width: 1.5"/>
    <path clip-path="url(#p41c07e4621)" style="fill: none; stroke: #000000; stroke-width: 1.5"/>
   </g>
   <g id="line2d_60">
    <defs>
     <path id="md9b0583923" d="M 2 0 
L -2 -0 
" style="stroke: #000000"/>
    </defs>
    <g clip-path="url(#p41c07e4621)">
     <use xlink:href="#md9b0583923" x="0.426044" y="31105" style="stroke: #000000"/>
     <use xlink:href="#md9b0583923" x="3.22191" y="380.368556" style="stroke: #000000"/>
     <use xlink:href="#md9b0583923" x="6.017776" y="31105" style="stroke: #000000"/>
     <use xlink:href="#md9b0583923" x="99.539604" y="31105" style="stroke: #000000"/>
     <use xlink:href="#md9b0583923" x="102.33547" y="380.368556" style="stroke: #000000"/>
     <use xlink:href="#md9b0583923" x="109.41501" y="338.869302" style="stroke: #000000"/>
     <use xlink:href="#md9b0583923" x="116.49455" y="289.827326" style="stroke: #000000"/>
     <use xlink:href="#md9b0583923" x="123.57409" y="289.827326" style="stroke: #000000"/>
     <use xlink:href="#md9b0583923" x="130.65363" y="267.722864" style="stroke: #000000"/>
     <use xlink:href="#md9b0583923" x="137.73317" y="250.591526" style="stroke: #000000"/>
     <use xlink:href="#md9b0583923" x="144.81271" y="227.995336" style="stroke: #000000"/>
     <use xlink:href="#md9b0583923" x="151.89225" y="200.624034" style="stroke: #000000"/>
     <use xlink:href="#md9b0583923" x="158.97179" y="170.287558" style="stroke: #000000"/>
     <use xlink:href="#md9b0583923" x="166.05133" y="129.825762" style="stroke: #000000"/>
     <use xlink:href="#md9b0583923" x="173.13087" y="106.507887" style="stroke: #000000"/>
     <use xlink:href="#md9b0583923" x="180.21041" y="100.599022" style="stroke: #000000"/>
     <use xlink:href="#md9b0583923" x="187.28995" y="103.425171" style="stroke: #000000"/>
     <use xlink:href="#md9b0583923" x="194.36949" y="107.505989" style="stroke: #000000"/>
     <use xlink:href="#md9b0583923" x="201.44903" y="112.927391" style="stroke: #000000"/>
     <use xlink:href="#md9b0583923" x="208.52857" y="118.558628" style="stroke: #000000"/>
     <use xlink:href="#md9b0583923" x="215.60811" y="117.852747" style="stroke: #000000"/>
     <use xlink:href="#md9b0583923" x="222.68765" y="123.929168" style="stroke: #000000"/>
     <use xlink:href="#md9b0583923" x="229.76719" y="124.102403" style="stroke: #000000"/>
     <use xlink:href="#md9b0583923" x="236.84673" y="122.491211" style="stroke: #000000"/>
     <use xlink:href="#md9b0583923" x="243.92627" y="118.954442" style="stroke: #000000"/>
     <use xlink:href="#md9b0583923" x="251.00581" y="117.949243" style="stroke: #000000"/>
     <use xlink:href="#md9b0583923" x="258.08535" y="116.460326" style="stroke: #000000"/>
     <use xlink:href="#md9b0583923" x="265.16489" y="117.493302" style="stroke: #000000"/>
     <use xlink:href="#md9b0583923" x="272.24443" y="117.137616" style="stroke: #000000"/>
     <use xlink:href="#md9b0583923" x="279.32397" y="124.568721" style="stroke: #000000"/>
     <use xlink:href="#md9b0583923" x="286.40351" y="138.427753" style="stroke: #000000"/>
     <use xlink:href="#md9b0583923" x="293.48305" y="157.002" style="stroke: #000000"/>
     <use xlink:href="#md9b0583923" x="300.56259" y="178.182016" style="stroke: #000000"/>
     <use xlink:href="#md9b0583923" x="307.64213" y="202.570135" style="stroke: #000000"/>
     <use xlink:href="#md9b0583923" x="314.72167" y="246.331219" style="stroke: #000000"/>
     <use xlink:href="#md9b0583923" x="321.80121" y="265.934497" style="stroke: #000000"/>
     <use xlink:href="#md9b0583923" x="328.88075" y="319.472495" style="stroke: #000000"/>
     <use xlink:href="#md9b0583923" x="335.96029" y="338.869302" style="stroke: #000000"/>
     <use xlink:href="#md9b0583923" x="343.03983" y="380.368556" style="stroke: #000000"/>
     <use xlink:href="#md9b0583923" x="345.835696" y="31105" style="stroke: #000000"/>
     <use xlink:href="#md9b0583923" x="375.641664" y="31105" style="stroke: #000000"/>
     <use xlink:href="#md9b0583923" x="378.43753" y="380.368556" style="stroke: #000000"/>
     <use xlink:href="#md9b0583923" x="381.233396" y="31105" style="stroke: #000000"/>
    </g>
   </g>
   <g id="line2d_61">
    <g clip-path="url(#p41c07e4621)">
     <use xlink:href="#md9b0583923" x="-1" y="331.573837" style="stroke: #000000"/>
     <use xlink:href="#md9b0583923" x="3.22191" y="320.795396" style="stroke: #000000"/>
     <use xlink:href="#md9b0583923" x="6.021053" y="31105" style="stroke: #000000"/>
     <use xlink:href="#md9b0583923" x="28.741921" y="31105" style="stroke: #000000"/>
     <use xlink:href="#md9b0583923" x="31.54007" y="338.869302" style="stroke: #000000"/>
     <use xlink:href="#md9b0583923" x="38.61961" y="338.869302" style="stroke: #000000"/>
     <use xlink:href="#md9b0583923" x="41.417759" y="31105" style="stroke: #000000"/>
     <use xlink:href="#md9b0583923" x="57.060081" y="31105" style="stroke: #000000"/>
     <use xlink:href="#md9b0583923" x="59.85823" y="338.869302" style="stroke: #000000"/>
     <use xlink:href="#md9b0583923" x="62.656379" y="31105" style="stroke: #000000"/>
     <use xlink:href="#md9b0583923" x="78.298701" y="31105" style="stroke: #000000"/>
     <use xlink:href="#md9b0583923" x="81.09685" y="338.869302" style="stroke: #000000"/>
     <use xlink:href="#md9b0583923" x="88.17639" y="338.869302" style="stroke: #000000"/>
     <use xlink:href="#md9b0583923" x="90.974539" y="31105" style="stroke: #000000"/>
     <use xlink:href="#md9b0583923" x="99.536327" y="31105" style="stroke: #000000"/>
     <use xlink:href="#md9b0583923" x="102.33547" y="320.795396" style="stroke: #000000"/>
     <use xlink:href="#md9b0583923" x="109.41501" y="301.741002" style="stroke: #000000"/>
     <use xlink:href="#md9b0583923" x="116.49455" y="269.744584" style="stroke: #000000"/>
     <use xlink:href="#md9b0583923" x="123.57409" y="269.744584" style="stroke: #000000"/>
     <use xlink:href="#md9b0583923" x="130.65363" y="252.732194" style="stroke: #000000"/>
     <use xlink:href="#md9b0583923" x="137.73317" y="238.704337" style="stroke: #000000"/>
     <use xlink:href="#md9b0583923" x="144.81271" y="219.293399" style="stroke: #000000"/>
     <use xlink:href="#md9b0583923" x="151.89225" y="194.703461" style="stroke: #000000"/>
     <use xlink:href="#md9b0583923" x="158.97179" y="166.450693" style="stroke: #000000"/>
     <use xlink:href="#md9b0583923" x="166.05133" y="127.690828" style="stroke: #000000"/>
     <use xlink:href="#md9b0583923" x="173.13087" y="104.989014" style="stroke: #000000"/>
     <use xlink:href="#md9b0583923" x="180.21041" y="99.206005" style="stroke: #000000"/>
     <use xlink:href="#md9b0583923" x="187.28995" y="101.973301" style="stroke: #000000"/>
     <use xlink:href="#md9b0583923" x="194.36949" y="105.964774" style="stroke: #000000"/>
     <use xlink:href="#md9b0583923" x="201.44903" y="111.259021" style="stroke: #000000"/>
     <use xlink:href="#md9b0583923" x="208.52857" y="116.747209" style="stroke: #000000"/>
     <use xlink:href="#md9b0583923" x="215.60811" y="116.059902" style="stroke: #000000"/>
     <use xlink:href="#md9b0583923" x="222.68765" y="121.970069" style="stroke: #000000"/>
     <use xlink:href="#md9b0583923" x="229.76719" y="122.138348" style="stroke: #000000"/>
     <use xlink:href="#md9b0583923" x="236.84673" y="120.572779" style="stroke: #000000"/>
     <use xlink:href="#md9b0583923" x="243.92627" y="117.132524" style="stroke: #000000"/>
     <use xlink:href="#md9b0583923" x="251.00581" y="116.15387" style="stroke: #000000"/>
     <use xlink:href="#md9b0583923" x="258.08535" y="114.703573" style="stroke: #000000"/>
     <use xlink:href="#md9b0583923" x="265.16489" y="115.709844" style="stroke: #000000"/>
     <use xlink:href="#md9b0583923" x="272.24443" y="115.363398" style="stroke: #000000"/>
     <use xlink:href="#md9b0583923" x="279.32397" y="122.591263" style="stroke: #000000"/>
     <use xlink:href="#md9b0583923" x="286.40351" y="136.008115" style="stroke: #000000"/>
     <use xlink:href="#md9b0583923" x="293.48305" y="153.834432" style="stroke: #000000"/>
     <use xlink:href="#md9b0583923" x="300.56259" y="173.884183" style="stroke: #000000"/>
     <use xlink:href="#md9b0583923" x="307.64213" y="196.483864" style="stroke: #000000"/>
     <use xlink:href="#md9b0583923" x="314.72167" y="235.11752" style="stroke: #000000"/>
     <use xlink:href="#md9b0583923" x="321.80121" y="251.299493" style="stroke: #000000"/>
     <use xlink:href="#md9b0583923" x="328.88075" y="290.171182" style="stroke: #000000"/>
     <use xlink:href="#md9b0583923" x="335.96029" y="301.741002" style="stroke: #000000"/>
     <use xlink:href="#md9b0583923" x="343.03983" y="320.795396" style="stroke: #000000"/>
     <use xlink:href="#md9b0583923" x="345.838973" y="31105" style="stroke: #000000"/>
     <use xlink:href="#md9b0583923" x="354.400761" y="31105" style="stroke: #000000"/>
     <use xlink:href="#md9b0583923" x="357.19891" y="338.869302" style="stroke: #000000"/>
     <use xlink:href="#md9b0583923" x="359.997059" y="31105" style="stroke: #000000"/>
     <use xlink:href="#md9b0583923" x="375.638387" y="31105" style="stroke: #000000"/>
     <use xlink:href="#md9b0583923" x="378.43753" y="320.795396" style="stroke: #000000"/>
     <use xlink:href="#md9b0583923" x="381.236673" y="31105" style="stroke: #000000"/>
     <use xlink:href="#md9b0583923" x="418.116621" y="31105" style="stroke: #000000"/>
     <use xlink:href="#md9b0583923" x="420.91477" y="338.869302" style="stroke: #000000"/>
     <use xlink:href="#md9b0583923" x="423.712919" y="31105" style="stroke: #000000"/>
    </g>
   </g>
   <g id="line2d_62"/>
   <g id="patch_4">
    <path d="M 63.398 385.72 
L 63.398 27.6 
" style="fill: none; stroke: #000000; stroke-width: 0.8; stroke-linejoin: miter; stroke-linecap: square"/>
   </g>
   <g id="patch_5">
    <path d="M 417.375 385.72 
L 417.375 27.6 
" style="fill: none; stroke: #000000; stroke-width: 0.8; stroke-linejoin: miter; stroke-linecap: square"/>
   </g>
   <g id="patch_6">
    <path d="M 63.398 385.72 
L 417.375 385.72 
" style="fill: none; stroke: #000000; stroke-width: 0.8; stroke-linejoin: miter; stroke-linecap: square"/>
   </g>
   <g id="patch_7">
    <path d="M 63.398 27.6 
L 417.375 27.6 
" style="fill: none; stroke: #000000; stroke-width: 0.8; stroke-linejoin: miter; stroke-linecap: square"/>
   </g>
   <g id="patch_8">
    <path d="M 105.87524 433 
L 105.87524 212.957126 
L 112.95478 212.957126 
L 112.95478 224.491684 
L 127.11386 224.491684 
L 127.11386 223.365058 
L 134.1934 223.365058 
L 134.1934 257.830908 
L 141.27294 257.830908 
L 141.27294 253.510698 
L 148.35248 253.510698 
L 148.35248 278.315653 
L 155.43202 278.315653 
L 155.43202 266.544407 
L 162.51156 266.544407 
L 162.51156 137.544247 
L 169.5911 137.544247 
L 169.5911 104.897511 
L 176.67064 104.897511 
L 176.67064 98.919375 
L 183.75018 98.919375 
L 183.75018 103.832865 
L 190.82972 103.832865 
L 190.82972 108.548954 
L 197.90926 108.548954 
L 197.90926 107.115259 
L 204.9888 107.115259 
L 204.9888 102.334796 
L 212.06834 102.334796 
L 212.06834 94.009842 
L 219.14788 94.009842 
L 219.14788 91.422741 
L 226.22742 91.422741 
L 226.22742 82.297514 
L 233.30696 82.297514 
L 233.30696 88.045676 
L 240.3865 88.045676 
L 240.3865 96.021786 
L 247.46604 96.021786 
L 247.46604 96.772256 
L 254.54558 96.772256 
L 254.54558 105.62071 
L 261.62512 105.62071 
L 261.62512 122.177832 
L 268.70466 122.177832 
L 268.70466 152.881887 
L 275.7842 152.881887 
L 275.7842 172.349634 
L 282.86374 172.349634 
L 282.86374 185.325769 
L 289.94328 185.325769 
L 289.94328 194.572165 
L 297.02282 194.572165 
L 297.02282 218.234677 
L 304.10236 218.234677 
L 304.10236 232.903284 
L 311.1819 232.903284 
L 311.1819 268.593254 
L 318.26144 268.593254 
L 318.26144 288.038051 
L 325.34098 288.038051 
L 325.34098 338.869302 
L 332.42052 338.869302 
L 332.42052 362.294651 
L 339.50006 362.294651 
L 339.50006 325.166351 
L 346.5796 325.166351 
L 346.5796 433 
M 353.65914 433 
L 353.65914 362.294651 
L 360.73868 362.294651 
L 360.73868 433 
L 360.73868 433 
" clip-path="url(#p41c07e4621)" style="fill: none; stroke: #ff0000; stroke-width: 1.5; stroke-linejoin: miter"/>
   </g>
   <g id="text_19">
    <!-- Histograma de Diagrama CM (B-I) de LOCOS I -->
    <g transform="translate(80.518531 21.6) scale(0.14 -0.14)">
     <defs>
      <path id="DejaVuSans-48" d="M 628 4666 
L 1259 4666 
L 1259 2753 
L 3553 2753 
L 3553 4666 
L 4184 4666 
L 4184 0 
L 3553 0 
L 3553 2222 
L 1259 2222 
L 1259 0 
L 628 0 
L 628 4666 
z
" transform="scale(0.015625)"/>
      <path id="DejaVuSans-69" d="M 603 3500 
L 1178 3500 
L 1178 0 
L 603 0 
L 603 3500 
z
M 603 4863 
L 1178 4863 
L 1178 4134 
L 603 4134 
L 603 4863 
z
" transform="scale(0.015625)"/>
      <path id="DejaVuSans-73" d="M 2834 3397 
L 2834 2853 
Q 2591 2978 2328 3040 
Q 2066 3103 1784 3103 
Q 1356 3103 1142 2972 
Q 928 2841 928 2578 
Q 928 2378 1081 2264 
Q 1234 2150 1697 2047 
L 1894 2003 
Q 2506 1872 2764 1633 
Q 3022 1394 3022 966 
Q 3022 478 2636 193 
Q 2250 -91 1575 -91 
Q 1294 -91 989 -36 
Q 684 19 347 128 
L 347 722 
Q 666 556 975 473 
Q 1284 391 1588 391 
Q 1994 391 2212 530 
Q 2431 669 2431 922 
Q 2431 1156 2273 1281 
Q 2116 1406 1581 1522 
L 1381 1569 
Q 847 1681 609 1914 
Q 372 2147 372 2553 
Q 372 3047 722 3315 
Q 1072 3584 1716 3584 
Q 2034 3584 2315 3537 
Q 2597 3491 2834 3397 
z
" transform="scale(0.015625)"/>
      <path id="DejaVuSans-74" d="M 1172 4494 
L 1172 3500 
L 2356 3500 
L 2356 3053 
L 1172 3053 
L 1172 1153 
Q 1172 725 1289 603 
Q 1406 481 1766 481 
L 2356 481 
L 2356 0 
L 1766 0 
Q 1100 0 847 248 
Q 594 497 594 1153 
L 594 3053 
L 172 3053 
L 172 3500 
L 594 3500 
L 594 4494 
L 1172 4494 
z
" transform="scale(0.015625)"/>
      <path id="DejaVuSans-6f" d="M 1959 3097 
Q 1497 3097 1228 2736 
Q 959 2375 959 1747 
Q 959 1119 1226 758 
Q 1494 397 1959 397 
Q 2419 397 2687 759 
Q 2956 1122 2956 1747 
Q 2956 2369 2687 2733 
Q 2419 3097 1959 3097 
z
M 1959 3584 
Q 2709 3584 3137 3096 
Q 3566 2609 3566 1747 
Q 3566 888 3137 398 
Q 2709 -91 1959 -91 
Q 1206 -91 779 398 
Q 353 888 353 1747 
Q 353 2609 779 3096 
Q 1206 3584 1959 3584 
z
" transform="scale(0.015625)"/>
      <path id="DejaVuSans-67" d="M 2906 1791 
Q 2906 2416 2648 2759 
Q 2391 3103 1925 3103 
Q 1463 3103 1205 2759 
Q 947 2416 947 1791 
Q 947 1169 1205 825 
Q 1463 481 1925 481 
Q 2391 481 2648 825 
Q 2906 1169 2906 1791 
z
M 3481 434 
Q 3481 -459 3084 -895 
Q 2688 -1331 1869 -1331 
Q 1566 -1331 1297 -1286 
Q 1028 -1241 775 -1147 
L 775 -588 
Q 1028 -725 1275 -790 
Q 1522 -856 1778 -856 
Q 2344 -856 2625 -561 
Q 2906 -266 2906 331 
L 2906 616 
Q 2728 306 2450 153 
Q 2172 0 1784 0 
Q 1141 0 747 490 
Q 353 981 353 1791 
Q 353 2603 747 3093 
Q 1141 3584 1784 3584 
Q 2172 3584 2450 3431 
Q 2728 3278 2906 2969 
L 2906 3500 
L 3481 3500 
L 3481 434 
z
" transform="scale(0.015625)"/>
      <path id="DejaVuSans-72" d="M 2631 2963 
Q 2534 3019 2420 3045 
Q 2306 3072 2169 3072 
Q 1681 3072 1420 2755 
Q 1159 2438 1159 1844 
L 1159 0 
L 581 0 
L 581 3500 
L 1159 3500 
L 1159 2956 
Q 1341 3275 1631 3429 
Q 1922 3584 2338 3584 
Q 2397 3584 2469 3576 
Q 2541 3569 2628 3553 
L 2631 2963 
z
" transform="scale(0.015625)"/>
      <path id="DejaVuSans-61" d="M 2194 1759 
Q 1497 1759 1228 1600 
Q 959 1441 959 1056 
Q 959 750 1161 570 
Q 1363 391 1709 391 
Q 2188 391 2477 730 
Q 2766 1069 2766 1631 
L 2766 1759 
L 2194 1759 
z
M 3341 1997 
L 3341 0 
L 2766 0 
L 2766 531 
Q 2569 213 2275 61 
Q 1981 -91 1556 -91 
Q 1019 -91 701 211 
Q 384 513 384 1019 
Q 384 1609 779 1909 
Q 1175 2209 1959 2209 
L 2766 2209 
L 2766 2266 
Q 2766 2663 2505 2880 
Q 2244 3097 1772 3097 
Q 1472 3097 1187 3025 
Q 903 2953 641 2809 
L 641 3341 
Q 956 3463 1253 3523 
Q 1550 3584 1831 3584 
Q 2591 3584 2966 3190 
Q 3341 2797 3341 1997 
z
" transform="scale(0.015625)"/>
      <path id="DejaVuSans-6d" d="M 3328 2828 
Q 3544 3216 3844 3400 
Q 4144 3584 4550 3584 
Q 5097 3584 5394 3201 
Q 5691 2819 5691 2113 
L 5691 0 
L 5113 0 
L 5113 2094 
Q 5113 2597 4934 2840 
Q 4756 3084 4391 3084 
Q 3944 3084 3684 2787 
Q 3425 2491 3425 1978 
L 3425 0 
L 2847 0 
L 2847 2094 
Q 2847 2600 2669 2842 
Q 2491 3084 2119 3084 
Q 1678 3084 1418 2786 
Q 1159 2488 1159 1978 
L 1159 0 
L 581 0 
L 581 3500 
L 1159 3500 
L 1159 2956 
Q 1356 3278 1631 3431 
Q 1906 3584 2284 3584 
Q 2666 3584 2933 3390 
Q 3200 3197 3328 2828 
z
" transform="scale(0.015625)"/>
      <path id="DejaVuSans-20" transform="scale(0.015625)"/>
      <path id="DejaVuSans-64" d="M 2906 2969 
L 2906 4863 
L 3481 4863 
L 3481 0 
L 2906 0 
L 2906 525 
Q 2725 213 2448 61 
Q 2172 -91 1784 -91 
Q 1150 -91 751 415 
Q 353 922 353 1747 
Q 353 2572 751 3078 
Q 1150 3584 1784 3584 
Q 2172 3584 2448 3432 
Q 2725 3281 2906 2969 
z
M 947 1747 
Q 947 1113 1208 752 
Q 1469 391 1925 391 
Q 2381 391 2643 752 
Q 2906 1113 2906 1747 
Q 2906 2381 2643 2742 
Q 2381 3103 1925 3103 
Q 1469 3103 1208 2742 
Q 947 2381 947 1747 
z
" transform="scale(0.015625)"/>
      <path id="DejaVuSans-44" d="M 1259 4147 
L 1259 519 
L 2022 519 
Q 2988 519 3436 956 
Q 3884 1394 3884 2338 
Q 3884 3275 3436 3711 
Q 2988 4147 2022 4147 
L 1259 4147 
z
M 628 4666 
L 1925 4666 
Q 3281 4666 3915 4102 
Q 4550 3538 4550 2338 
Q 4550 1131 3912 565 
Q 3275 0 1925 0 
L 628 0 
L 628 4666 
z
" transform="scale(0.015625)"/>
      <path id="DejaVuSans-43" d="M 4122 4306 
L 4122 3641 
Q 3803 3938 3442 4084 
Q 3081 4231 2675 4231 
Q 1875 4231 1450 3742 
Q 1025 3253 1025 2328 
Q 1025 1406 1450 917 
Q 1875 428 2675 428 
Q 3081 428 3442 575 
Q 3803 722 4122 1019 
L 4122 359 
Q 3791 134 3420 21 
Q 3050 -91 2638 -91 
Q 1578 -91 968 557 
Q 359 1206 359 2328 
Q 359 3453 968 4101 
Q 1578 4750 2638 4750 
Q 3056 4750 3426 4639 
Q 3797 4528 4122 4306 
z
" transform="scale(0.015625)"/>
      <path id="DejaVuSans-4d" d="M 628 4666 
L 1569 4666 
L 2759 1491 
L 3956 4666 
L 4897 4666 
L 4897 0 
L 4281 0 
L 4281 4097 
L 3078 897 
L 2444 897 
L 1241 4097 
L 1241 0 
L 628 0 
L 628 4666 
z
" transform="scale(0.015625)"/>
      <path id="DejaVuSans-42" d="M 1259 2228 
L 1259 519 
L 2272 519 
Q 2781 519 3026 730 
Q 3272 941 3272 1375 
Q 3272 1813 3026 2020 
Q 2781 2228 2272 2228 
L 1259 2228 
z
M 1259 4147 
L 1259 2741 
L 2194 2741 
Q 2656 2741 2882 2914 
Q 3109 3088 3109 3444 
Q 3109 3797 2882 3972 
Q 2656 4147 2194 4147 
L 1259 4147 
z
M 628 4666 
L 2241 4666 
Q 2963 4666 3353 4366 
Q 3744 4066 3744 3513 
Q 3744 3084 3544 2831 
Q 3344 2578 2956 2516 
Q 3422 2416 3680 2098 
Q 3938 1781 3938 1306 
Q 3938 681 3513 340 
Q 3088 0 2303 0 
L 628 0 
L 628 4666 
z
" transform="scale(0.015625)"/>
      <path id="DejaVuSans-2d" d="M 313 2009 
L 1997 2009 
L 1997 1497 
L 313 1497 
L 313 2009 
z
" transform="scale(0.015625)"/>
      <path id="DejaVuSans-49" d="M 628 4666 
L 1259 4666 
L 1259 0 
L 628 0 
L 628 4666 
z
" transform="scale(0.015625)"/>
      <path id="DejaVuSans-4c" d="M 628 4666 
L 1259 4666 
L 1259 531 
L 3531 531 
L 3531 0 
L 628 0 
L 628 4666 
z
" transform="scale(0.015625)"/>
      <path id="DejaVuSans-4f" d="M 2522 4238 
Q 1834 4238 1429 3725 
Q 1025 3213 1025 2328 
Q 1025 1447 1429 934 
Q 1834 422 2522 422 
Q 3209 422 3611 934 
Q 4013 1447 4013 2328 
Q 4013 3213 3611 3725 
Q 3209 4238 2522 4238 
z
M 2522 4750 
Q 3503 4750 4090 4092 
Q 4678 3434 4678 2328 
Q 4678 1225 4090 567 
Q 3503 -91 2522 -91 
Q 1538 -91 948 565 
Q 359 1222 359 2328 
Q 359 3434 948 4092 
Q 1538 4750 2522 4750 
z
" transform="scale(0.015625)"/>
      <path id="DejaVuSans-53" d="M 3425 4513 
L 3425 3897 
Q 3066 4069 2747 4153 
Q 2428 4238 2131 4238 
Q 1616 4238 1336 4038 
Q 1056 3838 1056 3469 
Q 1056 3159 1242 3001 
Q 1428 2844 1947 2747 
L 2328 2669 
Q 3034 2534 3370 2195 
Q 3706 1856 3706 1288 
Q 3706 609 3251 259 
Q 2797 -91 1919 -91 
Q 1588 -91 1214 -16 
Q 841 59 441 206 
L 441 856 
Q 825 641 1194 531 
Q 1563 422 1919 422 
Q 2459 422 2753 634 
Q 3047 847 3047 1241 
Q 3047 1584 2836 1778 
Q 2625 1972 2144 2069 
L 1759 2144 
Q 1053 2284 737 2584 
Q 422 2884 422 3419 
Q 422 4038 858 4394 
Q 1294 4750 2059 4750 
Q 2388 4750 2728 4690 
Q 3069 4631 3425 4513 
z
" transform="scale(0.015625)"/>
     </defs>
     <use xlink:href="#DejaVuSans-48"/>
     <use xlink:href="#DejaVuSans-69" x="75.195312"/>
     <use xlink:href="#DejaVuSans-73" x="102.978516"/>
     <use xlink:href="#DejaVuSans-74" x="155.078125"/>
     <use xlink:href="#DejaVuSans-6f" x="194.287109"/>
     <use xlink:href="#DejaVuSans-67" x="255.46875"/>
     <use xlink:href="#DejaVuSans-72" x="318.945312"/>
     <use xlink:href="#DejaVuSans-61" x="360.058594"/>
     <use xlink:href="#DejaVuSans-6d" x="421.337891"/>
     <use xlink:href="#DejaVuSans-61" x="518.75"/>
     <use xlink:href="#DejaVuSans-20" x="580.029297"/>
     <use xlink:href="#DejaVuSans-64" x="611.816406"/>
     <use xlink:href="#DejaVuSans-65" x="675.292969"/>
     <use xlink:href="#DejaVuSans-20" x="736.816406"/>
     <use xlink:href="#DejaVuSans-44" x="768.603516"/>
     <use xlink:href="#DejaVuSans-69" x="845.605469"/>
     <use xlink:href="#DejaVuSans-61" x="873.388672"/>
     <use xlink:href="#DejaVuSans-67" x="934.667969"/>
     <use xlink:href="#DejaVuSans-72" x="998.144531"/>
     <use xlink:href="#DejaVuSans-61" x="1039.257812"/>
     <use xlink:href="#DejaVuSans-6d" x="1100.537109"/>
     <use xlink:href="#DejaVuSans-61" x="1197.949219"/>
     <use xlink:href="#DejaVuSans-20" x="1259.228516"/>
     <use xlink:href="#DejaVuSans-43" x="1291.015625"/>
     <use xlink:href="#DejaVuSans-4d" x="1360.839844"/>
     <use xlink:href="#DejaVuSans-20" x="1447.119141"/>
     <use xlink:href="#DejaVuSans-28" x="1478.90625"/>
     <use xlink:href="#DejaVuSans-42" x="1517.919922"/>
     <use xlink:href="#DejaVuSans-2d" x="1586.523438"/>
     <use xlink:href="#DejaVuSans-49" x="1622.607422"/>
     <use xlink:href="#DejaVuSans-29" x="1652.099609"/>
     <use xlink:href="#DejaVuSans-20" x="1691.113281"/>
     <use xlink:href="#DejaVuSans-64" x="1722.900391"/>
     <use xlink:href="#DejaVuSans-65" x="1786.376953"/>
     <use xlink:href="#DejaVuSans-20" x="1847.900391"/>
     <use xlink:href="#DejaVuSans-4c" x="1879.6875"/>
     <use xlink:href="#DejaVuSans-4f" x="1931.775391"/>
     <use xlink:href="#DejaVuSans-43" x="2010.486328"/>
     <use xlink:href="#DejaVuSans-4f" x="2080.310547"/>
     <use xlink:href="#DejaVuSans-53" x="2159.021484"/>
     <use xlink:href="#DejaVuSans-20" x="2222.498047"/>
     <use xlink:href="#DejaVuSans-49" x="2254.285156"/>
    </g>
   </g>
   <g id="patch_9">
    <path d="M 105.87524 433 
L 105.87524 209.112573 
L 112.95478 209.112573 
L 112.95478 222.274782 
L 120.03432 222.274782 
L 120.03432 223.365058 
L 127.11386 223.365058 
L 127.11386 222.274782 
L 134.1934 222.274782 
L 134.1934 240.261387 
L 141.27294 240.261387 
L 141.27294 256.328633 
L 148.35248 256.328633 
L 148.35248 266.544407 
L 155.43202 266.544407 
L 155.43202 252.185209 
L 162.51156 252.185209 
L 162.51156 138.655315 
L 169.5911 138.655315 
L 169.5911 107.364938 
L 176.67064 107.364938 
L 176.67064 99.524266 
L 183.75018 99.524266 
L 183.75018 104.64883 
L 190.82972 104.64883 
L 190.82972 107.815433 
L 204.9888 107.724852 
L 204.9888 102.863349 
L 212.06834 102.863349 
L 212.06834 95.262586 
L 219.14788 95.262586 
L 219.14788 91.467444 
L 226.22742 91.467444 
L 226.22742 82.735143 
L 233.30696 82.735143 
L 233.30696 88.534296 
L 240.3865 88.534296 
L 240.3865 95.894062 
L 247.46604 95.894062 
L 247.46604 96.863967 
L 254.54558 96.863967 
L 254.54558 105.047603 
L 261.62512 105.047603 
L 261.62512 123.049119 
L 268.70466 123.049119 
L 268.70466 147.427334 
L 275.7842 147.427334 
L 275.7842 171.028855 
L 282.86374 171.028855 
L 282.86374 186.052585 
L 289.94328 186.052585 
L 289.94328 194.572165 
L 297.02282 194.572165 
L 297.02282 220.702608 
L 304.10236 220.702608 
L 304.10236 238.482259 
L 311.1819 238.482259 
L 311.1819 257.830908 
L 318.26144 257.830908 
L 318.26144 275.610559 
L 325.34098 275.610559 
L 325.34098 325.166351 
L 332.42052 325.166351 
L 332.42052 433 
M 339.50006 433 
L 339.50006 338.869302 
L 346.5796 338.869302 
L 346.5796 362.294651 
L 353.65914 362.294651 
L 353.65914 433 
L 353.65914 433 
" clip-path="url(#p41c07e4621)" style="fill: none; stroke: #ffa500; stroke-width: 1.5; stroke-linejoin: miter"/>
   </g>
   <g id="patch_10">
    <path d="M 112.95478 433 
L 112.95478 338.869302 
L 120.03432 338.869302 
L 120.03432 284.477325 
L 127.11386 284.477325 
L 127.11386 301.741002 
L 134.1934 301.741002 
L 134.1934 288.038051 
L 141.27294 288.038051 
L 141.27294 296.531382 
L 148.35248 296.531382 
L 148.35248 270.774375 
L 162.51156 270.774375 
L 162.51156 201.936656 
L 169.5911 201.936656 
L 169.5911 100.169104 
L 176.67064 100.169104 
L 176.67064 91.906428 
L 183.75018 91.906428 
L 183.75018 103.865128 
L 190.82972 103.865128 
L 190.82972 106.32499 
L 197.90926 106.32499 
L 197.90926 114.272266 
L 204.9888 114.272266 
L 204.9888 121.764171 
L 212.06834 121.764171 
L 212.06834 124.802094 
L 219.14788 124.802094 
L 219.14788 117.908714 
L 226.22742 117.908714 
L 226.22742 116.308764 
L 233.30696 116.308764 
L 233.30696 111.491244 
L 240.3865 111.491244 
L 240.3865 108.772151 
L 247.46604 108.772151 
L 247.46604 105.064321 
L 254.54558 105.064321 
L 254.54558 106.013985 
L 261.62512 106.013985 
L 261.62512 115.570536 
L 268.70466 115.570536 
L 268.70466 123.739437 
L 275.7842 123.739437 
L 275.7842 141.481108 
L 282.86374 141.481108 
L 282.86374 157.130214 
L 289.94328 157.130214 
L 289.94328 170.561088 
L 297.02282 170.561088 
L 297.02282 192.287807 
L 304.10236 192.287807 
L 304.10236 233.646075 
L 311.1819 233.646075 
L 311.1819 301.741002 
L 318.26144 301.741002 
L 318.26144 433 
L 318.26144 433 
" clip-path="url(#p41c07e4621)" style="fill: none; stroke: #0000ff; stroke-width: 1.5; stroke-linejoin: miter"/>
   </g>
   <g id="legend_1">
    <g id="patch_11">
     <path d="M 295.6875 94.3125 
L 410.375 94.3125 
Q 412.375 94.3125 412.375 92.3125 
L 412.375 34.6 
Q 412.375 32.6 410.375 32.6 
L 295.6875 32.6 
Q 293.6875 32.6 293.6875 34.6 
L 293.6875 92.3125 
Q 293.6875 94.3125 295.6875 94.3125 
z
" style="fill: #ffffff; opacity: 0.8; stroke: #cccccc; stroke-linejoin: miter"/>
    </g>
    <g id="patch_12">
     <path d="M 297.6875 44.198438 
L 317.6875 44.198438 
L 317.6875 37.198438 
L 297.6875 37.198438 
z
" style="fill: #808080; stroke: #808080; stroke-linejoin: miter"/>
    </g>
    <g id="text_20">
     <!-- LOCOS -->
     <g transform="translate(325.6875 44.198438) scale(0.1 -0.1)">
      <use xlink:href="#DejaVuSans-4c"/>
      <use xlink:href="#DejaVuSans-4f" x="52.087891"/>
      <use xlink:href="#DejaVuSans-43" x="130.798828"/>
      <use xlink:href="#DejaVuSans-4f" x="200.623047"/>
      <use xlink:href="#DejaVuSans-53" x="279.333984"/>
     </g>
    </g>
    <g id="patch_13">
     <path d="M 297.6875 58.876563 
L 317.6875 58.876563 
L 317.6875 51.876563 
L 297.6875 51.876563 
L 297.6875 58.876563 
z
" style="fill: none; stroke: #0000ff; stroke-width: 1.5; stroke-linejoin: miter"/>
    </g>
    <g id="text_21">
     <!-- Besançon (BGM) -->
     <g transform="translate(325.6875 58.876563) scale(0.1 -0.1)">
      <defs>
       <path id="DejaVuSans-6e" d="M 3513 2113 
L 3513 0 
L 2938 0 
L 2938 2094 
Q 2938 2591 2744 2837 
Q 2550 3084 2163 3084 
Q 1697 3084 1428 2787 
Q 1159 2491 1159 1978 
L 1159 0 
L 581 0 
L 581 3500 
L 1159 3500 
L 1159 2956 
Q 1366 3272 1645 3428 
Q 1925 3584 2291 3584 
Q 2894 3584 3203 3211 
Q 3513 2838 3513 2113 
z
" transform="scale(0.015625)"/>
       <path id="DejaVuSans-e7" d="M 3122 3366 
L 3122 2828 
Q 2878 2963 2633 3030 
Q 2388 3097 2138 3097 
Q 1578 3097 1268 2742 
Q 959 2388 959 1747 
Q 959 1106 1268 751 
Q 1578 397 2138 397 
Q 2388 397 2633 464 
Q 2878 531 3122 666 
L 3122 134 
Q 2881 22 2623 -34 
Q 2366 -91 2075 -91 
Q 1284 -91 818 406 
Q 353 903 353 1747 
Q 353 2603 823 3093 
Q 1294 3584 2113 3584 
Q 2378 3584 2631 3529 
Q 2884 3475 3122 3366 
z
M 2309 0 
Q 2481 -194 2565 -358 
Q 2650 -522 2650 -672 
Q 2650 -950 2462 -1092 
Q 2275 -1234 1906 -1234 
Q 1763 -1234 1627 -1215 
Q 1491 -1197 1356 -1159 
L 1356 -750 
Q 1463 -803 1578 -826 
Q 1694 -850 1841 -850 
Q 2025 -850 2119 -775 
Q 2213 -700 2213 -556 
Q 2213 -463 2145 -327 
Q 2078 -191 1938 0 
L 2309 0 
z
" transform="scale(0.015625)"/>
       <path id="DejaVuSans-47" d="M 3809 666 
L 3809 1919 
L 2778 1919 
L 2778 2438 
L 4434 2438 
L 4434 434 
Q 4069 175 3628 42 
Q 3188 -91 2688 -91 
Q 1594 -91 976 548 
Q 359 1188 359 2328 
Q 359 3472 976 4111 
Q 1594 4750 2688 4750 
Q 3144 4750 3555 4637 
Q 3966 4525 4313 4306 
L 4313 3634 
Q 3963 3931 3569 4081 
Q 3175 4231 2741 4231 
Q 1884 4231 1454 3753 
Q 1025 3275 1025 2328 
Q 1025 1384 1454 906 
Q 1884 428 2741 428 
Q 3075 428 3337 486 
Q 3600 544 3809 666 
z
" transform="scale(0.015625)"/>
      </defs>
      <use xlink:href="#DejaVuSans-42"/>
      <use xlink:href="#DejaVuSans-65" x="68.603516"/>
      <use xlink:href="#DejaVuSans-73" x="130.126953"/>
      <use xlink:href="#DejaVuSans-61" x="182.226562"/>
      <use xlink:href="#DejaVuSans-6e" x="243.505859"/>
      <use xlink:href="#DejaVuSans-e7" x="306.884766"/>
      <use xlink:href="#DejaVuSans-6f" x="361.865234"/>
      <use xlink:href="#DejaVuSans-6e" x="423.046875"/>
      <use xlink:href="#DejaVuSans-20" x="486.425781"/>
      <use xlink:href="#DejaVuSans-28" x="518.212891"/>
      <use xlink:href="#DejaVuSans-42" x="557.226562"/>
      <use xlink:href="#DejaVuSans-47" x="624.080078"/>
      <use xlink:href="#DejaVuSans-4d" x="701.570312"/>
      <use xlink:href="#DejaVuSans-29" x="787.849609"/>
     </g>
    </g>
    <g id="patch_14">
     <path d="M 297.6875 73.554688 
L 317.6875 73.554688 
L 317.6875 66.554688 
L 297.6875 66.554688 
L 297.6875 73.554688 
z
" style="fill: none; stroke: #ffa500; stroke-width: 1.5; stroke-linejoin: miter"/>
    </g>
    <g id="text_22">
     <!-- TRILEGAL (MAB) -->
     <g transform="translate(325.6875 73.554688) scale(0.1 -0.1)">
      <defs>
       <path id="DejaVuSans-54" d="M -19 4666 
L 3928 4666 
L 3928 4134 
L 2272 4134 
L 2272 0 
L 1638 0 
L 1638 4134 
L -19 4134 
L -19 4666 
z
" transform="scale(0.015625)"/>
       <path id="DejaVuSans-52" d="M 2841 2188 
Q 3044 2119 3236 1894 
Q 3428 1669 3622 1275 
L 4263 0 
L 3584 0 
L 2988 1197 
Q 2756 1666 2539 1819 
Q 2322 1972 1947 1972 
L 1259 1972 
L 1259 0 
L 628 0 
L 628 4666 
L 2053 4666 
Q 2853 4666 3247 4331 
Q 3641 3997 3641 3322 
Q 3641 2881 3436 2590 
Q 3231 2300 2841 2188 
z
M 1259 4147 
L 1259 2491 
L 2053 2491 
Q 2509 2491 2742 2702 
Q 2975 2913 2975 3322 
Q 2975 3731 2742 3939 
Q 2509 4147 2053 4147 
L 1259 4147 
z
" transform="scale(0.015625)"/>
       <path id="DejaVuSans-45" d="M 628 4666 
L 3578 4666 
L 3578 4134 
L 1259 4134 
L 1259 2753 
L 3481 2753 
L 3481 2222 
L 1259 2222 
L 1259 531 
L 3634 531 
L 3634 0 
L 628 0 
L 628 4666 
z
" transform="scale(0.015625)"/>
       <path id="DejaVuSans-41" d="M 2188 4044 
L 1331 1722 
L 3047 1722 
L 2188 4044 
z
M 1831 4666 
L 2547 4666 
L 4325 0 
L 3669 0 
L 3244 1197 
L 1141 1197 
L 716 0 
L 50 0 
L 1831 4666 
z
" transform="scale(0.015625)"/>
      </defs>
      <use xlink:href="#DejaVuSans-54"/>
      <use xlink:href="#DejaVuSans-52" x="61.083984"/>
      <use xlink:href="#DejaVuSans-49" x="130.566406"/>
      <use xlink:href="#DejaVuSans-4c" x="160.058594"/>
      <use xlink:href="#DejaVuSans-45" x="215.771484"/>
      <use xlink:href="#DejaVuSans-47" x="278.955078"/>
      <use xlink:href="#DejaVuSans-41" x="356.445312"/>
      <use xlink:href="#DejaVuSans-4c" x="424.853516"/>
      <use xlink:href="#DejaVuSans-20" x="480.566406"/>
      <use xlink:href="#DejaVuSans-28" x="512.353516"/>
      <use xlink:href="#DejaVuSans-4d" x="551.367188"/>
      <use xlink:href="#DejaVuSans-41" x="637.646484"/>
      <use xlink:href="#DejaVuSans-42" x="706.054688"/>
      <use xlink:href="#DejaVuSans-29" x="774.658203"/>
     </g>
    </g>
    <g id="patch_15">
     <path d="M 297.6875 88.232813 
L 317.6875 88.232813 
L 317.6875 81.232813 
L 297.6875 81.232813 
L 297.6875 88.232813 
z
" style="fill: none; stroke: #ff0000; stroke-width: 1.5; stroke-linejoin: miter"/>
    </g>
    <g id="text_23">
     <!-- TRILEGAL (B&amp;B) -->
     <g transform="translate(325.6875 88.232813) scale(0.1 -0.1)">
      <defs>
       <path id="DejaVuSans-26" d="M 1556 2509 
Q 1272 2256 1139 2004 
Q 1006 1753 1006 1478 
Q 1006 1022 1337 719 
Q 1669 416 2169 416 
Q 2466 416 2725 514 
Q 2984 613 3213 813 
L 1556 2509 
z
M 1997 2859 
L 3584 1234 
Q 3769 1513 3872 1830 
Q 3975 2147 3994 2503 
L 4575 2503 
Q 4538 2091 4375 1687 
Q 4213 1284 3922 891 
L 4794 0 
L 4006 0 
L 3559 459 
Q 3234 181 2878 45 
Q 2522 -91 2113 -91 
Q 1359 -91 881 339 
Q 403 769 403 1441 
Q 403 1841 612 2192 
Q 822 2544 1241 2853 
Q 1091 3050 1012 3245 
Q 934 3441 934 3628 
Q 934 4134 1281 4442 
Q 1628 4750 2203 4750 
Q 2463 4750 2720 4694 
Q 2978 4638 3244 4525 
L 3244 3956 
Q 2972 4103 2725 4179 
Q 2478 4256 2266 4256 
Q 1938 4256 1733 4082 
Q 1528 3909 1528 3634 
Q 1528 3475 1620 3314 
Q 1713 3153 1997 2859 
z
" transform="scale(0.015625)"/>
      </defs>
      <use xlink:href="#DejaVuSans-54"/>
      <use xlink:href="#DejaVuSans-52" x="61.083984"/>
      <use xlink:href="#DejaVuSans-49" x="130.566406"/>
      <use xlink:href="#DejaVuSans-4c" x="160.058594"/>
      <use xlink:href="#DejaVuSans-45" x="215.771484"/>
      <use xlink:href="#DejaVuSans-47" x="278.955078"/>
      <use xlink:href="#DejaVuSans-41" x="356.445312"/>
      <use xlink:href="#DejaVuSans-4c" x="424.853516"/>
      <use xlink:href="#DejaVuSans-20" x="480.566406"/>
      <use xlink:href="#DejaVuSans-28" x="512.353516"/>
      <use xlink:href="#DejaVuSans-42" x="551.367188"/>
      <use xlink:href="#DejaVuSans-26" x="619.970703"/>
      <use xlink:href="#DejaVuSans-42" x="697.949219"/>
      <use xlink:href="#DejaVuSans-29" x="766.552734"/>
     </g>
    </g>
   </g>
  </g>
 </g>
 <defs>
  <clipPath id="p41c07e4621">
   <rect x="63.398" y="27.6" width="353.977" height="358.12"/>
  </clipPath>
 </defs>
</svg>
