<?xml version="1.0" encoding="utf-8" standalone="no"?>
<!DOCTYPE svg PUBLIC "-//W3C//DTD SVG 1.1//EN"
  "http://www.w3.org/Graphics/SVG/1.1/DTD/svg11.dtd">
<svg xmlns:xlink="http://www.w3.org/1999/xlink" width="432pt" height="432pt" viewBox="0 0 432 432" xmlns="http://www.w3.org/2000/svg" version="1.1">
 <metadata>
  <rdf:RDF xmlns:dc="http://purl.org/dc/elements/1.1/" xmlns:cc="http://creativecommons.org/ns#" xmlns:rdf="http://www.w3.org/1999/02/22-rdf-syntax-ns#">
   <cc:Work>
    <dc:type rdf:resource="http://purl.org/dc/dcmitype/StillImage"/>
    <dc:date>2025-03-31T19:17:30.696345</dc:date>
    <dc:format>image/svg+xml</dc:format>
    <dc:creator>
     <cc:Agent>
      <dc:title>Matplotlib v3.10.0, https://matplotlib.org/</dc:title>
     </cc:Agent>
    </dc:creator>
   </cc:Work>
  </rdf:RDF>
 </metadata>
 <defs>
  <style type="text/css">*{stroke-linejoin: round; stroke-linecap: butt}</style>
 </defs>
 <g id="figure_1">
  <g id="patch_1">
   <path d="M 0 432 
L 432 432 
L 432 0 
L 0 0 
z
" style="fill: #ffffff"/>
  </g>
  <g id="axes_1">
   <g id="patch_2">
    <path d="M 63.398 385.72 
L 413.55 385.72 
L 413.55 32.64 
L 63.398 32.64 
z
" style="fill: #ffffff"/>
   </g>
   <g id="line2d_1">
    <path d="M 331.42344 385.72 
L 331.42344 32.64 
" clip-path="url(#pcc8940ebc4)" style="fill: none; stroke-dasharray: 5.55,2.4; stroke-dashoffset: 0; stroke: #ff0000; stroke-opacity: 0.75; stroke-width: 1.5"/>
   </g>
   <g id="matplotlib.axis_1">
    <g id="xtick_1">
     <g id="line2d_2">
      <path d="M 63.398 385.72 
L 63.398 32.64 
" clip-path="url(#pcc8940ebc4)" style="fill: none; stroke: #b0b0b0; stroke-opacity: 0.5; stroke-width: 0.8; stroke-linecap: square"/>
     </g>
     <g id="line2d_3">
      <defs>
       <path id="m2dca06ca21" d="M 0 0 
L 0 3.5 
" style="stroke: #000000; stroke-width: 0.8"/>
      </defs>
      <g>
       <use xlink:href="#m2dca06ca21" x="63.398" y="385.72" style="stroke: #000000; stroke-width: 0.8"/>
      </g>
     </g>
     <g id="text_1">
      <!-- 14 -->
      <g transform="translate(55.763 401.838125) scale(0.12 -0.12)">
       <defs>
        <path id="DejaVuSans-31" d="M 794 531 
L 1825 531 
L 1825 4091 
L 703 3866 
L 703 4441 
L 1819 4666 
L 2450 4666 
L 2450 531 
L 3481 531 
L 3481 0 
L 794 0 
L 794 531 
z
" transform="scale(0.015625)"/>
        <path id="DejaVuSans-34" d="M 2419 4116 
L 825 1625 
L 2419 1625 
L 2419 4116 
z
M 2253 4666 
L 3047 4666 
L 3047 1625 
L 3713 1625 
L 3713 1100 
L 3047 1100 
L 3047 0 
L 2419 0 
L 2419 1100 
L 313 1100 
L 313 1709 
L 2253 4666 
z
" transform="scale(0.015625)"/>
       </defs>
       <use xlink:href="#DejaVuSans-31"/>
       <use xlink:href="#DejaVuSans-34" transform="translate(63.623047 0)"/>
      </g>
     </g>
    </g>
    <g id="xtick_2">
     <g id="line2d_4">
      <path d="M 95.23 385.72 
L 95.23 32.64 
" clip-path="url(#pcc8940ebc4)" style="fill: none; stroke: #b0b0b0; stroke-opacity: 0.5; stroke-width: 0.8; stroke-linecap: square"/>
     </g>
     <g id="line2d_5">
      <g>
       <use xlink:href="#m2dca06ca21" x="95.23" y="385.72" style="stroke: #000000; stroke-width: 0.8"/>
      </g>
     </g>
     <g id="text_2">
      <!-- 15 -->
      <g transform="translate(87.595 401.838125) scale(0.12 -0.12)">
       <defs>
        <path id="DejaVuSans-35" d="M 691 4666 
L 3169 4666 
L 3169 4134 
L 1269 4134 
L 1269 2991 
Q 1406 3038 1543 3061 
Q 1681 3084 1819 3084 
Q 2600 3084 3056 2656 
Q 3513 2228 3513 1497 
Q 3513 744 3044 326 
Q 2575 -91 1722 -91 
Q 1428 -91 1123 -41 
Q 819 9 494 109 
L 494 744 
Q 775 591 1075 516 
Q 1375 441 1709 441 
Q 2250 441 2565 725 
Q 2881 1009 2881 1497 
Q 2881 1984 2565 2268 
Q 2250 2553 1709 2553 
Q 1456 2553 1204 2497 
Q 953 2441 691 2322 
L 691 4666 
z
" transform="scale(0.015625)"/>
       </defs>
       <use xlink:href="#DejaVuSans-31"/>
       <use xlink:href="#DejaVuSans-35" transform="translate(63.623047 0)"/>
      </g>
     </g>
    </g>
    <g id="xtick_3">
     <g id="line2d_6">
      <path d="M 127.062 385.72 
L 127.062 32.64 
" clip-path="url(#pcc8940ebc4)" style="fill: none; stroke: #b0b0b0; stroke-opacity: 0.5; stroke-width: 0.8; stroke-linecap: square"/>
     </g>
     <g id="line2d_7">
      <g>
       <use xlink:href="#m2dca06ca21" x="127.062" y="385.72" style="stroke: #000000; stroke-width: 0.8"/>
      </g>
     </g>
     <g id="text_3">
      <!-- 16 -->
      <g transform="translate(119.427 401.838125) scale(0.12 -0.12)">
       <defs>
        <path id="DejaVuSans-36" d="M 2113 2584 
Q 1688 2584 1439 2293 
Q 1191 2003 1191 1497 
Q 1191 994 1439 701 
Q 1688 409 2113 409 
Q 2538 409 2786 701 
Q 3034 994 3034 1497 
Q 3034 2003 2786 2293 
Q 2538 2584 2113 2584 
z
M 3366 4563 
L 3366 3988 
Q 3128 4100 2886 4159 
Q 2644 4219 2406 4219 
Q 1781 4219 1451 3797 
Q 1122 3375 1075 2522 
Q 1259 2794 1537 2939 
Q 1816 3084 2150 3084 
Q 2853 3084 3261 2657 
Q 3669 2231 3669 1497 
Q 3669 778 3244 343 
Q 2819 -91 2113 -91 
Q 1303 -91 875 529 
Q 447 1150 447 2328 
Q 447 3434 972 4092 
Q 1497 4750 2381 4750 
Q 2619 4750 2861 4703 
Q 3103 4656 3366 4563 
z
" transform="scale(0.015625)"/>
       </defs>
       <use xlink:href="#DejaVuSans-31"/>
       <use xlink:href="#DejaVuSans-36" transform="translate(63.623047 0)"/>
      </g>
     </g>
    </g>
    <g id="xtick_4">
     <g id="line2d_8">
      <path d="M 158.894 385.72 
L 158.894 32.64 
" clip-path="url(#pcc8940ebc4)" style="fill: none; stroke: #b0b0b0; stroke-opacity: 0.5; stroke-width: 0.8; stroke-linecap: square"/>
     </g>
     <g id="line2d_9">
      <g>
       <use xlink:href="#m2dca06ca21" x="158.894" y="385.72" style="stroke: #000000; stroke-width: 0.8"/>
      </g>
     </g>
     <g id="text_4">
      <!-- 17 -->
      <g transform="translate(151.259 401.838125) scale(0.12 -0.12)">
       <defs>
        <path id="DejaVuSans-37" d="M 525 4666 
L 3525 4666 
L 3525 4397 
L 1831 0 
L 1172 0 
L 2766 4134 
L 525 4134 
L 525 4666 
z
" transform="scale(0.015625)"/>
       </defs>
       <use xlink:href="#DejaVuSans-31"/>
       <use xlink:href="#DejaVuSans-37" transform="translate(63.623047 0)"/>
      </g>
     </g>
    </g>
    <g id="xtick_5">
     <g id="line2d_10">
      <path d="M 190.726 385.72 
L 190.726 32.64 
" clip-path="url(#pcc8940ebc4)" style="fill: none; stroke: #b0b0b0; stroke-opacity: 0.5; stroke-width: 0.8; stroke-linecap: square"/>
     </g>
     <g id="line2d_11">
      <g>
       <use xlink:href="#m2dca06ca21" x="190.726" y="385.72" style="stroke: #000000; stroke-width: 0.8"/>
      </g>
     </g>
     <g id="text_5">
      <!-- 18 -->
      <g transform="translate(183.091 401.838125) scale(0.12 -0.12)">
       <defs>
        <path id="DejaVuSans-38" d="M 2034 2216 
Q 1584 2216 1326 1975 
Q 1069 1734 1069 1313 
Q 1069 891 1326 650 
Q 1584 409 2034 409 
Q 2484 409 2743 651 
Q 3003 894 3003 1313 
Q 3003 1734 2745 1975 
Q 2488 2216 2034 2216 
z
M 1403 2484 
Q 997 2584 770 2862 
Q 544 3141 544 3541 
Q 544 4100 942 4425 
Q 1341 4750 2034 4750 
Q 2731 4750 3128 4425 
Q 3525 4100 3525 3541 
Q 3525 3141 3298 2862 
Q 3072 2584 2669 2484 
Q 3125 2378 3379 2068 
Q 3634 1759 3634 1313 
Q 3634 634 3220 271 
Q 2806 -91 2034 -91 
Q 1263 -91 848 271 
Q 434 634 434 1313 
Q 434 1759 690 2068 
Q 947 2378 1403 2484 
z
M 1172 3481 
Q 1172 3119 1398 2916 
Q 1625 2713 2034 2713 
Q 2441 2713 2670 2916 
Q 2900 3119 2900 3481 
Q 2900 3844 2670 4047 
Q 2441 4250 2034 4250 
Q 1625 4250 1398 4047 
Q 1172 3844 1172 3481 
z
" transform="scale(0.015625)"/>
       </defs>
       <use xlink:href="#DejaVuSans-31"/>
       <use xlink:href="#DejaVuSans-38" transform="translate(63.623047 0)"/>
      </g>
     </g>
    </g>
    <g id="xtick_6">
     <g id="line2d_12">
      <path d="M 222.558 385.72 
L 222.558 32.64 
" clip-path="url(#pcc8940ebc4)" style="fill: none; stroke: #b0b0b0; stroke-opacity: 0.5; stroke-width: 0.8; stroke-linecap: square"/>
     </g>
     <g id="line2d_13">
      <g>
       <use xlink:href="#m2dca06ca21" x="222.558" y="385.72" style="stroke: #000000; stroke-width: 0.8"/>
      </g>
     </g>
     <g id="text_6">
      <!-- 19 -->
      <g transform="translate(214.923 401.838125) scale(0.12 -0.12)">
       <defs>
        <path id="DejaVuSans-39" d="M 703 97 
L 703 672 
Q 941 559 1184 500 
Q 1428 441 1663 441 
Q 2288 441 2617 861 
Q 2947 1281 2994 2138 
Q 2813 1869 2534 1725 
Q 2256 1581 1919 1581 
Q 1219 1581 811 2004 
Q 403 2428 403 3163 
Q 403 3881 828 4315 
Q 1253 4750 1959 4750 
Q 2769 4750 3195 4129 
Q 3622 3509 3622 2328 
Q 3622 1225 3098 567 
Q 2575 -91 1691 -91 
Q 1453 -91 1209 -44 
Q 966 3 703 97 
z
M 1959 2075 
Q 2384 2075 2632 2365 
Q 2881 2656 2881 3163 
Q 2881 3666 2632 3958 
Q 2384 4250 1959 4250 
Q 1534 4250 1286 3958 
Q 1038 3666 1038 3163 
Q 1038 2656 1286 2365 
Q 1534 2075 1959 2075 
z
" transform="scale(0.015625)"/>
       </defs>
       <use xlink:href="#DejaVuSans-31"/>
       <use xlink:href="#DejaVuSans-39" transform="translate(63.623047 0)"/>
      </g>
     </g>
    </g>
    <g id="xtick_7">
     <g id="line2d_14">
      <path d="M 254.39 385.72 
L 254.39 32.64 
" clip-path="url(#pcc8940ebc4)" style="fill: none; stroke: #b0b0b0; stroke-opacity: 0.5; stroke-width: 0.8; stroke-linecap: square"/>
     </g>
     <g id="line2d_15">
      <g>
       <use xlink:href="#m2dca06ca21" x="254.39" y="385.72" style="stroke: #000000; stroke-width: 0.8"/>
      </g>
     </g>
     <g id="text_7">
      <!-- 20 -->
      <g transform="translate(246.755 401.838125) scale(0.12 -0.12)">
       <defs>
        <path id="DejaVuSans-32" d="M 1228 531 
L 3431 531 
L 3431 0 
L 469 0 
L 469 531 
Q 828 903 1448 1529 
Q 2069 2156 2228 2338 
Q 2531 2678 2651 2914 
Q 2772 3150 2772 3378 
Q 2772 3750 2511 3984 
Q 2250 4219 1831 4219 
Q 1534 4219 1204 4116 
Q 875 4013 500 3803 
L 500 4441 
Q 881 4594 1212 4672 
Q 1544 4750 1819 4750 
Q 2544 4750 2975 4387 
Q 3406 4025 3406 3419 
Q 3406 3131 3298 2873 
Q 3191 2616 2906 2266 
Q 2828 2175 2409 1742 
Q 1991 1309 1228 531 
z
" transform="scale(0.015625)"/>
        <path id="DejaVuSans-30" d="M 2034 4250 
Q 1547 4250 1301 3770 
Q 1056 3291 1056 2328 
Q 1056 1369 1301 889 
Q 1547 409 2034 409 
Q 2525 409 2770 889 
Q 3016 1369 3016 2328 
Q 3016 3291 2770 3770 
Q 2525 4250 2034 4250 
z
M 2034 4750 
Q 2819 4750 3233 4129 
Q 3647 3509 3647 2328 
Q 3647 1150 3233 529 
Q 2819 -91 2034 -91 
Q 1250 -91 836 529 
Q 422 1150 422 2328 
Q 422 3509 836 4129 
Q 1250 4750 2034 4750 
z
" transform="scale(0.015625)"/>
       </defs>
       <use xlink:href="#DejaVuSans-32"/>
       <use xlink:href="#DejaVuSans-30" transform="translate(63.623047 0)"/>
      </g>
     </g>
    </g>
    <g id="xtick_8">
     <g id="line2d_16">
      <path d="M 286.222 385.72 
L 286.222 32.64 
" clip-path="url(#pcc8940ebc4)" style="fill: none; stroke: #b0b0b0; stroke-opacity: 0.5; stroke-width: 0.8; stroke-linecap: square"/>
     </g>
     <g id="line2d_17">
      <g>
       <use xlink:href="#m2dca06ca21" x="286.222" y="385.72" style="stroke: #000000; stroke-width: 0.8"/>
      </g>
     </g>
     <g id="text_8">
      <!-- 21 -->
      <g transform="translate(278.587 401.838125) scale(0.12 -0.12)">
       <use xlink:href="#DejaVuSans-32"/>
       <use xlink:href="#DejaVuSans-31" transform="translate(63.623047 0)"/>
      </g>
     </g>
    </g>
    <g id="xtick_9">
     <g id="line2d_18">
      <path d="M 318.054 385.72 
L 318.054 32.64 
" clip-path="url(#pcc8940ebc4)" style="fill: none; stroke: #b0b0b0; stroke-opacity: 0.5; stroke-width: 0.8; stroke-linecap: square"/>
     </g>
     <g id="line2d_19">
      <g>
       <use xlink:href="#m2dca06ca21" x="318.054" y="385.72" style="stroke: #000000; stroke-width: 0.8"/>
      </g>
     </g>
     <g id="text_9">
      <!-- 22 -->
      <g transform="translate(310.419 401.838125) scale(0.12 -0.12)">
       <use xlink:href="#DejaVuSans-32"/>
       <use xlink:href="#DejaVuSans-32" transform="translate(63.623047 0)"/>
      </g>
     </g>
    </g>
    <g id="xtick_10">
     <g id="line2d_20">
      <path d="M 349.886 385.72 
L 349.886 32.64 
" clip-path="url(#pcc8940ebc4)" style="fill: none; stroke: #b0b0b0; stroke-opacity: 0.5; stroke-width: 0.8; stroke-linecap: square"/>
     </g>
     <g id="line2d_21">
      <g>
       <use xlink:href="#m2dca06ca21" x="349.886" y="385.72" style="stroke: #000000; stroke-width: 0.8"/>
      </g>
     </g>
     <g id="text_10">
      <!-- 23 -->
      <g transform="translate(342.251 401.838125) scale(0.12 -0.12)">
       <defs>
        <path id="DejaVuSans-33" d="M 2597 2516 
Q 3050 2419 3304 2112 
Q 3559 1806 3559 1356 
Q 3559 666 3084 287 
Q 2609 -91 1734 -91 
Q 1441 -91 1130 -33 
Q 819 25 488 141 
L 488 750 
Q 750 597 1062 519 
Q 1375 441 1716 441 
Q 2309 441 2620 675 
Q 2931 909 2931 1356 
Q 2931 1769 2642 2001 
Q 2353 2234 1838 2234 
L 1294 2234 
L 1294 2753 
L 1863 2753 
Q 2328 2753 2575 2939 
Q 2822 3125 2822 3475 
Q 2822 3834 2567 4026 
Q 2313 4219 1838 4219 
Q 1578 4219 1281 4162 
Q 984 4106 628 3988 
L 628 4550 
Q 988 4650 1302 4700 
Q 1616 4750 1894 4750 
Q 2613 4750 3031 4423 
Q 3450 4097 3450 3541 
Q 3450 3153 3228 2886 
Q 3006 2619 2597 2516 
z
" transform="scale(0.015625)"/>
       </defs>
       <use xlink:href="#DejaVuSans-32"/>
       <use xlink:href="#DejaVuSans-33" transform="translate(63.623047 0)"/>
      </g>
     </g>
    </g>
    <g id="xtick_11">
     <g id="line2d_22">
      <path d="M 381.718 385.72 
L 381.718 32.64 
" clip-path="url(#pcc8940ebc4)" style="fill: none; stroke: #b0b0b0; stroke-opacity: 0.5; stroke-width: 0.8; stroke-linecap: square"/>
     </g>
     <g id="line2d_23">
      <g>
       <use xlink:href="#m2dca06ca21" x="381.718" y="385.72" style="stroke: #000000; stroke-width: 0.8"/>
      </g>
     </g>
     <g id="text_11">
      <!-- 24 -->
      <g transform="translate(374.083 401.838125) scale(0.12 -0.12)">
       <use xlink:href="#DejaVuSans-32"/>
       <use xlink:href="#DejaVuSans-34" transform="translate(63.623047 0)"/>
      </g>
     </g>
    </g>
    <g id="xtick_12">
     <g id="line2d_24">
      <path d="M 413.55 385.72 
L 413.55 32.64 
" clip-path="url(#pcc8940ebc4)" style="fill: none; stroke: #b0b0b0; stroke-opacity: 0.5; stroke-width: 0.8; stroke-linecap: square"/>
     </g>
     <g id="line2d_25">
      <g>
       <use xlink:href="#m2dca06ca21" x="413.55" y="385.72" style="stroke: #000000; stroke-width: 0.8"/>
      </g>
     </g>
     <g id="text_12">
      <!-- 25 -->
      <g transform="translate(405.915 401.838125) scale(0.12 -0.12)">
       <use xlink:href="#DejaVuSans-32"/>
       <use xlink:href="#DejaVuSans-35" transform="translate(63.623047 0)"/>
      </g>
     </g>
    </g>
    <g id="text_13">
     <!-- Magnitud aparente R -->
     <g transform="translate(164.843844 418.971563) scale(0.14 -0.14)">
      <defs>
       <path id="DejaVuSans-4d" d="M 628 4666 
L 1569 4666 
L 2759 1491 
L 3956 4666 
L 4897 4666 
L 4897 0 
L 4281 0 
L 4281 4097 
L 3078 897 
L 2444 897 
L 1241 4097 
L 1241 0 
L 628 0 
L 628 4666 
z
" transform="scale(0.015625)"/>
       <path id="DejaVuSans-61" d="M 2194 1759 
Q 1497 1759 1228 1600 
Q 959 1441 959 1056 
Q 959 750 1161 570 
Q 1363 391 1709 391 
Q 2188 391 2477 730 
Q 2766 1069 2766 1631 
L 2766 1759 
L 2194 1759 
z
M 3341 1997 
L 3341 0 
L 2766 0 
L 2766 531 
Q 2569 213 2275 61 
Q 1981 -91 1556 -91 
Q 1019 -91 701 211 
Q 384 513 384 1019 
Q 384 1609 779 1909 
Q 1175 2209 1959 2209 
L 2766 2209 
L 2766 2266 
Q 2766 2663 2505 2880 
Q 2244 3097 1772 3097 
Q 1472 3097 1187 3025 
Q 903 2953 641 2809 
L 641 3341 
Q 956 3463 1253 3523 
Q 1550 3584 1831 3584 
Q 2591 3584 2966 3190 
Q 3341 2797 3341 1997 
z
" transform="scale(0.015625)"/>
       <path id="DejaVuSans-67" d="M 2906 1791 
Q 2906 2416 2648 2759 
Q 2391 3103 1925 3103 
Q 1463 3103 1205 2759 
Q 947 2416 947 1791 
Q 947 1169 1205 825 
Q 1463 481 1925 481 
Q 2391 481 2648 825 
Q 2906 1169 2906 1791 
z
M 3481 434 
Q 3481 -459 3084 -895 
Q 2688 -1331 1869 -1331 
Q 1566 -1331 1297 -1286 
Q 1028 -1241 775 -1147 
L 775 -588 
Q 1028 -725 1275 -790 
Q 1522 -856 1778 -856 
Q 2344 -856 2625 -561 
Q 2906 -266 2906 331 
L 2906 616 
Q 2728 306 2450 153 
Q 2172 0 1784 0 
Q 1141 0 747 490 
Q 353 981 353 1791 
Q 353 2603 747 3093 
Q 1141 3584 1784 3584 
Q 2172 3584 2450 3431 
Q 2728 3278 2906 2969 
L 2906 3500 
L 3481 3500 
L 3481 434 
z
" transform="scale(0.015625)"/>
       <path id="DejaVuSans-6e" d="M 3513 2113 
L 3513 0 
L 2938 0 
L 2938 2094 
Q 2938 2591 2744 2837 
Q 2550 3084 2163 3084 
Q 1697 3084 1428 2787 
Q 1159 2491 1159 1978 
L 1159 0 
L 581 0 
L 581 3500 
L 1159 3500 
L 1159 2956 
Q 1366 3272 1645 3428 
Q 1925 3584 2291 3584 
Q 2894 3584 3203 3211 
Q 3513 2838 3513 2113 
z
" transform="scale(0.015625)"/>
       <path id="DejaVuSans-69" d="M 603 3500 
L 1178 3500 
L 1178 0 
L 603 0 
L 603 3500 
z
M 603 4863 
L 1178 4863 
L 1178 4134 
L 603 4134 
L 603 4863 
z
" transform="scale(0.015625)"/>
       <path id="DejaVuSans-74" d="M 1172 4494 
L 1172 3500 
L 2356 3500 
L 2356 3053 
L 1172 3053 
L 1172 1153 
Q 1172 725 1289 603 
Q 1406 481 1766 481 
L 2356 481 
L 2356 0 
L 1766 0 
Q 1100 0 847 248 
Q 594 497 594 1153 
L 594 3053 
L 172 3053 
L 172 3500 
L 594 3500 
L 594 4494 
L 1172 4494 
z
" transform="scale(0.015625)"/>
       <path id="DejaVuSans-75" d="M 544 1381 
L 544 3500 
L 1119 3500 
L 1119 1403 
Q 1119 906 1312 657 
Q 1506 409 1894 409 
Q 2359 409 2629 706 
Q 2900 1003 2900 1516 
L 2900 3500 
L 3475 3500 
L 3475 0 
L 2900 0 
L 2900 538 
Q 2691 219 2414 64 
Q 2138 -91 1772 -91 
Q 1169 -91 856 284 
Q 544 659 544 1381 
z
M 1991 3584 
L 1991 3584 
z
" transform="scale(0.015625)"/>
       <path id="DejaVuSans-64" d="M 2906 2969 
L 2906 4863 
L 3481 4863 
L 3481 0 
L 2906 0 
L 2906 525 
Q 2725 213 2448 61 
Q 2172 -91 1784 -91 
Q 1150 -91 751 415 
Q 353 922 353 1747 
Q 353 2572 751 3078 
Q 1150 3584 1784 3584 
Q 2172 3584 2448 3432 
Q 2725 3281 2906 2969 
z
M 947 1747 
Q 947 1113 1208 752 
Q 1469 391 1925 391 
Q 2381 391 2643 752 
Q 2906 1113 2906 1747 
Q 2906 2381 2643 2742 
Q 2381 3103 1925 3103 
Q 1469 3103 1208 2742 
Q 947 2381 947 1747 
z
" transform="scale(0.015625)"/>
       <path id="DejaVuSans-20" transform="scale(0.015625)"/>
       <path id="DejaVuSans-70" d="M 1159 525 
L 1159 -1331 
L 581 -1331 
L 581 3500 
L 1159 3500 
L 1159 2969 
Q 1341 3281 1617 3432 
Q 1894 3584 2278 3584 
Q 2916 3584 3314 3078 
Q 3713 2572 3713 1747 
Q 3713 922 3314 415 
Q 2916 -91 2278 -91 
Q 1894 -91 1617 61 
Q 1341 213 1159 525 
z
M 3116 1747 
Q 3116 2381 2855 2742 
Q 2594 3103 2138 3103 
Q 1681 3103 1420 2742 
Q 1159 2381 1159 1747 
Q 1159 1113 1420 752 
Q 1681 391 2138 391 
Q 2594 391 2855 752 
Q 3116 1113 3116 1747 
z
" transform="scale(0.015625)"/>
       <path id="DejaVuSans-72" d="M 2631 2963 
Q 2534 3019 2420 3045 
Q 2306 3072 2169 3072 
Q 1681 3072 1420 2755 
Q 1159 2438 1159 1844 
L 1159 0 
L 581 0 
L 581 3500 
L 1159 3500 
L 1159 2956 
Q 1341 3275 1631 3429 
Q 1922 3584 2338 3584 
Q 2397 3584 2469 3576 
Q 2541 3569 2628 3553 
L 2631 2963 
z
" transform="scale(0.015625)"/>
       <path id="DejaVuSans-65" d="M 3597 1894 
L 3597 1613 
L 953 1613 
Q 991 1019 1311 708 
Q 1631 397 2203 397 
Q 2534 397 2845 478 
Q 3156 559 3463 722 
L 3463 178 
Q 3153 47 2828 -22 
Q 2503 -91 2169 -91 
Q 1331 -91 842 396 
Q 353 884 353 1716 
Q 353 2575 817 3079 
Q 1281 3584 2069 3584 
Q 2775 3584 3186 3129 
Q 3597 2675 3597 1894 
z
M 3022 2063 
Q 3016 2534 2758 2815 
Q 2500 3097 2075 3097 
Q 1594 3097 1305 2825 
Q 1016 2553 972 2059 
L 3022 2063 
z
" transform="scale(0.015625)"/>
       <path id="DejaVuSans-52" d="M 2841 2188 
Q 3044 2119 3236 1894 
Q 3428 1669 3622 1275 
L 4263 0 
L 3584 0 
L 2988 1197 
Q 2756 1666 2539 1819 
Q 2322 1972 1947 1972 
L 1259 1972 
L 1259 0 
L 628 0 
L 628 4666 
L 2053 4666 
Q 2853 4666 3247 4331 
Q 3641 3997 3641 3322 
Q 3641 2881 3436 2590 
Q 3231 2300 2841 2188 
z
M 1259 4147 
L 1259 2491 
L 2053 2491 
Q 2509 2491 2742 2702 
Q 2975 2913 2975 3322 
Q 2975 3731 2742 3939 
Q 2509 4147 2053 4147 
L 1259 4147 
z
" transform="scale(0.015625)"/>
      </defs>
      <use xlink:href="#DejaVuSans-4d"/>
      <use xlink:href="#DejaVuSans-61" transform="translate(86.279297 0)"/>
      <use xlink:href="#DejaVuSans-67" transform="translate(147.558594 0)"/>
      <use xlink:href="#DejaVuSans-6e" transform="translate(211.035156 0)"/>
      <use xlink:href="#DejaVuSans-69" transform="translate(274.414062 0)"/>
      <use xlink:href="#DejaVuSans-74" transform="translate(302.197266 0)"/>
      <use xlink:href="#DejaVuSans-75" transform="translate(341.40625 0)"/>
      <use xlink:href="#DejaVuSans-64" transform="translate(404.785156 0)"/>
      <use xlink:href="#DejaVuSans-20" transform="translate(468.261719 0)"/>
      <use xlink:href="#DejaVuSans-61" transform="translate(500.048828 0)"/>
      <use xlink:href="#DejaVuSans-70" transform="translate(561.328125 0)"/>
      <use xlink:href="#DejaVuSans-61" transform="translate(624.804688 0)"/>
      <use xlink:href="#DejaVuSans-72" transform="translate(686.083984 0)"/>
      <use xlink:href="#DejaVuSans-65" transform="translate(724.947266 0)"/>
      <use xlink:href="#DejaVuSans-6e" transform="translate(786.470703 0)"/>
      <use xlink:href="#DejaVuSans-74" transform="translate(849.849609 0)"/>
      <use xlink:href="#DejaVuSans-65" transform="translate(889.058594 0)"/>
      <use xlink:href="#DejaVuSans-20" transform="translate(950.582031 0)"/>
      <use xlink:href="#DejaVuSans-52" transform="translate(982.369141 0)"/>
     </g>
    </g>
   </g>
   <g id="matplotlib.axis_2">
    <g id="ytick_1">
     <g id="line2d_26">
      <path d="M 63.398 351.981766 
L 413.55 351.981766 
" clip-path="url(#pcc8940ebc4)" style="fill: none; stroke: #b0b0b0; stroke-opacity: 0.5; stroke-width: 0.8; stroke-linecap: square"/>
     </g>
     <g id="line2d_27">
      <defs>
       <path id="m1ab006053c" d="M 0 0 
L -3.5 0 
" style="stroke: #000000; stroke-width: 0.8"/>
      </defs>
      <g>
       <use xlink:href="#m1ab006053c" x="63.398" y="351.981766" style="stroke: #000000; stroke-width: 0.8"/>
      </g>
     </g>
     <g id="text_14">
      <!-- 1 -->
      <g transform="translate(48.763 356.540829) scale(0.12 -0.12)">
       <use xlink:href="#DejaVuSans-31"/>
      </g>
     </g>
    </g>
    <g id="ytick_2">
     <g id="line2d_28">
      <path d="M 63.398 275.821038 
L 413.55 275.821038 
" clip-path="url(#pcc8940ebc4)" style="fill: none; stroke: #b0b0b0; stroke-opacity: 0.5; stroke-width: 0.8; stroke-linecap: square"/>
     </g>
     <g id="line2d_29">
      <g>
       <use xlink:href="#m1ab006053c" x="63.398" y="275.821038" style="stroke: #000000; stroke-width: 0.8"/>
      </g>
     </g>
     <g id="text_15">
      <!-- 10 -->
      <g transform="translate(41.128 280.380101) scale(0.12 -0.12)">
       <use xlink:href="#DejaVuSans-31"/>
       <use xlink:href="#DejaVuSans-30" transform="translate(63.623047 0)"/>
      </g>
     </g>
    </g>
    <g id="ytick_3">
     <g id="line2d_30">
      <path d="M 63.398 199.660311 
L 413.55 199.660311 
" clip-path="url(#pcc8940ebc4)" style="fill: none; stroke: #b0b0b0; stroke-opacity: 0.5; stroke-width: 0.8; stroke-linecap: square"/>
     </g>
     <g id="line2d_31">
      <g>
       <use xlink:href="#m1ab006053c" x="63.398" y="199.660311" style="stroke: #000000; stroke-width: 0.8"/>
      </g>
     </g>
     <g id="text_16">
      <!-- 100 -->
      <g transform="translate(33.493 204.219373) scale(0.12 -0.12)">
       <use xlink:href="#DejaVuSans-31"/>
       <use xlink:href="#DejaVuSans-30" transform="translate(63.623047 0)"/>
       <use xlink:href="#DejaVuSans-30" transform="translate(127.246094 0)"/>
      </g>
     </g>
    </g>
    <g id="ytick_4">
     <g id="line2d_32">
      <path d="M 63.398 123.499583 
L 413.55 123.499583 
" clip-path="url(#pcc8940ebc4)" style="fill: none; stroke: #b0b0b0; stroke-opacity: 0.5; stroke-width: 0.8; stroke-linecap: square"/>
     </g>
     <g id="line2d_33">
      <g>
       <use xlink:href="#m1ab006053c" x="63.398" y="123.499583" style="stroke: #000000; stroke-width: 0.8"/>
      </g>
     </g>
     <g id="text_17">
      <!-- 1e3 -->
      <g transform="translate(33.74425 128.058645) scale(0.12 -0.12)">
       <use xlink:href="#DejaVuSans-31"/>
       <use xlink:href="#DejaVuSans-65" transform="translate(63.623047 0)"/>
       <use xlink:href="#DejaVuSans-33" transform="translate(125.146484 0)"/>
      </g>
     </g>
    </g>
    <g id="ytick_5">
     <g id="line2d_34">
      <path d="M 63.398 47.338855 
L 413.55 47.338855 
" clip-path="url(#pcc8940ebc4)" style="fill: none; stroke: #b0b0b0; stroke-opacity: 0.5; stroke-width: 0.8; stroke-linecap: square"/>
     </g>
     <g id="line2d_35">
      <g>
       <use xlink:href="#m1ab006053c" x="63.398" y="47.338855" style="stroke: #000000; stroke-width: 0.8"/>
      </g>
     </g>
     <g id="text_18">
      <!-- 1e4 -->
      <g transform="translate(33.74425 51.897918) scale(0.12 -0.12)">
       <use xlink:href="#DejaVuSans-31"/>
       <use xlink:href="#DejaVuSans-65" transform="translate(63.623047 0)"/>
       <use xlink:href="#DejaVuSans-34" transform="translate(125.146484 0)"/>
      </g>
     </g>
    </g>
    <g id="ytick_6">
     <g id="line2d_36">
      <defs>
       <path id="m563aafa8bb" d="M 0 0 
L -2 0 
" style="stroke: #000000; stroke-width: 0.6"/>
      </defs>
      <g>
       <use xlink:href="#m563aafa8bb" x="63.398" y="382.289167" style="stroke: #000000; stroke-width: 0.6"/>
      </g>
     </g>
    </g>
    <g id="ytick_7">
     <g id="line2d_37">
      <g>
       <use xlink:href="#m563aafa8bb" x="63.398" y="374.90843" style="stroke: #000000; stroke-width: 0.6"/>
      </g>
     </g>
    </g>
    <g id="ytick_8">
     <g id="line2d_38">
      <g>
       <use xlink:href="#m563aafa8bb" x="63.398" y="368.877928" style="stroke: #000000; stroke-width: 0.6"/>
      </g>
     </g>
    </g>
    <g id="ytick_9">
     <g id="line2d_39">
      <g>
       <use xlink:href="#m563aafa8bb" x="63.398" y="363.779212" style="stroke: #000000; stroke-width: 0.6"/>
      </g>
     </g>
    </g>
    <g id="ytick_10">
     <g id="line2d_40">
      <g>
       <use xlink:href="#m563aafa8bb" x="63.398" y="359.362503" style="stroke: #000000; stroke-width: 0.6"/>
      </g>
     </g>
    </g>
    <g id="ytick_11">
     <g id="line2d_41">
      <g>
       <use xlink:href="#m563aafa8bb" x="63.398" y="355.46669" style="stroke: #000000; stroke-width: 0.6"/>
      </g>
     </g>
    </g>
    <g id="ytick_12">
     <g id="line2d_42">
      <g>
       <use xlink:href="#m563aafa8bb" x="63.398" y="329.055103" style="stroke: #000000; stroke-width: 0.6"/>
      </g>
     </g>
    </g>
    <g id="ytick_13">
     <g id="line2d_43">
      <g>
       <use xlink:href="#m563aafa8bb" x="63.398" y="315.643864" style="stroke: #000000; stroke-width: 0.6"/>
      </g>
     </g>
    </g>
    <g id="ytick_14">
     <g id="line2d_44">
      <g>
       <use xlink:href="#m563aafa8bb" x="63.398" y="306.128439" style="stroke: #000000; stroke-width: 0.6"/>
      </g>
     </g>
    </g>
    <g id="ytick_15">
     <g id="line2d_45">
      <g>
       <use xlink:href="#m563aafa8bb" x="63.398" y="298.747702" style="stroke: #000000; stroke-width: 0.6"/>
      </g>
     </g>
    </g>
    <g id="ytick_16">
     <g id="line2d_46">
      <g>
       <use xlink:href="#m563aafa8bb" x="63.398" y="292.717201" style="stroke: #000000; stroke-width: 0.6"/>
      </g>
     </g>
    </g>
    <g id="ytick_17">
     <g id="line2d_47">
      <g>
       <use xlink:href="#m563aafa8bb" x="63.398" y="287.618484" style="stroke: #000000; stroke-width: 0.6"/>
      </g>
     </g>
    </g>
    <g id="ytick_18">
     <g id="line2d_48">
      <g>
       <use xlink:href="#m563aafa8bb" x="63.398" y="283.201775" style="stroke: #000000; stroke-width: 0.6"/>
      </g>
     </g>
    </g>
    <g id="ytick_19">
     <g id="line2d_49">
      <g>
       <use xlink:href="#m563aafa8bb" x="63.398" y="279.305962" style="stroke: #000000; stroke-width: 0.6"/>
      </g>
     </g>
    </g>
    <g id="ytick_20">
     <g id="line2d_50">
      <g>
       <use xlink:href="#m563aafa8bb" x="63.398" y="252.894375" style="stroke: #000000; stroke-width: 0.6"/>
      </g>
     </g>
    </g>
    <g id="ytick_21">
     <g id="line2d_51">
      <g>
       <use xlink:href="#m563aafa8bb" x="63.398" y="239.483136" style="stroke: #000000; stroke-width: 0.6"/>
      </g>
     </g>
    </g>
    <g id="ytick_22">
     <g id="line2d_52">
      <g>
       <use xlink:href="#m563aafa8bb" x="63.398" y="229.967711" style="stroke: #000000; stroke-width: 0.6"/>
      </g>
     </g>
    </g>
    <g id="ytick_23">
     <g id="line2d_53">
      <g>
       <use xlink:href="#m563aafa8bb" x="63.398" y="222.586974" style="stroke: #000000; stroke-width: 0.6"/>
      </g>
     </g>
    </g>
    <g id="ytick_24">
     <g id="line2d_54">
      <g>
       <use xlink:href="#m563aafa8bb" x="63.398" y="216.556473" style="stroke: #000000; stroke-width: 0.6"/>
      </g>
     </g>
    </g>
    <g id="ytick_25">
     <g id="line2d_55">
      <g>
       <use xlink:href="#m563aafa8bb" x="63.398" y="211.457757" style="stroke: #000000; stroke-width: 0.6"/>
      </g>
     </g>
    </g>
    <g id="ytick_26">
     <g id="line2d_56">
      <g>
       <use xlink:href="#m563aafa8bb" x="63.398" y="207.041048" style="stroke: #000000; stroke-width: 0.6"/>
      </g>
     </g>
    </g>
    <g id="ytick_27">
     <g id="line2d_57">
      <g>
       <use xlink:href="#m563aafa8bb" x="63.398" y="203.145234" style="stroke: #000000; stroke-width: 0.6"/>
      </g>
     </g>
    </g>
    <g id="ytick_28">
     <g id="line2d_58">
      <g>
       <use xlink:href="#m563aafa8bb" x="63.398" y="176.733647" style="stroke: #000000; stroke-width: 0.6"/>
      </g>
     </g>
    </g>
    <g id="ytick_29">
     <g id="line2d_59">
      <g>
       <use xlink:href="#m563aafa8bb" x="63.398" y="163.322409" style="stroke: #000000; stroke-width: 0.6"/>
      </g>
     </g>
    </g>
    <g id="ytick_30">
     <g id="line2d_60">
      <g>
       <use xlink:href="#m563aafa8bb" x="63.398" y="153.806984" style="stroke: #000000; stroke-width: 0.6"/>
      </g>
     </g>
    </g>
    <g id="ytick_31">
     <g id="line2d_61">
      <g>
       <use xlink:href="#m563aafa8bb" x="63.398" y="146.426246" style="stroke: #000000; stroke-width: 0.6"/>
      </g>
     </g>
    </g>
    <g id="ytick_32">
     <g id="line2d_62">
      <g>
       <use xlink:href="#m563aafa8bb" x="63.398" y="140.395745" style="stroke: #000000; stroke-width: 0.6"/>
      </g>
     </g>
    </g>
    <g id="ytick_33">
     <g id="line2d_63">
      <g>
       <use xlink:href="#m563aafa8bb" x="63.398" y="135.297029" style="stroke: #000000; stroke-width: 0.6"/>
      </g>
     </g>
    </g>
    <g id="ytick_34">
     <g id="line2d_64">
      <g>
       <use xlink:href="#m563aafa8bb" x="63.398" y="130.88032" style="stroke: #000000; stroke-width: 0.6"/>
      </g>
     </g>
    </g>
    <g id="ytick_35">
     <g id="line2d_65">
      <g>
       <use xlink:href="#m563aafa8bb" x="63.398" y="126.984507" style="stroke: #000000; stroke-width: 0.6"/>
      </g>
     </g>
    </g>
    <g id="ytick_36">
     <g id="line2d_66">
      <g>
       <use xlink:href="#m563aafa8bb" x="63.398" y="100.572919" style="stroke: #000000; stroke-width: 0.6"/>
      </g>
     </g>
    </g>
    <g id="ytick_37">
     <g id="line2d_67">
      <g>
       <use xlink:href="#m563aafa8bb" x="63.398" y="87.161681" style="stroke: #000000; stroke-width: 0.6"/>
      </g>
     </g>
    </g>
    <g id="ytick_38">
     <g id="line2d_68">
      <g>
       <use xlink:href="#m563aafa8bb" x="63.398" y="77.646256" style="stroke: #000000; stroke-width: 0.6"/>
      </g>
     </g>
    </g>
    <g id="ytick_39">
     <g id="line2d_69">
      <g>
       <use xlink:href="#m563aafa8bb" x="63.398" y="70.265519" style="stroke: #000000; stroke-width: 0.6"/>
      </g>
     </g>
    </g>
    <g id="ytick_40">
     <g id="line2d_70">
      <g>
       <use xlink:href="#m563aafa8bb" x="63.398" y="64.235017" style="stroke: #000000; stroke-width: 0.6"/>
      </g>
     </g>
    </g>
    <g id="ytick_41">
     <g id="line2d_71">
      <g>
       <use xlink:href="#m563aafa8bb" x="63.398" y="59.136301" style="stroke: #000000; stroke-width: 0.6"/>
      </g>
     </g>
    </g>
    <g id="ytick_42">
     <g id="line2d_72">
      <g>
       <use xlink:href="#m563aafa8bb" x="63.398" y="54.719592" style="stroke: #000000; stroke-width: 0.6"/>
      </g>
     </g>
    </g>
    <g id="ytick_43">
     <g id="line2d_73">
      <g>
       <use xlink:href="#m563aafa8bb" x="63.398" y="50.823779" style="stroke: #000000; stroke-width: 0.6"/>
      </g>
     </g>
    </g>
    <g id="text_19">
     <!-- $N (0.5 mag/0.15 deg^{2})$ -->
     <g transform="translate(26.553 281) rotate(-90) scale(0.14 -0.14)">
      <defs>
       <path id="DejaVuSans-Oblique-4e" d="M 1081 4666 
L 1931 4666 
L 3219 666 
L 4000 4666 
L 4616 4666 
L 3706 0 
L 2853 0 
L 1569 4025 
L 788 0 
L 172 0 
L 1081 4666 
z
" transform="scale(0.015625)"/>
       <path id="DejaVuSans-28" d="M 1984 4856 
Q 1566 4138 1362 3434 
Q 1159 2731 1159 2009 
Q 1159 1288 1364 580 
Q 1569 -128 1984 -844 
L 1484 -844 
Q 1016 -109 783 600 
Q 550 1309 550 2009 
Q 550 2706 781 3412 
Q 1013 4119 1484 4856 
L 1984 4856 
z
" transform="scale(0.015625)"/>
       <path id="DejaVuSans-2e" d="M 684 794 
L 1344 794 
L 1344 0 
L 684 0 
L 684 794 
z
" transform="scale(0.015625)"/>
       <path id="DejaVuSans-Oblique-6d" d="M 5747 2113 
L 5338 0 
L 4763 0 
L 5166 2094 
Q 5191 2228 5203 2325 
Q 5216 2422 5216 2491 
Q 5216 2772 5059 2928 
Q 4903 3084 4622 3084 
Q 4203 3084 3875 2770 
Q 3547 2456 3450 1953 
L 3066 0 
L 2491 0 
L 2900 2094 
Q 2925 2209 2937 2307 
Q 2950 2406 2950 2484 
Q 2950 2769 2794 2926 
Q 2638 3084 2363 3084 
Q 1938 3084 1609 2770 
Q 1281 2456 1184 1953 
L 800 0 
L 225 0 
L 909 3500 
L 1484 3500 
L 1375 2956 
Q 1609 3263 1923 3423 
Q 2238 3584 2597 3584 
Q 2978 3584 3223 3384 
Q 3469 3184 3519 2828 
Q 3781 3197 4126 3390 
Q 4472 3584 4856 3584 
Q 5306 3584 5551 3325 
Q 5797 3066 5797 2591 
Q 5797 2488 5784 2364 
Q 5772 2241 5747 2113 
z
" transform="scale(0.015625)"/>
       <path id="DejaVuSans-Oblique-61" d="M 3438 1997 
L 3047 0 
L 2472 0 
L 2578 531 
Q 2325 219 2001 64 
Q 1678 -91 1281 -91 
Q 834 -91 548 182 
Q 263 456 263 884 
Q 263 1497 752 1853 
Q 1241 2209 2100 2209 
L 2900 2209 
L 2931 2363 
Q 2938 2388 2941 2417 
Q 2944 2447 2944 2509 
Q 2944 2788 2717 2942 
Q 2491 3097 2081 3097 
Q 1800 3097 1504 3025 
Q 1209 2953 897 2809 
L 997 3341 
Q 1322 3463 1633 3523 
Q 1944 3584 2234 3584 
Q 2853 3584 3176 3315 
Q 3500 3047 3500 2534 
Q 3500 2431 3484 2292 
Q 3469 2153 3438 1997 
z
M 2816 1759 
L 2241 1759 
Q 1534 1759 1195 1570 
Q 856 1381 856 984 
Q 856 709 1029 553 
Q 1203 397 1509 397 
Q 1978 397 2328 733 
Q 2678 1069 2791 1631 
L 2816 1759 
z
" transform="scale(0.015625)"/>
       <path id="DejaVuSans-Oblique-67" d="M 3816 3500 
L 3219 434 
Q 3047 -456 2561 -893 
Q 2075 -1331 1253 -1331 
Q 950 -1331 690 -1286 
Q 431 -1241 206 -1147 
L 313 -588 
Q 525 -725 762 -790 
Q 1000 -856 1269 -856 
Q 1816 -856 2167 -557 
Q 2519 -259 2631 300 
L 2681 563 
Q 2441 288 2122 144 
Q 1803 0 1434 0 
Q 903 0 598 351 
Q 294 703 294 1319 
Q 294 1803 478 2267 
Q 663 2731 997 3091 
Q 1219 3328 1514 3456 
Q 1809 3584 2131 3584 
Q 2484 3584 2746 3420 
Q 3009 3256 3138 2956 
L 3238 3500 
L 3816 3500 
z
M 2950 2216 
Q 2950 2641 2750 2872 
Q 2550 3103 2181 3103 
Q 1953 3103 1747 3012 
Q 1541 2922 1394 2759 
Q 1156 2491 1023 2127 
Q 891 1763 891 1375 
Q 891 944 1092 712 
Q 1294 481 1672 481 
Q 2219 481 2584 976 
Q 2950 1472 2950 2216 
z
" transform="scale(0.015625)"/>
       <path id="DejaVuSans-2f" d="M 1625 4666 
L 2156 4666 
L 531 -594 
L 0 -594 
L 1625 4666 
z
" transform="scale(0.015625)"/>
       <path id="DejaVuSans-Oblique-64" d="M 2675 525 
Q 2444 222 2128 65 
Q 1813 -91 1428 -91 
Q 903 -91 598 267 
Q 294 625 294 1247 
Q 294 1766 478 2236 
Q 663 2706 1013 3078 
Q 1244 3325 1534 3454 
Q 1825 3584 2144 3584 
Q 2481 3584 2739 3421 
Q 2997 3259 3138 2956 
L 3513 4863 
L 4091 4863 
L 3144 0 
L 2566 0 
L 2675 525 
z
M 891 1350 
Q 891 897 1095 644 
Q 1300 391 1663 391 
Q 1931 391 2161 520 
Q 2391 650 2566 903 
Q 2750 1166 2856 1509 
Q 2963 1853 2963 2188 
Q 2963 2622 2758 2865 
Q 2553 3109 2194 3109 
Q 1922 3109 1687 2981 
Q 1453 2853 1288 2613 
Q 1106 2353 998 2009 
Q 891 1666 891 1350 
z
" transform="scale(0.015625)"/>
       <path id="DejaVuSans-Oblique-65" d="M 3078 2063 
Q 3088 2113 3092 2166 
Q 3097 2219 3097 2272 
Q 3097 2653 2873 2875 
Q 2650 3097 2266 3097 
Q 1838 3097 1509 2826 
Q 1181 2556 1013 2059 
L 3078 2063 
z
M 3578 1613 
L 903 1613 
Q 884 1494 878 1425 
Q 872 1356 872 1306 
Q 872 872 1139 634 
Q 1406 397 1894 397 
Q 2269 397 2603 481 
Q 2938 566 3225 728 
L 3116 159 
Q 2806 34 2476 -28 
Q 2147 -91 1806 -91 
Q 1078 -91 686 257 
Q 294 606 294 1247 
Q 294 1794 489 2264 
Q 684 2734 1063 3103 
Q 1306 3334 1642 3459 
Q 1978 3584 2356 3584 
Q 2950 3584 3301 3228 
Q 3653 2872 3653 2272 
Q 3653 2128 3634 1964 
Q 3616 1800 3578 1613 
z
" transform="scale(0.015625)"/>
       <path id="DejaVuSans-29" d="M 513 4856 
L 1013 4856 
Q 1481 4119 1714 3412 
Q 1947 2706 1947 2009 
Q 1947 1309 1714 600 
Q 1481 -109 1013 -844 
L 513 -844 
Q 928 -128 1133 580 
Q 1338 1288 1338 2009 
Q 1338 2731 1133 3434 
Q 928 4138 513 4856 
z
" transform="scale(0.015625)"/>
      </defs>
      <use xlink:href="#DejaVuSans-Oblique-4e" transform="translate(0 0.765625)"/>
      <use xlink:href="#DejaVuSans-28" transform="translate(74.804688 0.765625)"/>
      <use xlink:href="#DejaVuSans-30" transform="translate(113.818359 0.765625)"/>
      <use xlink:href="#DejaVuSans-2e" transform="translate(177.441406 0.765625)"/>
      <use xlink:href="#DejaVuSans-35" transform="translate(209.228516 0.765625)"/>
      <use xlink:href="#DejaVuSans-Oblique-6d" transform="translate(267.351562 0.765625)"/>
      <use xlink:href="#DejaVuSans-Oblique-61" transform="translate(364.763672 0.765625)"/>
      <use xlink:href="#DejaVuSans-Oblique-67" transform="translate(426.042969 0.765625)"/>
      <use xlink:href="#DejaVuSans-2f" transform="translate(489.519531 0.765625)"/>
      <use xlink:href="#DejaVuSans-30" transform="translate(523.210938 0.765625)"/>
      <use xlink:href="#DejaVuSans-2e" transform="translate(586.833984 0.765625)"/>
      <use xlink:href="#DejaVuSans-31" transform="translate(618.621094 0.765625)"/>
      <use xlink:href="#DejaVuSans-35" transform="translate(682.244141 0.765625)"/>
      <use xlink:href="#DejaVuSans-Oblique-64" transform="translate(745.867188 0.765625)"/>
      <use xlink:href="#DejaVuSans-Oblique-65" transform="translate(809.34375 0.765625)"/>
      <use xlink:href="#DejaVuSans-Oblique-67" transform="translate(870.867188 0.765625)"/>
      <use xlink:href="#DejaVuSans-32" transform="translate(938.993646 39.046875) scale(0.7)"/>
      <use xlink:href="#DejaVuSans-29" transform="translate(986.264154 0.765625)"/>
     </g>
    </g>
   </g>
   <g id="patch_3">
    <path d="M 63.398 433 
L 63.398 248.271583 
L 79.314 248.271583 
L 79.314 226.815214 
L 95.23 226.815214 
L 95.23 171.259061 
L 111.146 171.259061 
L 111.146 134.319336 
L 127.062 134.319336 
L 127.062 115.855289 
L 142.978 115.855289 
L 142.978 106.221945 
L 158.894 106.221945 
L 158.894 102.14787 
L 174.81 102.14787 
L 174.81 96.007702 
L 190.726 96.007702 
L 190.726 91.414988 
L 206.642 91.414988 
L 206.642 86.237553 
L 222.558 86.237553 
L 222.558 81.621755 
L 238.474 81.621755 
L 238.474 77.2272 
L 254.39 77.2272 
L 254.39 73.348629 
L 270.306 73.348629 
L 270.306 71.300284 
L 286.222 71.300284 
L 286.222 72.439039 
L 302.138 72.439039 
L 302.138 80.135652 
L 318.054 80.135652 
L 318.054 100.391499 
L 333.97 100.391499 
L 333.97 146.758673 
L 349.886 146.758673 
L 349.886 227.57562 
L 365.802 227.57562 
L 365.802 329.055103 
L 381.718 329.055103 
L 381.718 433 
" clip-path="url(#pcc8940ebc4)" style="fill: none; opacity: 0"/>
   </g>
   <g id="patch_4">
    <path d="M 63.398 433 
L 63.398 148.332398 
L 79.314 148.332398 
L 79.314 139.849019 
L 95.23 139.849019 
L 95.23 131.296378 
L 111.146 131.296378 
L 111.146 123.532676 
L 127.062 123.532676 
L 127.062 118.13731 
L 142.978 118.13731 
L 142.978 111.924493 
L 158.894 111.924493 
L 158.894 103.008866 
L 174.81 103.008866 
L 174.81 95.014348 
L 190.726 95.014348 
L 190.726 88.260212 
L 206.642 88.260212 
L 206.642 82.376305 
L 222.558 82.376305 
L 222.558 76.572365 
L 238.474 76.572365 
L 238.474 71.423371 
L 254.39 71.423371 
L 254.39 65.25386 
L 270.306 65.25386 
L 270.306 61.042452 
L 286.222 61.042452 
L 286.222 56.403125 
L 302.138 56.403125 
L 302.138 54.25566 
L 318.054 54.25566 
L 318.054 53.157029 
L 333.97 53.157029 
L 333.97 50.889998 
L 349.886 50.889998 
L 349.886 49.700117 
L 365.802 49.700117 
L 365.802 49.161021 
L 381.718 49.161021 
L 381.718 49.346774 
L 397.634 49.346774 
L 397.634 50.226483 
L 413.55 50.226483 
L 413.55 433 
" clip-path="url(#pcc8940ebc4)" style="fill: none; opacity: 0"/>
   </g>
   <g id="patch_5">
    <path d="M 63.398 433 
L 63.398 148.613899 
L 79.314 148.613899 
L 79.314 139.686748 
L 95.23 139.686748 
L 95.23 132.620456 
L 111.146 132.620456 
L 111.146 126.185702 
L 127.062 126.185702 
L 127.062 115.567782 
L 142.978 115.567782 
L 142.978 109.912407 
L 158.894 109.912407 
L 158.894 104.838767 
L 174.81 104.838767 
L 174.81 96.022111 
L 190.726 96.022111 
L 190.726 88.80029 
L 206.642 88.80029 
L 206.642 81.893294 
L 222.558 81.893294 
L 222.558 75.914545 
L 238.474 75.914545 
L 238.474 70.852843 
L 254.39 70.852843 
L 254.39 65.683018 
L 270.306 65.683018 
L 270.306 60.902595 
L 286.222 60.902595 
L 286.222 57.35642 
L 302.138 57.35642 
L 302.138 55.085446 
L 318.054 55.085446 
L 318.054 52.757193 
L 333.97 52.757193 
L 333.97 51.346075 
L 349.886 51.346075 
L 349.886 49.643328 
L 365.802 49.643328 
L 365.802 48.689091 
L 381.718 48.689091 
L 381.718 49.650422 
L 397.634 49.650422 
L 397.634 55.842352 
L 413.55 55.842352 
L 413.55 433 
" clip-path="url(#pcc8940ebc4)" style="fill: none; opacity: 0"/>
   </g>
   <g id="patch_6">
    <path d="M 63.398 433 
L 63.398 148.053272 
L 79.314 148.053272 
L 79.314 137.69739 
L 95.23 137.69739 
L 95.23 130.428621 
L 111.146 130.428621 
L 111.146 122.715131 
L 127.062 122.715131 
L 127.062 116.868176 
L 142.978 116.868176 
L 142.978 109.912407 
L 158.894 109.912407 
L 158.894 104.707326 
L 174.81 104.707326 
L 174.81 98.723708 
L 190.726 98.723708 
L 190.726 93.982139 
L 206.642 93.982139 
L 206.642 88.777127 
L 222.558 88.777127 
L 222.558 84.72859 
L 238.474 84.72859 
L 238.474 80.332374 
L 254.39 80.332374 
L 254.39 75.047126 
L 270.306 75.047126 
L 270.306 70.799017 
L 286.222 70.799017 
L 286.222 68.898352 
L 302.138 68.898352 
L 302.138 66.018761 
L 318.054 66.018761 
L 318.054 64.807755 
L 333.97 64.807755 
L 333.97 63.590833 
L 349.886 63.590833 
L 349.886 63.107804 
L 365.802 63.107804 
L 365.802 62.705335 
L 381.718 62.705335 
L 381.718 63.17714 
L 397.634 63.17714 
L 397.634 64.71254 
L 413.55 64.71254 
L 413.55 433 
" clip-path="url(#pcc8940ebc4)" style="fill: none; opacity: 0"/>
   </g>
   <g id="line2d_74">
    <path d="M 71.356 148.053272 
L 87.272 137.69739 
L 103.188 130.428621 
L 119.104 122.715131 
L 135.02 116.868176 
L 150.936 109.912407 
L 166.852 104.707326 
L 182.768 98.723708 
L 198.684 93.982139 
L 214.6 88.777127 
L 230.516 84.72859 
L 246.432 80.332374 
L 262.348 75.047126 
L 278.264 70.799017 
L 294.18 68.898352 
L 310.096 66.018761 
L 326.012 64.807755 
L 341.928 63.590833 
L 357.844 63.107804 
L 373.76 62.705335 
L 389.676 63.17714 
L 405.592 64.71254 
" clip-path="url(#pcc8940ebc4)" style="fill: none; stroke: #0000ff; stroke-width: 3; stroke-linecap: square"/>
   </g>
   <g id="patch_7">
    <path d="M 63.398 385.72 
L 63.398 32.64 
" style="fill: none; stroke: #000000; stroke-width: 0.8; stroke-linejoin: miter; stroke-linecap: square"/>
   </g>
   <g id="patch_8">
    <path d="M 413.55 385.72 
L 413.55 32.64 
" style="fill: none; stroke: #000000; stroke-width: 0.8; stroke-linejoin: miter; stroke-linecap: square"/>
   </g>
   <g id="patch_9">
    <path d="M 63.398 385.72 
L 413.55 385.72 
" style="fill: none; stroke: #000000; stroke-width: 0.8; stroke-linejoin: miter; stroke-linecap: square"/>
   </g>
   <g id="patch_10">
    <path d="M 63.398 32.64 
L 413.55 32.64 
" style="fill: none; stroke: #000000; stroke-width: 0.8; stroke-linejoin: miter; stroke-linecap: square"/>
   </g>
   <g id="line2d_75">
    <path d="M 71.356 148.613899 
L 87.272 139.686748 
L 103.188 132.620456 
L 119.104 126.185702 
L 135.02 115.567782 
L 150.936 109.912407 
L 166.852 104.838767 
L 182.768 96.022111 
L 198.684 88.80029 
L 214.6 81.893294 
L 230.516 75.914545 
L 246.432 70.852843 
L 262.348 65.683018 
L 278.264 60.902595 
L 294.18 57.35642 
L 310.096 55.085446 
L 326.012 52.757193 
L 341.928 51.346075 
L 357.844 49.643328 
L 373.76 48.689091 
L 389.676 49.650422 
L 405.592 55.842352 
" clip-path="url(#pcc8940ebc4)" style="fill: none; stroke: #ff0000; stroke-width: 3; stroke-linecap: square"/>
   </g>
   <g id="text_20">
    <!-- LOCOS I -->
    <g transform="translate(198.0615 26.64) scale(0.2 -0.2)">
     <defs>
      <path id="DejaVuSans-4c" d="M 628 4666 
L 1259 4666 
L 1259 531 
L 3531 531 
L 3531 0 
L 628 0 
L 628 4666 
z
" transform="scale(0.015625)"/>
      <path id="DejaVuSans-4f" d="M 2522 4238 
Q 1834 4238 1429 3725 
Q 1025 3213 1025 2328 
Q 1025 1447 1429 934 
Q 1834 422 2522 422 
Q 3209 422 3611 934 
Q 4013 1447 4013 2328 
Q 4013 3213 3611 3725 
Q 3209 4238 2522 4238 
z
M 2522 4750 
Q 3503 4750 4090 4092 
Q 4678 3434 4678 2328 
Q 4678 1225 4090 567 
Q 3503 -91 2522 -91 
Q 1538 -91 948 565 
Q 359 1222 359 2328 
Q 359 3434 948 4092 
Q 1538 4750 2522 4750 
z
" transform="scale(0.015625)"/>
      <path id="DejaVuSans-43" d="M 4122 4306 
L 4122 3641 
Q 3803 3938 3442 4084 
Q 3081 4231 2675 4231 
Q 1875 4231 1450 3742 
Q 1025 3253 1025 2328 
Q 1025 1406 1450 917 
Q 1875 428 2675 428 
Q 3081 428 3442 575 
Q 3803 722 4122 1019 
L 4122 359 
Q 3791 134 3420 21 
Q 3050 -91 2638 -91 
Q 1578 -91 968 557 
Q 359 1206 359 2328 
Q 359 3453 968 4101 
Q 1578 4750 2638 4750 
Q 3056 4750 3426 4639 
Q 3797 4528 4122 4306 
z
" transform="scale(0.015625)"/>
      <path id="DejaVuSans-53" d="M 3425 4513 
L 3425 3897 
Q 3066 4069 2747 4153 
Q 2428 4238 2131 4238 
Q 1616 4238 1336 4038 
Q 1056 3838 1056 3469 
Q 1056 3159 1242 3001 
Q 1428 2844 1947 2747 
L 2328 2669 
Q 3034 2534 3370 2195 
Q 3706 1856 3706 1288 
Q 3706 609 3251 259 
Q 2797 -91 1919 -91 
Q 1588 -91 1214 -16 
Q 841 59 441 206 
L 441 856 
Q 825 641 1194 531 
Q 1563 422 1919 422 
Q 2459 422 2753 634 
Q 3047 847 3047 1241 
Q 3047 1584 2836 1778 
Q 2625 1972 2144 2069 
L 1759 2144 
Q 1053 2284 737 2584 
Q 422 2884 422 3419 
Q 422 4038 858 4394 
Q 1294 4750 2059 4750 
Q 2388 4750 2728 4690 
Q 3069 4631 3425 4513 
z
" transform="scale(0.015625)"/>
      <path id="DejaVuSans-49" d="M 628 4666 
L 1259 4666 
L 1259 0 
L 628 0 
L 628 4666 
z
" transform="scale(0.015625)"/>
     </defs>
     <use xlink:href="#DejaVuSans-4c"/>
     <use xlink:href="#DejaVuSans-4f" transform="translate(52.087891 0)"/>
     <use xlink:href="#DejaVuSans-43" transform="translate(130.798828 0)"/>
     <use xlink:href="#DejaVuSans-4f" transform="translate(200.623047 0)"/>
     <use xlink:href="#DejaVuSans-53" transform="translate(279.333984 0)"/>
     <use xlink:href="#DejaVuSans-20" transform="translate(342.810547 0)"/>
     <use xlink:href="#DejaVuSans-49" transform="translate(374.597656 0)"/>
    </g>
   </g>
   <g id="line2d_76">
    <path d="M 71.356 148.332398 
L 87.272 139.849019 
L 103.188 131.296378 
L 119.104 123.532676 
L 135.02 118.13731 
L 150.936 111.924493 
L 166.852 103.008866 
L 182.768 95.014348 
L 198.684 88.260212 
L 214.6 82.376305 
L 230.516 76.572365 
L 246.432 71.423371 
L 262.348 65.25386 
L 278.264 61.042452 
L 294.18 56.403125 
L 310.096 54.25566 
L 326.012 53.157029 
L 341.928 50.889998 
L 357.844 49.700117 
L 373.76 49.161021 
L 389.676 49.346774 
L 405.592 50.226483 
" clip-path="url(#pcc8940ebc4)" style="fill: none; stroke: #ffa500; stroke-width: 3; stroke-linecap: square"/>
   </g>
   <g id="LineCollection_1">
    <path d="M 71.356 256.006237 
L 71.356 242.007224 
" clip-path="url(#pcc8940ebc4)" style="fill: none; stroke: #000000; stroke-width: 2"/>
    <path d="M 87.272 232.220139 
L 87.272 222.170695 
" clip-path="url(#pcc8940ebc4)" style="fill: none; stroke: #000000; stroke-width: 2"/>
    <path d="M 103.188 173.485412 
L 103.188 169.173162 
" clip-path="url(#pcc8940ebc4)" style="fill: none; stroke: #000000; stroke-width: 2"/>
    <path d="M 119.104 135.574682 
L 119.104 133.109899 
" clip-path="url(#pcc8940ebc4)" style="fill: none; stroke: #000000; stroke-width: 2"/>
    <path d="M 135.02 116.800482 
L 135.02 114.936357 
" clip-path="url(#pcc8940ebc4)" style="fill: none; stroke: #000000; stroke-width: 2"/>
    <path d="M 150.936 107.037456 
L 150.936 105.426059 
" clip-path="url(#pcc8940ebc4)" style="fill: none; stroke: #000000; stroke-width: 2"/>
    <path d="M 166.852 102.914103 
L 166.852 101.398986 
" clip-path="url(#pcc8940ebc4)" style="fill: none; stroke: #000000; stroke-width: 2"/>
    <path d="M 182.768 96.705293 
L 182.768 95.324519 
" clip-path="url(#pcc8940ebc4)" style="fill: none; stroke: #000000; stroke-width: 2"/>
    <path d="M 198.684 92.065328 
L 198.684 90.777189 
" clip-path="url(#pcc8940ebc4)" style="fill: none; stroke: #000000; stroke-width: 2"/>
    <path d="M 214.6 86.838488 
L 214.6 85.647342 
" clip-path="url(#pcc8940ebc4)" style="fill: none; stroke: #000000; stroke-width: 2"/>
    <path d="M 230.516 82.181843 
L 230.516 81.070993 
" clip-path="url(#pcc8940ebc4)" style="fill: none; stroke: #000000; stroke-width: 2"/>
    <path d="M 246.432 77.751004 
L 246.432 76.711563 
" clip-path="url(#pcc8940ebc4)" style="fill: none; stroke: #000000; stroke-width: 2"/>
    <path d="M 262.348 73.84238 
L 262.348 72.862139 
" clip-path="url(#pcc8940ebc4)" style="fill: none; stroke: #000000; stroke-width: 2"/>
    <path d="M 278.264 71.778872 
L 278.264 70.828522 
" clip-path="url(#pcc8940ebc4)" style="fill: none; stroke: #000000; stroke-width: 2"/>
    <path d="M 294.18 72.925998 
L 294.18 71.959145 
" clip-path="url(#pcc8940ebc4)" style="fill: none; stroke: #000000; stroke-width: 2"/>
    <path d="M 310.096 80.683194 
L 310.096 79.597025 
" clip-path="url(#pcc8940ebc4)" style="fill: none; stroke: #000000; stroke-width: 2"/>
    <path d="M 326.012 101.137427 
L 326.012 99.662022 
" clip-path="url(#pcc8940ebc4)" style="fill: none; stroke: #000000; stroke-width: 2"/>
    <path d="M 341.928 148.279783 
L 341.928 145.304451 
" clip-path="url(#pcc8940ebc4)" style="fill: none; stroke: #000000; stroke-width: 2"/>
    <path d="M 357.844 233.048496 
L 357.844 222.881042 
" clip-path="url(#pcc8940ebc4)" style="fill: none; stroke: #000000; stroke-width: 2"/>
    <path d="M 373.76 369.670909 
L 373.76 311.36596 
" clip-path="url(#pcc8940ebc4)" style="fill: none; stroke: #000000; stroke-width: 2"/>
    <path clip-path="url(#pcc8940ebc4)" style="fill: none; stroke: #000000; stroke-width: 2"/>
    <path clip-path="url(#pcc8940ebc4)" style="fill: none; stroke: #000000; stroke-width: 2"/>
   </g>
   <g id="line2d_77">
    <defs>
     <path id="mba42bdef58" d="M 2 0 
L -2 -0 
" style="stroke: #000000"/>
    </defs>
    <g clip-path="url(#pcc8940ebc4)">
     <use xlink:href="#mba42bdef58" x="71.356" y="256.006237" style="stroke: #000000"/>
     <use xlink:href="#mba42bdef58" x="87.272" y="232.220139" style="stroke: #000000"/>
     <use xlink:href="#mba42bdef58" x="103.188" y="173.485412" style="stroke: #000000"/>
     <use xlink:href="#mba42bdef58" x="119.104" y="135.574682" style="stroke: #000000"/>
     <use xlink:href="#mba42bdef58" x="135.02" y="116.800482" style="stroke: #000000"/>
     <use xlink:href="#mba42bdef58" x="150.936" y="107.037456" style="stroke: #000000"/>
     <use xlink:href="#mba42bdef58" x="166.852" y="102.914103" style="stroke: #000000"/>
     <use xlink:href="#mba42bdef58" x="182.768" y="96.705293" style="stroke: #000000"/>
     <use xlink:href="#mba42bdef58" x="198.684" y="92.065328" style="stroke: #000000"/>
     <use xlink:href="#mba42bdef58" x="214.6" y="86.838488" style="stroke: #000000"/>
     <use xlink:href="#mba42bdef58" x="230.516" y="82.181843" style="stroke: #000000"/>
     <use xlink:href="#mba42bdef58" x="246.432" y="77.751004" style="stroke: #000000"/>
     <use xlink:href="#mba42bdef58" x="262.348" y="73.84238" style="stroke: #000000"/>
     <use xlink:href="#mba42bdef58" x="278.264" y="71.778872" style="stroke: #000000"/>
     <use xlink:href="#mba42bdef58" x="294.18" y="72.925998" style="stroke: #000000"/>
     <use xlink:href="#mba42bdef58" x="310.096" y="80.683194" style="stroke: #000000"/>
     <use xlink:href="#mba42bdef58" x="326.012" y="101.137427" style="stroke: #000000"/>
     <use xlink:href="#mba42bdef58" x="341.928" y="148.279783" style="stroke: #000000"/>
     <use xlink:href="#mba42bdef58" x="357.844" y="233.048496" style="stroke: #000000"/>
     <use xlink:href="#mba42bdef58" x="373.76" y="369.670909" style="stroke: #000000"/>
     <use xlink:href="#mba42bdef58" x="380.184533" y="31105" style="stroke: #000000"/>
    </g>
   </g>
   <g id="line2d_78">
    <g clip-path="url(#pcc8940ebc4)">
     <use xlink:href="#mba42bdef58" x="71.356" y="242.007224" style="stroke: #000000"/>
     <use xlink:href="#mba42bdef58" x="87.272" y="222.170695" style="stroke: #000000"/>
     <use xlink:href="#mba42bdef58" x="103.188" y="169.173162" style="stroke: #000000"/>
     <use xlink:href="#mba42bdef58" x="119.104" y="133.109899" style="stroke: #000000"/>
     <use xlink:href="#mba42bdef58" x="135.02" y="114.936357" style="stroke: #000000"/>
     <use xlink:href="#mba42bdef58" x="150.936" y="105.426059" style="stroke: #000000"/>
     <use xlink:href="#mba42bdef58" x="166.852" y="101.398986" style="stroke: #000000"/>
     <use xlink:href="#mba42bdef58" x="182.768" y="95.324519" style="stroke: #000000"/>
     <use xlink:href="#mba42bdef58" x="198.684" y="90.777189" style="stroke: #000000"/>
     <use xlink:href="#mba42bdef58" x="214.6" y="85.647342" style="stroke: #000000"/>
     <use xlink:href="#mba42bdef58" x="230.516" y="81.070993" style="stroke: #000000"/>
     <use xlink:href="#mba42bdef58" x="246.432" y="76.711563" style="stroke: #000000"/>
     <use xlink:href="#mba42bdef58" x="262.348" y="72.862139" style="stroke: #000000"/>
     <use xlink:href="#mba42bdef58" x="278.264" y="70.828522" style="stroke: #000000"/>
     <use xlink:href="#mba42bdef58" x="294.18" y="71.959145" style="stroke: #000000"/>
     <use xlink:href="#mba42bdef58" x="310.096" y="79.597025" style="stroke: #000000"/>
     <use xlink:href="#mba42bdef58" x="326.012" y="99.662022" style="stroke: #000000"/>
     <use xlink:href="#mba42bdef58" x="341.928" y="145.304451" style="stroke: #000000"/>
     <use xlink:href="#mba42bdef58" x="357.844" y="222.881042" style="stroke: #000000"/>
     <use xlink:href="#mba42bdef58" x="373.76" y="311.36596" style="stroke: #000000"/>
     <use xlink:href="#mba42bdef58" x="380.191796" y="31105" style="stroke: #000000"/>
    </g>
   </g>
   <g id="legend_1">
    <g id="patch_11">
     <path d="M 158.296656 380.72 
L 318.651344 380.72 
Q 320.651344 380.72 320.651344 378.72 
L 320.651344 321.0075 
Q 320.651344 319.0075 318.651344 319.0075 
L 158.296656 319.0075 
Q 156.296656 319.0075 156.296656 321.0075 
L 156.296656 378.72 
Q 156.296656 380.72 158.296656 380.72 
z
" style="fill: #ffffff; opacity: 0.8; stroke: #cccccc; stroke-linejoin: miter"/>
    </g>
    <g id="line2d_79">
     <path d="M 160.296656 327.105937 
L 170.296656 327.105937 
L 180.296656 327.105937 
" style="fill: none; stroke: #ffa500; stroke-width: 3; stroke-linecap: square"/>
    </g>
    <g id="text_21">
     <!-- TRILEGAL (UBVRIJHK) -->
     <g transform="translate(188.296656 330.605937) scale(0.1 -0.1)">
      <defs>
       <path id="DejaVuSans-54" d="M -19 4666 
L 3928 4666 
L 3928 4134 
L 2272 4134 
L 2272 0 
L 1638 0 
L 1638 4134 
L -19 4134 
L -19 4666 
z
" transform="scale(0.015625)"/>
       <path id="DejaVuSans-45" d="M 628 4666 
L 3578 4666 
L 3578 4134 
L 1259 4134 
L 1259 2753 
L 3481 2753 
L 3481 2222 
L 1259 2222 
L 1259 531 
L 3634 531 
L 3634 0 
L 628 0 
L 628 4666 
z
" transform="scale(0.015625)"/>
       <path id="DejaVuSans-47" d="M 3809 666 
L 3809 1919 
L 2778 1919 
L 2778 2438 
L 4434 2438 
L 4434 434 
Q 4069 175 3628 42 
Q 3188 -91 2688 -91 
Q 1594 -91 976 548 
Q 359 1188 359 2328 
Q 359 3472 976 4111 
Q 1594 4750 2688 4750 
Q 3144 4750 3555 4637 
Q 3966 4525 4313 4306 
L 4313 3634 
Q 3963 3931 3569 4081 
Q 3175 4231 2741 4231 
Q 1884 4231 1454 3753 
Q 1025 3275 1025 2328 
Q 1025 1384 1454 906 
Q 1884 428 2741 428 
Q 3075 428 3337 486 
Q 3600 544 3809 666 
z
" transform="scale(0.015625)"/>
       <path id="DejaVuSans-41" d="M 2188 4044 
L 1331 1722 
L 3047 1722 
L 2188 4044 
z
M 1831 4666 
L 2547 4666 
L 4325 0 
L 3669 0 
L 3244 1197 
L 1141 1197 
L 716 0 
L 50 0 
L 1831 4666 
z
" transform="scale(0.015625)"/>
       <path id="DejaVuSans-55" d="M 556 4666 
L 1191 4666 
L 1191 1831 
Q 1191 1081 1462 751 
Q 1734 422 2344 422 
Q 2950 422 3222 751 
Q 3494 1081 3494 1831 
L 3494 4666 
L 4128 4666 
L 4128 1753 
Q 4128 841 3676 375 
Q 3225 -91 2344 -91 
Q 1459 -91 1007 375 
Q 556 841 556 1753 
L 556 4666 
z
" transform="scale(0.015625)"/>
       <path id="DejaVuSans-42" d="M 1259 2228 
L 1259 519 
L 2272 519 
Q 2781 519 3026 730 
Q 3272 941 3272 1375 
Q 3272 1813 3026 2020 
Q 2781 2228 2272 2228 
L 1259 2228 
z
M 1259 4147 
L 1259 2741 
L 2194 2741 
Q 2656 2741 2882 2914 
Q 3109 3088 3109 3444 
Q 3109 3797 2882 3972 
Q 2656 4147 2194 4147 
L 1259 4147 
z
M 628 4666 
L 2241 4666 
Q 2963 4666 3353 4366 
Q 3744 4066 3744 3513 
Q 3744 3084 3544 2831 
Q 3344 2578 2956 2516 
Q 3422 2416 3680 2098 
Q 3938 1781 3938 1306 
Q 3938 681 3513 340 
Q 3088 0 2303 0 
L 628 0 
L 628 4666 
z
" transform="scale(0.015625)"/>
       <path id="DejaVuSans-56" d="M 1831 0 
L 50 4666 
L 709 4666 
L 2188 738 
L 3669 4666 
L 4325 4666 
L 2547 0 
L 1831 0 
z
" transform="scale(0.015625)"/>
       <path id="DejaVuSans-4a" d="M 628 4666 
L 1259 4666 
L 1259 325 
Q 1259 -519 939 -900 
Q 619 -1281 -91 -1281 
L -331 -1281 
L -331 -750 
L -134 -750 
Q 284 -750 456 -515 
Q 628 -281 628 325 
L 628 4666 
z
" transform="scale(0.015625)"/>
       <path id="DejaVuSans-48" d="M 628 4666 
L 1259 4666 
L 1259 2753 
L 3553 2753 
L 3553 4666 
L 4184 4666 
L 4184 0 
L 3553 0 
L 3553 2222 
L 1259 2222 
L 1259 0 
L 628 0 
L 628 4666 
z
" transform="scale(0.015625)"/>
       <path id="DejaVuSans-4b" d="M 628 4666 
L 1259 4666 
L 1259 2694 
L 3353 4666 
L 4166 4666 
L 1850 2491 
L 4331 0 
L 3500 0 
L 1259 2247 
L 1259 0 
L 628 0 
L 628 4666 
z
" transform="scale(0.015625)"/>
      </defs>
      <use xlink:href="#DejaVuSans-54"/>
      <use xlink:href="#DejaVuSans-52" transform="translate(61.083984 0)"/>
      <use xlink:href="#DejaVuSans-49" transform="translate(130.566406 0)"/>
      <use xlink:href="#DejaVuSans-4c" transform="translate(160.058594 0)"/>
      <use xlink:href="#DejaVuSans-45" transform="translate(215.771484 0)"/>
      <use xlink:href="#DejaVuSans-47" transform="translate(278.955078 0)"/>
      <use xlink:href="#DejaVuSans-41" transform="translate(356.445312 0)"/>
      <use xlink:href="#DejaVuSans-4c" transform="translate(424.853516 0)"/>
      <use xlink:href="#DejaVuSans-20" transform="translate(480.566406 0)"/>
      <use xlink:href="#DejaVuSans-28" transform="translate(512.353516 0)"/>
      <use xlink:href="#DejaVuSans-55" transform="translate(551.367188 0)"/>
      <use xlink:href="#DejaVuSans-42" transform="translate(624.560547 0)"/>
      <use xlink:href="#DejaVuSans-56" transform="translate(690.039062 0)"/>
      <use xlink:href="#DejaVuSans-52" transform="translate(758.447266 0)"/>
      <use xlink:href="#DejaVuSans-49" transform="translate(827.929688 0)"/>
      <use xlink:href="#DejaVuSans-4a" transform="translate(857.421875 0)"/>
      <use xlink:href="#DejaVuSans-48" transform="translate(886.914062 0)"/>
      <use xlink:href="#DejaVuSans-4b" transform="translate(962.109375 0)"/>
      <use xlink:href="#DejaVuSans-29" transform="translate(1027.685547 0)"/>
     </g>
    </g>
    <g id="line2d_80">
     <path d="M 160.296656 341.784063 
L 170.296656 341.784063 
L 180.296656 341.784063 
" style="fill: none; stroke: #ff0000; stroke-width: 3; stroke-linecap: square"/>
    </g>
    <g id="text_22">
     <!-- TRILEGAL (UBVRIJHKLMN) -->
     <g transform="translate(188.296656 345.284063) scale(0.1 -0.1)">
      <defs>
       <path id="DejaVuSans-4e" d="M 628 4666 
L 1478 4666 
L 3547 763 
L 3547 4666 
L 4159 4666 
L 4159 0 
L 3309 0 
L 1241 3903 
L 1241 0 
L 628 0 
L 628 4666 
z
" transform="scale(0.015625)"/>
      </defs>
      <use xlink:href="#DejaVuSans-54"/>
      <use xlink:href="#DejaVuSans-52" transform="translate(61.083984 0)"/>
      <use xlink:href="#DejaVuSans-49" transform="translate(130.566406 0)"/>
      <use xlink:href="#DejaVuSans-4c" transform="translate(160.058594 0)"/>
      <use xlink:href="#DejaVuSans-45" transform="translate(215.771484 0)"/>
      <use xlink:href="#DejaVuSans-47" transform="translate(278.955078 0)"/>
      <use xlink:href="#DejaVuSans-41" transform="translate(356.445312 0)"/>
      <use xlink:href="#DejaVuSans-4c" transform="translate(424.853516 0)"/>
      <use xlink:href="#DejaVuSans-20" transform="translate(480.566406 0)"/>
      <use xlink:href="#DejaVuSans-28" transform="translate(512.353516 0)"/>
      <use xlink:href="#DejaVuSans-55" transform="translate(551.367188 0)"/>
      <use xlink:href="#DejaVuSans-42" transform="translate(624.560547 0)"/>
      <use xlink:href="#DejaVuSans-56" transform="translate(690.039062 0)"/>
      <use xlink:href="#DejaVuSans-52" transform="translate(758.447266 0)"/>
      <use xlink:href="#DejaVuSans-49" transform="translate(827.929688 0)"/>
      <use xlink:href="#DejaVuSans-4a" transform="translate(857.421875 0)"/>
      <use xlink:href="#DejaVuSans-48" transform="translate(886.914062 0)"/>
      <use xlink:href="#DejaVuSans-4b" transform="translate(962.109375 0)"/>
      <use xlink:href="#DejaVuSans-4c" transform="translate(1027.685547 0)"/>
      <use xlink:href="#DejaVuSans-4d" transform="translate(1083.398438 0)"/>
      <use xlink:href="#DejaVuSans-4e" transform="translate(1169.677734 0)"/>
      <use xlink:href="#DejaVuSans-29" transform="translate(1244.482422 0)"/>
     </g>
    </g>
    <g id="line2d_81">
     <path d="M 160.296656 356.462187 
L 170.296656 356.462187 
L 180.296656 356.462187 
" style="fill: none; stroke: #0000ff; stroke-width: 3; stroke-linecap: square"/>
    </g>
    <g id="text_23">
     <!-- Besancon (UBVRIJHKL) -->
     <g transform="translate(188.296656 359.962187) scale(0.1 -0.1)">
      <defs>
       <path id="DejaVuSans-73" d="M 2834 3397 
L 2834 2853 
Q 2591 2978 2328 3040 
Q 2066 3103 1784 3103 
Q 1356 3103 1142 2972 
Q 928 2841 928 2578 
Q 928 2378 1081 2264 
Q 1234 2150 1697 2047 
L 1894 2003 
Q 2506 1872 2764 1633 
Q 3022 1394 3022 966 
Q 3022 478 2636 193 
Q 2250 -91 1575 -91 
Q 1294 -91 989 -36 
Q 684 19 347 128 
L 347 722 
Q 666 556 975 473 
Q 1284 391 1588 391 
Q 1994 391 2212 530 
Q 2431 669 2431 922 
Q 2431 1156 2273 1281 
Q 2116 1406 1581 1522 
L 1381 1569 
Q 847 1681 609 1914 
Q 372 2147 372 2553 
Q 372 3047 722 3315 
Q 1072 3584 1716 3584 
Q 2034 3584 2315 3537 
Q 2597 3491 2834 3397 
z
" transform="scale(0.015625)"/>
       <path id="DejaVuSans-63" d="M 3122 3366 
L 3122 2828 
Q 2878 2963 2633 3030 
Q 2388 3097 2138 3097 
Q 1578 3097 1268 2742 
Q 959 2388 959 1747 
Q 959 1106 1268 751 
Q 1578 397 2138 397 
Q 2388 397 2633 464 
Q 2878 531 3122 666 
L 3122 134 
Q 2881 22 2623 -34 
Q 2366 -91 2075 -91 
Q 1284 -91 818 406 
Q 353 903 353 1747 
Q 353 2603 823 3093 
Q 1294 3584 2113 3584 
Q 2378 3584 2631 3529 
Q 2884 3475 3122 3366 
z
" transform="scale(0.015625)"/>
       <path id="DejaVuSans-6f" d="M 1959 3097 
Q 1497 3097 1228 2736 
Q 959 2375 959 1747 
Q 959 1119 1226 758 
Q 1494 397 1959 397 
Q 2419 397 2687 759 
Q 2956 1122 2956 1747 
Q 2956 2369 2687 2733 
Q 2419 3097 1959 3097 
z
M 1959 3584 
Q 2709 3584 3137 3096 
Q 3566 2609 3566 1747 
Q 3566 888 3137 398 
Q 2709 -91 1959 -91 
Q 1206 -91 779 398 
Q 353 888 353 1747 
Q 353 2609 779 3096 
Q 1206 3584 1959 3584 
z
" transform="scale(0.015625)"/>
      </defs>
      <use xlink:href="#DejaVuSans-42"/>
      <use xlink:href="#DejaVuSans-65" transform="translate(68.603516 0)"/>
      <use xlink:href="#DejaVuSans-73" transform="translate(130.126953 0)"/>
      <use xlink:href="#DejaVuSans-61" transform="translate(182.226562 0)"/>
      <use xlink:href="#DejaVuSans-6e" transform="translate(243.505859 0)"/>
      <use xlink:href="#DejaVuSans-63" transform="translate(306.884766 0)"/>
      <use xlink:href="#DejaVuSans-6f" transform="translate(361.865234 0)"/>
      <use xlink:href="#DejaVuSans-6e" transform="translate(423.046875 0)"/>
      <use xlink:href="#DejaVuSans-20" transform="translate(486.425781 0)"/>
      <use xlink:href="#DejaVuSans-28" transform="translate(518.212891 0)"/>
      <use xlink:href="#DejaVuSans-55" transform="translate(557.226562 0)"/>
      <use xlink:href="#DejaVuSans-42" transform="translate(630.419922 0)"/>
      <use xlink:href="#DejaVuSans-56" transform="translate(695.898438 0)"/>
      <use xlink:href="#DejaVuSans-52" transform="translate(764.306641 0)"/>
      <use xlink:href="#DejaVuSans-49" transform="translate(833.789062 0)"/>
      <use xlink:href="#DejaVuSans-4a" transform="translate(863.28125 0)"/>
      <use xlink:href="#DejaVuSans-48" transform="translate(892.773438 0)"/>
      <use xlink:href="#DejaVuSans-4b" transform="translate(967.96875 0)"/>
      <use xlink:href="#DejaVuSans-4c" transform="translate(1033.544922 0)"/>
      <use xlink:href="#DejaVuSans-29" transform="translate(1089.257812 0)"/>
     </g>
    </g>
    <g id="LineCollection_2">
     <path d="M 170.296656 376.140312 
L 170.296656 366.140312 
" style="fill: none; stroke: #000000; stroke-width: 2"/>
    </g>
    <g id="line2d_82">
     <g>
      <use xlink:href="#mba42bdef58" x="170.296656" y="376.140312" style="stroke: #000000"/>
     </g>
    </g>
    <g id="line2d_83">
     <g>
      <use xlink:href="#mba42bdef58" x="170.296656" y="366.140312" style="stroke: #000000"/>
     </g>
    </g>
    <g id="line2d_84"/>
    <g id="line2d_85">
     <defs>
      <path id="m2f7455cacf" d="M 0 3 
C 0.795609 3 1.55874 2.683901 2.12132 2.12132 
C 2.683901 1.55874 3 0.795609 3 0 
C 3 -0.795609 2.683901 -1.55874 2.12132 -2.12132 
C 1.55874 -2.683901 0.795609 -3 0 -3 
C -0.795609 -3 -1.55874 -2.683901 -2.12132 -2.12132 
C -2.683901 -1.55874 -3 -0.795609 -3 0 
C -3 0.795609 -2.683901 1.55874 -2.12132 2.12132 
C -1.55874 2.683901 -0.795609 3 0 3 
z
" style="stroke: #000000"/>
     </defs>
     <g>
      <use xlink:href="#m2f7455cacf" x="170.296656" y="371.140312" style="stroke: #000000"/>
     </g>
    </g>
    <g id="text_24">
     <!-- LOCOS -->
     <g transform="translate(188.296656 374.640312) scale(0.1 -0.1)">
      <use xlink:href="#DejaVuSans-4c"/>
      <use xlink:href="#DejaVuSans-4f" transform="translate(52.087891 0)"/>
      <use xlink:href="#DejaVuSans-43" transform="translate(130.798828 0)"/>
      <use xlink:href="#DejaVuSans-4f" transform="translate(200.623047 0)"/>
      <use xlink:href="#DejaVuSans-53" transform="translate(279.333984 0)"/>
     </g>
    </g>
   </g>
   <g id="line2d_86">
    <g clip-path="url(#pcc8940ebc4)">
     <use xlink:href="#m2f7455cacf" x="71.356" y="248.271583" style="stroke: #000000"/>
     <use xlink:href="#m2f7455cacf" x="87.272" y="226.815214" style="stroke: #000000"/>
     <use xlink:href="#m2f7455cacf" x="103.188" y="171.259061" style="stroke: #000000"/>
     <use xlink:href="#m2f7455cacf" x="119.104" y="134.319336" style="stroke: #000000"/>
     <use xlink:href="#m2f7455cacf" x="135.02" y="115.855289" style="stroke: #000000"/>
     <use xlink:href="#m2f7455cacf" x="150.936" y="106.221945" style="stroke: #000000"/>
     <use xlink:href="#m2f7455cacf" x="166.852" y="102.14787" style="stroke: #000000"/>
     <use xlink:href="#m2f7455cacf" x="182.768" y="96.007702" style="stroke: #000000"/>
     <use xlink:href="#m2f7455cacf" x="198.684" y="91.414988" style="stroke: #000000"/>
     <use xlink:href="#m2f7455cacf" x="214.6" y="86.237553" style="stroke: #000000"/>
     <use xlink:href="#m2f7455cacf" x="230.516" y="81.621755" style="stroke: #000000"/>
     <use xlink:href="#m2f7455cacf" x="246.432" y="77.2272" style="stroke: #000000"/>
     <use xlink:href="#m2f7455cacf" x="262.348" y="73.348629" style="stroke: #000000"/>
     <use xlink:href="#m2f7455cacf" x="278.264" y="71.300284" style="stroke: #000000"/>
     <use xlink:href="#m2f7455cacf" x="294.18" y="72.439039" style="stroke: #000000"/>
     <use xlink:href="#m2f7455cacf" x="310.096" y="80.135652" style="stroke: #000000"/>
     <use xlink:href="#m2f7455cacf" x="326.012" y="100.391499" style="stroke: #000000"/>
     <use xlink:href="#m2f7455cacf" x="341.928" y="146.758673" style="stroke: #000000"/>
     <use xlink:href="#m2f7455cacf" x="357.844" y="227.57562" style="stroke: #000000"/>
     <use xlink:href="#m2f7455cacf" x="373.76" y="329.055103" style="stroke: #000000"/>
     <use xlink:href="#m2f7455cacf" x="380.189594" y="31105" style="stroke: #000000"/>
    </g>
   </g>
  </g>
 </g>
 <defs>
  <clipPath id="pcc8940ebc4">
   <rect x="63.398" y="32.64" width="350.152" height="353.08"/>
  </clipPath>
 </defs>
</svg>
