<?xml version="1.0" encoding="utf-8" standalone="no"?>
<!DOCTYPE svg PUBLIC "-//W3C//DTD SVG 1.1//EN"
  "http://www.w3.org/Graphics/SVG/1.1/DTD/svg11.dtd">
<svg xmlns:xlink="http://www.w3.org/1999/xlink" width="432pt" height="432pt" viewBox="0 0 432 432" xmlns="http://www.w3.org/2000/svg" version="1.1">
 <metadata>
  <rdf:RDF xmlns:dc="http://purl.org/dc/elements/1.1/" xmlns:cc="http://creativecommons.org/ns#" xmlns:rdf="http://www.w3.org/1999/02/22-rdf-syntax-ns#">
   <cc:Work>
    <dc:type rdf:resource="http://purl.org/dc/dcmitype/StillImage"/>
    <dc:date>2025-08-26T02:40:36.065299</dc:date>
    <dc:format>image/svg+xml</dc:format>
    <dc:creator>
     <cc:Agent>
      <dc:title>Matplotlib v3.10.0, https://matplotlib.org/</dc:title>
     </cc:Agent>
    </dc:creator>
   </cc:Work>
  </rdf:RDF>
 </metadata>
 <defs>
  <style type="text/css">*{stroke-linejoin: round; stroke-linecap: butt}</style>
 </defs>
 <g id="figure_1">
  <g id="patch_1">
   <path d="M 0 432 
L 432 432 
L 432 0 
L 0 0 
z
" style="fill: #ffffff"/>
  </g>
  <g id="axes_1">
   <g id="patch_2">
    <path d="M 84.62 379.96 
L 412.92 379.96 
L 412.92 32.64 
L 84.62 32.64 
z
" style="fill: #ffffff"/>
   </g>
   <g id="line2d_1">
    <path d="M 318.011455 379.96 
L 318.011455 32.64 
" clip-path="url(#p595df02970)" style="fill: none; stroke-dasharray: 5.55,2.4; stroke-dashoffset: 0; stroke: #ff0000; stroke-opacity: 0.75; stroke-width: 1.5"/>
   </g>
   <g id="matplotlib.axis_1">
    <g id="xtick_1">
     <g id="line2d_2">
      <path d="M 84.62 379.96 
L 84.62 32.64 
" clip-path="url(#p595df02970)" style="fill: none; stroke: #b0b0b0; stroke-opacity: 0.5; stroke-width: 0.8; stroke-linecap: square"/>
     </g>
     <g id="line2d_3">
      <defs>
       <path id="mfd96090311" d="M 0 0 
L 0 3.5 
" style="stroke: #000000; stroke-width: 0.8"/>
      </defs>
      <g>
       <use xlink:href="#mfd96090311" x="84.62" y="379.96" style="stroke: #000000; stroke-width: 0.8"/>
      </g>
     </g>
     <g id="text_1">
      <!-- 14 -->
      <g transform="translate(76.34875 396.837969) scale(0.13 -0.13)">
       <defs>
        <path id="DejaVuSans-31" d="M 794 531 
L 1825 531 
L 1825 4091 
L 703 3866 
L 703 4441 
L 1819 4666 
L 2450 4666 
L 2450 531 
L 3481 531 
L 3481 0 
L 794 0 
L 794 531 
z
" transform="scale(0.015625)"/>
        <path id="DejaVuSans-34" d="M 2419 4116 
L 825 1625 
L 2419 1625 
L 2419 4116 
z
M 2253 4666 
L 3047 4666 
L 3047 1625 
L 3713 1625 
L 3713 1100 
L 3047 1100 
L 3047 0 
L 2419 0 
L 2419 1100 
L 313 1100 
L 313 1709 
L 2253 4666 
z
" transform="scale(0.015625)"/>
       </defs>
       <use xlink:href="#DejaVuSans-31"/>
       <use xlink:href="#DejaVuSans-34" transform="translate(63.623047 0)"/>
      </g>
     </g>
    </g>
    <g id="xtick_2">
     <g id="line2d_4">
      <path d="M 114.465455 379.96 
L 114.465455 32.64 
" clip-path="url(#p595df02970)" style="fill: none; stroke: #b0b0b0; stroke-opacity: 0.5; stroke-width: 0.8; stroke-linecap: square"/>
     </g>
     <g id="line2d_5">
      <g>
       <use xlink:href="#mfd96090311" x="114.465455" y="379.96" style="stroke: #000000; stroke-width: 0.8"/>
      </g>
     </g>
     <g id="text_2">
      <!-- 15 -->
      <g transform="translate(106.194205 396.837969) scale(0.13 -0.13)">
       <defs>
        <path id="DejaVuSans-35" d="M 691 4666 
L 3169 4666 
L 3169 4134 
L 1269 4134 
L 1269 2991 
Q 1406 3038 1543 3061 
Q 1681 3084 1819 3084 
Q 2600 3084 3056 2656 
Q 3513 2228 3513 1497 
Q 3513 744 3044 326 
Q 2575 -91 1722 -91 
Q 1428 -91 1123 -41 
Q 819 9 494 109 
L 494 744 
Q 775 591 1075 516 
Q 1375 441 1709 441 
Q 2250 441 2565 725 
Q 2881 1009 2881 1497 
Q 2881 1984 2565 2268 
Q 2250 2553 1709 2553 
Q 1456 2553 1204 2497 
Q 953 2441 691 2322 
L 691 4666 
z
" transform="scale(0.015625)"/>
       </defs>
       <use xlink:href="#DejaVuSans-31"/>
       <use xlink:href="#DejaVuSans-35" transform="translate(63.623047 0)"/>
      </g>
     </g>
    </g>
    <g id="xtick_3">
     <g id="line2d_6">
      <path d="M 144.310909 379.96 
L 144.310909 32.64 
" clip-path="url(#p595df02970)" style="fill: none; stroke: #b0b0b0; stroke-opacity: 0.5; stroke-width: 0.8; stroke-linecap: square"/>
     </g>
     <g id="line2d_7">
      <g>
       <use xlink:href="#mfd96090311" x="144.310909" y="379.96" style="stroke: #000000; stroke-width: 0.8"/>
      </g>
     </g>
     <g id="text_3">
      <!-- 16 -->
      <g transform="translate(136.039659 396.837969) scale(0.13 -0.13)">
       <defs>
        <path id="DejaVuSans-36" d="M 2113 2584 
Q 1688 2584 1439 2293 
Q 1191 2003 1191 1497 
Q 1191 994 1439 701 
Q 1688 409 2113 409 
Q 2538 409 2786 701 
Q 3034 994 3034 1497 
Q 3034 2003 2786 2293 
Q 2538 2584 2113 2584 
z
M 3366 4563 
L 3366 3988 
Q 3128 4100 2886 4159 
Q 2644 4219 2406 4219 
Q 1781 4219 1451 3797 
Q 1122 3375 1075 2522 
Q 1259 2794 1537 2939 
Q 1816 3084 2150 3084 
Q 2853 3084 3261 2657 
Q 3669 2231 3669 1497 
Q 3669 778 3244 343 
Q 2819 -91 2113 -91 
Q 1303 -91 875 529 
Q 447 1150 447 2328 
Q 447 3434 972 4092 
Q 1497 4750 2381 4750 
Q 2619 4750 2861 4703 
Q 3103 4656 3366 4563 
z
" transform="scale(0.015625)"/>
       </defs>
       <use xlink:href="#DejaVuSans-31"/>
       <use xlink:href="#DejaVuSans-36" transform="translate(63.623047 0)"/>
      </g>
     </g>
    </g>
    <g id="xtick_4">
     <g id="line2d_8">
      <path d="M 174.156364 379.96 
L 174.156364 32.64 
" clip-path="url(#p595df02970)" style="fill: none; stroke: #b0b0b0; stroke-opacity: 0.5; stroke-width: 0.8; stroke-linecap: square"/>
     </g>
     <g id="line2d_9">
      <g>
       <use xlink:href="#mfd96090311" x="174.156364" y="379.96" style="stroke: #000000; stroke-width: 0.8"/>
      </g>
     </g>
     <g id="text_4">
      <!-- 17 -->
      <g transform="translate(165.885114 396.837969) scale(0.13 -0.13)">
       <defs>
        <path id="DejaVuSans-37" d="M 525 4666 
L 3525 4666 
L 3525 4397 
L 1831 0 
L 1172 0 
L 2766 4134 
L 525 4134 
L 525 4666 
z
" transform="scale(0.015625)"/>
       </defs>
       <use xlink:href="#DejaVuSans-31"/>
       <use xlink:href="#DejaVuSans-37" transform="translate(63.623047 0)"/>
      </g>
     </g>
    </g>
    <g id="xtick_5">
     <g id="line2d_10">
      <path d="M 204.001818 379.96 
L 204.001818 32.64 
" clip-path="url(#p595df02970)" style="fill: none; stroke: #b0b0b0; stroke-opacity: 0.5; stroke-width: 0.8; stroke-linecap: square"/>
     </g>
     <g id="line2d_11">
      <g>
       <use xlink:href="#mfd96090311" x="204.001818" y="379.96" style="stroke: #000000; stroke-width: 0.8"/>
      </g>
     </g>
     <g id="text_5">
      <!-- 18 -->
      <g transform="translate(195.730568 396.837969) scale(0.13 -0.13)">
       <defs>
        <path id="DejaVuSans-38" d="M 2034 2216 
Q 1584 2216 1326 1975 
Q 1069 1734 1069 1313 
Q 1069 891 1326 650 
Q 1584 409 2034 409 
Q 2484 409 2743 651 
Q 3003 894 3003 1313 
Q 3003 1734 2745 1975 
Q 2488 2216 2034 2216 
z
M 1403 2484 
Q 997 2584 770 2862 
Q 544 3141 544 3541 
Q 544 4100 942 4425 
Q 1341 4750 2034 4750 
Q 2731 4750 3128 4425 
Q 3525 4100 3525 3541 
Q 3525 3141 3298 2862 
Q 3072 2584 2669 2484 
Q 3125 2378 3379 2068 
Q 3634 1759 3634 1313 
Q 3634 634 3220 271 
Q 2806 -91 2034 -91 
Q 1263 -91 848 271 
Q 434 634 434 1313 
Q 434 1759 690 2068 
Q 947 2378 1403 2484 
z
M 1172 3481 
Q 1172 3119 1398 2916 
Q 1625 2713 2034 2713 
Q 2441 2713 2670 2916 
Q 2900 3119 2900 3481 
Q 2900 3844 2670 4047 
Q 2441 4250 2034 4250 
Q 1625 4250 1398 4047 
Q 1172 3844 1172 3481 
z
" transform="scale(0.015625)"/>
       </defs>
       <use xlink:href="#DejaVuSans-31"/>
       <use xlink:href="#DejaVuSans-38" transform="translate(63.623047 0)"/>
      </g>
     </g>
    </g>
    <g id="xtick_6">
     <g id="line2d_12">
      <path d="M 233.847273 379.96 
L 233.847273 32.64 
" clip-path="url(#p595df02970)" style="fill: none; stroke: #b0b0b0; stroke-opacity: 0.5; stroke-width: 0.8; stroke-linecap: square"/>
     </g>
     <g id="line2d_13">
      <g>
       <use xlink:href="#mfd96090311" x="233.847273" y="379.96" style="stroke: #000000; stroke-width: 0.8"/>
      </g>
     </g>
     <g id="text_6">
      <!-- 19 -->
      <g transform="translate(225.576023 396.837969) scale(0.13 -0.13)">
       <defs>
        <path id="DejaVuSans-39" d="M 703 97 
L 703 672 
Q 941 559 1184 500 
Q 1428 441 1663 441 
Q 2288 441 2617 861 
Q 2947 1281 2994 2138 
Q 2813 1869 2534 1725 
Q 2256 1581 1919 1581 
Q 1219 1581 811 2004 
Q 403 2428 403 3163 
Q 403 3881 828 4315 
Q 1253 4750 1959 4750 
Q 2769 4750 3195 4129 
Q 3622 3509 3622 2328 
Q 3622 1225 3098 567 
Q 2575 -91 1691 -91 
Q 1453 -91 1209 -44 
Q 966 3 703 97 
z
M 1959 2075 
Q 2384 2075 2632 2365 
Q 2881 2656 2881 3163 
Q 2881 3666 2632 3958 
Q 2384 4250 1959 4250 
Q 1534 4250 1286 3958 
Q 1038 3666 1038 3163 
Q 1038 2656 1286 2365 
Q 1534 2075 1959 2075 
z
" transform="scale(0.015625)"/>
       </defs>
       <use xlink:href="#DejaVuSans-31"/>
       <use xlink:href="#DejaVuSans-39" transform="translate(63.623047 0)"/>
      </g>
     </g>
    </g>
    <g id="xtick_7">
     <g id="line2d_14">
      <path d="M 263.692727 379.96 
L 263.692727 32.64 
" clip-path="url(#p595df02970)" style="fill: none; stroke: #b0b0b0; stroke-opacity: 0.5; stroke-width: 0.8; stroke-linecap: square"/>
     </g>
     <g id="line2d_15">
      <g>
       <use xlink:href="#mfd96090311" x="263.692727" y="379.96" style="stroke: #000000; stroke-width: 0.8"/>
      </g>
     </g>
     <g id="text_7">
      <!-- 20 -->
      <g transform="translate(255.421477 396.837969) scale(0.13 -0.13)">
       <defs>
        <path id="DejaVuSans-32" d="M 1228 531 
L 3431 531 
L 3431 0 
L 469 0 
L 469 531 
Q 828 903 1448 1529 
Q 2069 2156 2228 2338 
Q 2531 2678 2651 2914 
Q 2772 3150 2772 3378 
Q 2772 3750 2511 3984 
Q 2250 4219 1831 4219 
Q 1534 4219 1204 4116 
Q 875 4013 500 3803 
L 500 4441 
Q 881 4594 1212 4672 
Q 1544 4750 1819 4750 
Q 2544 4750 2975 4387 
Q 3406 4025 3406 3419 
Q 3406 3131 3298 2873 
Q 3191 2616 2906 2266 
Q 2828 2175 2409 1742 
Q 1991 1309 1228 531 
z
" transform="scale(0.015625)"/>
        <path id="DejaVuSans-30" d="M 2034 4250 
Q 1547 4250 1301 3770 
Q 1056 3291 1056 2328 
Q 1056 1369 1301 889 
Q 1547 409 2034 409 
Q 2525 409 2770 889 
Q 3016 1369 3016 2328 
Q 3016 3291 2770 3770 
Q 2525 4250 2034 4250 
z
M 2034 4750 
Q 2819 4750 3233 4129 
Q 3647 3509 3647 2328 
Q 3647 1150 3233 529 
Q 2819 -91 2034 -91 
Q 1250 -91 836 529 
Q 422 1150 422 2328 
Q 422 3509 836 4129 
Q 1250 4750 2034 4750 
z
" transform="scale(0.015625)"/>
       </defs>
       <use xlink:href="#DejaVuSans-32"/>
       <use xlink:href="#DejaVuSans-30" transform="translate(63.623047 0)"/>
      </g>
     </g>
    </g>
    <g id="xtick_8">
     <g id="line2d_16">
      <path d="M 293.538182 379.96 
L 293.538182 32.64 
" clip-path="url(#p595df02970)" style="fill: none; stroke: #b0b0b0; stroke-opacity: 0.5; stroke-width: 0.8; stroke-linecap: square"/>
     </g>
     <g id="line2d_17">
      <g>
       <use xlink:href="#mfd96090311" x="293.538182" y="379.96" style="stroke: #000000; stroke-width: 0.8"/>
      </g>
     </g>
     <g id="text_8">
      <!-- 21 -->
      <g transform="translate(285.266932 396.837969) scale(0.13 -0.13)">
       <use xlink:href="#DejaVuSans-32"/>
       <use xlink:href="#DejaVuSans-31" transform="translate(63.623047 0)"/>
      </g>
     </g>
    </g>
    <g id="xtick_9">
     <g id="line2d_18">
      <path d="M 323.383636 379.96 
L 323.383636 32.64 
" clip-path="url(#p595df02970)" style="fill: none; stroke: #b0b0b0; stroke-opacity: 0.5; stroke-width: 0.8; stroke-linecap: square"/>
     </g>
     <g id="line2d_19">
      <g>
       <use xlink:href="#mfd96090311" x="323.383636" y="379.96" style="stroke: #000000; stroke-width: 0.8"/>
      </g>
     </g>
     <g id="text_9">
      <!-- 22 -->
      <g transform="translate(315.112386 396.837969) scale(0.13 -0.13)">
       <use xlink:href="#DejaVuSans-32"/>
       <use xlink:href="#DejaVuSans-32" transform="translate(63.623047 0)"/>
      </g>
     </g>
    </g>
    <g id="xtick_10">
     <g id="line2d_20">
      <path d="M 353.229091 379.96 
L 353.229091 32.64 
" clip-path="url(#p595df02970)" style="fill: none; stroke: #b0b0b0; stroke-opacity: 0.5; stroke-width: 0.8; stroke-linecap: square"/>
     </g>
     <g id="line2d_21">
      <g>
       <use xlink:href="#mfd96090311" x="353.229091" y="379.96" style="stroke: #000000; stroke-width: 0.8"/>
      </g>
     </g>
     <g id="text_10">
      <!-- 23 -->
      <g transform="translate(344.957841 396.837969) scale(0.13 -0.13)">
       <defs>
        <path id="DejaVuSans-33" d="M 2597 2516 
Q 3050 2419 3304 2112 
Q 3559 1806 3559 1356 
Q 3559 666 3084 287 
Q 2609 -91 1734 -91 
Q 1441 -91 1130 -33 
Q 819 25 488 141 
L 488 750 
Q 750 597 1062 519 
Q 1375 441 1716 441 
Q 2309 441 2620 675 
Q 2931 909 2931 1356 
Q 2931 1769 2642 2001 
Q 2353 2234 1838 2234 
L 1294 2234 
L 1294 2753 
L 1863 2753 
Q 2328 2753 2575 2939 
Q 2822 3125 2822 3475 
Q 2822 3834 2567 4026 
Q 2313 4219 1838 4219 
Q 1578 4219 1281 4162 
Q 984 4106 628 3988 
L 628 4550 
Q 988 4650 1302 4700 
Q 1616 4750 1894 4750 
Q 2613 4750 3031 4423 
Q 3450 4097 3450 3541 
Q 3450 3153 3228 2886 
Q 3006 2619 2597 2516 
z
" transform="scale(0.015625)"/>
       </defs>
       <use xlink:href="#DejaVuSans-32"/>
       <use xlink:href="#DejaVuSans-33" transform="translate(63.623047 0)"/>
      </g>
     </g>
    </g>
    <g id="xtick_11">
     <g id="line2d_22">
      <path d="M 383.074545 379.96 
L 383.074545 32.64 
" clip-path="url(#p595df02970)" style="fill: none; stroke: #b0b0b0; stroke-opacity: 0.5; stroke-width: 0.8; stroke-linecap: square"/>
     </g>
     <g id="line2d_23">
      <g>
       <use xlink:href="#mfd96090311" x="383.074545" y="379.96" style="stroke: #000000; stroke-width: 0.8"/>
      </g>
     </g>
     <g id="text_11">
      <!-- 24 -->
      <g transform="translate(374.803295 396.837969) scale(0.13 -0.13)">
       <use xlink:href="#DejaVuSans-32"/>
       <use xlink:href="#DejaVuSans-34" transform="translate(63.623047 0)"/>
      </g>
     </g>
    </g>
    <g id="xtick_12">
     <g id="line2d_24">
      <path d="M 412.92 379.96 
L 412.92 32.64 
" clip-path="url(#p595df02970)" style="fill: none; stroke: #b0b0b0; stroke-opacity: 0.5; stroke-width: 0.8; stroke-linecap: square"/>
     </g>
     <g id="line2d_25">
      <g>
       <use xlink:href="#mfd96090311" x="412.92" y="379.96" style="stroke: #000000; stroke-width: 0.8"/>
      </g>
     </g>
     <g id="text_12">
      <!-- 25 -->
      <g transform="translate(404.64875 396.837969) scale(0.13 -0.13)">
       <use xlink:href="#DejaVuSans-32"/>
       <use xlink:href="#DejaVuSans-35" transform="translate(63.623047 0)"/>
      </g>
     </g>
    </g>
    <g id="text_13">
     <!-- Magnitud aparente R -->
     <g transform="translate(154.102656 417.21875) scale(0.18 -0.18)">
      <defs>
       <path id="DejaVuSans-4d" d="M 628 4666 
L 1569 4666 
L 2759 1491 
L 3956 4666 
L 4897 4666 
L 4897 0 
L 4281 0 
L 4281 4097 
L 3078 897 
L 2444 897 
L 1241 4097 
L 1241 0 
L 628 0 
L 628 4666 
z
" transform="scale(0.015625)"/>
       <path id="DejaVuSans-61" d="M 2194 1759 
Q 1497 1759 1228 1600 
Q 959 1441 959 1056 
Q 959 750 1161 570 
Q 1363 391 1709 391 
Q 2188 391 2477 730 
Q 2766 1069 2766 1631 
L 2766 1759 
L 2194 1759 
z
M 3341 1997 
L 3341 0 
L 2766 0 
L 2766 531 
Q 2569 213 2275 61 
Q 1981 -91 1556 -91 
Q 1019 -91 701 211 
Q 384 513 384 1019 
Q 384 1609 779 1909 
Q 1175 2209 1959 2209 
L 2766 2209 
L 2766 2266 
Q 2766 2663 2505 2880 
Q 2244 3097 1772 3097 
Q 1472 3097 1187 3025 
Q 903 2953 641 2809 
L 641 3341 
Q 956 3463 1253 3523 
Q 1550 3584 1831 3584 
Q 2591 3584 2966 3190 
Q 3341 2797 3341 1997 
z
" transform="scale(0.015625)"/>
       <path id="DejaVuSans-67" d="M 2906 1791 
Q 2906 2416 2648 2759 
Q 2391 3103 1925 3103 
Q 1463 3103 1205 2759 
Q 947 2416 947 1791 
Q 947 1169 1205 825 
Q 1463 481 1925 481 
Q 2391 481 2648 825 
Q 2906 1169 2906 1791 
z
M 3481 434 
Q 3481 -459 3084 -895 
Q 2688 -1331 1869 -1331 
Q 1566 -1331 1297 -1286 
Q 1028 -1241 775 -1147 
L 775 -588 
Q 1028 -725 1275 -790 
Q 1522 -856 1778 -856 
Q 2344 -856 2625 -561 
Q 2906 -266 2906 331 
L 2906 616 
Q 2728 306 2450 153 
Q 2172 0 1784 0 
Q 1141 0 747 490 
Q 353 981 353 1791 
Q 353 2603 747 3093 
Q 1141 3584 1784 3584 
Q 2172 3584 2450 3431 
Q 2728 3278 2906 2969 
L 2906 3500 
L 3481 3500 
L 3481 434 
z
" transform="scale(0.015625)"/>
       <path id="DejaVuSans-6e" d="M 3513 2113 
L 3513 0 
L 2938 0 
L 2938 2094 
Q 2938 2591 2744 2837 
Q 2550 3084 2163 3084 
Q 1697 3084 1428 2787 
Q 1159 2491 1159 1978 
L 1159 0 
L 581 0 
L 581 3500 
L 1159 3500 
L 1159 2956 
Q 1366 3272 1645 3428 
Q 1925 3584 2291 3584 
Q 2894 3584 3203 3211 
Q 3513 2838 3513 2113 
z
" transform="scale(0.015625)"/>
       <path id="DejaVuSans-69" d="M 603 3500 
L 1178 3500 
L 1178 0 
L 603 0 
L 603 3500 
z
M 603 4863 
L 1178 4863 
L 1178 4134 
L 603 4134 
L 603 4863 
z
" transform="scale(0.015625)"/>
       <path id="DejaVuSans-74" d="M 1172 4494 
L 1172 3500 
L 2356 3500 
L 2356 3053 
L 1172 3053 
L 1172 1153 
Q 1172 725 1289 603 
Q 1406 481 1766 481 
L 2356 481 
L 2356 0 
L 1766 0 
Q 1100 0 847 248 
Q 594 497 594 1153 
L 594 3053 
L 172 3053 
L 172 3500 
L 594 3500 
L 594 4494 
L 1172 4494 
z
" transform="scale(0.015625)"/>
       <path id="DejaVuSans-75" d="M 544 1381 
L 544 3500 
L 1119 3500 
L 1119 1403 
Q 1119 906 1312 657 
Q 1506 409 1894 409 
Q 2359 409 2629 706 
Q 2900 1003 2900 1516 
L 2900 3500 
L 3475 3500 
L 3475 0 
L 2900 0 
L 2900 538 
Q 2691 219 2414 64 
Q 2138 -91 1772 -91 
Q 1169 -91 856 284 
Q 544 659 544 1381 
z
M 1991 3584 
L 1991 3584 
z
" transform="scale(0.015625)"/>
       <path id="DejaVuSans-64" d="M 2906 2969 
L 2906 4863 
L 3481 4863 
L 3481 0 
L 2906 0 
L 2906 525 
Q 2725 213 2448 61 
Q 2172 -91 1784 -91 
Q 1150 -91 751 415 
Q 353 922 353 1747 
Q 353 2572 751 3078 
Q 1150 3584 1784 3584 
Q 2172 3584 2448 3432 
Q 2725 3281 2906 2969 
z
M 947 1747 
Q 947 1113 1208 752 
Q 1469 391 1925 391 
Q 2381 391 2643 752 
Q 2906 1113 2906 1747 
Q 2906 2381 2643 2742 
Q 2381 3103 1925 3103 
Q 1469 3103 1208 2742 
Q 947 2381 947 1747 
z
" transform="scale(0.015625)"/>
       <path id="DejaVuSans-20" transform="scale(0.015625)"/>
       <path id="DejaVuSans-70" d="M 1159 525 
L 1159 -1331 
L 581 -1331 
L 581 3500 
L 1159 3500 
L 1159 2969 
Q 1341 3281 1617 3432 
Q 1894 3584 2278 3584 
Q 2916 3584 3314 3078 
Q 3713 2572 3713 1747 
Q 3713 922 3314 415 
Q 2916 -91 2278 -91 
Q 1894 -91 1617 61 
Q 1341 213 1159 525 
z
M 3116 1747 
Q 3116 2381 2855 2742 
Q 2594 3103 2138 3103 
Q 1681 3103 1420 2742 
Q 1159 2381 1159 1747 
Q 1159 1113 1420 752 
Q 1681 391 2138 391 
Q 2594 391 2855 752 
Q 3116 1113 3116 1747 
z
" transform="scale(0.015625)"/>
       <path id="DejaVuSans-72" d="M 2631 2963 
Q 2534 3019 2420 3045 
Q 2306 3072 2169 3072 
Q 1681 3072 1420 2755 
Q 1159 2438 1159 1844 
L 1159 0 
L 581 0 
L 581 3500 
L 1159 3500 
L 1159 2956 
Q 1341 3275 1631 3429 
Q 1922 3584 2338 3584 
Q 2397 3584 2469 3576 
Q 2541 3569 2628 3553 
L 2631 2963 
z
" transform="scale(0.015625)"/>
       <path id="DejaVuSans-65" d="M 3597 1894 
L 3597 1613 
L 953 1613 
Q 991 1019 1311 708 
Q 1631 397 2203 397 
Q 2534 397 2845 478 
Q 3156 559 3463 722 
L 3463 178 
Q 3153 47 2828 -22 
Q 2503 -91 2169 -91 
Q 1331 -91 842 396 
Q 353 884 353 1716 
Q 353 2575 817 3079 
Q 1281 3584 2069 3584 
Q 2775 3584 3186 3129 
Q 3597 2675 3597 1894 
z
M 3022 2063 
Q 3016 2534 2758 2815 
Q 2500 3097 2075 3097 
Q 1594 3097 1305 2825 
Q 1016 2553 972 2059 
L 3022 2063 
z
" transform="scale(0.015625)"/>
       <path id="DejaVuSans-52" d="M 2841 2188 
Q 3044 2119 3236 1894 
Q 3428 1669 3622 1275 
L 4263 0 
L 3584 0 
L 2988 1197 
Q 2756 1666 2539 1819 
Q 2322 1972 1947 1972 
L 1259 1972 
L 1259 0 
L 628 0 
L 628 4666 
L 2053 4666 
Q 2853 4666 3247 4331 
Q 3641 3997 3641 3322 
Q 3641 2881 3436 2590 
Q 3231 2300 2841 2188 
z
M 1259 4147 
L 1259 2491 
L 2053 2491 
Q 2509 2491 2742 2702 
Q 2975 2913 2975 3322 
Q 2975 3731 2742 3939 
Q 2509 4147 2053 4147 
L 1259 4147 
z
" transform="scale(0.015625)"/>
      </defs>
      <use xlink:href="#DejaVuSans-4d"/>
      <use xlink:href="#DejaVuSans-61" transform="translate(86.279297 0)"/>
      <use xlink:href="#DejaVuSans-67" transform="translate(147.558594 0)"/>
      <use xlink:href="#DejaVuSans-6e" transform="translate(211.035156 0)"/>
      <use xlink:href="#DejaVuSans-69" transform="translate(274.414062 0)"/>
      <use xlink:href="#DejaVuSans-74" transform="translate(302.197266 0)"/>
      <use xlink:href="#DejaVuSans-75" transform="translate(341.40625 0)"/>
      <use xlink:href="#DejaVuSans-64" transform="translate(404.785156 0)"/>
      <use xlink:href="#DejaVuSans-20" transform="translate(468.261719 0)"/>
      <use xlink:href="#DejaVuSans-61" transform="translate(500.048828 0)"/>
      <use xlink:href="#DejaVuSans-70" transform="translate(561.328125 0)"/>
      <use xlink:href="#DejaVuSans-61" transform="translate(624.804688 0)"/>
      <use xlink:href="#DejaVuSans-72" transform="translate(686.083984 0)"/>
      <use xlink:href="#DejaVuSans-65" transform="translate(724.947266 0)"/>
      <use xlink:href="#DejaVuSans-6e" transform="translate(786.470703 0)"/>
      <use xlink:href="#DejaVuSans-74" transform="translate(849.849609 0)"/>
      <use xlink:href="#DejaVuSans-65" transform="translate(889.058594 0)"/>
      <use xlink:href="#DejaVuSans-20" transform="translate(950.582031 0)"/>
      <use xlink:href="#DejaVuSans-52" transform="translate(982.369141 0)"/>
     </g>
    </g>
   </g>
   <g id="matplotlib.axis_2">
    <g id="ytick_1">
     <g id="line2d_26">
      <path d="M 84.62 355.651 
L 412.92 355.651 
" clip-path="url(#p595df02970)" style="fill: none; stroke: #b0b0b0; stroke-opacity: 0.5; stroke-width: 0.8; stroke-linecap: square"/>
     </g>
     <g id="line2d_27">
      <defs>
       <path id="mf41416fe82" d="M 0 0 
L -3.5 0 
" style="stroke: #000000; stroke-width: 0.8"/>
      </defs>
      <g>
       <use xlink:href="#mf41416fe82" x="84.62" y="355.651" style="stroke: #000000; stroke-width: 0.8"/>
      </g>
     </g>
     <g id="text_14">
      <!-- 1 -->
      <g transform="translate(69.34875 360.589984) scale(0.13 -0.13)">
       <use xlink:href="#DejaVuSans-31"/>
      </g>
     </g>
    </g>
    <g id="ytick_2">
     <g id="line2d_28">
      <path d="M 84.62 274.89825 
L 412.92 274.89825 
" clip-path="url(#p595df02970)" style="fill: none; stroke: #b0b0b0; stroke-opacity: 0.5; stroke-width: 0.8; stroke-linecap: square"/>
     </g>
     <g id="line2d_29">
      <g>
       <use xlink:href="#mf41416fe82" x="84.62" y="274.89825" style="stroke: #000000; stroke-width: 0.8"/>
      </g>
     </g>
     <g id="text_15">
      <!-- 10 -->
      <g transform="translate(61.0775 279.837234) scale(0.13 -0.13)">
       <use xlink:href="#DejaVuSans-31"/>
       <use xlink:href="#DejaVuSans-30" transform="translate(63.623047 0)"/>
      </g>
     </g>
    </g>
    <g id="ytick_3">
     <g id="line2d_30">
      <path d="M 84.62 194.1455 
L 412.92 194.1455 
" clip-path="url(#p595df02970)" style="fill: none; stroke: #b0b0b0; stroke-opacity: 0.5; stroke-width: 0.8; stroke-linecap: square"/>
     </g>
     <g id="line2d_31">
      <g>
       <use xlink:href="#mf41416fe82" x="84.62" y="194.1455" style="stroke: #000000; stroke-width: 0.8"/>
      </g>
     </g>
     <g id="text_16">
      <!-- 100 -->
      <g transform="translate(52.80625 199.084484) scale(0.13 -0.13)">
       <use xlink:href="#DejaVuSans-31"/>
       <use xlink:href="#DejaVuSans-30" transform="translate(63.623047 0)"/>
       <use xlink:href="#DejaVuSans-30" transform="translate(127.246094 0)"/>
      </g>
     </g>
    </g>
    <g id="ytick_4">
     <g id="line2d_32">
      <path d="M 84.62 113.39275 
L 412.92 113.39275 
" clip-path="url(#p595df02970)" style="fill: none; stroke: #b0b0b0; stroke-opacity: 0.5; stroke-width: 0.8; stroke-linecap: square"/>
     </g>
     <g id="line2d_33">
      <g>
       <use xlink:href="#mf41416fe82" x="84.62" y="113.39275" style="stroke: #000000; stroke-width: 0.8"/>
      </g>
     </g>
     <g id="text_17">
      <!-- 1,000 -->
      <g transform="translate(40.403438 118.331734) scale(0.13 -0.13)">
       <defs>
        <path id="DejaVuSans-2c" d="M 750 794 
L 1409 794 
L 1409 256 
L 897 -744 
L 494 -744 
L 750 256 
L 750 794 
z
" transform="scale(0.015625)"/>
       </defs>
       <use xlink:href="#DejaVuSans-31"/>
       <use xlink:href="#DejaVuSans-2c" transform="translate(63.623047 0)"/>
       <use xlink:href="#DejaVuSans-30" transform="translate(95.410156 0)"/>
       <use xlink:href="#DejaVuSans-30" transform="translate(159.033203 0)"/>
       <use xlink:href="#DejaVuSans-30" transform="translate(222.65625 0)"/>
      </g>
     </g>
    </g>
    <g id="ytick_5">
     <g id="line2d_34">
      <path d="M 84.62 32.64 
L 412.92 32.64 
" clip-path="url(#p595df02970)" style="fill: none; stroke: #b0b0b0; stroke-opacity: 0.5; stroke-width: 0.8; stroke-linecap: square"/>
     </g>
     <g id="line2d_35">
      <g>
       <use xlink:href="#mf41416fe82" x="84.62" y="32.64" style="stroke: #000000; stroke-width: 0.8"/>
      </g>
     </g>
     <g id="text_18">
      <!-- 10,000 -->
      <g transform="translate(32.132188 37.578984) scale(0.13 -0.13)">
       <use xlink:href="#DejaVuSans-31"/>
       <use xlink:href="#DejaVuSans-30" transform="translate(63.623047 0)"/>
       <use xlink:href="#DejaVuSans-2c" transform="translate(127.246094 0)"/>
       <use xlink:href="#DejaVuSans-30" transform="translate(159.033203 0)"/>
       <use xlink:href="#DejaVuSans-30" transform="translate(222.65625 0)"/>
       <use xlink:href="#DejaVuSans-30" transform="translate(286.279297 0)"/>
      </g>
     </g>
    </g>
    <g id="ytick_6">
     <g id="line2d_36">
      <defs>
       <path id="m030bc232b8" d="M 0 0 
L -2 0 
" style="stroke: #000000; stroke-width: 0.6"/>
      </defs>
      <g>
       <use xlink:href="#m030bc232b8" x="84.62" y="379.96" style="stroke: #000000; stroke-width: 0.6"/>
      </g>
     </g>
    </g>
    <g id="ytick_7">
     <g id="line2d_37">
      <g>
       <use xlink:href="#m030bc232b8" x="84.62" y="373.565897" style="stroke: #000000; stroke-width: 0.6"/>
      </g>
     </g>
    </g>
    <g id="ytick_8">
     <g id="line2d_38">
      <g>
       <use xlink:href="#m030bc232b8" x="84.62" y="368.159759" style="stroke: #000000; stroke-width: 0.6"/>
      </g>
     </g>
    </g>
    <g id="ytick_9">
     <g id="line2d_39">
      <g>
       <use xlink:href="#m030bc232b8" x="84.62" y="363.47675" style="stroke: #000000; stroke-width: 0.6"/>
      </g>
     </g>
    </g>
    <g id="ytick_10">
     <g id="line2d_40">
      <g>
       <use xlink:href="#m030bc232b8" x="84.62" y="359.346043" style="stroke: #000000; stroke-width: 0.6"/>
      </g>
     </g>
    </g>
    <g id="ytick_11">
     <g id="line2d_41">
      <g>
       <use xlink:href="#m030bc232b8" x="84.62" y="331.342" style="stroke: #000000; stroke-width: 0.6"/>
      </g>
     </g>
    </g>
    <g id="ytick_12">
     <g id="line2d_42">
      <g>
       <use xlink:href="#m030bc232b8" x="84.62" y="317.122147" style="stroke: #000000; stroke-width: 0.6"/>
      </g>
     </g>
    </g>
    <g id="ytick_13">
     <g id="line2d_43">
      <g>
       <use xlink:href="#m030bc232b8" x="84.62" y="307.033" style="stroke: #000000; stroke-width: 0.6"/>
      </g>
     </g>
    </g>
    <g id="ytick_14">
     <g id="line2d_44">
      <g>
       <use xlink:href="#m030bc232b8" x="84.62" y="299.20725" style="stroke: #000000; stroke-width: 0.6"/>
      </g>
     </g>
    </g>
    <g id="ytick_15">
     <g id="line2d_45">
      <g>
       <use xlink:href="#m030bc232b8" x="84.62" y="292.813147" style="stroke: #000000; stroke-width: 0.6"/>
      </g>
     </g>
    </g>
    <g id="ytick_16">
     <g id="line2d_46">
      <g>
       <use xlink:href="#m030bc232b8" x="84.62" y="287.407009" style="stroke: #000000; stroke-width: 0.6"/>
      </g>
     </g>
    </g>
    <g id="ytick_17">
     <g id="line2d_47">
      <g>
       <use xlink:href="#m030bc232b8" x="84.62" y="282.724" style="stroke: #000000; stroke-width: 0.6"/>
      </g>
     </g>
    </g>
    <g id="ytick_18">
     <g id="line2d_48">
      <g>
       <use xlink:href="#m030bc232b8" x="84.62" y="278.593293" style="stroke: #000000; stroke-width: 0.6"/>
      </g>
     </g>
    </g>
    <g id="ytick_19">
     <g id="line2d_49">
      <g>
       <use xlink:href="#m030bc232b8" x="84.62" y="250.58925" style="stroke: #000000; stroke-width: 0.6"/>
      </g>
     </g>
    </g>
    <g id="ytick_20">
     <g id="line2d_50">
      <g>
       <use xlink:href="#m030bc232b8" x="84.62" y="236.369397" style="stroke: #000000; stroke-width: 0.6"/>
      </g>
     </g>
    </g>
    <g id="ytick_21">
     <g id="line2d_51">
      <g>
       <use xlink:href="#m030bc232b8" x="84.62" y="226.28025" style="stroke: #000000; stroke-width: 0.6"/>
      </g>
     </g>
    </g>
    <g id="ytick_22">
     <g id="line2d_52">
      <g>
       <use xlink:href="#m030bc232b8" x="84.62" y="218.4545" style="stroke: #000000; stroke-width: 0.6"/>
      </g>
     </g>
    </g>
    <g id="ytick_23">
     <g id="line2d_53">
      <g>
       <use xlink:href="#m030bc232b8" x="84.62" y="212.060397" style="stroke: #000000; stroke-width: 0.6"/>
      </g>
     </g>
    </g>
    <g id="ytick_24">
     <g id="line2d_54">
      <g>
       <use xlink:href="#m030bc232b8" x="84.62" y="206.654259" style="stroke: #000000; stroke-width: 0.6"/>
      </g>
     </g>
    </g>
    <g id="ytick_25">
     <g id="line2d_55">
      <g>
       <use xlink:href="#m030bc232b8" x="84.62" y="201.97125" style="stroke: #000000; stroke-width: 0.6"/>
      </g>
     </g>
    </g>
    <g id="ytick_26">
     <g id="line2d_56">
      <g>
       <use xlink:href="#m030bc232b8" x="84.62" y="197.840543" style="stroke: #000000; stroke-width: 0.6"/>
      </g>
     </g>
    </g>
    <g id="ytick_27">
     <g id="line2d_57">
      <g>
       <use xlink:href="#m030bc232b8" x="84.62" y="169.8365" style="stroke: #000000; stroke-width: 0.6"/>
      </g>
     </g>
    </g>
    <g id="ytick_28">
     <g id="line2d_58">
      <g>
       <use xlink:href="#m030bc232b8" x="84.62" y="155.616647" style="stroke: #000000; stroke-width: 0.6"/>
      </g>
     </g>
    </g>
    <g id="ytick_29">
     <g id="line2d_59">
      <g>
       <use xlink:href="#m030bc232b8" x="84.62" y="145.5275" style="stroke: #000000; stroke-width: 0.6"/>
      </g>
     </g>
    </g>
    <g id="ytick_30">
     <g id="line2d_60">
      <g>
       <use xlink:href="#m030bc232b8" x="84.62" y="137.70175" style="stroke: #000000; stroke-width: 0.6"/>
      </g>
     </g>
    </g>
    <g id="ytick_31">
     <g id="line2d_61">
      <g>
       <use xlink:href="#m030bc232b8" x="84.62" y="131.307647" style="stroke: #000000; stroke-width: 0.6"/>
      </g>
     </g>
    </g>
    <g id="ytick_32">
     <g id="line2d_62">
      <g>
       <use xlink:href="#m030bc232b8" x="84.62" y="125.901509" style="stroke: #000000; stroke-width: 0.6"/>
      </g>
     </g>
    </g>
    <g id="ytick_33">
     <g id="line2d_63">
      <g>
       <use xlink:href="#m030bc232b8" x="84.62" y="121.2185" style="stroke: #000000; stroke-width: 0.6"/>
      </g>
     </g>
    </g>
    <g id="ytick_34">
     <g id="line2d_64">
      <g>
       <use xlink:href="#m030bc232b8" x="84.62" y="117.087793" style="stroke: #000000; stroke-width: 0.6"/>
      </g>
     </g>
    </g>
    <g id="ytick_35">
     <g id="line2d_65">
      <g>
       <use xlink:href="#m030bc232b8" x="84.62" y="89.08375" style="stroke: #000000; stroke-width: 0.6"/>
      </g>
     </g>
    </g>
    <g id="ytick_36">
     <g id="line2d_66">
      <g>
       <use xlink:href="#m030bc232b8" x="84.62" y="74.863897" style="stroke: #000000; stroke-width: 0.6"/>
      </g>
     </g>
    </g>
    <g id="ytick_37">
     <g id="line2d_67">
      <g>
       <use xlink:href="#m030bc232b8" x="84.62" y="64.77475" style="stroke: #000000; stroke-width: 0.6"/>
      </g>
     </g>
    </g>
    <g id="ytick_38">
     <g id="line2d_68">
      <g>
       <use xlink:href="#m030bc232b8" x="84.62" y="56.949" style="stroke: #000000; stroke-width: 0.6"/>
      </g>
     </g>
    </g>
    <g id="ytick_39">
     <g id="line2d_69">
      <g>
       <use xlink:href="#m030bc232b8" x="84.62" y="50.554897" style="stroke: #000000; stroke-width: 0.6"/>
      </g>
     </g>
    </g>
    <g id="ytick_40">
     <g id="line2d_70">
      <g>
       <use xlink:href="#m030bc232b8" x="84.62" y="45.148759" style="stroke: #000000; stroke-width: 0.6"/>
      </g>
     </g>
    </g>
    <g id="ytick_41">
     <g id="line2d_71">
      <g>
       <use xlink:href="#m030bc232b8" x="84.62" y="40.46575" style="stroke: #000000; stroke-width: 0.6"/>
      </g>
     </g>
    </g>
    <g id="ytick_42">
     <g id="line2d_72">
      <g>
       <use xlink:href="#m030bc232b8" x="84.62" y="36.335043" style="stroke: #000000; stroke-width: 0.6"/>
      </g>
     </g>
    </g>
    <g id="text_19">
     <!-- Cuentas por bin de 0.5 mag -->
     <g transform="translate(24.38875 331.961094) rotate(-90) scale(0.18 -0.18)">
      <defs>
       <path id="DejaVuSans-43" d="M 4122 4306 
L 4122 3641 
Q 3803 3938 3442 4084 
Q 3081 4231 2675 4231 
Q 1875 4231 1450 3742 
Q 1025 3253 1025 2328 
Q 1025 1406 1450 917 
Q 1875 428 2675 428 
Q 3081 428 3442 575 
Q 3803 722 4122 1019 
L 4122 359 
Q 3791 134 3420 21 
Q 3050 -91 2638 -91 
Q 1578 -91 968 557 
Q 359 1206 359 2328 
Q 359 3453 968 4101 
Q 1578 4750 2638 4750 
Q 3056 4750 3426 4639 
Q 3797 4528 4122 4306 
z
" transform="scale(0.015625)"/>
       <path id="DejaVuSans-73" d="M 2834 3397 
L 2834 2853 
Q 2591 2978 2328 3040 
Q 2066 3103 1784 3103 
Q 1356 3103 1142 2972 
Q 928 2841 928 2578 
Q 928 2378 1081 2264 
Q 1234 2150 1697 2047 
L 1894 2003 
Q 2506 1872 2764 1633 
Q 3022 1394 3022 966 
Q 3022 478 2636 193 
Q 2250 -91 1575 -91 
Q 1294 -91 989 -36 
Q 684 19 347 128 
L 347 722 
Q 666 556 975 473 
Q 1284 391 1588 391 
Q 1994 391 2212 530 
Q 2431 669 2431 922 
Q 2431 1156 2273 1281 
Q 2116 1406 1581 1522 
L 1381 1569 
Q 847 1681 609 1914 
Q 372 2147 372 2553 
Q 372 3047 722 3315 
Q 1072 3584 1716 3584 
Q 2034 3584 2315 3537 
Q 2597 3491 2834 3397 
z
" transform="scale(0.015625)"/>
       <path id="DejaVuSans-6f" d="M 1959 3097 
Q 1497 3097 1228 2736 
Q 959 2375 959 1747 
Q 959 1119 1226 758 
Q 1494 397 1959 397 
Q 2419 397 2687 759 
Q 2956 1122 2956 1747 
Q 2956 2369 2687 2733 
Q 2419 3097 1959 3097 
z
M 1959 3584 
Q 2709 3584 3137 3096 
Q 3566 2609 3566 1747 
Q 3566 888 3137 398 
Q 2709 -91 1959 -91 
Q 1206 -91 779 398 
Q 353 888 353 1747 
Q 353 2609 779 3096 
Q 1206 3584 1959 3584 
z
" transform="scale(0.015625)"/>
       <path id="DejaVuSans-62" d="M 3116 1747 
Q 3116 2381 2855 2742 
Q 2594 3103 2138 3103 
Q 1681 3103 1420 2742 
Q 1159 2381 1159 1747 
Q 1159 1113 1420 752 
Q 1681 391 2138 391 
Q 2594 391 2855 752 
Q 3116 1113 3116 1747 
z
M 1159 2969 
Q 1341 3281 1617 3432 
Q 1894 3584 2278 3584 
Q 2916 3584 3314 3078 
Q 3713 2572 3713 1747 
Q 3713 922 3314 415 
Q 2916 -91 2278 -91 
Q 1894 -91 1617 61 
Q 1341 213 1159 525 
L 1159 0 
L 581 0 
L 581 4863 
L 1159 4863 
L 1159 2969 
z
" transform="scale(0.015625)"/>
       <path id="DejaVuSans-2e" d="M 684 794 
L 1344 794 
L 1344 0 
L 684 0 
L 684 794 
z
" transform="scale(0.015625)"/>
       <path id="DejaVuSans-6d" d="M 3328 2828 
Q 3544 3216 3844 3400 
Q 4144 3584 4550 3584 
Q 5097 3584 5394 3201 
Q 5691 2819 5691 2113 
L 5691 0 
L 5113 0 
L 5113 2094 
Q 5113 2597 4934 2840 
Q 4756 3084 4391 3084 
Q 3944 3084 3684 2787 
Q 3425 2491 3425 1978 
L 3425 0 
L 2847 0 
L 2847 2094 
Q 2847 2600 2669 2842 
Q 2491 3084 2119 3084 
Q 1678 3084 1418 2786 
Q 1159 2488 1159 1978 
L 1159 0 
L 581 0 
L 581 3500 
L 1159 3500 
L 1159 2956 
Q 1356 3278 1631 3431 
Q 1906 3584 2284 3584 
Q 2666 3584 2933 3390 
Q 3200 3197 3328 2828 
z
" transform="scale(0.015625)"/>
      </defs>
      <use xlink:href="#DejaVuSans-43"/>
      <use xlink:href="#DejaVuSans-75" transform="translate(69.824219 0)"/>
      <use xlink:href="#DejaVuSans-65" transform="translate(133.203125 0)"/>
      <use xlink:href="#DejaVuSans-6e" transform="translate(194.726562 0)"/>
      <use xlink:href="#DejaVuSans-74" transform="translate(258.105469 0)"/>
      <use xlink:href="#DejaVuSans-61" transform="translate(297.314453 0)"/>
      <use xlink:href="#DejaVuSans-73" transform="translate(358.59375 0)"/>
      <use xlink:href="#DejaVuSans-20" transform="translate(410.693359 0)"/>
      <use xlink:href="#DejaVuSans-70" transform="translate(442.480469 0)"/>
      <use xlink:href="#DejaVuSans-6f" transform="translate(505.957031 0)"/>
      <use xlink:href="#DejaVuSans-72" transform="translate(567.138672 0)"/>
      <use xlink:href="#DejaVuSans-20" transform="translate(608.251953 0)"/>
      <use xlink:href="#DejaVuSans-62" transform="translate(640.039062 0)"/>
      <use xlink:href="#DejaVuSans-69" transform="translate(703.515625 0)"/>
      <use xlink:href="#DejaVuSans-6e" transform="translate(731.298828 0)"/>
      <use xlink:href="#DejaVuSans-20" transform="translate(794.677734 0)"/>
      <use xlink:href="#DejaVuSans-64" transform="translate(826.464844 0)"/>
      <use xlink:href="#DejaVuSans-65" transform="translate(889.941406 0)"/>
      <use xlink:href="#DejaVuSans-20" transform="translate(951.464844 0)"/>
      <use xlink:href="#DejaVuSans-30" transform="translate(983.251953 0)"/>
      <use xlink:href="#DejaVuSans-2e" transform="translate(1046.875 0)"/>
      <use xlink:href="#DejaVuSans-35" transform="translate(1078.662109 0)"/>
      <use xlink:href="#DejaVuSans-20" transform="translate(1142.285156 0)"/>
      <use xlink:href="#DejaVuSans-6d" transform="translate(1174.072266 0)"/>
      <use xlink:href="#DejaVuSans-61" transform="translate(1271.484375 0)"/>
      <use xlink:href="#DejaVuSans-67" transform="translate(1332.763672 0)"/>
     </g>
    </g>
   </g>
   <g id="patch_3">
    <path d="M 84.62 433 
L 84.62 268.504147 
L 99.542727 268.504147 
L 99.542727 210.349302 
L 114.465455 210.349302 
L 114.465455 191.772679 
L 129.388182 191.772679 
L 129.388182 176.371167 
L 144.310909 176.371167 
L 144.310909 169.661585 
L 159.233636 169.661585 
L 159.233636 160.770407 
L 174.156364 160.770407 
L 174.156364 154.807737 
L 189.079091 154.807737 
L 189.079091 150.512409 
L 204.001818 150.512409 
L 204.001818 143.566793 
L 218.924545 143.566793 
L 218.924545 135.857308 
L 233.847273 135.857308 
L 233.847273 143.154679 
L 248.77 143.154679 
L 248.77 143.6498 
L 263.692727 143.6498 
L 263.692727 156.684865 
L 278.615455 156.684865 
L 278.615455 162.719268 
L 293.538182 162.719268 
L 293.538182 170.366542 
L 308.460909 170.366542 
L 308.460909 176.583073 
L 323.383636 176.583073 
L 323.383636 181.601688 
L 338.306364 181.601688 
L 338.306364 211.480706 
L 353.229091 211.480706 
L 353.229091 299.20725 
L 368.151818 299.20725 
L 368.151818 355.651 
L 383.074545 355.651 
L 383.074545 355.651 
L 397.997273 355.651 
L 397.997273 433 
" clip-path="url(#p595df02970)" style="fill: none; opacity: 0"/>
   </g>
   <g id="patch_4">
    <path d="M 84.62 433 
L 84.62 211.480706 
L 99.542727 211.480706 
L 99.542727 201.105268 
L 114.465455 201.105268 
L 114.465455 194.1455 
L 129.388182 194.1455 
L 129.388182 184.67552 
L 144.310909 184.67552 
L 144.310909 171.085962 
L 159.233636 171.085962 
L 159.233636 164.63134 
L 174.156364 164.63134 
L 174.156364 151.956691 
L 189.079091 151.956691 
L 189.079091 144.405839 
L 204.001818 144.405839 
L 204.001818 137.145064 
L 218.924545 137.145064 
L 218.924545 127.647691 
L 233.847273 127.647691 
L 233.847273 124.76772 
L 248.77 124.76772 
L 248.77 113.357697 
L 263.692727 113.357697 
L 263.692727 109.075498 
L 278.615455 109.075498 
L 278.615455 103.391389 
L 293.538182 103.391389 
L 293.538182 98.478409 
L 308.460909 98.478409 
L 308.460909 93.427719 
L 323.383636 93.427719 
L 323.383636 88.149405 
L 338.306364 88.149405 
L 338.306364 86.029297 
L 353.229091 86.029297 
L 353.229091 83.383257 
L 368.151818 83.383257 
L 368.151818 82.894823 
L 383.074545 82.894823 
L 383.074545 83.999732 
L 397.997273 83.999732 
L 397.997273 82.384115 
L 412.92 82.384115 
L 412.92 433 
" clip-path="url(#p595df02970)" style="fill: none; opacity: 0"/>
   </g>
   <g id="patch_5">
    <path d="M 84.62 433 
L 84.62 211.480706 
L 99.542727 211.480706 
L 99.542727 204.234647 
L 114.465455 204.234647 
L 114.465455 189.243982 
L 129.388182 189.243982 
L 129.388182 180.634165 
L 144.310909 180.634165 
L 144.310909 169.8365 
L 159.233636 169.8365 
L 159.233636 163.588829 
L 174.156364 163.588829 
L 174.156364 154.922159 
L 189.079091 154.922159 
L 189.079091 148.261648 
L 204.001818 148.261648 
L 204.001818 136.461407 
L 218.924545 136.461407 
L 218.924545 131.956572 
L 233.847273 131.956572 
L 233.847273 122.377223 
L 248.77 122.377223 
L 248.77 115.82489 
L 263.692727 115.82489 
L 263.692727 109.859403 
L 278.615455 109.859403 
L 278.615455 103.312372 
L 293.538182 103.312372 
L 293.538182 97.461802 
L 308.460909 97.461802 
L 308.460909 92.662086 
L 323.383636 92.662086 
L 323.383636 89.365442 
L 338.306364 89.365442 
L 338.306364 86.109753 
L 353.229091 86.109753 
L 353.229091 83.697659 
L 368.151818 83.697659 
L 368.151818 81.752456 
L 383.074545 81.752456 
L 383.074545 84.473148 
L 397.997273 84.473148 
L 397.997273 87.928139 
L 412.92 87.928139 
L 412.92 433 
" clip-path="url(#p595df02970)" style="fill: none; opacity: 0"/>
   </g>
   <g id="patch_6">
    <path d="M 84.62 433 
L 84.62 204.705398 
L 99.542727 204.705398 
L 99.542727 191.44644 
L 114.465455 191.44644 
L 114.465455 185.488 
L 129.388182 185.488 
L 129.388182 179.692619 
L 144.310909 179.692619 
L 144.310909 164.480499 
L 159.233636 164.480499 
L 159.233636 161.870748 
L 174.156364 161.870748 
L 174.156364 151.956691 
L 189.079091 151.956691 
L 189.079091 143.236715 
L 204.001818 143.236715 
L 204.001818 138.267415 
L 218.924545 138.267415 
L 218.924545 132.67846 
L 233.847273 132.67846 
L 233.847273 126.50793 
L 248.77 126.50793 
L 248.77 121.130933 
L 263.692727 121.130933 
L 263.692727 116.73883 
L 278.615455 116.73883 
L 278.615455 109.449586 
L 293.538182 109.449586 
L 293.538182 107.174439 
L 308.460909 107.174439 
L 308.460909 103.54996 
L 323.383636 103.54996 
L 323.383636 101.119754 
L 338.306364 101.119754 
L 338.306364 97.932554 
L 353.229091 97.932554 
L 353.229091 95.78784 
L 368.151818 95.78784 
L 368.151818 95.47084 
L 383.074545 95.47084 
L 383.074545 95.428789 
L 397.997273 95.428789 
L 397.997273 96.408951 
L 412.92 96.408951 
L 412.92 433 
" clip-path="url(#p595df02970)" style="fill: none; opacity: 0"/>
   </g>
   <g id="patch_7">
    <path d="M 84.62 433 
L 84.62 88.423662 
L 99.542727 88.423662 
L 99.542727 79.950019 
L 114.465455 79.950019 
L 114.465455 74.875589 
L 129.388182 74.875589 
L 129.388182 70.166278 
L 144.310909 70.166278 
L 144.310909 65.447501 
L 159.233636 65.447501 
L 159.233636 60.287365 
L 174.156364 60.287365 
L 174.156364 55.391885 
L 189.079091 55.391885 
L 189.079091 52.446189 
L 204.001818 52.446189 
L 204.001818 50.836589 
L 218.924545 50.836589 
L 218.924545 50.972372 
L 233.847273 50.972372 
L 233.847273 51.968282 
L 248.77 51.968282 
L 248.77 57.471922 
L 263.692727 57.471922 
L 263.692727 65.393917 
L 278.615455 65.393917 
L 278.615455 75.584346 
L 293.538182 75.584346 
L 293.538182 89.685074 
L 308.460909 89.685074 
L 308.460909 101.144477 
L 323.383636 101.144477 
L 323.383636 117.836097 
L 338.306364 117.836097 
L 338.306364 132.67846 
L 353.229091 132.67846 
L 353.229091 152.16796 
L 368.151818 152.16796 
L 368.151818 182.095646 
L 383.074545 182.095646 
L 383.074545 245.687733 
L 397.997273 245.687733 
L 397.997273 433 
" clip-path="url(#p595df02970)" style="fill: none; opacity: 0"/>
   </g>
   <g id="line2d_73">
    <path d="M 92.081364 88.423662 
L 107.004091 79.950019 
L 121.926818 74.875589 
L 136.849545 70.166278 
L 151.772273 65.447501 
L 166.695 60.287365 
L 181.617727 55.391885 
L 196.540455 52.446189 
L 211.463182 50.836589 
L 226.385909 50.972372 
L 241.308636 51.968282 
L 256.231364 57.471922 
L 271.154091 65.393917 
L 286.076818 75.584346 
L 300.999545 89.685074 
L 315.922273 101.144477 
L 330.845 117.836097 
L 345.767727 132.67846 
L 360.690455 152.16796 
L 375.613182 182.095646 
L 390.535909 245.687733 
L 390.570476 433 
" clip-path="url(#p595df02970)" style="fill: none; stroke: #008000; stroke-width: 3; stroke-linecap: square"/>
   </g>
   <g id="patch_8">
    <path d="M 84.62 379.96 
L 84.62 32.64 
" style="fill: none; stroke: #000000; stroke-width: 0.8; stroke-linejoin: miter; stroke-linecap: square"/>
   </g>
   <g id="patch_9">
    <path d="M 412.92 379.96 
L 412.92 32.64 
" style="fill: none; stroke: #000000; stroke-width: 0.8; stroke-linejoin: miter; stroke-linecap: square"/>
   </g>
   <g id="patch_10">
    <path d="M 84.62 379.96 
L 412.92 379.96 
" style="fill: none; stroke: #000000; stroke-width: 0.8; stroke-linejoin: miter; stroke-linecap: square"/>
   </g>
   <g id="patch_11">
    <path d="M 84.62 32.64 
L 412.92 32.64 
" style="fill: none; stroke: #000000; stroke-width: 0.8; stroke-linejoin: miter; stroke-linecap: square"/>
   </g>
   <g id="line2d_74">
    <path d="M 92.081364 204.705398 
L 107.004091 191.44644 
L 121.926818 185.488 
L 136.849545 179.692619 
L 151.772273 164.480499 
L 166.695 161.870748 
L 181.617727 151.956691 
L 196.540455 143.236715 
L 211.463182 138.267415 
L 226.385909 132.67846 
L 241.308636 126.50793 
L 256.231364 121.130933 
L 271.154091 116.73883 
L 286.076818 109.449586 
L 300.999545 107.174439 
L 315.922273 103.54996 
L 330.845 101.119754 
L 345.767727 97.932554 
L 360.690455 95.78784 
L 375.613182 95.47084 
L 390.535909 95.428789 
L 405.458636 96.408951 
" clip-path="url(#p595df02970)" style="fill: none; stroke: #0000ff; stroke-width: 3; stroke-linecap: square"/>
   </g>
   <g id="text_20">
    <g id="patch_12">
     <path d="M 88.021364 62.758134 
L 262.741364 62.758134 
L 262.741364 41.088759 
L 88.021364 41.088759 
z
" style="fill: #ffffff; stroke: #ffffff; stroke-linejoin: miter"/>
    </g>
    <!-- $\it{l:}$ 29.9136, $\it{b:}$ 44.0179 -->
    <g transform="translate(92.081364 55.786572) scale(0.14 -0.14)">
     <defs>
      <path id="DejaVuSans-Oblique-6c" d="M 1172 4863 
L 1747 4863 
L 800 0 
L 225 0 
L 1172 4863 
z
" transform="scale(0.015625)"/>
      <path id="DejaVuSans-3a" d="M 750 794 
L 1409 794 
L 1409 0 
L 750 0 
L 750 794 
z
M 750 3309 
L 1409 3309 
L 1409 2516 
L 750 2516 
L 750 3309 
z
" transform="scale(0.015625)"/>
      <path id="DejaVuSans-Oblique-62" d="M 3169 2138 
Q 3169 2591 2961 2847 
Q 2753 3103 2388 3103 
Q 2122 3103 1889 2973 
Q 1656 2844 1484 2597 
Q 1303 2338 1198 1995 
Q 1094 1653 1094 1313 
Q 1094 881 1298 636 
Q 1503 391 1863 391 
Q 2134 391 2365 517 
Q 2597 644 2772 891 
Q 2950 1147 3059 1487 
Q 3169 1828 3169 2138 
z
M 1381 2969 
Q 1594 3256 1914 3420 
Q 2234 3584 2584 3584 
Q 3122 3584 3439 3221 
Q 3756 2859 3756 2241 
Q 3756 1734 3570 1259 
Q 3384 784 3041 416 
Q 2816 172 2522 40 
Q 2228 -91 1906 -91 
Q 1566 -91 1316 65 
Q 1066 222 909 531 
L 806 0 
L 231 0 
L 1178 4863 
L 1753 4863 
L 1381 2969 
z
" transform="scale(0.015625)"/>
     </defs>
     <use xlink:href="#DejaVuSans-Oblique-6c" transform="translate(0 0.015625)"/>
     <use xlink:href="#DejaVuSans-3a" transform="translate(47.265625 0.015625)"/>
     <use xlink:href="#DejaVuSans-20" transform="translate(100.439453 0.015625)"/>
     <use xlink:href="#DejaVuSans-32" transform="translate(132.226562 0.015625)"/>
     <use xlink:href="#DejaVuSans-39" transform="translate(194.099609 0.015625)"/>
     <use xlink:href="#DejaVuSans-2e" transform="translate(257.722656 0.015625)"/>
     <use xlink:href="#DejaVuSans-39" transform="translate(289.509766 0.015625)"/>
     <use xlink:href="#DejaVuSans-31" transform="translate(353.132812 0.015625)"/>
     <use xlink:href="#DejaVuSans-33" transform="translate(416.755859 0.015625)"/>
     <use xlink:href="#DejaVuSans-36" transform="translate(480.378906 0.015625)"/>
     <use xlink:href="#DejaVuSans-2c" transform="translate(544.001953 0.015625)"/>
     <use xlink:href="#DejaVuSans-20" transform="translate(575.789062 0.015625)"/>
     <use xlink:href="#DejaVuSans-Oblique-62" transform="translate(607.576172 0.015625)"/>
     <use xlink:href="#DejaVuSans-3a" transform="translate(690.535156 0.015625)"/>
     <use xlink:href="#DejaVuSans-20" transform="translate(743.708984 0.015625)"/>
     <use xlink:href="#DejaVuSans-34" transform="translate(775.496094 0.015625)"/>
     <use xlink:href="#DejaVuSans-34" transform="translate(839.119141 0.015625)"/>
     <use xlink:href="#DejaVuSans-2e" transform="translate(902.742188 0.015625)"/>
     <use xlink:href="#DejaVuSans-30" transform="translate(934.529297 0.015625)"/>
     <use xlink:href="#DejaVuSans-31" transform="translate(998.152344 0.015625)"/>
     <use xlink:href="#DejaVuSans-37" transform="translate(1061.775391 0.015625)"/>
     <use xlink:href="#DejaVuSans-39" transform="translate(1125.398438 0.015625)"/>
    </g>
   </g>
   <g id="text_21">
    <!-- A2152 -->
    <g transform="translate(216.479375 26.64) scale(0.2 -0.2)">
     <defs>
      <path id="DejaVuSans-41" d="M 2188 4044 
L 1331 1722 
L 3047 1722 
L 2188 4044 
z
M 1831 4666 
L 2547 4666 
L 4325 0 
L 3669 0 
L 3244 1197 
L 1141 1197 
L 716 0 
L 50 0 
L 1831 4666 
z
" transform="scale(0.015625)"/>
     </defs>
     <use xlink:href="#DejaVuSans-41"/>
     <use xlink:href="#DejaVuSans-32" transform="translate(68.408203 0)"/>
     <use xlink:href="#DejaVuSans-31" transform="translate(132.03125 0)"/>
     <use xlink:href="#DejaVuSans-35" transform="translate(195.654297 0)"/>
     <use xlink:href="#DejaVuSans-32" transform="translate(259.277344 0)"/>
    </g>
   </g>
   <g id="line2d_75">
    <path d="M 92.081364 211.480706 
L 107.004091 204.234647 
L 121.926818 189.243982 
L 136.849545 180.634165 
L 151.772273 169.8365 
L 166.695 163.588829 
L 181.617727 154.922159 
L 196.540455 148.261648 
L 211.463182 136.461407 
L 226.385909 131.956572 
L 241.308636 122.377223 
L 256.231364 115.82489 
L 271.154091 109.859403 
L 286.076818 103.312372 
L 300.999545 97.461802 
L 315.922273 92.662086 
L 330.845 89.365442 
L 345.767727 86.109753 
L 360.690455 83.697659 
L 375.613182 81.752456 
L 390.535909 84.473148 
L 405.458636 87.928139 
" clip-path="url(#p595df02970)" style="fill: none; stroke: #ff0000; stroke-width: 3; stroke-linecap: square"/>
   </g>
   <g id="line2d_76">
    <path d="M 92.081364 211.480706 
L 107.004091 201.105268 
L 121.926818 194.1455 
L 136.849545 184.67552 
L 151.772273 171.085962 
L 166.695 164.63134 
L 181.617727 151.956691 
L 196.540455 144.405839 
L 211.463182 137.145064 
L 226.385909 127.647691 
L 241.308636 124.76772 
L 256.231364 113.357697 
L 271.154091 109.075498 
L 286.076818 103.391389 
L 300.999545 98.478409 
L 315.922273 93.427719 
L 330.845 88.149405 
L 345.767727 86.029297 
L 360.690455 83.383257 
L 375.613182 82.894823 
L 390.535909 83.999732 
L 405.458636 82.384115 
" clip-path="url(#p595df02970)" style="fill: none; stroke: #ffa500; stroke-width: 3; stroke-linecap: square"/>
   </g>
   <g id="legend_1">
    <g id="patch_13">
     <path d="M 144.539453 373.46 
L 353.000547 373.46 
Q 355.600547 373.46 355.600547 370.86 
L 355.600547 276.752187 
Q 355.600547 274.152187 353.000547 274.152187 
L 144.539453 274.152187 
Q 141.939453 274.152187 141.939453 276.752187 
L 141.939453 370.86 
Q 141.939453 373.46 144.539453 373.46 
z
" style="fill: #ffffff; opacity: 0.8; stroke: #cccccc; stroke-linejoin: miter"/>
    </g>
    <g id="line2d_77">
     <path d="M 147.139453 284.680156 
L 160.139453 284.680156 
L 173.139453 284.680156 
" style="fill: none; stroke: #ffa500; stroke-width: 3; stroke-linecap: square"/>
    </g>
    <g id="text_22">
     <!-- TRILEGAL (UBVRIJHK) -->
     <g transform="translate(183.539453 289.230156) scale(0.13 -0.13)">
      <defs>
       <path id="DejaVuSans-54" d="M -19 4666 
L 3928 4666 
L 3928 4134 
L 2272 4134 
L 2272 0 
L 1638 0 
L 1638 4134 
L -19 4134 
L -19 4666 
z
" transform="scale(0.015625)"/>
       <path id="DejaVuSans-49" d="M 628 4666 
L 1259 4666 
L 1259 0 
L 628 0 
L 628 4666 
z
" transform="scale(0.015625)"/>
       <path id="DejaVuSans-4c" d="M 628 4666 
L 1259 4666 
L 1259 531 
L 3531 531 
L 3531 0 
L 628 0 
L 628 4666 
z
" transform="scale(0.015625)"/>
       <path id="DejaVuSans-45" d="M 628 4666 
L 3578 4666 
L 3578 4134 
L 1259 4134 
L 1259 2753 
L 3481 2753 
L 3481 2222 
L 1259 2222 
L 1259 531 
L 3634 531 
L 3634 0 
L 628 0 
L 628 4666 
z
" transform="scale(0.015625)"/>
       <path id="DejaVuSans-47" d="M 3809 666 
L 3809 1919 
L 2778 1919 
L 2778 2438 
L 4434 2438 
L 4434 434 
Q 4069 175 3628 42 
Q 3188 -91 2688 -91 
Q 1594 -91 976 548 
Q 359 1188 359 2328 
Q 359 3472 976 4111 
Q 1594 4750 2688 4750 
Q 3144 4750 3555 4637 
Q 3966 4525 4313 4306 
L 4313 3634 
Q 3963 3931 3569 4081 
Q 3175 4231 2741 4231 
Q 1884 4231 1454 3753 
Q 1025 3275 1025 2328 
Q 1025 1384 1454 906 
Q 1884 428 2741 428 
Q 3075 428 3337 486 
Q 3600 544 3809 666 
z
" transform="scale(0.015625)"/>
       <path id="DejaVuSans-28" d="M 1984 4856 
Q 1566 4138 1362 3434 
Q 1159 2731 1159 2009 
Q 1159 1288 1364 580 
Q 1569 -128 1984 -844 
L 1484 -844 
Q 1016 -109 783 600 
Q 550 1309 550 2009 
Q 550 2706 781 3412 
Q 1013 4119 1484 4856 
L 1984 4856 
z
" transform="scale(0.015625)"/>
       <path id="DejaVuSans-55" d="M 556 4666 
L 1191 4666 
L 1191 1831 
Q 1191 1081 1462 751 
Q 1734 422 2344 422 
Q 2950 422 3222 751 
Q 3494 1081 3494 1831 
L 3494 4666 
L 4128 4666 
L 4128 1753 
Q 4128 841 3676 375 
Q 3225 -91 2344 -91 
Q 1459 -91 1007 375 
Q 556 841 556 1753 
L 556 4666 
z
" transform="scale(0.015625)"/>
       <path id="DejaVuSans-42" d="M 1259 2228 
L 1259 519 
L 2272 519 
Q 2781 519 3026 730 
Q 3272 941 3272 1375 
Q 3272 1813 3026 2020 
Q 2781 2228 2272 2228 
L 1259 2228 
z
M 1259 4147 
L 1259 2741 
L 2194 2741 
Q 2656 2741 2882 2914 
Q 3109 3088 3109 3444 
Q 3109 3797 2882 3972 
Q 2656 4147 2194 4147 
L 1259 4147 
z
M 628 4666 
L 2241 4666 
Q 2963 4666 3353 4366 
Q 3744 4066 3744 3513 
Q 3744 3084 3544 2831 
Q 3344 2578 2956 2516 
Q 3422 2416 3680 2098 
Q 3938 1781 3938 1306 
Q 3938 681 3513 340 
Q 3088 0 2303 0 
L 628 0 
L 628 4666 
z
" transform="scale(0.015625)"/>
       <path id="DejaVuSans-56" d="M 1831 0 
L 50 4666 
L 709 4666 
L 2188 738 
L 3669 4666 
L 4325 4666 
L 2547 0 
L 1831 0 
z
" transform="scale(0.015625)"/>
       <path id="DejaVuSans-4a" d="M 628 4666 
L 1259 4666 
L 1259 325 
Q 1259 -519 939 -900 
Q 619 -1281 -91 -1281 
L -331 -1281 
L -331 -750 
L -134 -750 
Q 284 -750 456 -515 
Q 628 -281 628 325 
L 628 4666 
z
" transform="scale(0.015625)"/>
       <path id="DejaVuSans-48" d="M 628 4666 
L 1259 4666 
L 1259 2753 
L 3553 2753 
L 3553 4666 
L 4184 4666 
L 4184 0 
L 3553 0 
L 3553 2222 
L 1259 2222 
L 1259 0 
L 628 0 
L 628 4666 
z
" transform="scale(0.015625)"/>
       <path id="DejaVuSans-4b" d="M 628 4666 
L 1259 4666 
L 1259 2694 
L 3353 4666 
L 4166 4666 
L 1850 2491 
L 4331 0 
L 3500 0 
L 1259 2247 
L 1259 0 
L 628 0 
L 628 4666 
z
" transform="scale(0.015625)"/>
       <path id="DejaVuSans-29" d="M 513 4856 
L 1013 4856 
Q 1481 4119 1714 3412 
Q 1947 2706 1947 2009 
Q 1947 1309 1714 600 
Q 1481 -109 1013 -844 
L 513 -844 
Q 928 -128 1133 580 
Q 1338 1288 1338 2009 
Q 1338 2731 1133 3434 
Q 928 4138 513 4856 
z
" transform="scale(0.015625)"/>
      </defs>
      <use xlink:href="#DejaVuSans-54"/>
      <use xlink:href="#DejaVuSans-52" transform="translate(61.083984 0)"/>
      <use xlink:href="#DejaVuSans-49" transform="translate(130.566406 0)"/>
      <use xlink:href="#DejaVuSans-4c" transform="translate(160.058594 0)"/>
      <use xlink:href="#DejaVuSans-45" transform="translate(215.771484 0)"/>
      <use xlink:href="#DejaVuSans-47" transform="translate(278.955078 0)"/>
      <use xlink:href="#DejaVuSans-41" transform="translate(356.445312 0)"/>
      <use xlink:href="#DejaVuSans-4c" transform="translate(424.853516 0)"/>
      <use xlink:href="#DejaVuSans-20" transform="translate(480.566406 0)"/>
      <use xlink:href="#DejaVuSans-28" transform="translate(512.353516 0)"/>
      <use xlink:href="#DejaVuSans-55" transform="translate(551.367188 0)"/>
      <use xlink:href="#DejaVuSans-42" transform="translate(624.560547 0)"/>
      <use xlink:href="#DejaVuSans-56" transform="translate(690.039062 0)"/>
      <use xlink:href="#DejaVuSans-52" transform="translate(758.447266 0)"/>
      <use xlink:href="#DejaVuSans-49" transform="translate(827.929688 0)"/>
      <use xlink:href="#DejaVuSans-4a" transform="translate(857.421875 0)"/>
      <use xlink:href="#DejaVuSans-48" transform="translate(886.914062 0)"/>
      <use xlink:href="#DejaVuSans-4b" transform="translate(962.109375 0)"/>
      <use xlink:href="#DejaVuSans-29" transform="translate(1027.685547 0)"/>
     </g>
    </g>
    <g id="line2d_78">
     <path d="M 147.139453 303.761719 
L 160.139453 303.761719 
L 173.139453 303.761719 
" style="fill: none; stroke: #ff0000; stroke-width: 3; stroke-linecap: square"/>
    </g>
    <g id="text_23">
     <!-- TRILEGAL (UBVRIJHKLMN) -->
     <g transform="translate(183.539453 308.311719) scale(0.13 -0.13)">
      <defs>
       <path id="DejaVuSans-4e" d="M 628 4666 
L 1478 4666 
L 3547 763 
L 3547 4666 
L 4159 4666 
L 4159 0 
L 3309 0 
L 1241 3903 
L 1241 0 
L 628 0 
L 628 4666 
z
" transform="scale(0.015625)"/>
      </defs>
      <use xlink:href="#DejaVuSans-54"/>
      <use xlink:href="#DejaVuSans-52" transform="translate(61.083984 0)"/>
      <use xlink:href="#DejaVuSans-49" transform="translate(130.566406 0)"/>
      <use xlink:href="#DejaVuSans-4c" transform="translate(160.058594 0)"/>
      <use xlink:href="#DejaVuSans-45" transform="translate(215.771484 0)"/>
      <use xlink:href="#DejaVuSans-47" transform="translate(278.955078 0)"/>
      <use xlink:href="#DejaVuSans-41" transform="translate(356.445312 0)"/>
      <use xlink:href="#DejaVuSans-4c" transform="translate(424.853516 0)"/>
      <use xlink:href="#DejaVuSans-20" transform="translate(480.566406 0)"/>
      <use xlink:href="#DejaVuSans-28" transform="translate(512.353516 0)"/>
      <use xlink:href="#DejaVuSans-55" transform="translate(551.367188 0)"/>
      <use xlink:href="#DejaVuSans-42" transform="translate(624.560547 0)"/>
      <use xlink:href="#DejaVuSans-56" transform="translate(690.039062 0)"/>
      <use xlink:href="#DejaVuSans-52" transform="translate(758.447266 0)"/>
      <use xlink:href="#DejaVuSans-49" transform="translate(827.929688 0)"/>
      <use xlink:href="#DejaVuSans-4a" transform="translate(857.421875 0)"/>
      <use xlink:href="#DejaVuSans-48" transform="translate(886.914062 0)"/>
      <use xlink:href="#DejaVuSans-4b" transform="translate(962.109375 0)"/>
      <use xlink:href="#DejaVuSans-4c" transform="translate(1027.685547 0)"/>
      <use xlink:href="#DejaVuSans-4d" transform="translate(1083.398438 0)"/>
      <use xlink:href="#DejaVuSans-4e" transform="translate(1169.677734 0)"/>
      <use xlink:href="#DejaVuSans-29" transform="translate(1244.482422 0)"/>
     </g>
    </g>
    <g id="line2d_79">
     <path d="M 147.139453 322.843281 
L 160.139453 322.843281 
L 173.139453 322.843281 
" style="fill: none; stroke: #0000ff; stroke-width: 3; stroke-linecap: square"/>
    </g>
    <g id="text_24">
     <!-- Besancon (UBVRIJHKL) -->
     <g transform="translate(183.539453 327.393281) scale(0.13 -0.13)">
      <defs>
       <path id="DejaVuSans-63" d="M 3122 3366 
L 3122 2828 
Q 2878 2963 2633 3030 
Q 2388 3097 2138 3097 
Q 1578 3097 1268 2742 
Q 959 2388 959 1747 
Q 959 1106 1268 751 
Q 1578 397 2138 397 
Q 2388 397 2633 464 
Q 2878 531 3122 666 
L 3122 134 
Q 2881 22 2623 -34 
Q 2366 -91 2075 -91 
Q 1284 -91 818 406 
Q 353 903 353 1747 
Q 353 2603 823 3093 
Q 1294 3584 2113 3584 
Q 2378 3584 2631 3529 
Q 2884 3475 3122 3366 
z
" transform="scale(0.015625)"/>
      </defs>
      <use xlink:href="#DejaVuSans-42"/>
      <use xlink:href="#DejaVuSans-65" transform="translate(68.603516 0)"/>
      <use xlink:href="#DejaVuSans-73" transform="translate(130.126953 0)"/>
      <use xlink:href="#DejaVuSans-61" transform="translate(182.226562 0)"/>
      <use xlink:href="#DejaVuSans-6e" transform="translate(243.505859 0)"/>
      <use xlink:href="#DejaVuSans-63" transform="translate(306.884766 0)"/>
      <use xlink:href="#DejaVuSans-6f" transform="translate(361.865234 0)"/>
      <use xlink:href="#DejaVuSans-6e" transform="translate(423.046875 0)"/>
      <use xlink:href="#DejaVuSans-20" transform="translate(486.425781 0)"/>
      <use xlink:href="#DejaVuSans-28" transform="translate(518.212891 0)"/>
      <use xlink:href="#DejaVuSans-55" transform="translate(557.226562 0)"/>
      <use xlink:href="#DejaVuSans-42" transform="translate(630.419922 0)"/>
      <use xlink:href="#DejaVuSans-56" transform="translate(695.898438 0)"/>
      <use xlink:href="#DejaVuSans-52" transform="translate(764.306641 0)"/>
      <use xlink:href="#DejaVuSans-49" transform="translate(833.789062 0)"/>
      <use xlink:href="#DejaVuSans-4a" transform="translate(863.28125 0)"/>
      <use xlink:href="#DejaVuSans-48" transform="translate(892.773438 0)"/>
      <use xlink:href="#DejaVuSans-4b" transform="translate(967.96875 0)"/>
      <use xlink:href="#DejaVuSans-4c" transform="translate(1033.544922 0)"/>
      <use xlink:href="#DejaVuSans-29" transform="translate(1089.257812 0)"/>
     </g>
    </g>
    <g id="line2d_80">
     <path d="M 147.139453 341.924844 
L 160.139453 341.924844 
L 173.139453 341.924844 
" style="fill: none; stroke: #008000; stroke-width: 3; stroke-linecap: square"/>
    </g>
    <g id="text_25">
     <!-- GalMod (UBVRIJHK) -->
     <g transform="translate(183.539453 346.474844) scale(0.13 -0.13)">
      <defs>
       <path id="DejaVuSans-6c" d="M 603 4863 
L 1178 4863 
L 1178 0 
L 603 0 
L 603 4863 
z
" transform="scale(0.015625)"/>
      </defs>
      <use xlink:href="#DejaVuSans-47"/>
      <use xlink:href="#DejaVuSans-61" transform="translate(77.490234 0)"/>
      <use xlink:href="#DejaVuSans-6c" transform="translate(138.769531 0)"/>
      <use xlink:href="#DejaVuSans-4d" transform="translate(166.552734 0)"/>
      <use xlink:href="#DejaVuSans-6f" transform="translate(252.832031 0)"/>
      <use xlink:href="#DejaVuSans-64" transform="translate(314.013672 0)"/>
      <use xlink:href="#DejaVuSans-20" transform="translate(377.490234 0)"/>
      <use xlink:href="#DejaVuSans-28" transform="translate(409.277344 0)"/>
      <use xlink:href="#DejaVuSans-55" transform="translate(448.291016 0)"/>
      <use xlink:href="#DejaVuSans-42" transform="translate(521.484375 0)"/>
      <use xlink:href="#DejaVuSans-56" transform="translate(586.962891 0)"/>
      <use xlink:href="#DejaVuSans-52" transform="translate(655.371094 0)"/>
      <use xlink:href="#DejaVuSans-49" transform="translate(724.853516 0)"/>
      <use xlink:href="#DejaVuSans-4a" transform="translate(754.345703 0)"/>
      <use xlink:href="#DejaVuSans-48" transform="translate(783.837891 0)"/>
      <use xlink:href="#DejaVuSans-4b" transform="translate(859.033203 0)"/>
      <use xlink:href="#DejaVuSans-29" transform="translate(924.609375 0)"/>
     </g>
    </g>
    <g id="LineCollection_1">
     <path d="M 160.139453 367.506406 
L 160.139453 354.506406 
" style="fill: none; stroke: #000000; stroke-width: 2"/>
    </g>
    <g id="line2d_81">
     <defs>
      <path id="m6327e3c287" d="M 2 0 
L -2 -0 
" style="stroke: #000000"/>
     </defs>
     <g>
      <use xlink:href="#m6327e3c287" x="160.139453" y="367.506406" style="stroke: #000000"/>
     </g>
    </g>
    <g id="line2d_82">
     <g>
      <use xlink:href="#m6327e3c287" x="160.139453" y="354.506406" style="stroke: #000000"/>
     </g>
    </g>
    <g id="line2d_83"/>
    <g id="line2d_84">
     <defs>
      <path id="m21f29b31f7" d="M 0 3 
C 0.795609 3 1.55874 2.683901 2.12132 2.12132 
C 2.683901 1.55874 3 0.795609 3 0 
C 3 -0.795609 2.683901 -1.55874 2.12132 -2.12132 
C 1.55874 -2.683901 0.795609 -3 0 -3 
C -0.795609 -3 -1.55874 -2.683901 -2.12132 -2.12132 
C -2.683901 -1.55874 -3 -0.795609 -3 0 
C -3 0.795609 -2.683901 1.55874 -2.12132 2.12132 
C -1.55874 2.683901 -0.795609 3 0 3 
z
" style="stroke: #000000"/>
     </defs>
     <g>
      <use xlink:href="#m21f29b31f7" x="160.139453" y="361.006406" style="stroke: #000000"/>
     </g>
    </g>
    <g id="text_26">
     <!-- LOCOS -->
     <g transform="translate(183.539453 365.556406) scale(0.13 -0.13)">
      <defs>
       <path id="DejaVuSans-4f" d="M 2522 4238 
Q 1834 4238 1429 3725 
Q 1025 3213 1025 2328 
Q 1025 1447 1429 934 
Q 1834 422 2522 422 
Q 3209 422 3611 934 
Q 4013 1447 4013 2328 
Q 4013 3213 3611 3725 
Q 3209 4238 2522 4238 
z
M 2522 4750 
Q 3503 4750 4090 4092 
Q 4678 3434 4678 2328 
Q 4678 1225 4090 567 
Q 3503 -91 2522 -91 
Q 1538 -91 948 565 
Q 359 1222 359 2328 
Q 359 3434 948 4092 
Q 1538 4750 2522 4750 
z
" transform="scale(0.015625)"/>
       <path id="DejaVuSans-53" d="M 3425 4513 
L 3425 3897 
Q 3066 4069 2747 4153 
Q 2428 4238 2131 4238 
Q 1616 4238 1336 4038 
Q 1056 3838 1056 3469 
Q 1056 3159 1242 3001 
Q 1428 2844 1947 2747 
L 2328 2669 
Q 3034 2534 3370 2195 
Q 3706 1856 3706 1288 
Q 3706 609 3251 259 
Q 2797 -91 1919 -91 
Q 1588 -91 1214 -16 
Q 841 59 441 206 
L 441 856 
Q 825 641 1194 531 
Q 1563 422 1919 422 
Q 2459 422 2753 634 
Q 3047 847 3047 1241 
Q 3047 1584 2836 1778 
Q 2625 1972 2144 2069 
L 1759 2144 
Q 1053 2284 737 2584 
Q 422 2884 422 3419 
Q 422 4038 858 4394 
Q 1294 4750 2059 4750 
Q 2388 4750 2728 4690 
Q 3069 4631 3425 4513 
z
" transform="scale(0.015625)"/>
      </defs>
      <use xlink:href="#DejaVuSans-4c"/>
      <use xlink:href="#DejaVuSans-4f" transform="translate(52.087891 0)"/>
      <use xlink:href="#DejaVuSans-43" transform="translate(130.798828 0)"/>
      <use xlink:href="#DejaVuSans-4f" transform="translate(200.623047 0)"/>
      <use xlink:href="#DejaVuSans-53" transform="translate(279.333984 0)"/>
     </g>
    </g>
   </g>
   <g id="LineCollection_2">
    <path d="M 92.081364 280.450063 
L 92.081364 259.60976 
" clip-path="url(#p595df02970)" style="fill: none; stroke: #000000; stroke-width: 2"/>
    <path d="M 107.004091 215.07194 
L 107.004091 206.187805 
" clip-path="url(#p595df02970)" style="fill: none; stroke: #000000; stroke-width: 2"/>
    <path d="M 121.926818 195.338343 
L 121.926818 188.536318 
" clip-path="url(#p595df02970)" style="fill: none; stroke: #000000; stroke-width: 2"/>
    <path d="M 136.849545 179.204602 
L 136.849545 173.749638 
" clip-path="url(#p595df02970)" style="fill: none; stroke: #000000; stroke-width: 2"/>
    <path d="M 151.772273 172.226837 
L 151.772273 167.271247 
" clip-path="url(#p595df02970)" style="fill: none; stroke: #000000; stroke-width: 2"/>
    <path d="M 166.695 163.020226 
L 166.695 158.656258 
" clip-path="url(#p595df02970)" style="fill: none; stroke: #000000; stroke-width: 2"/>
    <path d="M 181.617727 156.868703 
L 181.617727 152.861193 
" clip-path="url(#p595df02970)" style="fill: none; stroke: #000000; stroke-width: 2"/>
    <path d="M 196.540455 152.447509 
L 196.540455 148.678522 
" clip-path="url(#p595df02970)" style="fill: none; stroke: #000000; stroke-width: 2"/>
    <path d="M 211.463182 145.314827 
L 211.463182 141.901766 
" clip-path="url(#p595df02970)" style="fill: none; stroke: #000000; stroke-width: 2"/>
    <path d="M 226.385909 137.419274 
L 226.385909 134.361952 
" clip-path="url(#p595df02970)" style="fill: none; stroke: #000000; stroke-width: 2"/>
    <path d="M 241.308636 144.892215 
L 241.308636 141.49918 
" clip-path="url(#p595df02970)" style="fill: none; stroke: #000000; stroke-width: 2"/>
    <path d="M 256.231364 145.399956 
L 256.231364 141.982848 
" clip-path="url(#p595df02970)" style="fill: none; stroke: #000000; stroke-width: 2"/>
    <path d="M 271.154091 158.803455 
L 271.154091 154.687 
" clip-path="url(#p595df02970)" style="fill: none; stroke: #000000; stroke-width: 2"/>
    <path d="M 286.076818 165.034614 
L 286.076818 160.547361 
" clip-path="url(#p595df02970)" style="fill: none; stroke: #000000; stroke-width: 2"/>
    <path d="M 300.999545 172.958689 
L 300.999545 167.952872 
" clip-path="url(#p595df02970)" style="fill: none; stroke: #000000; stroke-width: 2"/>
    <path d="M 315.922273 179.425439 
L 315.922273 173.953903 
" clip-path="url(#p595df02970)" style="fill: none; stroke: #000000; stroke-width: 2"/>
    <path d="M 330.845 184.664348 
L 330.845 178.785137 
" clip-path="url(#p595df02970)" style="fill: none; stroke: #000000; stroke-width: 2"/>
    <path d="M 345.767727 216.285647 
L 345.767727 207.255456 
" clip-path="url(#p595df02970)" style="fill: none; stroke: #000000; stroke-width: 2"/>
    <path d="M 360.690455 319.996452 
L 360.690455 286.243798 
" clip-path="url(#p595df02970)" style="fill: none; stroke: #000000; stroke-width: 2"/>
    <path d="M 375.613182 433 
L 375.613182 331.342 
" clip-path="url(#p595df02970)" style="fill: none; stroke: #000000; stroke-width: 2"/>
    <path d="M 390.535909 433 
L 390.535909 331.342 
" clip-path="url(#p595df02970)" style="fill: none; stroke: #000000; stroke-width: 2"/>
    <path clip-path="url(#p595df02970)" style="fill: none; stroke: #000000; stroke-width: 2"/>
   </g>
   <g id="line2d_85">
    <g clip-path="url(#p595df02970)">
     <use xlink:href="#m6327e3c287" x="92.081364" y="280.450063" style="stroke: #000000"/>
     <use xlink:href="#m6327e3c287" x="107.004091" y="215.07194" style="stroke: #000000"/>
     <use xlink:href="#m6327e3c287" x="121.926818" y="195.338343" style="stroke: #000000"/>
     <use xlink:href="#m6327e3c287" x="136.849545" y="179.204602" style="stroke: #000000"/>
     <use xlink:href="#m6327e3c287" x="151.772273" y="172.226837" style="stroke: #000000"/>
     <use xlink:href="#m6327e3c287" x="166.695" y="163.020226" style="stroke: #000000"/>
     <use xlink:href="#m6327e3c287" x="181.617727" y="156.868703" style="stroke: #000000"/>
     <use xlink:href="#m6327e3c287" x="196.540455" y="152.447509" style="stroke: #000000"/>
     <use xlink:href="#m6327e3c287" x="211.463182" y="145.314827" style="stroke: #000000"/>
     <use xlink:href="#m6327e3c287" x="226.385909" y="137.419274" style="stroke: #000000"/>
     <use xlink:href="#m6327e3c287" x="241.308636" y="144.892215" style="stroke: #000000"/>
     <use xlink:href="#m6327e3c287" x="256.231364" y="145.399956" style="stroke: #000000"/>
     <use xlink:href="#m6327e3c287" x="271.154091" y="158.803455" style="stroke: #000000"/>
     <use xlink:href="#m6327e3c287" x="286.076818" y="165.034614" style="stroke: #000000"/>
     <use xlink:href="#m6327e3c287" x="300.999545" y="172.958689" style="stroke: #000000"/>
     <use xlink:href="#m6327e3c287" x="315.922273" y="179.425439" style="stroke: #000000"/>
     <use xlink:href="#m6327e3c287" x="330.845" y="184.664348" style="stroke: #000000"/>
     <use xlink:href="#m6327e3c287" x="345.767727" y="216.285647" style="stroke: #000000"/>
     <use xlink:href="#m6327e3c287" x="360.690455" y="319.996452" style="stroke: #000000"/>
     <use xlink:href="#m6327e3c287" x="366.376867" y="31105" style="stroke: #000000"/>
    </g>
   </g>
   <g id="line2d_86">
    <g clip-path="url(#p595df02970)">
     <use xlink:href="#m6327e3c287" x="92.081364" y="259.60976" style="stroke: #000000"/>
     <use xlink:href="#m6327e3c287" x="107.004091" y="206.187805" style="stroke: #000000"/>
     <use xlink:href="#m6327e3c287" x="121.926818" y="188.536318" style="stroke: #000000"/>
     <use xlink:href="#m6327e3c287" x="136.849545" y="173.749638" style="stroke: #000000"/>
     <use xlink:href="#m6327e3c287" x="151.772273" y="167.271247" style="stroke: #000000"/>
     <use xlink:href="#m6327e3c287" x="166.695" y="158.656258" style="stroke: #000000"/>
     <use xlink:href="#m6327e3c287" x="181.617727" y="152.861193" style="stroke: #000000"/>
     <use xlink:href="#m6327e3c287" x="196.540455" y="148.678522" style="stroke: #000000"/>
     <use xlink:href="#m6327e3c287" x="211.463182" y="141.901766" style="stroke: #000000"/>
     <use xlink:href="#m6327e3c287" x="226.385909" y="134.361952" style="stroke: #000000"/>
     <use xlink:href="#m6327e3c287" x="241.308636" y="141.49918" style="stroke: #000000"/>
     <use xlink:href="#m6327e3c287" x="256.231364" y="141.982848" style="stroke: #000000"/>
     <use xlink:href="#m6327e3c287" x="271.154091" y="154.687" style="stroke: #000000"/>
     <use xlink:href="#m6327e3c287" x="286.076818" y="160.547361" style="stroke: #000000"/>
     <use xlink:href="#m6327e3c287" x="300.999545" y="167.952872" style="stroke: #000000"/>
     <use xlink:href="#m6327e3c287" x="315.922273" y="173.953903" style="stroke: #000000"/>
     <use xlink:href="#m6327e3c287" x="330.845" y="178.785137" style="stroke: #000000"/>
     <use xlink:href="#m6327e3c287" x="345.767727" y="207.255456" style="stroke: #000000"/>
     <use xlink:href="#m6327e3c287" x="360.690455" y="286.243798" style="stroke: #000000"/>
     <use xlink:href="#m6327e3c287" x="375.613182" y="331.342" style="stroke: #000000"/>
     <use xlink:href="#m6327e3c287" x="390.535909" y="331.342" style="stroke: #000000"/>
     <use xlink:href="#m6327e3c287" x="396.221025" y="31105" style="stroke: #000000"/>
    </g>
   </g>
   <g id="line2d_87">
    <g clip-path="url(#p595df02970)">
     <use xlink:href="#m21f29b31f7" x="92.081364" y="268.504147" style="stroke: #000000"/>
     <use xlink:href="#m21f29b31f7" x="107.004091" y="210.349302" style="stroke: #000000"/>
     <use xlink:href="#m21f29b31f7" x="121.926818" y="191.772679" style="stroke: #000000"/>
     <use xlink:href="#m21f29b31f7" x="136.849545" y="176.371167" style="stroke: #000000"/>
     <use xlink:href="#m21f29b31f7" x="151.772273" y="169.661585" style="stroke: #000000"/>
     <use xlink:href="#m21f29b31f7" x="166.695" y="160.770407" style="stroke: #000000"/>
     <use xlink:href="#m21f29b31f7" x="181.617727" y="154.807737" style="stroke: #000000"/>
     <use xlink:href="#m21f29b31f7" x="196.540455" y="150.512409" style="stroke: #000000"/>
     <use xlink:href="#m21f29b31f7" x="211.463182" y="143.566793" style="stroke: #000000"/>
     <use xlink:href="#m21f29b31f7" x="226.385909" y="135.857308" style="stroke: #000000"/>
     <use xlink:href="#m21f29b31f7" x="241.308636" y="143.154679" style="stroke: #000000"/>
     <use xlink:href="#m21f29b31f7" x="256.231364" y="143.6498" style="stroke: #000000"/>
     <use xlink:href="#m21f29b31f7" x="271.154091" y="156.684865" style="stroke: #000000"/>
     <use xlink:href="#m21f29b31f7" x="286.076818" y="162.719268" style="stroke: #000000"/>
     <use xlink:href="#m21f29b31f7" x="300.999545" y="170.366542" style="stroke: #000000"/>
     <use xlink:href="#m21f29b31f7" x="315.922273" y="176.583073" style="stroke: #000000"/>
     <use xlink:href="#m21f29b31f7" x="330.845" y="181.601688" style="stroke: #000000"/>
     <use xlink:href="#m21f29b31f7" x="345.767727" y="211.480706" style="stroke: #000000"/>
     <use xlink:href="#m21f29b31f7" x="360.690455" y="299.20725" style="stroke: #000000"/>
     <use xlink:href="#m21f29b31f7" x="375.613182" y="355.651" style="stroke: #000000"/>
     <use xlink:href="#m21f29b31f7" x="390.535909" y="355.651" style="stroke: #000000"/>
     <use xlink:href="#m21f29b31f7" x="396.218244" y="31105" style="stroke: #000000"/>
    </g>
   </g>
  </g>
 </g>
 <defs>
  <clipPath id="p595df02970">
   <rect x="84.62" y="32.64" width="328.3" height="347.32"/>
  </clipPath>
 </defs>
</svg>
