<?xml version="1.0" encoding="utf-8" standalone="no"?>
<!DOCTYPE svg PUBLIC "-//W3C//DTD SVG 1.1//EN"
  "http://www.w3.org/Graphics/SVG/1.1/DTD/svg11.dtd">
<svg xmlns:xlink="http://www.w3.org/1999/xlink" width="432pt" height="432pt" viewBox="0 0 432 432" xmlns="http://www.w3.org/2000/svg" version="1.1">
 <metadata>
  <rdf:RDF xmlns:dc="http://purl.org/dc/elements/1.1/" xmlns:cc="http://creativecommons.org/ns#" xmlns:rdf="http://www.w3.org/1999/02/22-rdf-syntax-ns#">
   <cc:Work>
    <dc:type rdf:resource="http://purl.org/dc/dcmitype/StillImage"/>
    <dc:date>2025-08-26T02:40:40.296912</dc:date>
    <dc:format>image/svg+xml</dc:format>
    <dc:creator>
     <cc:Agent>
      <dc:title>Matplotlib v3.10.0, https://matplotlib.org/</dc:title>
     </cc:Agent>
    </dc:creator>
   </cc:Work>
  </rdf:RDF>
 </metadata>
 <defs>
  <style type="text/css">*{stroke-linejoin: round; stroke-linecap: butt}</style>
 </defs>
 <g id="figure_1">
  <g id="patch_1">
   <path d="M 0 432 
L 432 432 
L 432 0 
L 0 0 
z
" style="fill: #ffffff"/>
  </g>
  <g id="axes_1">
   <g id="patch_2">
    <path d="M 92.9 379.96 
L 412.92 379.96 
L 412.92 32.64 
L 92.9 32.64 
z
" style="fill: #ffffff"/>
   </g>
   <g id="line2d_1">
    <path d="M 311.386382 379.96 
L 311.386382 32.64 
" clip-path="url(#p94ea19960a)" style="fill: none; stroke-dasharray: 5.55,2.4; stroke-dashoffset: 0; stroke: #ff0000; stroke-opacity: 0.75; stroke-width: 1.5"/>
   </g>
   <g id="line2d_2">
    <path d="M 100.173182 74.589083 
L 114.719545 70.332128 
L 129.265909 66.561432 
L 143.812273 62.751927 
L 158.358636 59.349378 
L 172.905 56.151224 
L 187.451364 53.089651 
L 201.997727 50.531869 
L 216.544091 49.154014 
L 231.090455 48.738532 
L 245.636818 49.960282 
L 260.183182 53.046334 
L 274.729545 58.742084 
L 289.275909 65.653744 
L 303.822273 74.291536 
L 318.368636 83.887913 
L 332.915 94.89213 
L 347.461364 107.268714 
L 362.007727 123.080435 
L 376.554091 145.645533 
L 391.100455 199.172971 
L 391.151622 433 
" clip-path="url(#p94ea19960a)" style="fill: none; stroke: #008000; stroke-width: 3; stroke-linecap: square"/>
   </g>
   <g id="matplotlib.axis_1">
    <g id="xtick_1">
     <g id="line2d_3">
      <path d="M 92.9 379.96 
L 92.9 32.64 
" clip-path="url(#p94ea19960a)" style="fill: none; stroke: #b0b0b0; stroke-opacity: 0.5; stroke-width: 0.8; stroke-linecap: square"/>
     </g>
     <g id="line2d_4">
      <defs>
       <path id="mcf373ea33b" d="M 0 0 
L 0 3.5 
" style="stroke: #000000; stroke-width: 0.8"/>
      </defs>
      <g>
       <use xlink:href="#mcf373ea33b" x="92.9" y="379.96" style="stroke: #000000; stroke-width: 0.8"/>
      </g>
     </g>
     <g id="text_1">
      <!-- 14 -->
      <g transform="translate(84.62875 396.837969) scale(0.13 -0.13)">
       <defs>
        <path id="DejaVuSans-31" d="M 794 531 
L 1825 531 
L 1825 4091 
L 703 3866 
L 703 4441 
L 1819 4666 
L 2450 4666 
L 2450 531 
L 3481 531 
L 3481 0 
L 794 0 
L 794 531 
z
" transform="scale(0.015625)"/>
        <path id="DejaVuSans-34" d="M 2419 4116 
L 825 1625 
L 2419 1625 
L 2419 4116 
z
M 2253 4666 
L 3047 4666 
L 3047 1625 
L 3713 1625 
L 3713 1100 
L 3047 1100 
L 3047 0 
L 2419 0 
L 2419 1100 
L 313 1100 
L 313 1709 
L 2253 4666 
z
" transform="scale(0.015625)"/>
       </defs>
       <use xlink:href="#DejaVuSans-31"/>
       <use xlink:href="#DejaVuSans-34" transform="translate(63.623047 0)"/>
      </g>
     </g>
    </g>
    <g id="xtick_2">
     <g id="line2d_5">
      <path d="M 121.992727 379.96 
L 121.992727 32.64 
" clip-path="url(#p94ea19960a)" style="fill: none; stroke: #b0b0b0; stroke-opacity: 0.5; stroke-width: 0.8; stroke-linecap: square"/>
     </g>
     <g id="line2d_6">
      <g>
       <use xlink:href="#mcf373ea33b" x="121.992727" y="379.96" style="stroke: #000000; stroke-width: 0.8"/>
      </g>
     </g>
     <g id="text_2">
      <!-- 15 -->
      <g transform="translate(113.721477 396.837969) scale(0.13 -0.13)">
       <defs>
        <path id="DejaVuSans-35" d="M 691 4666 
L 3169 4666 
L 3169 4134 
L 1269 4134 
L 1269 2991 
Q 1406 3038 1543 3061 
Q 1681 3084 1819 3084 
Q 2600 3084 3056 2656 
Q 3513 2228 3513 1497 
Q 3513 744 3044 326 
Q 2575 -91 1722 -91 
Q 1428 -91 1123 -41 
Q 819 9 494 109 
L 494 744 
Q 775 591 1075 516 
Q 1375 441 1709 441 
Q 2250 441 2565 725 
Q 2881 1009 2881 1497 
Q 2881 1984 2565 2268 
Q 2250 2553 1709 2553 
Q 1456 2553 1204 2497 
Q 953 2441 691 2322 
L 691 4666 
z
" transform="scale(0.015625)"/>
       </defs>
       <use xlink:href="#DejaVuSans-31"/>
       <use xlink:href="#DejaVuSans-35" transform="translate(63.623047 0)"/>
      </g>
     </g>
    </g>
    <g id="xtick_3">
     <g id="line2d_7">
      <path d="M 151.085455 379.96 
L 151.085455 32.64 
" clip-path="url(#p94ea19960a)" style="fill: none; stroke: #b0b0b0; stroke-opacity: 0.5; stroke-width: 0.8; stroke-linecap: square"/>
     </g>
     <g id="line2d_8">
      <g>
       <use xlink:href="#mcf373ea33b" x="151.085455" y="379.96" style="stroke: #000000; stroke-width: 0.8"/>
      </g>
     </g>
     <g id="text_3">
      <!-- 16 -->
      <g transform="translate(142.814205 396.837969) scale(0.13 -0.13)">
       <defs>
        <path id="DejaVuSans-36" d="M 2113 2584 
Q 1688 2584 1439 2293 
Q 1191 2003 1191 1497 
Q 1191 994 1439 701 
Q 1688 409 2113 409 
Q 2538 409 2786 701 
Q 3034 994 3034 1497 
Q 3034 2003 2786 2293 
Q 2538 2584 2113 2584 
z
M 3366 4563 
L 3366 3988 
Q 3128 4100 2886 4159 
Q 2644 4219 2406 4219 
Q 1781 4219 1451 3797 
Q 1122 3375 1075 2522 
Q 1259 2794 1537 2939 
Q 1816 3084 2150 3084 
Q 2853 3084 3261 2657 
Q 3669 2231 3669 1497 
Q 3669 778 3244 343 
Q 2819 -91 2113 -91 
Q 1303 -91 875 529 
Q 447 1150 447 2328 
Q 447 3434 972 4092 
Q 1497 4750 2381 4750 
Q 2619 4750 2861 4703 
Q 3103 4656 3366 4563 
z
" transform="scale(0.015625)"/>
       </defs>
       <use xlink:href="#DejaVuSans-31"/>
       <use xlink:href="#DejaVuSans-36" transform="translate(63.623047 0)"/>
      </g>
     </g>
    </g>
    <g id="xtick_4">
     <g id="line2d_9">
      <path d="M 180.178182 379.96 
L 180.178182 32.64 
" clip-path="url(#p94ea19960a)" style="fill: none; stroke: #b0b0b0; stroke-opacity: 0.5; stroke-width: 0.8; stroke-linecap: square"/>
     </g>
     <g id="line2d_10">
      <g>
       <use xlink:href="#mcf373ea33b" x="180.178182" y="379.96" style="stroke: #000000; stroke-width: 0.8"/>
      </g>
     </g>
     <g id="text_4">
      <!-- 17 -->
      <g transform="translate(171.906932 396.837969) scale(0.13 -0.13)">
       <defs>
        <path id="DejaVuSans-37" d="M 525 4666 
L 3525 4666 
L 3525 4397 
L 1831 0 
L 1172 0 
L 2766 4134 
L 525 4134 
L 525 4666 
z
" transform="scale(0.015625)"/>
       </defs>
       <use xlink:href="#DejaVuSans-31"/>
       <use xlink:href="#DejaVuSans-37" transform="translate(63.623047 0)"/>
      </g>
     </g>
    </g>
    <g id="xtick_5">
     <g id="line2d_11">
      <path d="M 209.270909 379.96 
L 209.270909 32.64 
" clip-path="url(#p94ea19960a)" style="fill: none; stroke: #b0b0b0; stroke-opacity: 0.5; stroke-width: 0.8; stroke-linecap: square"/>
     </g>
     <g id="line2d_12">
      <g>
       <use xlink:href="#mcf373ea33b" x="209.270909" y="379.96" style="stroke: #000000; stroke-width: 0.8"/>
      </g>
     </g>
     <g id="text_5">
      <!-- 18 -->
      <g transform="translate(200.999659 396.837969) scale(0.13 -0.13)">
       <defs>
        <path id="DejaVuSans-38" d="M 2034 2216 
Q 1584 2216 1326 1975 
Q 1069 1734 1069 1313 
Q 1069 891 1326 650 
Q 1584 409 2034 409 
Q 2484 409 2743 651 
Q 3003 894 3003 1313 
Q 3003 1734 2745 1975 
Q 2488 2216 2034 2216 
z
M 1403 2484 
Q 997 2584 770 2862 
Q 544 3141 544 3541 
Q 544 4100 942 4425 
Q 1341 4750 2034 4750 
Q 2731 4750 3128 4425 
Q 3525 4100 3525 3541 
Q 3525 3141 3298 2862 
Q 3072 2584 2669 2484 
Q 3125 2378 3379 2068 
Q 3634 1759 3634 1313 
Q 3634 634 3220 271 
Q 2806 -91 2034 -91 
Q 1263 -91 848 271 
Q 434 634 434 1313 
Q 434 1759 690 2068 
Q 947 2378 1403 2484 
z
M 1172 3481 
Q 1172 3119 1398 2916 
Q 1625 2713 2034 2713 
Q 2441 2713 2670 2916 
Q 2900 3119 2900 3481 
Q 2900 3844 2670 4047 
Q 2441 4250 2034 4250 
Q 1625 4250 1398 4047 
Q 1172 3844 1172 3481 
z
" transform="scale(0.015625)"/>
       </defs>
       <use xlink:href="#DejaVuSans-31"/>
       <use xlink:href="#DejaVuSans-38" transform="translate(63.623047 0)"/>
      </g>
     </g>
    </g>
    <g id="xtick_6">
     <g id="line2d_13">
      <path d="M 238.363636 379.96 
L 238.363636 32.64 
" clip-path="url(#p94ea19960a)" style="fill: none; stroke: #b0b0b0; stroke-opacity: 0.5; stroke-width: 0.8; stroke-linecap: square"/>
     </g>
     <g id="line2d_14">
      <g>
       <use xlink:href="#mcf373ea33b" x="238.363636" y="379.96" style="stroke: #000000; stroke-width: 0.8"/>
      </g>
     </g>
     <g id="text_6">
      <!-- 19 -->
      <g transform="translate(230.092386 396.837969) scale(0.13 -0.13)">
       <defs>
        <path id="DejaVuSans-39" d="M 703 97 
L 703 672 
Q 941 559 1184 500 
Q 1428 441 1663 441 
Q 2288 441 2617 861 
Q 2947 1281 2994 2138 
Q 2813 1869 2534 1725 
Q 2256 1581 1919 1581 
Q 1219 1581 811 2004 
Q 403 2428 403 3163 
Q 403 3881 828 4315 
Q 1253 4750 1959 4750 
Q 2769 4750 3195 4129 
Q 3622 3509 3622 2328 
Q 3622 1225 3098 567 
Q 2575 -91 1691 -91 
Q 1453 -91 1209 -44 
Q 966 3 703 97 
z
M 1959 2075 
Q 2384 2075 2632 2365 
Q 2881 2656 2881 3163 
Q 2881 3666 2632 3958 
Q 2384 4250 1959 4250 
Q 1534 4250 1286 3958 
Q 1038 3666 1038 3163 
Q 1038 2656 1286 2365 
Q 1534 2075 1959 2075 
z
" transform="scale(0.015625)"/>
       </defs>
       <use xlink:href="#DejaVuSans-31"/>
       <use xlink:href="#DejaVuSans-39" transform="translate(63.623047 0)"/>
      </g>
     </g>
    </g>
    <g id="xtick_7">
     <g id="line2d_15">
      <path d="M 267.456364 379.96 
L 267.456364 32.64 
" clip-path="url(#p94ea19960a)" style="fill: none; stroke: #b0b0b0; stroke-opacity: 0.5; stroke-width: 0.8; stroke-linecap: square"/>
     </g>
     <g id="line2d_16">
      <g>
       <use xlink:href="#mcf373ea33b" x="267.456364" y="379.96" style="stroke: #000000; stroke-width: 0.8"/>
      </g>
     </g>
     <g id="text_7">
      <!-- 20 -->
      <g transform="translate(259.185114 396.837969) scale(0.13 -0.13)">
       <defs>
        <path id="DejaVuSans-32" d="M 1228 531 
L 3431 531 
L 3431 0 
L 469 0 
L 469 531 
Q 828 903 1448 1529 
Q 2069 2156 2228 2338 
Q 2531 2678 2651 2914 
Q 2772 3150 2772 3378 
Q 2772 3750 2511 3984 
Q 2250 4219 1831 4219 
Q 1534 4219 1204 4116 
Q 875 4013 500 3803 
L 500 4441 
Q 881 4594 1212 4672 
Q 1544 4750 1819 4750 
Q 2544 4750 2975 4387 
Q 3406 4025 3406 3419 
Q 3406 3131 3298 2873 
Q 3191 2616 2906 2266 
Q 2828 2175 2409 1742 
Q 1991 1309 1228 531 
z
" transform="scale(0.015625)"/>
        <path id="DejaVuSans-30" d="M 2034 4250 
Q 1547 4250 1301 3770 
Q 1056 3291 1056 2328 
Q 1056 1369 1301 889 
Q 1547 409 2034 409 
Q 2525 409 2770 889 
Q 3016 1369 3016 2328 
Q 3016 3291 2770 3770 
Q 2525 4250 2034 4250 
z
M 2034 4750 
Q 2819 4750 3233 4129 
Q 3647 3509 3647 2328 
Q 3647 1150 3233 529 
Q 2819 -91 2034 -91 
Q 1250 -91 836 529 
Q 422 1150 422 2328 
Q 422 3509 836 4129 
Q 1250 4750 2034 4750 
z
" transform="scale(0.015625)"/>
       </defs>
       <use xlink:href="#DejaVuSans-32"/>
       <use xlink:href="#DejaVuSans-30" transform="translate(63.623047 0)"/>
      </g>
     </g>
    </g>
    <g id="xtick_8">
     <g id="line2d_17">
      <path d="M 296.549091 379.96 
L 296.549091 32.64 
" clip-path="url(#p94ea19960a)" style="fill: none; stroke: #b0b0b0; stroke-opacity: 0.5; stroke-width: 0.8; stroke-linecap: square"/>
     </g>
     <g id="line2d_18">
      <g>
       <use xlink:href="#mcf373ea33b" x="296.549091" y="379.96" style="stroke: #000000; stroke-width: 0.8"/>
      </g>
     </g>
     <g id="text_8">
      <!-- 21 -->
      <g transform="translate(288.277841 396.837969) scale(0.13 -0.13)">
       <use xlink:href="#DejaVuSans-32"/>
       <use xlink:href="#DejaVuSans-31" transform="translate(63.623047 0)"/>
      </g>
     </g>
    </g>
    <g id="xtick_9">
     <g id="line2d_19">
      <path d="M 325.641818 379.96 
L 325.641818 32.64 
" clip-path="url(#p94ea19960a)" style="fill: none; stroke: #b0b0b0; stroke-opacity: 0.5; stroke-width: 0.8; stroke-linecap: square"/>
     </g>
     <g id="line2d_20">
      <g>
       <use xlink:href="#mcf373ea33b" x="325.641818" y="379.96" style="stroke: #000000; stroke-width: 0.8"/>
      </g>
     </g>
     <g id="text_9">
      <!-- 22 -->
      <g transform="translate(317.370568 396.837969) scale(0.13 -0.13)">
       <use xlink:href="#DejaVuSans-32"/>
       <use xlink:href="#DejaVuSans-32" transform="translate(63.623047 0)"/>
      </g>
     </g>
    </g>
    <g id="xtick_10">
     <g id="line2d_21">
      <path d="M 354.734545 379.96 
L 354.734545 32.64 
" clip-path="url(#p94ea19960a)" style="fill: none; stroke: #b0b0b0; stroke-opacity: 0.5; stroke-width: 0.8; stroke-linecap: square"/>
     </g>
     <g id="line2d_22">
      <g>
       <use xlink:href="#mcf373ea33b" x="354.734545" y="379.96" style="stroke: #000000; stroke-width: 0.8"/>
      </g>
     </g>
     <g id="text_10">
      <!-- 23 -->
      <g transform="translate(346.463295 396.837969) scale(0.13 -0.13)">
       <defs>
        <path id="DejaVuSans-33" d="M 2597 2516 
Q 3050 2419 3304 2112 
Q 3559 1806 3559 1356 
Q 3559 666 3084 287 
Q 2609 -91 1734 -91 
Q 1441 -91 1130 -33 
Q 819 25 488 141 
L 488 750 
Q 750 597 1062 519 
Q 1375 441 1716 441 
Q 2309 441 2620 675 
Q 2931 909 2931 1356 
Q 2931 1769 2642 2001 
Q 2353 2234 1838 2234 
L 1294 2234 
L 1294 2753 
L 1863 2753 
Q 2328 2753 2575 2939 
Q 2822 3125 2822 3475 
Q 2822 3834 2567 4026 
Q 2313 4219 1838 4219 
Q 1578 4219 1281 4162 
Q 984 4106 628 3988 
L 628 4550 
Q 988 4650 1302 4700 
Q 1616 4750 1894 4750 
Q 2613 4750 3031 4423 
Q 3450 4097 3450 3541 
Q 3450 3153 3228 2886 
Q 3006 2619 2597 2516 
z
" transform="scale(0.015625)"/>
       </defs>
       <use xlink:href="#DejaVuSans-32"/>
       <use xlink:href="#DejaVuSans-33" transform="translate(63.623047 0)"/>
      </g>
     </g>
    </g>
    <g id="xtick_11">
     <g id="line2d_23">
      <path d="M 383.827273 379.96 
L 383.827273 32.64 
" clip-path="url(#p94ea19960a)" style="fill: none; stroke: #b0b0b0; stroke-opacity: 0.5; stroke-width: 0.8; stroke-linecap: square"/>
     </g>
     <g id="line2d_24">
      <g>
       <use xlink:href="#mcf373ea33b" x="383.827273" y="379.96" style="stroke: #000000; stroke-width: 0.8"/>
      </g>
     </g>
     <g id="text_11">
      <!-- 24 -->
      <g transform="translate(375.556023 396.837969) scale(0.13 -0.13)">
       <use xlink:href="#DejaVuSans-32"/>
       <use xlink:href="#DejaVuSans-34" transform="translate(63.623047 0)"/>
      </g>
     </g>
    </g>
    <g id="xtick_12">
     <g id="line2d_25">
      <path d="M 412.92 379.96 
L 412.92 32.64 
" clip-path="url(#p94ea19960a)" style="fill: none; stroke: #b0b0b0; stroke-opacity: 0.5; stroke-width: 0.8; stroke-linecap: square"/>
     </g>
     <g id="line2d_26">
      <g>
       <use xlink:href="#mcf373ea33b" x="412.92" y="379.96" style="stroke: #000000; stroke-width: 0.8"/>
      </g>
     </g>
     <g id="text_12">
      <!-- 25 -->
      <g transform="translate(404.64875 396.837969) scale(0.13 -0.13)">
       <use xlink:href="#DejaVuSans-32"/>
       <use xlink:href="#DejaVuSans-35" transform="translate(63.623047 0)"/>
      </g>
     </g>
    </g>
    <g id="text_13">
     <!-- Magnitud aparente R -->
     <g transform="translate(158.242656 417.21875) scale(0.18 -0.18)">
      <defs>
       <path id="DejaVuSans-4d" d="M 628 4666 
L 1569 4666 
L 2759 1491 
L 3956 4666 
L 4897 4666 
L 4897 0 
L 4281 0 
L 4281 4097 
L 3078 897 
L 2444 897 
L 1241 4097 
L 1241 0 
L 628 0 
L 628 4666 
z
" transform="scale(0.015625)"/>
       <path id="DejaVuSans-61" d="M 2194 1759 
Q 1497 1759 1228 1600 
Q 959 1441 959 1056 
Q 959 750 1161 570 
Q 1363 391 1709 391 
Q 2188 391 2477 730 
Q 2766 1069 2766 1631 
L 2766 1759 
L 2194 1759 
z
M 3341 1997 
L 3341 0 
L 2766 0 
L 2766 531 
Q 2569 213 2275 61 
Q 1981 -91 1556 -91 
Q 1019 -91 701 211 
Q 384 513 384 1019 
Q 384 1609 779 1909 
Q 1175 2209 1959 2209 
L 2766 2209 
L 2766 2266 
Q 2766 2663 2505 2880 
Q 2244 3097 1772 3097 
Q 1472 3097 1187 3025 
Q 903 2953 641 2809 
L 641 3341 
Q 956 3463 1253 3523 
Q 1550 3584 1831 3584 
Q 2591 3584 2966 3190 
Q 3341 2797 3341 1997 
z
" transform="scale(0.015625)"/>
       <path id="DejaVuSans-67" d="M 2906 1791 
Q 2906 2416 2648 2759 
Q 2391 3103 1925 3103 
Q 1463 3103 1205 2759 
Q 947 2416 947 1791 
Q 947 1169 1205 825 
Q 1463 481 1925 481 
Q 2391 481 2648 825 
Q 2906 1169 2906 1791 
z
M 3481 434 
Q 3481 -459 3084 -895 
Q 2688 -1331 1869 -1331 
Q 1566 -1331 1297 -1286 
Q 1028 -1241 775 -1147 
L 775 -588 
Q 1028 -725 1275 -790 
Q 1522 -856 1778 -856 
Q 2344 -856 2625 -561 
Q 2906 -266 2906 331 
L 2906 616 
Q 2728 306 2450 153 
Q 2172 0 1784 0 
Q 1141 0 747 490 
Q 353 981 353 1791 
Q 353 2603 747 3093 
Q 1141 3584 1784 3584 
Q 2172 3584 2450 3431 
Q 2728 3278 2906 2969 
L 2906 3500 
L 3481 3500 
L 3481 434 
z
" transform="scale(0.015625)"/>
       <path id="DejaVuSans-6e" d="M 3513 2113 
L 3513 0 
L 2938 0 
L 2938 2094 
Q 2938 2591 2744 2837 
Q 2550 3084 2163 3084 
Q 1697 3084 1428 2787 
Q 1159 2491 1159 1978 
L 1159 0 
L 581 0 
L 581 3500 
L 1159 3500 
L 1159 2956 
Q 1366 3272 1645 3428 
Q 1925 3584 2291 3584 
Q 2894 3584 3203 3211 
Q 3513 2838 3513 2113 
z
" transform="scale(0.015625)"/>
       <path id="DejaVuSans-69" d="M 603 3500 
L 1178 3500 
L 1178 0 
L 603 0 
L 603 3500 
z
M 603 4863 
L 1178 4863 
L 1178 4134 
L 603 4134 
L 603 4863 
z
" transform="scale(0.015625)"/>
       <path id="DejaVuSans-74" d="M 1172 4494 
L 1172 3500 
L 2356 3500 
L 2356 3053 
L 1172 3053 
L 1172 1153 
Q 1172 725 1289 603 
Q 1406 481 1766 481 
L 2356 481 
L 2356 0 
L 1766 0 
Q 1100 0 847 248 
Q 594 497 594 1153 
L 594 3053 
L 172 3053 
L 172 3500 
L 594 3500 
L 594 4494 
L 1172 4494 
z
" transform="scale(0.015625)"/>
       <path id="DejaVuSans-75" d="M 544 1381 
L 544 3500 
L 1119 3500 
L 1119 1403 
Q 1119 906 1312 657 
Q 1506 409 1894 409 
Q 2359 409 2629 706 
Q 2900 1003 2900 1516 
L 2900 3500 
L 3475 3500 
L 3475 0 
L 2900 0 
L 2900 538 
Q 2691 219 2414 64 
Q 2138 -91 1772 -91 
Q 1169 -91 856 284 
Q 544 659 544 1381 
z
M 1991 3584 
L 1991 3584 
z
" transform="scale(0.015625)"/>
       <path id="DejaVuSans-64" d="M 2906 2969 
L 2906 4863 
L 3481 4863 
L 3481 0 
L 2906 0 
L 2906 525 
Q 2725 213 2448 61 
Q 2172 -91 1784 -91 
Q 1150 -91 751 415 
Q 353 922 353 1747 
Q 353 2572 751 3078 
Q 1150 3584 1784 3584 
Q 2172 3584 2448 3432 
Q 2725 3281 2906 2969 
z
M 947 1747 
Q 947 1113 1208 752 
Q 1469 391 1925 391 
Q 2381 391 2643 752 
Q 2906 1113 2906 1747 
Q 2906 2381 2643 2742 
Q 2381 3103 1925 3103 
Q 1469 3103 1208 2742 
Q 947 2381 947 1747 
z
" transform="scale(0.015625)"/>
       <path id="DejaVuSans-20" transform="scale(0.015625)"/>
       <path id="DejaVuSans-70" d="M 1159 525 
L 1159 -1331 
L 581 -1331 
L 581 3500 
L 1159 3500 
L 1159 2969 
Q 1341 3281 1617 3432 
Q 1894 3584 2278 3584 
Q 2916 3584 3314 3078 
Q 3713 2572 3713 1747 
Q 3713 922 3314 415 
Q 2916 -91 2278 -91 
Q 1894 -91 1617 61 
Q 1341 213 1159 525 
z
M 3116 1747 
Q 3116 2381 2855 2742 
Q 2594 3103 2138 3103 
Q 1681 3103 1420 2742 
Q 1159 2381 1159 1747 
Q 1159 1113 1420 752 
Q 1681 391 2138 391 
Q 2594 391 2855 752 
Q 3116 1113 3116 1747 
z
" transform="scale(0.015625)"/>
       <path id="DejaVuSans-72" d="M 2631 2963 
Q 2534 3019 2420 3045 
Q 2306 3072 2169 3072 
Q 1681 3072 1420 2755 
Q 1159 2438 1159 1844 
L 1159 0 
L 581 0 
L 581 3500 
L 1159 3500 
L 1159 2956 
Q 1341 3275 1631 3429 
Q 1922 3584 2338 3584 
Q 2397 3584 2469 3576 
Q 2541 3569 2628 3553 
L 2631 2963 
z
" transform="scale(0.015625)"/>
       <path id="DejaVuSans-65" d="M 3597 1894 
L 3597 1613 
L 953 1613 
Q 991 1019 1311 708 
Q 1631 397 2203 397 
Q 2534 397 2845 478 
Q 3156 559 3463 722 
L 3463 178 
Q 3153 47 2828 -22 
Q 2503 -91 2169 -91 
Q 1331 -91 842 396 
Q 353 884 353 1716 
Q 353 2575 817 3079 
Q 1281 3584 2069 3584 
Q 2775 3584 3186 3129 
Q 3597 2675 3597 1894 
z
M 3022 2063 
Q 3016 2534 2758 2815 
Q 2500 3097 2075 3097 
Q 1594 3097 1305 2825 
Q 1016 2553 972 2059 
L 3022 2063 
z
" transform="scale(0.015625)"/>
       <path id="DejaVuSans-52" d="M 2841 2188 
Q 3044 2119 3236 1894 
Q 3428 1669 3622 1275 
L 4263 0 
L 3584 0 
L 2988 1197 
Q 2756 1666 2539 1819 
Q 2322 1972 1947 1972 
L 1259 1972 
L 1259 0 
L 628 0 
L 628 4666 
L 2053 4666 
Q 2853 4666 3247 4331 
Q 3641 3997 3641 3322 
Q 3641 2881 3436 2590 
Q 3231 2300 2841 2188 
z
M 1259 4147 
L 1259 2491 
L 2053 2491 
Q 2509 2491 2742 2702 
Q 2975 2913 2975 3322 
Q 2975 3731 2742 3939 
Q 2509 4147 2053 4147 
L 1259 4147 
z
" transform="scale(0.015625)"/>
      </defs>
      <use xlink:href="#DejaVuSans-4d"/>
      <use xlink:href="#DejaVuSans-61" transform="translate(86.279297 0)"/>
      <use xlink:href="#DejaVuSans-67" transform="translate(147.558594 0)"/>
      <use xlink:href="#DejaVuSans-6e" transform="translate(211.035156 0)"/>
      <use xlink:href="#DejaVuSans-69" transform="translate(274.414062 0)"/>
      <use xlink:href="#DejaVuSans-74" transform="translate(302.197266 0)"/>
      <use xlink:href="#DejaVuSans-75" transform="translate(341.40625 0)"/>
      <use xlink:href="#DejaVuSans-64" transform="translate(404.785156 0)"/>
      <use xlink:href="#DejaVuSans-20" transform="translate(468.261719 0)"/>
      <use xlink:href="#DejaVuSans-61" transform="translate(500.048828 0)"/>
      <use xlink:href="#DejaVuSans-70" transform="translate(561.328125 0)"/>
      <use xlink:href="#DejaVuSans-61" transform="translate(624.804688 0)"/>
      <use xlink:href="#DejaVuSans-72" transform="translate(686.083984 0)"/>
      <use xlink:href="#DejaVuSans-65" transform="translate(724.947266 0)"/>
      <use xlink:href="#DejaVuSans-6e" transform="translate(786.470703 0)"/>
      <use xlink:href="#DejaVuSans-74" transform="translate(849.849609 0)"/>
      <use xlink:href="#DejaVuSans-65" transform="translate(889.058594 0)"/>
      <use xlink:href="#DejaVuSans-20" transform="translate(950.582031 0)"/>
      <use xlink:href="#DejaVuSans-52" transform="translate(982.369141 0)"/>
     </g>
    </g>
   </g>
   <g id="matplotlib.axis_2">
    <g id="ytick_1">
     <g id="line2d_27">
      <path d="M 92.9 364.187549 
L 412.92 364.187549 
" clip-path="url(#p94ea19960a)" style="fill: none; stroke: #b0b0b0; stroke-opacity: 0.5; stroke-width: 0.8; stroke-linecap: square"/>
     </g>
     <g id="line2d_28">
      <defs>
       <path id="m495c4ec9f4" d="M 0 0 
L -3.5 0 
" style="stroke: #000000; stroke-width: 0.8"/>
      </defs>
      <g>
       <use xlink:href="#m495c4ec9f4" x="92.9" y="364.187549" style="stroke: #000000; stroke-width: 0.8"/>
      </g>
     </g>
     <g id="text_14">
      <!-- 1 -->
      <g transform="translate(77.62875 369.126534) scale(0.13 -0.13)">
       <use xlink:href="#DejaVuSans-31"/>
      </g>
     </g>
    </g>
    <g id="ytick_2">
     <g id="line2d_29">
      <path d="M 92.9 297.878039 
L 412.92 297.878039 
" clip-path="url(#p94ea19960a)" style="fill: none; stroke: #b0b0b0; stroke-opacity: 0.5; stroke-width: 0.8; stroke-linecap: square"/>
     </g>
     <g id="line2d_30">
      <g>
       <use xlink:href="#m495c4ec9f4" x="92.9" y="297.878039" style="stroke: #000000; stroke-width: 0.8"/>
      </g>
     </g>
     <g id="text_15">
      <!-- 10 -->
      <g transform="translate(69.3575 302.817024) scale(0.13 -0.13)">
       <use xlink:href="#DejaVuSans-31"/>
       <use xlink:href="#DejaVuSans-30" transform="translate(63.623047 0)"/>
      </g>
     </g>
    </g>
    <g id="ytick_3">
     <g id="line2d_31">
      <path d="M 92.9 231.568529 
L 412.92 231.568529 
" clip-path="url(#p94ea19960a)" style="fill: none; stroke: #b0b0b0; stroke-opacity: 0.5; stroke-width: 0.8; stroke-linecap: square"/>
     </g>
     <g id="line2d_32">
      <g>
       <use xlink:href="#m495c4ec9f4" x="92.9" y="231.568529" style="stroke: #000000; stroke-width: 0.8"/>
      </g>
     </g>
     <g id="text_16">
      <!-- 100 -->
      <g transform="translate(61.08625 236.507514) scale(0.13 -0.13)">
       <use xlink:href="#DejaVuSans-31"/>
       <use xlink:href="#DejaVuSans-30" transform="translate(63.623047 0)"/>
       <use xlink:href="#DejaVuSans-30" transform="translate(127.246094 0)"/>
      </g>
     </g>
    </g>
    <g id="ytick_4">
     <g id="line2d_33">
      <path d="M 92.9 165.25902 
L 412.92 165.25902 
" clip-path="url(#p94ea19960a)" style="fill: none; stroke: #b0b0b0; stroke-opacity: 0.5; stroke-width: 0.8; stroke-linecap: square"/>
     </g>
     <g id="line2d_34">
      <g>
       <use xlink:href="#m495c4ec9f4" x="92.9" y="165.25902" style="stroke: #000000; stroke-width: 0.8"/>
      </g>
     </g>
     <g id="text_17">
      <!-- 1,000 -->
      <g transform="translate(48.683438 170.198004) scale(0.13 -0.13)">
       <defs>
        <path id="DejaVuSans-2c" d="M 750 794 
L 1409 794 
L 1409 256 
L 897 -744 
L 494 -744 
L 750 256 
L 750 794 
z
" transform="scale(0.015625)"/>
       </defs>
       <use xlink:href="#DejaVuSans-31"/>
       <use xlink:href="#DejaVuSans-2c" transform="translate(63.623047 0)"/>
       <use xlink:href="#DejaVuSans-30" transform="translate(95.410156 0)"/>
       <use xlink:href="#DejaVuSans-30" transform="translate(159.033203 0)"/>
       <use xlink:href="#DejaVuSans-30" transform="translate(222.65625 0)"/>
      </g>
     </g>
    </g>
    <g id="ytick_5">
     <g id="line2d_35">
      <path d="M 92.9 98.94951 
L 412.92 98.94951 
" clip-path="url(#p94ea19960a)" style="fill: none; stroke: #b0b0b0; stroke-opacity: 0.5; stroke-width: 0.8; stroke-linecap: square"/>
     </g>
     <g id="line2d_36">
      <g>
       <use xlink:href="#m495c4ec9f4" x="92.9" y="98.94951" style="stroke: #000000; stroke-width: 0.8"/>
      </g>
     </g>
     <g id="text_18">
      <!-- 10,000 -->
      <g transform="translate(40.412188 103.888494) scale(0.13 -0.13)">
       <use xlink:href="#DejaVuSans-31"/>
       <use xlink:href="#DejaVuSans-30" transform="translate(63.623047 0)"/>
       <use xlink:href="#DejaVuSans-2c" transform="translate(127.246094 0)"/>
       <use xlink:href="#DejaVuSans-30" transform="translate(159.033203 0)"/>
       <use xlink:href="#DejaVuSans-30" transform="translate(222.65625 0)"/>
       <use xlink:href="#DejaVuSans-30" transform="translate(286.279297 0)"/>
      </g>
     </g>
    </g>
    <g id="ytick_6">
     <g id="line2d_37">
      <path d="M 92.9 32.64 
L 412.92 32.64 
" clip-path="url(#p94ea19960a)" style="fill: none; stroke: #b0b0b0; stroke-opacity: 0.5; stroke-width: 0.8; stroke-linecap: square"/>
     </g>
     <g id="line2d_38">
      <g>
       <use xlink:href="#m495c4ec9f4" x="92.9" y="32.64" style="stroke: #000000; stroke-width: 0.8"/>
      </g>
     </g>
     <g id="text_19">
      <!-- 100,000 -->
      <g transform="translate(32.140938 37.578984) scale(0.13 -0.13)">
       <use xlink:href="#DejaVuSans-31"/>
       <use xlink:href="#DejaVuSans-30" transform="translate(63.623047 0)"/>
       <use xlink:href="#DejaVuSans-30" transform="translate(127.246094 0)"/>
       <use xlink:href="#DejaVuSans-2c" transform="translate(190.869141 0)"/>
       <use xlink:href="#DejaVuSans-30" transform="translate(222.65625 0)"/>
       <use xlink:href="#DejaVuSans-30" transform="translate(286.279297 0)"/>
       <use xlink:href="#DejaVuSans-30" transform="translate(349.902344 0)"/>
      </g>
     </g>
    </g>
    <g id="ytick_7">
     <g id="line2d_39">
      <defs>
       <path id="mdc704abc79" d="M 0 0 
L -2 0 
" style="stroke: #000000; stroke-width: 0.6"/>
      </defs>
      <g>
       <use xlink:href="#mdc704abc79" x="92.9" y="378.898231" style="stroke: #000000; stroke-width: 0.6"/>
      </g>
     </g>
    </g>
    <g id="ytick_8">
     <g id="line2d_40">
      <g>
       <use xlink:href="#mdc704abc79" x="92.9" y="374.459022" style="stroke: #000000; stroke-width: 0.6"/>
      </g>
     </g>
    </g>
    <g id="ytick_9">
     <g id="line2d_41">
      <g>
       <use xlink:href="#mdc704abc79" x="92.9" y="370.613605" style="stroke: #000000; stroke-width: 0.6"/>
      </g>
     </g>
    </g>
    <g id="ytick_10">
     <g id="line2d_42">
      <g>
       <use xlink:href="#mdc704abc79" x="92.9" y="367.221706" style="stroke: #000000; stroke-width: 0.6"/>
      </g>
     </g>
    </g>
    <g id="ytick_11">
     <g id="line2d_43">
      <g>
       <use xlink:href="#mdc704abc79" x="92.9" y="344.226398" style="stroke: #000000; stroke-width: 0.6"/>
      </g>
     </g>
    </g>
    <g id="ytick_12">
     <g id="line2d_44">
      <g>
       <use xlink:href="#mdc704abc79" x="92.9" y="332.549873" style="stroke: #000000; stroke-width: 0.6"/>
      </g>
     </g>
    </g>
    <g id="ytick_13">
     <g id="line2d_45">
      <g>
       <use xlink:href="#mdc704abc79" x="92.9" y="324.265246" style="stroke: #000000; stroke-width: 0.6"/>
      </g>
     </g>
    </g>
    <g id="ytick_14">
     <g id="line2d_46">
      <g>
       <use xlink:href="#mdc704abc79" x="92.9" y="317.839191" style="stroke: #000000; stroke-width: 0.6"/>
      </g>
     </g>
    </g>
    <g id="ytick_15">
     <g id="line2d_47">
      <g>
       <use xlink:href="#mdc704abc79" x="92.9" y="312.588721" style="stroke: #000000; stroke-width: 0.6"/>
      </g>
     </g>
    </g>
    <g id="ytick_16">
     <g id="line2d_48">
      <g>
       <use xlink:href="#mdc704abc79" x="92.9" y="308.149512" style="stroke: #000000; stroke-width: 0.6"/>
      </g>
     </g>
    </g>
    <g id="ytick_17">
     <g id="line2d_49">
      <g>
       <use xlink:href="#mdc704abc79" x="92.9" y="304.304095" style="stroke: #000000; stroke-width: 0.6"/>
      </g>
     </g>
    </g>
    <g id="ytick_18">
     <g id="line2d_50">
      <g>
       <use xlink:href="#mdc704abc79" x="92.9" y="300.912196" style="stroke: #000000; stroke-width: 0.6"/>
      </g>
     </g>
    </g>
    <g id="ytick_19">
     <g id="line2d_51">
      <g>
       <use xlink:href="#mdc704abc79" x="92.9" y="277.916888" style="stroke: #000000; stroke-width: 0.6"/>
      </g>
     </g>
    </g>
    <g id="ytick_20">
     <g id="line2d_52">
      <g>
       <use xlink:href="#mdc704abc79" x="92.9" y="266.240363" style="stroke: #000000; stroke-width: 0.6"/>
      </g>
     </g>
    </g>
    <g id="ytick_21">
     <g id="line2d_53">
      <g>
       <use xlink:href="#mdc704abc79" x="92.9" y="257.955736" style="stroke: #000000; stroke-width: 0.6"/>
      </g>
     </g>
    </g>
    <g id="ytick_22">
     <g id="line2d_54">
      <g>
       <use xlink:href="#mdc704abc79" x="92.9" y="251.529681" style="stroke: #000000; stroke-width: 0.6"/>
      </g>
     </g>
    </g>
    <g id="ytick_23">
     <g id="line2d_55">
      <g>
       <use xlink:href="#mdc704abc79" x="92.9" y="246.279211" style="stroke: #000000; stroke-width: 0.6"/>
      </g>
     </g>
    </g>
    <g id="ytick_24">
     <g id="line2d_56">
      <g>
       <use xlink:href="#mdc704abc79" x="92.9" y="241.840003" style="stroke: #000000; stroke-width: 0.6"/>
      </g>
     </g>
    </g>
    <g id="ytick_25">
     <g id="line2d_57">
      <g>
       <use xlink:href="#mdc704abc79" x="92.9" y="237.994585" style="stroke: #000000; stroke-width: 0.6"/>
      </g>
     </g>
    </g>
    <g id="ytick_26">
     <g id="line2d_58">
      <g>
       <use xlink:href="#mdc704abc79" x="92.9" y="234.602686" style="stroke: #000000; stroke-width: 0.6"/>
      </g>
     </g>
    </g>
    <g id="ytick_27">
     <g id="line2d_59">
      <g>
       <use xlink:href="#mdc704abc79" x="92.9" y="211.607378" style="stroke: #000000; stroke-width: 0.6"/>
      </g>
     </g>
    </g>
    <g id="ytick_28">
     <g id="line2d_60">
      <g>
       <use xlink:href="#mdc704abc79" x="92.9" y="199.930853" style="stroke: #000000; stroke-width: 0.6"/>
      </g>
     </g>
    </g>
    <g id="ytick_29">
     <g id="line2d_61">
      <g>
       <use xlink:href="#mdc704abc79" x="92.9" y="191.646227" style="stroke: #000000; stroke-width: 0.6"/>
      </g>
     </g>
    </g>
    <g id="ytick_30">
     <g id="line2d_62">
      <g>
       <use xlink:href="#mdc704abc79" x="92.9" y="185.220171" style="stroke: #000000; stroke-width: 0.6"/>
      </g>
     </g>
    </g>
    <g id="ytick_31">
     <g id="line2d_63">
      <g>
       <use xlink:href="#mdc704abc79" x="92.9" y="179.969702" style="stroke: #000000; stroke-width: 0.6"/>
      </g>
     </g>
    </g>
    <g id="ytick_32">
     <g id="line2d_64">
      <g>
       <use xlink:href="#mdc704abc79" x="92.9" y="175.530493" style="stroke: #000000; stroke-width: 0.6"/>
      </g>
     </g>
    </g>
    <g id="ytick_33">
     <g id="line2d_65">
      <g>
       <use xlink:href="#mdc704abc79" x="92.9" y="171.685075" style="stroke: #000000; stroke-width: 0.6"/>
      </g>
     </g>
    </g>
    <g id="ytick_34">
     <g id="line2d_66">
      <g>
       <use xlink:href="#mdc704abc79" x="92.9" y="168.293176" style="stroke: #000000; stroke-width: 0.6"/>
      </g>
     </g>
    </g>
    <g id="ytick_35">
     <g id="line2d_67">
      <g>
       <use xlink:href="#mdc704abc79" x="92.9" y="145.297868" style="stroke: #000000; stroke-width: 0.6"/>
      </g>
     </g>
    </g>
    <g id="ytick_36">
     <g id="line2d_68">
      <g>
       <use xlink:href="#mdc704abc79" x="92.9" y="133.621343" style="stroke: #000000; stroke-width: 0.6"/>
      </g>
     </g>
    </g>
    <g id="ytick_37">
     <g id="line2d_69">
      <g>
       <use xlink:href="#mdc704abc79" x="92.9" y="125.336717" style="stroke: #000000; stroke-width: 0.6"/>
      </g>
     </g>
    </g>
    <g id="ytick_38">
     <g id="line2d_70">
      <g>
       <use xlink:href="#mdc704abc79" x="92.9" y="118.910661" style="stroke: #000000; stroke-width: 0.6"/>
      </g>
     </g>
    </g>
    <g id="ytick_39">
     <g id="line2d_71">
      <g>
       <use xlink:href="#mdc704abc79" x="92.9" y="113.660192" style="stroke: #000000; stroke-width: 0.6"/>
      </g>
     </g>
    </g>
    <g id="ytick_40">
     <g id="line2d_72">
      <g>
       <use xlink:href="#mdc704abc79" x="92.9" y="109.220983" style="stroke: #000000; stroke-width: 0.6"/>
      </g>
     </g>
    </g>
    <g id="ytick_41">
     <g id="line2d_73">
      <g>
       <use xlink:href="#mdc704abc79" x="92.9" y="105.375565" style="stroke: #000000; stroke-width: 0.6"/>
      </g>
     </g>
    </g>
    <g id="ytick_42">
     <g id="line2d_74">
      <g>
       <use xlink:href="#mdc704abc79" x="92.9" y="101.983667" style="stroke: #000000; stroke-width: 0.6"/>
      </g>
     </g>
    </g>
    <g id="ytick_43">
     <g id="line2d_75">
      <g>
       <use xlink:href="#mdc704abc79" x="92.9" y="78.988358" style="stroke: #000000; stroke-width: 0.6"/>
      </g>
     </g>
    </g>
    <g id="ytick_44">
     <g id="line2d_76">
      <g>
       <use xlink:href="#mdc704abc79" x="92.9" y="67.311833" style="stroke: #000000; stroke-width: 0.6"/>
      </g>
     </g>
    </g>
    <g id="ytick_45">
     <g id="line2d_77">
      <g>
       <use xlink:href="#mdc704abc79" x="92.9" y="59.027207" style="stroke: #000000; stroke-width: 0.6"/>
      </g>
     </g>
    </g>
    <g id="ytick_46">
     <g id="line2d_78">
      <g>
       <use xlink:href="#mdc704abc79" x="92.9" y="52.601151" style="stroke: #000000; stroke-width: 0.6"/>
      </g>
     </g>
    </g>
    <g id="ytick_47">
     <g id="line2d_79">
      <g>
       <use xlink:href="#mdc704abc79" x="92.9" y="47.350682" style="stroke: #000000; stroke-width: 0.6"/>
      </g>
     </g>
    </g>
    <g id="ytick_48">
     <g id="line2d_80">
      <g>
       <use xlink:href="#mdc704abc79" x="92.9" y="42.911473" style="stroke: #000000; stroke-width: 0.6"/>
      </g>
     </g>
    </g>
    <g id="ytick_49">
     <g id="line2d_81">
      <g>
       <use xlink:href="#mdc704abc79" x="92.9" y="39.066055" style="stroke: #000000; stroke-width: 0.6"/>
      </g>
     </g>
    </g>
    <g id="ytick_50">
     <g id="line2d_82">
      <g>
       <use xlink:href="#mdc704abc79" x="92.9" y="35.674157" style="stroke: #000000; stroke-width: 0.6"/>
      </g>
     </g>
    </g>
    <g id="text_20">
     <!-- Cuentas por bin de 0.5 mag -->
     <g transform="translate(24.3975 331.961094) rotate(-90) scale(0.18 -0.18)">
      <defs>
       <path id="DejaVuSans-43" d="M 4122 4306 
L 4122 3641 
Q 3803 3938 3442 4084 
Q 3081 4231 2675 4231 
Q 1875 4231 1450 3742 
Q 1025 3253 1025 2328 
Q 1025 1406 1450 917 
Q 1875 428 2675 428 
Q 3081 428 3442 575 
Q 3803 722 4122 1019 
L 4122 359 
Q 3791 134 3420 21 
Q 3050 -91 2638 -91 
Q 1578 -91 968 557 
Q 359 1206 359 2328 
Q 359 3453 968 4101 
Q 1578 4750 2638 4750 
Q 3056 4750 3426 4639 
Q 3797 4528 4122 4306 
z
" transform="scale(0.015625)"/>
       <path id="DejaVuSans-73" d="M 2834 3397 
L 2834 2853 
Q 2591 2978 2328 3040 
Q 2066 3103 1784 3103 
Q 1356 3103 1142 2972 
Q 928 2841 928 2578 
Q 928 2378 1081 2264 
Q 1234 2150 1697 2047 
L 1894 2003 
Q 2506 1872 2764 1633 
Q 3022 1394 3022 966 
Q 3022 478 2636 193 
Q 2250 -91 1575 -91 
Q 1294 -91 989 -36 
Q 684 19 347 128 
L 347 722 
Q 666 556 975 473 
Q 1284 391 1588 391 
Q 1994 391 2212 530 
Q 2431 669 2431 922 
Q 2431 1156 2273 1281 
Q 2116 1406 1581 1522 
L 1381 1569 
Q 847 1681 609 1914 
Q 372 2147 372 2553 
Q 372 3047 722 3315 
Q 1072 3584 1716 3584 
Q 2034 3584 2315 3537 
Q 2597 3491 2834 3397 
z
" transform="scale(0.015625)"/>
       <path id="DejaVuSans-6f" d="M 1959 3097 
Q 1497 3097 1228 2736 
Q 959 2375 959 1747 
Q 959 1119 1226 758 
Q 1494 397 1959 397 
Q 2419 397 2687 759 
Q 2956 1122 2956 1747 
Q 2956 2369 2687 2733 
Q 2419 3097 1959 3097 
z
M 1959 3584 
Q 2709 3584 3137 3096 
Q 3566 2609 3566 1747 
Q 3566 888 3137 398 
Q 2709 -91 1959 -91 
Q 1206 -91 779 398 
Q 353 888 353 1747 
Q 353 2609 779 3096 
Q 1206 3584 1959 3584 
z
" transform="scale(0.015625)"/>
       <path id="DejaVuSans-62" d="M 3116 1747 
Q 3116 2381 2855 2742 
Q 2594 3103 2138 3103 
Q 1681 3103 1420 2742 
Q 1159 2381 1159 1747 
Q 1159 1113 1420 752 
Q 1681 391 2138 391 
Q 2594 391 2855 752 
Q 3116 1113 3116 1747 
z
M 1159 2969 
Q 1341 3281 1617 3432 
Q 1894 3584 2278 3584 
Q 2916 3584 3314 3078 
Q 3713 2572 3713 1747 
Q 3713 922 3314 415 
Q 2916 -91 2278 -91 
Q 1894 -91 1617 61 
Q 1341 213 1159 525 
L 1159 0 
L 581 0 
L 581 4863 
L 1159 4863 
L 1159 2969 
z
" transform="scale(0.015625)"/>
       <path id="DejaVuSans-2e" d="M 684 794 
L 1344 794 
L 1344 0 
L 684 0 
L 684 794 
z
" transform="scale(0.015625)"/>
       <path id="DejaVuSans-6d" d="M 3328 2828 
Q 3544 3216 3844 3400 
Q 4144 3584 4550 3584 
Q 5097 3584 5394 3201 
Q 5691 2819 5691 2113 
L 5691 0 
L 5113 0 
L 5113 2094 
Q 5113 2597 4934 2840 
Q 4756 3084 4391 3084 
Q 3944 3084 3684 2787 
Q 3425 2491 3425 1978 
L 3425 0 
L 2847 0 
L 2847 2094 
Q 2847 2600 2669 2842 
Q 2491 3084 2119 3084 
Q 1678 3084 1418 2786 
Q 1159 2488 1159 1978 
L 1159 0 
L 581 0 
L 581 3500 
L 1159 3500 
L 1159 2956 
Q 1356 3278 1631 3431 
Q 1906 3584 2284 3584 
Q 2666 3584 2933 3390 
Q 3200 3197 3328 2828 
z
" transform="scale(0.015625)"/>
      </defs>
      <use xlink:href="#DejaVuSans-43"/>
      <use xlink:href="#DejaVuSans-75" transform="translate(69.824219 0)"/>
      <use xlink:href="#DejaVuSans-65" transform="translate(133.203125 0)"/>
      <use xlink:href="#DejaVuSans-6e" transform="translate(194.726562 0)"/>
      <use xlink:href="#DejaVuSans-74" transform="translate(258.105469 0)"/>
      <use xlink:href="#DejaVuSans-61" transform="translate(297.314453 0)"/>
      <use xlink:href="#DejaVuSans-73" transform="translate(358.59375 0)"/>
      <use xlink:href="#DejaVuSans-20" transform="translate(410.693359 0)"/>
      <use xlink:href="#DejaVuSans-70" transform="translate(442.480469 0)"/>
      <use xlink:href="#DejaVuSans-6f" transform="translate(505.957031 0)"/>
      <use xlink:href="#DejaVuSans-72" transform="translate(567.138672 0)"/>
      <use xlink:href="#DejaVuSans-20" transform="translate(608.251953 0)"/>
      <use xlink:href="#DejaVuSans-62" transform="translate(640.039062 0)"/>
      <use xlink:href="#DejaVuSans-69" transform="translate(703.515625 0)"/>
      <use xlink:href="#DejaVuSans-6e" transform="translate(731.298828 0)"/>
      <use xlink:href="#DejaVuSans-20" transform="translate(794.677734 0)"/>
      <use xlink:href="#DejaVuSans-64" transform="translate(826.464844 0)"/>
      <use xlink:href="#DejaVuSans-65" transform="translate(889.941406 0)"/>
      <use xlink:href="#DejaVuSans-20" transform="translate(951.464844 0)"/>
      <use xlink:href="#DejaVuSans-30" transform="translate(983.251953 0)"/>
      <use xlink:href="#DejaVuSans-2e" transform="translate(1046.875 0)"/>
      <use xlink:href="#DejaVuSans-35" transform="translate(1078.662109 0)"/>
      <use xlink:href="#DejaVuSans-20" transform="translate(1142.285156 0)"/>
      <use xlink:href="#DejaVuSans-6d" transform="translate(1174.072266 0)"/>
      <use xlink:href="#DejaVuSans-61" transform="translate(1271.484375 0)"/>
      <use xlink:href="#DejaVuSans-67" transform="translate(1332.763672 0)"/>
     </g>
    </g>
   </g>
   <g id="patch_3">
    <path d="M 92.9 433 
L 92.9 183.596538 
L 107.446364 183.596538 
L 107.446364 161.867121 
L 121.992727 161.867121 
L 121.992727 145.733109 
L 136.539091 145.733109 
L 136.539091 135.980849 
L 151.085455 135.980849 
L 151.085455 129.805939 
L 165.631818 129.805939 
L 165.631818 124.492477 
L 180.178182 124.492477 
L 180.178182 119.229193 
L 194.724545 119.229193 
L 194.724545 115.518763 
L 209.270909 115.518763 
L 209.270909 110.495302 
L 223.817273 110.495302 
L 223.817273 108.991517 
L 238.363636 108.991517 
L 238.363636 110.503903 
L 252.91 110.503903 
L 252.91 117.026903 
L 267.456364 117.026903 
L 267.456364 123.180462 
L 282.002727 123.180462 
L 282.002727 124.276553 
L 296.549091 124.276553 
L 296.549091 127.026834 
L 311.095455 127.026834 
L 311.095455 129.546459 
L 325.641818 129.546459 
L 325.641818 136.934156 
L 340.188182 136.934156 
L 340.188182 170.590236 
L 354.734545 170.590236 
L 354.734545 275.172159 
L 369.280909 275.172159 
L 369.280909 317.839191 
L 383.827273 317.839191 
L 383.827273 364.187549 
L 398.373636 364.187549 
L 398.373636 364.187549 
L 412.92 364.187549 
L 412.92 433 
" clip-path="url(#p94ea19960a)" style="fill: none; opacity: 0"/>
   </g>
   <g id="patch_4">
    <path d="M 92.9 433 
L 92.9 163.391451 
L 107.446364 163.391451 
L 107.446364 156.046378 
L 121.992727 156.046378 
L 121.992727 149.391188 
L 136.539091 149.391188 
L 136.539091 143.094891 
L 151.085455 143.094891 
L 151.085455 135.250448 
L 165.631818 135.250448 
L 165.631818 128.668383 
L 180.178182 128.668383 
L 180.178182 121.702657 
L 194.724545 121.702657 
L 194.724545 115.693358 
L 209.270909 115.693358 
L 209.270909 109.118317 
L 223.817273 109.118317 
L 223.817273 103.162586 
L 238.363636 103.162586 
L 238.363636 98.050788 
L 252.91 98.050788 
L 252.91 92.426856 
L 267.456364 92.426856 
L 267.456364 88.458572 
L 282.002727 88.458572 
L 282.002727 84.186464 
L 296.549091 84.186464 
L 296.549091 80.342986 
L 311.095455 80.342986 
L 311.095455 77.401495 
L 325.641818 77.401495 
L 325.641818 74.801202 
L 340.188182 74.801202 
L 340.188182 73.160558 
L 354.734545 73.160558 
L 354.734545 71.966067 
L 369.280909 71.966067 
L 369.280909 71.36424 
L 383.827273 71.36424 
L 383.827273 71.443909 
L 398.373636 71.443909 
L 398.373636 71.773769 
L 412.92 71.773769 
L 412.92 433 
" clip-path="url(#p94ea19960a)" style="fill: none; opacity: 0"/>
   </g>
   <g id="patch_5">
    <path d="M 92.9 433 
L 92.9 163.337522 
L 107.446364 163.337522 
L 107.446364 156.467715 
L 121.992727 156.467715 
L 121.992727 151.383964 
L 136.539091 151.383964 
L 136.539091 142.908754 
L 151.085455 142.908754 
L 151.085455 135.639061 
L 165.631818 135.639061 
L 165.631818 129.009863 
L 180.178182 129.009863 
L 180.178182 123.060471 
L 194.724545 123.060471 
L 194.724545 116.349777 
L 209.270909 116.349777 
L 209.270909 109.739877 
L 223.817273 109.739877 
L 223.817273 104.458009 
L 238.363636 104.458009 
L 238.363636 98.201915 
L 252.91 98.201915 
L 252.91 92.857131 
L 267.456364 92.857131 
L 267.456364 88.318873 
L 282.002727 88.318873 
L 282.002727 84.053964 
L 296.549091 84.053964 
L 296.549091 80.66321 
L 311.095455 80.66321 
L 311.095455 77.356561 
L 325.641818 77.356561 
L 325.641818 75.572152 
L 340.188182 75.572152 
L 340.188182 73.740289 
L 354.734545 73.740289 
L 354.734545 72.247256 
L 369.280909 72.247256 
L 369.280909 71.202266 
L 383.827273 71.202266 
L 383.827273 71.638471 
L 398.373636 71.638471 
L 398.373636 76.615152 
L 412.92 76.615152 
L 412.92 433 
" clip-path="url(#p94ea19960a)" style="fill: none; opacity: 0"/>
   </g>
   <g id="patch_6">
    <path d="M 92.9 433 
L 92.9 162.227743 
L 107.446364 162.227743 
L 107.446364 152.013352 
L 121.992727 152.013352 
L 121.992727 145.776997 
L 136.539091 145.776997 
L 136.539091 139.867972 
L 151.085455 139.867972 
L 151.085455 133.640548 
L 165.631818 133.640548 
L 165.631818 127.511878 
L 180.178182 127.511878 
L 180.178182 122.61818 
L 194.724545 122.61818 
L 194.724545 117.276143 
L 209.270909 117.276143 
L 209.270909 113.085213 
L 223.817273 113.085213 
L 223.817273 108.453752 
L 238.363636 108.453752 
L 238.363636 103.867847 
L 252.91 103.867847 
L 252.91 99.672702 
L 267.456364 99.672702 
L 267.456364 96.108078 
L 282.002727 96.108078 
L 282.002727 91.84947 
L 296.549091 91.84947 
L 296.549091 89.489067 
L 311.095455 89.489067 
L 311.095455 87.309485 
L 325.641818 87.309485 
L 325.641818 85.44683 
L 340.188182 85.44683 
L 340.188182 83.975099 
L 354.734545 83.975099 
L 354.734545 83.218106 
L 369.280909 83.218106 
L 369.280909 82.78445 
L 383.827273 82.78445 
L 383.827273 83.126529 
L 398.373636 83.126529 
L 398.373636 84.248621 
L 412.92 84.248621 
L 412.92 433 
" clip-path="url(#p94ea19960a)" style="fill: none; opacity: 0"/>
   </g>
   <g id="patch_7">
    <path d="M 92.9 433 
L 92.9 74.589083 
L 107.446364 74.589083 
L 107.446364 70.332128 
L 121.992727 70.332128 
L 121.992727 66.561432 
L 136.539091 66.561432 
L 136.539091 62.751927 
L 151.085455 62.751927 
L 151.085455 59.349378 
L 165.631818 59.349378 
L 165.631818 56.151224 
L 180.178182 56.151224 
L 180.178182 53.089651 
L 194.724545 53.089651 
L 194.724545 50.531869 
L 209.270909 50.531869 
L 209.270909 49.154014 
L 223.817273 49.154014 
L 223.817273 48.738532 
L 238.363636 48.738532 
L 238.363636 49.960282 
L 252.91 49.960282 
L 252.91 53.046334 
L 267.456364 53.046334 
L 267.456364 58.742084 
L 282.002727 58.742084 
L 282.002727 65.653744 
L 296.549091 65.653744 
L 296.549091 74.291536 
L 311.095455 74.291536 
L 311.095455 83.887913 
L 325.641818 83.887913 
L 325.641818 94.89213 
L 340.188182 94.89213 
L 340.188182 107.268714 
L 354.734545 107.268714 
L 354.734545 123.080435 
L 369.280909 123.080435 
L 369.280909 145.645533 
L 383.827273 145.645533 
L 383.827273 199.172971 
L 398.373636 199.172971 
L 398.373636 433 
" clip-path="url(#p94ea19960a)" style="fill: none; opacity: 0"/>
   </g>
   <g id="line2d_83">
    <path d="M 100.173182 162.227743 
L 114.719545 152.013352 
L 129.265909 145.776997 
L 143.812273 139.867972 
L 158.358636 133.640548 
L 172.905 127.511878 
L 187.451364 122.61818 
L 201.997727 117.276143 
L 216.544091 113.085213 
L 231.090455 108.453752 
L 245.636818 103.867847 
L 260.183182 99.672702 
L 274.729545 96.108078 
L 289.275909 91.84947 
L 303.822273 89.489067 
L 318.368636 87.309485 
L 332.915 85.44683 
L 347.461364 83.975099 
L 362.007727 83.218106 
L 376.554091 82.78445 
L 391.100455 83.126529 
L 405.646818 84.248621 
" clip-path="url(#p94ea19960a)" style="fill: none; stroke: #0000ff; stroke-width: 3; stroke-linecap: square"/>
   </g>
   <g id="patch_8">
    <path d="M 92.9 379.96 
L 92.9 32.64 
" style="fill: none; stroke: #000000; stroke-width: 0.8; stroke-linejoin: miter; stroke-linecap: square"/>
   </g>
   <g id="patch_9">
    <path d="M 412.92 379.96 
L 412.92 32.64 
" style="fill: none; stroke: #000000; stroke-width: 0.8; stroke-linejoin: miter; stroke-linecap: square"/>
   </g>
   <g id="patch_10">
    <path d="M 92.9 379.96 
L 412.92 379.96 
" style="fill: none; stroke: #000000; stroke-width: 0.8; stroke-linejoin: miter; stroke-linecap: square"/>
   </g>
   <g id="patch_11">
    <path d="M 92.9 32.64 
L 412.92 32.64 
" style="fill: none; stroke: #000000; stroke-width: 0.8; stroke-linejoin: miter; stroke-linecap: square"/>
   </g>
   <g id="line2d_84">
    <path d="M 100.173182 163.337522 
L 114.719545 156.467715 
L 129.265909 151.383964 
L 143.812273 142.908754 
L 158.358636 135.639061 
L 172.905 129.009863 
L 187.451364 123.060471 
L 201.997727 116.349777 
L 216.544091 109.739877 
L 231.090455 104.458009 
L 245.636818 98.201915 
L 260.183182 92.857131 
L 274.729545 88.318873 
L 289.275909 84.053964 
L 303.822273 80.66321 
L 318.368636 77.356561 
L 332.915 75.572152 
L 347.461364 73.740289 
L 362.007727 72.247256 
L 376.554091 71.202266 
L 391.100455 71.638471 
L 405.646818 76.615152 
" clip-path="url(#p94ea19960a)" style="fill: none; stroke: #ff0000; stroke-width: 3; stroke-linecap: square"/>
   </g>
   <g id="text_21">
    <!-- LOCOS II -->
    <g transform="translate(209.5475 26.64) scale(0.2 -0.2)">
     <defs>
      <path id="DejaVuSans-4c" d="M 628 4666 
L 1259 4666 
L 1259 531 
L 3531 531 
L 3531 0 
L 628 0 
L 628 4666 
z
" transform="scale(0.015625)"/>
      <path id="DejaVuSans-4f" d="M 2522 4238 
Q 1834 4238 1429 3725 
Q 1025 3213 1025 2328 
Q 1025 1447 1429 934 
Q 1834 422 2522 422 
Q 3209 422 3611 934 
Q 4013 1447 4013 2328 
Q 4013 3213 3611 3725 
Q 3209 4238 2522 4238 
z
M 2522 4750 
Q 3503 4750 4090 4092 
Q 4678 3434 4678 2328 
Q 4678 1225 4090 567 
Q 3503 -91 2522 -91 
Q 1538 -91 948 565 
Q 359 1222 359 2328 
Q 359 3434 948 4092 
Q 1538 4750 2522 4750 
z
" transform="scale(0.015625)"/>
      <path id="DejaVuSans-53" d="M 3425 4513 
L 3425 3897 
Q 3066 4069 2747 4153 
Q 2428 4238 2131 4238 
Q 1616 4238 1336 4038 
Q 1056 3838 1056 3469 
Q 1056 3159 1242 3001 
Q 1428 2844 1947 2747 
L 2328 2669 
Q 3034 2534 3370 2195 
Q 3706 1856 3706 1288 
Q 3706 609 3251 259 
Q 2797 -91 1919 -91 
Q 1588 -91 1214 -16 
Q 841 59 441 206 
L 441 856 
Q 825 641 1194 531 
Q 1563 422 1919 422 
Q 2459 422 2753 634 
Q 3047 847 3047 1241 
Q 3047 1584 2836 1778 
Q 2625 1972 2144 2069 
L 1759 2144 
Q 1053 2284 737 2584 
Q 422 2884 422 3419 
Q 422 4038 858 4394 
Q 1294 4750 2059 4750 
Q 2388 4750 2728 4690 
Q 3069 4631 3425 4513 
z
" transform="scale(0.015625)"/>
      <path id="DejaVuSans-49" d="M 628 4666 
L 1259 4666 
L 1259 0 
L 628 0 
L 628 4666 
z
" transform="scale(0.015625)"/>
     </defs>
     <use xlink:href="#DejaVuSans-4c"/>
     <use xlink:href="#DejaVuSans-4f" transform="translate(52.087891 0)"/>
     <use xlink:href="#DejaVuSans-43" transform="translate(130.798828 0)"/>
     <use xlink:href="#DejaVuSans-4f" transform="translate(200.623047 0)"/>
     <use xlink:href="#DejaVuSans-53" transform="translate(279.333984 0)"/>
     <use xlink:href="#DejaVuSans-20" transform="translate(342.810547 0)"/>
     <use xlink:href="#DejaVuSans-49" transform="translate(374.597656 0)"/>
     <use xlink:href="#DejaVuSans-49" transform="translate(404.089844 0)"/>
    </g>
   </g>
   <g id="line2d_85">
    <path d="M 100.173182 163.391451 
L 114.719545 156.046378 
L 129.265909 149.391188 
L 143.812273 143.094891 
L 158.358636 135.250448 
L 172.905 128.668383 
L 187.451364 121.702657 
L 201.997727 115.693358 
L 216.544091 109.118317 
L 231.090455 103.162586 
L 245.636818 98.050788 
L 260.183182 92.426856 
L 274.729545 88.458572 
L 289.275909 84.186464 
L 303.822273 80.342986 
L 318.368636 77.401495 
L 332.915 74.801202 
L 347.461364 73.160558 
L 362.007727 71.966067 
L 376.554091 71.36424 
L 391.100455 71.443909 
L 405.646818 71.773769 
" clip-path="url(#p94ea19960a)" style="fill: none; stroke: #ffa500; stroke-width: 3; stroke-linecap: square"/>
   </g>
   <g id="LineCollection_1">
    <path d="M 100.173182 184.876654 
L 100.173182 182.370913 
" clip-path="url(#p94ea19960a)" style="fill: none; stroke: #000000; stroke-width: 2"/>
    <path d="M 114.719545 162.738766 
L 114.719545 161.021085 
" clip-path="url(#p94ea19960a)" style="fill: none; stroke: #000000; stroke-width: 2"/>
    <path d="M 129.265909 146.389353 
L 129.265909 145.091486 
" clip-path="url(#p94ea19960a)" style="fill: none; stroke: #000000; stroke-width: 2"/>
    <path d="M 143.812273 136.533886 
L 143.812273 135.438232 
" clip-path="url(#p94ea19960a)" style="fill: none; stroke: #000000; stroke-width: 2"/>
    <path d="M 158.358636 130.302265 
L 158.358636 129.318022 
" clip-path="url(#p94ea19960a)" style="fill: none; stroke: #000000; stroke-width: 2"/>
    <path d="M 172.905 124.944718 
L 172.905 124.047229 
" clip-path="url(#p94ea19960a)" style="fill: none; stroke: #000000; stroke-width: 2"/>
    <path d="M 187.451364 119.641654 
L 187.451364 118.822556 
" clip-path="url(#p94ea19960a)" style="fill: none; stroke: #000000; stroke-width: 2"/>
    <path d="M 201.997727 115.905317 
L 201.997727 115.137328 
" clip-path="url(#p94ea19960a)" style="fill: none; stroke: #000000; stroke-width: 2"/>
    <path d="M 216.544091 110.84937 
L 216.544091 110.145534 
" clip-path="url(#p94ea19960a)" style="fill: none; stroke: #000000; stroke-width: 2"/>
    <path d="M 231.090455 109.336405 
L 231.090455 108.65071 
" clip-path="url(#p94ea19960a)" style="fill: none; stroke: #000000; stroke-width: 2"/>
    <path d="M 245.636818 110.858025 
L 245.636818 110.154084 
" clip-path="url(#p94ea19960a)" style="fill: none; stroke: #000000; stroke-width: 2"/>
    <path d="M 260.183182 117.423784 
L 260.183182 116.635418 
" clip-path="url(#p94ea19960a)" style="fill: none; stroke: #000000; stroke-width: 2"/>
    <path d="M 274.729545 123.622439 
L 274.729545 122.745166 
" clip-path="url(#p94ea19960a)" style="fill: none; stroke: #000000; stroke-width: 2"/>
    <path d="M 289.275909 124.727089 
L 289.275909 123.832958 
" clip-path="url(#p94ea19960a)" style="fill: none; stroke: #000000; stroke-width: 2"/>
    <path d="M 303.822273 127.499587 
L 303.822273 126.561717 
" clip-path="url(#p94ea19960a)" style="fill: none; stroke: #000000; stroke-width: 2"/>
    <path d="M 318.368636 130.040535 
L 318.368636 129.060718 
" clip-path="url(#p94ea19960a)" style="fill: none; stroke: #000000; stroke-width: 2"/>
    <path d="M 332.915 137.496514 
L 332.915 136.38257 
" clip-path="url(#p94ea19960a)" style="fill: none; stroke: #000000; stroke-width: 2"/>
    <path d="M 347.461364 171.606962 
L 347.461364 169.608187 
" clip-path="url(#p94ea19960a)" style="fill: none; stroke: #000000; stroke-width: 2"/>
    <path d="M 362.007727 282.077369 
L 362.007727 269.606626 
" clip-path="url(#p94ea19960a)" style="fill: none; stroke: #000000; stroke-width: 2"/>
    <path d="M 376.554091 334.910086 
L 376.554091 307.194351 
" clip-path="url(#p94ea19960a)" style="fill: none; stroke: #000000; stroke-width: 2"/>
    <path d="M 391.100455 433 
L 391.100455 344.226398 
" clip-path="url(#p94ea19960a)" style="fill: none; stroke: #000000; stroke-width: 2"/>
    <path d="M 405.646818 433 
L 405.646818 344.226398 
" clip-path="url(#p94ea19960a)" style="fill: none; stroke: #000000; stroke-width: 2"/>
   </g>
   <g id="line2d_86">
    <defs>
     <path id="mbb391f29bd" d="M 2 0 
L -2 -0 
" style="stroke: #000000"/>
    </defs>
    <g clip-path="url(#p94ea19960a)">
     <use xlink:href="#mbb391f29bd" x="100.173182" y="184.876654" style="stroke: #000000"/>
     <use xlink:href="#mbb391f29bd" x="114.719545" y="162.738766" style="stroke: #000000"/>
     <use xlink:href="#mbb391f29bd" x="129.265909" y="146.389353" style="stroke: #000000"/>
     <use xlink:href="#mbb391f29bd" x="143.812273" y="136.533886" style="stroke: #000000"/>
     <use xlink:href="#mbb391f29bd" x="158.358636" y="130.302265" style="stroke: #000000"/>
     <use xlink:href="#mbb391f29bd" x="172.905" y="124.944718" style="stroke: #000000"/>
     <use xlink:href="#mbb391f29bd" x="187.451364" y="119.641654" style="stroke: #000000"/>
     <use xlink:href="#mbb391f29bd" x="201.997727" y="115.905317" style="stroke: #000000"/>
     <use xlink:href="#mbb391f29bd" x="216.544091" y="110.84937" style="stroke: #000000"/>
     <use xlink:href="#mbb391f29bd" x="231.090455" y="109.336405" style="stroke: #000000"/>
     <use xlink:href="#mbb391f29bd" x="245.636818" y="110.858025" style="stroke: #000000"/>
     <use xlink:href="#mbb391f29bd" x="260.183182" y="117.423784" style="stroke: #000000"/>
     <use xlink:href="#mbb391f29bd" x="274.729545" y="123.622439" style="stroke: #000000"/>
     <use xlink:href="#mbb391f29bd" x="289.275909" y="124.727089" style="stroke: #000000"/>
     <use xlink:href="#mbb391f29bd" x="303.822273" y="127.499587" style="stroke: #000000"/>
     <use xlink:href="#mbb391f29bd" x="318.368636" y="130.040535" style="stroke: #000000"/>
     <use xlink:href="#mbb391f29bd" x="332.915" y="137.496514" style="stroke: #000000"/>
     <use xlink:href="#mbb391f29bd" x="347.461364" y="171.606962" style="stroke: #000000"/>
     <use xlink:href="#mbb391f29bd" x="362.007727" y="282.077369" style="stroke: #000000"/>
     <use xlink:href="#mbb391f29bd" x="376.554091" y="334.910086" style="stroke: #000000"/>
     <use xlink:href="#mbb391f29bd" x="383.301168" y="31105" style="stroke: #000000"/>
    </g>
   </g>
   <g id="line2d_87">
    <g clip-path="url(#p94ea19960a)">
     <use xlink:href="#mbb391f29bd" x="100.173182" y="182.370913" style="stroke: #000000"/>
     <use xlink:href="#mbb391f29bd" x="114.719545" y="161.021085" style="stroke: #000000"/>
     <use xlink:href="#mbb391f29bd" x="129.265909" y="145.091486" style="stroke: #000000"/>
     <use xlink:href="#mbb391f29bd" x="143.812273" y="135.438232" style="stroke: #000000"/>
     <use xlink:href="#mbb391f29bd" x="158.358636" y="129.318022" style="stroke: #000000"/>
     <use xlink:href="#mbb391f29bd" x="172.905" y="124.047229" style="stroke: #000000"/>
     <use xlink:href="#mbb391f29bd" x="187.451364" y="118.822556" style="stroke: #000000"/>
     <use xlink:href="#mbb391f29bd" x="201.997727" y="115.137328" style="stroke: #000000"/>
     <use xlink:href="#mbb391f29bd" x="216.544091" y="110.145534" style="stroke: #000000"/>
     <use xlink:href="#mbb391f29bd" x="231.090455" y="108.65071" style="stroke: #000000"/>
     <use xlink:href="#mbb391f29bd" x="245.636818" y="110.154084" style="stroke: #000000"/>
     <use xlink:href="#mbb391f29bd" x="260.183182" y="116.635418" style="stroke: #000000"/>
     <use xlink:href="#mbb391f29bd" x="274.729545" y="122.745166" style="stroke: #000000"/>
     <use xlink:href="#mbb391f29bd" x="289.275909" y="123.832958" style="stroke: #000000"/>
     <use xlink:href="#mbb391f29bd" x="303.822273" y="126.561717" style="stroke: #000000"/>
     <use xlink:href="#mbb391f29bd" x="318.368636" y="129.060718" style="stroke: #000000"/>
     <use xlink:href="#mbb391f29bd" x="332.915" y="136.38257" style="stroke: #000000"/>
     <use xlink:href="#mbb391f29bd" x="347.461364" y="169.608187" style="stroke: #000000"/>
     <use xlink:href="#mbb391f29bd" x="362.007727" y="269.606626" style="stroke: #000000"/>
     <use xlink:href="#mbb391f29bd" x="376.554091" y="307.194351" style="stroke: #000000"/>
     <use xlink:href="#mbb391f29bd" x="391.100455" y="344.226398" style="stroke: #000000"/>
     <use xlink:href="#mbb391f29bd" x="405.646818" y="344.226398" style="stroke: #000000"/>
    </g>
   </g>
   <g id="legend_1">
    <g id="patch_12">
     <path d="M 148.679453 373.46 
L 357.140547 373.46 
Q 359.740547 373.46 359.740547 370.86 
L 359.740547 276.752187 
Q 359.740547 274.152187 357.140547 274.152187 
L 148.679453 274.152187 
Q 146.079453 274.152187 146.079453 276.752187 
L 146.079453 370.86 
Q 146.079453 373.46 148.679453 373.46 
z
" style="fill: #ffffff; opacity: 0.8; stroke: #cccccc; stroke-linejoin: miter"/>
    </g>
    <g id="line2d_88">
     <path d="M 151.279453 284.680156 
L 164.279453 284.680156 
L 177.279453 284.680156 
" style="fill: none; stroke: #ffa500; stroke-width: 3; stroke-linecap: square"/>
    </g>
    <g id="text_22">
     <!-- TRILEGAL (UBVRIJHK) -->
     <g transform="translate(187.679453 289.230156) scale(0.13 -0.13)">
      <defs>
       <path id="DejaVuSans-54" d="M -19 4666 
L 3928 4666 
L 3928 4134 
L 2272 4134 
L 2272 0 
L 1638 0 
L 1638 4134 
L -19 4134 
L -19 4666 
z
" transform="scale(0.015625)"/>
       <path id="DejaVuSans-45" d="M 628 4666 
L 3578 4666 
L 3578 4134 
L 1259 4134 
L 1259 2753 
L 3481 2753 
L 3481 2222 
L 1259 2222 
L 1259 531 
L 3634 531 
L 3634 0 
L 628 0 
L 628 4666 
z
" transform="scale(0.015625)"/>
       <path id="DejaVuSans-47" d="M 3809 666 
L 3809 1919 
L 2778 1919 
L 2778 2438 
L 4434 2438 
L 4434 434 
Q 4069 175 3628 42 
Q 3188 -91 2688 -91 
Q 1594 -91 976 548 
Q 359 1188 359 2328 
Q 359 3472 976 4111 
Q 1594 4750 2688 4750 
Q 3144 4750 3555 4637 
Q 3966 4525 4313 4306 
L 4313 3634 
Q 3963 3931 3569 4081 
Q 3175 4231 2741 4231 
Q 1884 4231 1454 3753 
Q 1025 3275 1025 2328 
Q 1025 1384 1454 906 
Q 1884 428 2741 428 
Q 3075 428 3337 486 
Q 3600 544 3809 666 
z
" transform="scale(0.015625)"/>
       <path id="DejaVuSans-41" d="M 2188 4044 
L 1331 1722 
L 3047 1722 
L 2188 4044 
z
M 1831 4666 
L 2547 4666 
L 4325 0 
L 3669 0 
L 3244 1197 
L 1141 1197 
L 716 0 
L 50 0 
L 1831 4666 
z
" transform="scale(0.015625)"/>
       <path id="DejaVuSans-28" d="M 1984 4856 
Q 1566 4138 1362 3434 
Q 1159 2731 1159 2009 
Q 1159 1288 1364 580 
Q 1569 -128 1984 -844 
L 1484 -844 
Q 1016 -109 783 600 
Q 550 1309 550 2009 
Q 550 2706 781 3412 
Q 1013 4119 1484 4856 
L 1984 4856 
z
" transform="scale(0.015625)"/>
       <path id="DejaVuSans-55" d="M 556 4666 
L 1191 4666 
L 1191 1831 
Q 1191 1081 1462 751 
Q 1734 422 2344 422 
Q 2950 422 3222 751 
Q 3494 1081 3494 1831 
L 3494 4666 
L 4128 4666 
L 4128 1753 
Q 4128 841 3676 375 
Q 3225 -91 2344 -91 
Q 1459 -91 1007 375 
Q 556 841 556 1753 
L 556 4666 
z
" transform="scale(0.015625)"/>
       <path id="DejaVuSans-42" d="M 1259 2228 
L 1259 519 
L 2272 519 
Q 2781 519 3026 730 
Q 3272 941 3272 1375 
Q 3272 1813 3026 2020 
Q 2781 2228 2272 2228 
L 1259 2228 
z
M 1259 4147 
L 1259 2741 
L 2194 2741 
Q 2656 2741 2882 2914 
Q 3109 3088 3109 3444 
Q 3109 3797 2882 3972 
Q 2656 4147 2194 4147 
L 1259 4147 
z
M 628 4666 
L 2241 4666 
Q 2963 4666 3353 4366 
Q 3744 4066 3744 3513 
Q 3744 3084 3544 2831 
Q 3344 2578 2956 2516 
Q 3422 2416 3680 2098 
Q 3938 1781 3938 1306 
Q 3938 681 3513 340 
Q 3088 0 2303 0 
L 628 0 
L 628 4666 
z
" transform="scale(0.015625)"/>
       <path id="DejaVuSans-56" d="M 1831 0 
L 50 4666 
L 709 4666 
L 2188 738 
L 3669 4666 
L 4325 4666 
L 2547 0 
L 1831 0 
z
" transform="scale(0.015625)"/>
       <path id="DejaVuSans-4a" d="M 628 4666 
L 1259 4666 
L 1259 325 
Q 1259 -519 939 -900 
Q 619 -1281 -91 -1281 
L -331 -1281 
L -331 -750 
L -134 -750 
Q 284 -750 456 -515 
Q 628 -281 628 325 
L 628 4666 
z
" transform="scale(0.015625)"/>
       <path id="DejaVuSans-48" d="M 628 4666 
L 1259 4666 
L 1259 2753 
L 3553 2753 
L 3553 4666 
L 4184 4666 
L 4184 0 
L 3553 0 
L 3553 2222 
L 1259 2222 
L 1259 0 
L 628 0 
L 628 4666 
z
" transform="scale(0.015625)"/>
       <path id="DejaVuSans-4b" d="M 628 4666 
L 1259 4666 
L 1259 2694 
L 3353 4666 
L 4166 4666 
L 1850 2491 
L 4331 0 
L 3500 0 
L 1259 2247 
L 1259 0 
L 628 0 
L 628 4666 
z
" transform="scale(0.015625)"/>
       <path id="DejaVuSans-29" d="M 513 4856 
L 1013 4856 
Q 1481 4119 1714 3412 
Q 1947 2706 1947 2009 
Q 1947 1309 1714 600 
Q 1481 -109 1013 -844 
L 513 -844 
Q 928 -128 1133 580 
Q 1338 1288 1338 2009 
Q 1338 2731 1133 3434 
Q 928 4138 513 4856 
z
" transform="scale(0.015625)"/>
      </defs>
      <use xlink:href="#DejaVuSans-54"/>
      <use xlink:href="#DejaVuSans-52" transform="translate(61.083984 0)"/>
      <use xlink:href="#DejaVuSans-49" transform="translate(130.566406 0)"/>
      <use xlink:href="#DejaVuSans-4c" transform="translate(160.058594 0)"/>
      <use xlink:href="#DejaVuSans-45" transform="translate(215.771484 0)"/>
      <use xlink:href="#DejaVuSans-47" transform="translate(278.955078 0)"/>
      <use xlink:href="#DejaVuSans-41" transform="translate(356.445312 0)"/>
      <use xlink:href="#DejaVuSans-4c" transform="translate(424.853516 0)"/>
      <use xlink:href="#DejaVuSans-20" transform="translate(480.566406 0)"/>
      <use xlink:href="#DejaVuSans-28" transform="translate(512.353516 0)"/>
      <use xlink:href="#DejaVuSans-55" transform="translate(551.367188 0)"/>
      <use xlink:href="#DejaVuSans-42" transform="translate(624.560547 0)"/>
      <use xlink:href="#DejaVuSans-56" transform="translate(690.039062 0)"/>
      <use xlink:href="#DejaVuSans-52" transform="translate(758.447266 0)"/>
      <use xlink:href="#DejaVuSans-49" transform="translate(827.929688 0)"/>
      <use xlink:href="#DejaVuSans-4a" transform="translate(857.421875 0)"/>
      <use xlink:href="#DejaVuSans-48" transform="translate(886.914062 0)"/>
      <use xlink:href="#DejaVuSans-4b" transform="translate(962.109375 0)"/>
      <use xlink:href="#DejaVuSans-29" transform="translate(1027.685547 0)"/>
     </g>
    </g>
    <g id="line2d_89">
     <path d="M 151.279453 303.761719 
L 164.279453 303.761719 
L 177.279453 303.761719 
" style="fill: none; stroke: #ff0000; stroke-width: 3; stroke-linecap: square"/>
    </g>
    <g id="text_23">
     <!-- TRILEGAL (UBVRIJHKLMN) -->
     <g transform="translate(187.679453 308.311719) scale(0.13 -0.13)">
      <defs>
       <path id="DejaVuSans-4e" d="M 628 4666 
L 1478 4666 
L 3547 763 
L 3547 4666 
L 4159 4666 
L 4159 0 
L 3309 0 
L 1241 3903 
L 1241 0 
L 628 0 
L 628 4666 
z
" transform="scale(0.015625)"/>
      </defs>
      <use xlink:href="#DejaVuSans-54"/>
      <use xlink:href="#DejaVuSans-52" transform="translate(61.083984 0)"/>
      <use xlink:href="#DejaVuSans-49" transform="translate(130.566406 0)"/>
      <use xlink:href="#DejaVuSans-4c" transform="translate(160.058594 0)"/>
      <use xlink:href="#DejaVuSans-45" transform="translate(215.771484 0)"/>
      <use xlink:href="#DejaVuSans-47" transform="translate(278.955078 0)"/>
      <use xlink:href="#DejaVuSans-41" transform="translate(356.445312 0)"/>
      <use xlink:href="#DejaVuSans-4c" transform="translate(424.853516 0)"/>
      <use xlink:href="#DejaVuSans-20" transform="translate(480.566406 0)"/>
      <use xlink:href="#DejaVuSans-28" transform="translate(512.353516 0)"/>
      <use xlink:href="#DejaVuSans-55" transform="translate(551.367188 0)"/>
      <use xlink:href="#DejaVuSans-42" transform="translate(624.560547 0)"/>
      <use xlink:href="#DejaVuSans-56" transform="translate(690.039062 0)"/>
      <use xlink:href="#DejaVuSans-52" transform="translate(758.447266 0)"/>
      <use xlink:href="#DejaVuSans-49" transform="translate(827.929688 0)"/>
      <use xlink:href="#DejaVuSans-4a" transform="translate(857.421875 0)"/>
      <use xlink:href="#DejaVuSans-48" transform="translate(886.914062 0)"/>
      <use xlink:href="#DejaVuSans-4b" transform="translate(962.109375 0)"/>
      <use xlink:href="#DejaVuSans-4c" transform="translate(1027.685547 0)"/>
      <use xlink:href="#DejaVuSans-4d" transform="translate(1083.398438 0)"/>
      <use xlink:href="#DejaVuSans-4e" transform="translate(1169.677734 0)"/>
      <use xlink:href="#DejaVuSans-29" transform="translate(1244.482422 0)"/>
     </g>
    </g>
    <g id="line2d_90">
     <path d="M 151.279453 322.843281 
L 164.279453 322.843281 
L 177.279453 322.843281 
" style="fill: none; stroke: #0000ff; stroke-width: 3; stroke-linecap: square"/>
    </g>
    <g id="text_24">
     <!-- Besancon (UBVRIJHKL) -->
     <g transform="translate(187.679453 327.393281) scale(0.13 -0.13)">
      <defs>
       <path id="DejaVuSans-63" d="M 3122 3366 
L 3122 2828 
Q 2878 2963 2633 3030 
Q 2388 3097 2138 3097 
Q 1578 3097 1268 2742 
Q 959 2388 959 1747 
Q 959 1106 1268 751 
Q 1578 397 2138 397 
Q 2388 397 2633 464 
Q 2878 531 3122 666 
L 3122 134 
Q 2881 22 2623 -34 
Q 2366 -91 2075 -91 
Q 1284 -91 818 406 
Q 353 903 353 1747 
Q 353 2603 823 3093 
Q 1294 3584 2113 3584 
Q 2378 3584 2631 3529 
Q 2884 3475 3122 3366 
z
" transform="scale(0.015625)"/>
      </defs>
      <use xlink:href="#DejaVuSans-42"/>
      <use xlink:href="#DejaVuSans-65" transform="translate(68.603516 0)"/>
      <use xlink:href="#DejaVuSans-73" transform="translate(130.126953 0)"/>
      <use xlink:href="#DejaVuSans-61" transform="translate(182.226562 0)"/>
      <use xlink:href="#DejaVuSans-6e" transform="translate(243.505859 0)"/>
      <use xlink:href="#DejaVuSans-63" transform="translate(306.884766 0)"/>
      <use xlink:href="#DejaVuSans-6f" transform="translate(361.865234 0)"/>
      <use xlink:href="#DejaVuSans-6e" transform="translate(423.046875 0)"/>
      <use xlink:href="#DejaVuSans-20" transform="translate(486.425781 0)"/>
      <use xlink:href="#DejaVuSans-28" transform="translate(518.212891 0)"/>
      <use xlink:href="#DejaVuSans-55" transform="translate(557.226562 0)"/>
      <use xlink:href="#DejaVuSans-42" transform="translate(630.419922 0)"/>
      <use xlink:href="#DejaVuSans-56" transform="translate(695.898438 0)"/>
      <use xlink:href="#DejaVuSans-52" transform="translate(764.306641 0)"/>
      <use xlink:href="#DejaVuSans-49" transform="translate(833.789062 0)"/>
      <use xlink:href="#DejaVuSans-4a" transform="translate(863.28125 0)"/>
      <use xlink:href="#DejaVuSans-48" transform="translate(892.773438 0)"/>
      <use xlink:href="#DejaVuSans-4b" transform="translate(967.96875 0)"/>
      <use xlink:href="#DejaVuSans-4c" transform="translate(1033.544922 0)"/>
      <use xlink:href="#DejaVuSans-29" transform="translate(1089.257812 0)"/>
     </g>
    </g>
    <g id="line2d_91">
     <path d="M 151.279453 341.924844 
L 164.279453 341.924844 
L 177.279453 341.924844 
" style="fill: none; stroke: #008000; stroke-width: 3; stroke-linecap: square"/>
    </g>
    <g id="text_25">
     <!-- GalMod (UBVRIJHK) -->
     <g transform="translate(187.679453 346.474844) scale(0.13 -0.13)">
      <defs>
       <path id="DejaVuSans-6c" d="M 603 4863 
L 1178 4863 
L 1178 0 
L 603 0 
L 603 4863 
z
" transform="scale(0.015625)"/>
      </defs>
      <use xlink:href="#DejaVuSans-47"/>
      <use xlink:href="#DejaVuSans-61" transform="translate(77.490234 0)"/>
      <use xlink:href="#DejaVuSans-6c" transform="translate(138.769531 0)"/>
      <use xlink:href="#DejaVuSans-4d" transform="translate(166.552734 0)"/>
      <use xlink:href="#DejaVuSans-6f" transform="translate(252.832031 0)"/>
      <use xlink:href="#DejaVuSans-64" transform="translate(314.013672 0)"/>
      <use xlink:href="#DejaVuSans-20" transform="translate(377.490234 0)"/>
      <use xlink:href="#DejaVuSans-28" transform="translate(409.277344 0)"/>
      <use xlink:href="#DejaVuSans-55" transform="translate(448.291016 0)"/>
      <use xlink:href="#DejaVuSans-42" transform="translate(521.484375 0)"/>
      <use xlink:href="#DejaVuSans-56" transform="translate(586.962891 0)"/>
      <use xlink:href="#DejaVuSans-52" transform="translate(655.371094 0)"/>
      <use xlink:href="#DejaVuSans-49" transform="translate(724.853516 0)"/>
      <use xlink:href="#DejaVuSans-4a" transform="translate(754.345703 0)"/>
      <use xlink:href="#DejaVuSans-48" transform="translate(783.837891 0)"/>
      <use xlink:href="#DejaVuSans-4b" transform="translate(859.033203 0)"/>
      <use xlink:href="#DejaVuSans-29" transform="translate(924.609375 0)"/>
     </g>
    </g>
    <g id="LineCollection_2">
     <path d="M 164.279453 367.506406 
L 164.279453 354.506406 
" style="fill: none; stroke: #000000; stroke-width: 2"/>
    </g>
    <g id="line2d_92">
     <g>
      <use xlink:href="#mbb391f29bd" x="164.279453" y="367.506406" style="stroke: #000000"/>
     </g>
    </g>
    <g id="line2d_93">
     <g>
      <use xlink:href="#mbb391f29bd" x="164.279453" y="354.506406" style="stroke: #000000"/>
     </g>
    </g>
    <g id="line2d_94"/>
    <g id="line2d_95">
     <defs>
      <path id="md124914af8" d="M 0 3 
C 0.795609 3 1.55874 2.683901 2.12132 2.12132 
C 2.683901 1.55874 3 0.795609 3 0 
C 3 -0.795609 2.683901 -1.55874 2.12132 -2.12132 
C 1.55874 -2.683901 0.795609 -3 0 -3 
C -0.795609 -3 -1.55874 -2.683901 -2.12132 -2.12132 
C -2.683901 -1.55874 -3 -0.795609 -3 0 
C -3 0.795609 -2.683901 1.55874 -2.12132 2.12132 
C -1.55874 2.683901 -0.795609 3 0 3 
z
" style="stroke: #000000"/>
     </defs>
     <g>
      <use xlink:href="#md124914af8" x="164.279453" y="361.006406" style="stroke: #000000"/>
     </g>
    </g>
    <g id="text_26">
     <!-- LOCOS -->
     <g transform="translate(187.679453 365.556406) scale(0.13 -0.13)">
      <use xlink:href="#DejaVuSans-4c"/>
      <use xlink:href="#DejaVuSans-4f" transform="translate(52.087891 0)"/>
      <use xlink:href="#DejaVuSans-43" transform="translate(130.798828 0)"/>
      <use xlink:href="#DejaVuSans-4f" transform="translate(200.623047 0)"/>
      <use xlink:href="#DejaVuSans-53" transform="translate(279.333984 0)"/>
     </g>
    </g>
   </g>
   <g id="line2d_96">
    <g clip-path="url(#p94ea19960a)">
     <use xlink:href="#md124914af8" x="100.173182" y="183.596538" style="stroke: #000000"/>
     <use xlink:href="#md124914af8" x="114.719545" y="161.867121" style="stroke: #000000"/>
     <use xlink:href="#md124914af8" x="129.265909" y="145.733109" style="stroke: #000000"/>
     <use xlink:href="#md124914af8" x="143.812273" y="135.980849" style="stroke: #000000"/>
     <use xlink:href="#md124914af8" x="158.358636" y="129.805939" style="stroke: #000000"/>
     <use xlink:href="#md124914af8" x="172.905" y="124.492477" style="stroke: #000000"/>
     <use xlink:href="#md124914af8" x="187.451364" y="119.229193" style="stroke: #000000"/>
     <use xlink:href="#md124914af8" x="201.997727" y="115.518763" style="stroke: #000000"/>
     <use xlink:href="#md124914af8" x="216.544091" y="110.495302" style="stroke: #000000"/>
     <use xlink:href="#md124914af8" x="231.090455" y="108.991517" style="stroke: #000000"/>
     <use xlink:href="#md124914af8" x="245.636818" y="110.503903" style="stroke: #000000"/>
     <use xlink:href="#md124914af8" x="260.183182" y="117.026903" style="stroke: #000000"/>
     <use xlink:href="#md124914af8" x="274.729545" y="123.180462" style="stroke: #000000"/>
     <use xlink:href="#md124914af8" x="289.275909" y="124.276553" style="stroke: #000000"/>
     <use xlink:href="#md124914af8" x="303.822273" y="127.026834" style="stroke: #000000"/>
     <use xlink:href="#md124914af8" x="318.368636" y="129.546459" style="stroke: #000000"/>
     <use xlink:href="#md124914af8" x="332.915" y="136.934156" style="stroke: #000000"/>
     <use xlink:href="#md124914af8" x="347.461364" y="170.590236" style="stroke: #000000"/>
     <use xlink:href="#md124914af8" x="362.007727" y="275.172159" style="stroke: #000000"/>
     <use xlink:href="#md124914af8" x="376.554091" y="317.839191" style="stroke: #000000"/>
     <use xlink:href="#md124914af8" x="391.100455" y="364.187549" style="stroke: #000000"/>
     <use xlink:href="#md124914af8" x="405.646818" y="364.187549" style="stroke: #000000"/>
    </g>
   </g>
  </g>
 </g>
 <defs>
  <clipPath id="p94ea19960a">
   <rect x="92.9" y="32.64" width="320.02" height="347.32"/>
  </clipPath>
 </defs>
</svg>
